<svg width="45" height="45" viewBox="0 0 45 45" fill="none" xmlns="http://www.w3.org/2000/svg">
<circle cx="22.5" cy="22.5" r="22.5" fill="#323E48"/>
<path d="M10.8936 16.9917L13.7344 35.0735H31.802L34.6286 16.9917H28.5776L27.1998 27.0908H27.0294L24.9556 16.9917H20.5523L18.4501 27.0908H18.2797L16.9303 16.9917H10.8936Z" fill="white"/>
<path d="M14.3442 15.0316H16.9436V13.6112C16.9436 11.0402 16.0345 9.26471 12.5829 9.26471C10.6796 9.26471 9.92676 10.7987 9.92676 11.7362C9.92676 14.2503 12.0148 15.0316 14.3442 15.0316Z" fill="white"/>
<path d="M35.5803 11.7362C35.5803 10.7987 34.8275 9.26471 32.9241 9.26471C29.4725 9.26471 28.5635 11.0402 28.5635 13.6112V15.0316H31.177C33.5065 15.0316 35.5945 14.2503 35.5945 11.7362H35.5803Z" fill="white"/>
<path d="M21.9008 15.0316C25.3524 15.0316 26.2615 13.2561 26.2615 10.6851V9.26471H23.6479C21.3185 9.26471 19.2305 10.0459 19.2305 12.5601C19.2305 13.4975 19.9833 15.0316 21.8866 15.0316H21.9008Z" fill="white"/>
</svg>
