<svg width="239" height="82" viewBox="0 0 239 82" fill="none" xmlns="http://www.w3.org/2000/svg">
<g clip-path="url(#clip0_509_9029)">
<path d="M239 79.4526H0V81.0666H239V79.4526Z" fill="#323E48"/>
<path d="M10.3259 80.0761C9.07875 80.0761 8.23507 80.0027 7.59314 79.8744C6.67609 79.6543 6.07084 79.3241 5.57564 78.7189C4.67694 77.5634 4.29178 76.6097 4.27344 75.5826C4.27344 74.5922 4.67694 73.7118 5.02541 73.0516C5.22716 72.6664 5.48394 72.2446 5.75905 71.7677C5.97914 71.4009 6.21757 70.979 6.47434 70.5388C9.42722 65.22 11.8849 55.7194 13.0404 45.1C13.2972 42.6974 13.4439 40.2947 13.4439 37.9838C13.4439 30.9409 12.215 25.2552 11.0045 20.615C9.72068 15.6813 8.18005 9.04188 8.18005 5.46541C8.18005 4.78679 8.23507 3.83307 8.52852 3.13611L8.76695 2.69593L9.92243 0.696777L11.9032 2.56755C12.4902 3.2645 13.0404 4.73177 13.5356 6.95102C13.8107 8.12483 14.0491 9.44538 14.3242 10.8209C14.636 12.49 14.9662 14.214 15.3513 15.718C15.7181 17.1852 16.0483 18.2123 16.4151 18.9276C16.5618 19.2027 16.6902 19.4045 16.8186 19.5512C16.8369 19.4778 16.8553 19.3678 16.892 19.2577C16.9653 18.8726 17.002 18.359 17.002 17.6804C17.002 16.1581 16.8003 14.1773 16.6169 12.2699C16.4151 10.2524 16.2134 8.14317 16.2134 6.45581C16.2134 5.20863 16.3234 4.21823 16.5618 3.52127L16.9103 2.80598L17.2221 2.21907L18.5793 1.68718L19.7898 2.14571C20.4318 2.58589 20.8353 3.42957 21.0553 4.05316C21.6606 5.6855 22.0091 8.41829 22.3942 11.2795C22.5226 12.2148 22.6327 13.1502 22.761 14.0673C22.9628 15.4612 23.2562 17.2219 23.6964 18.4691C23.8798 18.9826 24.0449 19.3311 24.2467 19.5512L24.3934 19.6796C24.3934 19.6796 24.4484 19.3495 24.5401 18.8909C24.6318 18.3774 24.6868 17.6988 24.6868 16.8368C24.6868 15.4428 24.5585 13.7555 24.4484 12.1231C24.32 10.4174 24.21 8.67506 24.21 7.17111C24.21 5.70384 24.3384 4.54836 24.5951 3.74136C24.7052 3.37455 24.9436 2.80598 25.3654 2.38414L25.6222 2.14571L26.5759 1.76055H26.9611C28.0616 1.79723 28.6485 2.49418 28.9969 2.98939C29.6022 3.88809 30.0424 5.44706 30.2991 7.62963C30.4826 9.04188 30.5926 10.6375 30.7026 12.1965C30.7943 13.5537 30.8861 14.911 31.0328 16.1215C31.1978 17.5154 31.3813 18.4324 31.6197 19.0927C31.6931 19.2761 31.7481 19.4228 31.8214 19.5329C31.8948 19.3861 31.9682 19.1844 32.0599 18.9093C32.4817 17.387 32.5734 14.7642 32.6468 12.2148C32.6835 11.2428 32.7018 10.2891 32.7568 9.35367C32.8669 7.15277 33.0503 5.61213 33.3621 4.51168C33.5638 3.74136 33.8573 3.11777 34.1874 2.67759L34.3892 2.42082L36.0032 1.44875L37.5438 2.34746L37.7455 2.60423C38.3508 3.31952 38.5892 4.49334 38.6993 5.35536C38.8277 6.23572 38.8827 7.33618 38.8827 8.80345C38.8827 9.83054 38.846 10.931 38.8277 12.0314C38.791 13.0952 38.7726 14.1773 38.7726 15.1861C38.7726 16.3599 38.8093 17.8455 39.0477 18.8909C39.1211 19.2027 39.2128 19.4412 39.3045 19.5879C39.3045 19.5695 39.3412 19.5329 39.3595 19.4962C39.7997 18.6708 39.9831 17.2219 40.1115 15.773C40.2216 14.4891 40.2582 13.0769 40.3133 11.6646C40.3683 10.124 40.4233 8.6017 40.5334 7.28115C40.6617 5.74052 40.8635 4.58504 41.1569 3.7597C41.2853 3.37455 41.5421 2.82432 41.9456 2.40248L42.5875 1.9623L43.1011 1.68718L43.6696 1.74221C44.7334 1.83391 45.2286 2.67759 45.3937 2.98939C45.8339 3.79639 46.109 5.04357 46.2374 6.74927C46.3474 8.1982 46.3474 9.88556 46.3474 11.4812V12.8751C46.3474 14.8743 46.3474 16.8001 46.5492 18.194C46.6042 18.6525 46.6776 19.001 46.7693 19.2577C46.8059 19.1477 46.8426 19.0377 46.8793 18.8909C47.3011 17.3503 47.4295 14.7092 47.5579 12.1415C47.5946 11.1878 47.6496 10.234 47.7046 9.31699C47.8514 7.13443 48.0348 5.59379 48.3282 4.49334C48.4566 3.9798 48.695 3.22782 49.0985 2.69593L49.7038 2.14571L51.2444 0.971891L52.3265 2.58589C52.5283 2.87934 52.7117 3.28284 52.8401 3.70468C53.3169 5.11693 53.6471 7.75802 53.9039 12.2148L54.0322 14.5258C54.1606 16.8734 54.289 19.0743 54.4908 20.3399C54.6192 21.0185 54.7109 23.4395 54.7659 27.4745C54.8209 31.1243 54.8392 35.8196 54.8392 40.8083C54.8392 48.0346 54.8026 55.8661 54.7659 61.882C54.7292 67.3842 54.6925 71.3642 54.6925 72.0061V72.0978C54.6558 75.1608 53.5554 77.1966 51.1894 78.5355C49.4287 79.5075 46.971 79.9844 43.633 79.9844H16.085C14.7094 79.9844 13.5356 80.0027 12.5085 80.0211C11.6648 80.0211 10.9495 80.0761 10.3076 80.0394L10.3259 80.0761ZM8.32677 76.2612C8.84032 76.3712 9.51893 76.3896 10.436 76.4079C11.0229 76.4079 11.7015 76.4079 12.4535 76.3896C13.4806 76.3896 14.6911 76.3529 16.085 76.3529H43.5596C46.2374 76.3529 48.2182 76.0228 49.392 75.3808C50.4007 74.8123 50.9877 74.0786 51.006 72.1162C51.006 71.3458 51.0427 67.3659 51.0794 61.9003C51.116 55.8845 51.1527 48.0713 51.1527 40.8633C51.1527 35.8929 51.1344 31.1977 51.0794 27.5845C51.0243 23.091 50.9143 21.3486 50.8593 21.0368C50.7676 20.4316 50.6759 19.7163 50.6025 18.9093C50.5291 19.2944 50.4558 19.6612 50.3457 19.9914C50.089 20.8534 49.7221 21.8071 48.8785 22.5591C48.2732 23.091 47.5029 23.3294 46.6592 23.4028C45.9439 23.4028 45.1553 23.1277 44.5683 22.6508C44.1465 22.3023 43.798 21.8622 43.5229 21.3119C43.3212 20.8901 43.1744 20.4316 43.0644 20.0097C42.9177 20.4682 42.7526 20.8901 42.5325 21.2936C41.8539 22.5774 40.5884 23.4028 39.2312 23.4028H39.1395C38.094 23.4028 36.9936 22.8342 36.3333 21.9172C35.8931 21.3119 35.6363 20.6517 35.4896 20.1014C35.2328 20.9634 34.8477 21.8988 33.949 22.6325C33.3437 23.1277 32.5551 23.4028 31.7664 23.4028C31.7664 23.4028 31.7297 23.4028 31.7114 23.4028C30.776 23.4028 29.8039 22.9626 29.1253 22.2106C28.5751 21.6054 28.2633 20.9084 28.0982 20.4499C28.0616 20.3399 28.0249 20.2298 27.9882 20.1014C27.8231 20.8167 27.5113 21.6054 26.8694 22.3023C26.2091 22.9993 25.2921 23.4211 24.2833 23.4028C23.1645 23.4028 22.1191 22.8709 21.3671 21.9355C20.982 21.477 20.6518 20.9084 20.3584 20.1931C20.2117 20.8901 19.9365 21.6971 19.2579 22.394C18.6343 23.036 17.7356 23.3661 16.8369 23.3844C16.3051 23.3844 15.7915 23.2561 15.2963 23.0176C16.25 27.2177 17.057 32.1697 17.057 38.0205C17.057 40.4598 16.9103 42.9908 16.6352 45.5219C15.4247 56.5998 12.8019 66.6322 9.62897 72.3546C9.35386 72.8315 9.09709 73.2716 8.85866 73.6751C8.60189 74.097 8.38179 74.4638 8.21673 74.7939C7.90493 75.3808 7.88659 75.5826 7.88659 75.6009C7.88659 75.6926 7.99664 75.9127 8.25341 76.2979L8.32677 76.2612Z" fill="#323E48"/>
<path d="M232.728 79.3975C232.104 79.3609 231.407 79.3975 230.582 79.3792C229.555 79.3792 228.381 79.3425 227.005 79.3425H199.439C196.119 79.3425 193.662 78.8657 191.919 77.9119C189.553 76.573 188.435 74.5189 188.416 71.4559C188.416 70.7773 188.38 66.779 188.343 61.2401C188.306 55.2243 188.27 47.411 188.27 40.1664C188.27 35.1777 188.288 30.4641 188.343 26.8326C188.398 22.7976 188.49 20.3766 188.618 19.6613C188.82 18.4325 188.948 16.2316 189.077 13.8839L189.205 11.573C189.462 7.11614 189.792 4.47505 190.287 3.02612C190.397 2.64097 190.599 2.23747 190.801 1.94401L191.901 0.348355L194.029 2.0724C194.414 2.60428 194.67 3.35626 194.799 3.88814C195.074 4.9886 195.276 6.51089 195.422 8.7118C195.477 9.62884 195.533 10.5826 195.569 11.518C195.698 14.0857 195.826 16.7451 196.248 18.3041C196.284 18.4325 196.321 18.5425 196.358 18.6342C196.45 18.3408 196.523 18.0106 196.578 17.5704C196.761 16.1765 196.78 14.2691 196.78 12.2516V10.8577C196.78 9.26202 196.78 7.57466 196.89 6.12573C197 4.42003 197.275 3.17285 197.697 2.40253C197.898 2.05406 198.394 1.19204 199.512 1.11867L200.044 1.08199L201.182 1.77894C201.585 2.18244 201.823 2.75101 201.97 3.15451C202.245 3.94317 202.465 5.09864 202.594 6.65762C202.704 7.97816 202.759 9.50045 202.814 11.0411C202.869 12.4533 202.906 13.8656 203.016 15.1678C203.144 16.5984 203.309 18.0473 203.749 18.8543C203.823 18.9827 203.878 19.0377 203.896 19.0561C203.878 18.9093 203.969 18.6526 204.061 18.2674C204.299 17.2403 204.336 15.7547 204.336 14.5809C204.336 13.5721 204.299 12.49 204.281 11.4262C204.244 10.3258 204.226 9.22534 204.226 8.19825C204.226 6.73098 204.281 5.61219 204.409 4.73183C204.52 3.88814 204.776 2.71433 205.363 1.99903L205.565 1.74226L207.106 0.843559L208.72 1.81563L208.921 2.0724C209.27 2.51258 209.545 3.11783 209.747 3.90649C210.04 5.00694 210.242 6.54757 210.352 8.74848C210.407 9.68386 210.425 10.6559 210.462 11.6097C210.535 14.159 210.627 16.7818 211.049 18.3224C211.122 18.5792 211.196 18.7809 211.269 18.9093C211.342 18.7993 211.397 18.6526 211.471 18.4508C211.709 17.8089 211.893 16.8735 212.058 15.4796C212.204 14.2691 212.296 12.9119 212.388 11.5546C212.498 10.014 212.608 8.4 212.791 6.98775C213.048 4.80519 213.488 3.26455 214.075 2.38419C214.442 1.85231 215.047 1.17369 216.129 1.13701H216.514L217.45 1.52217L217.707 1.7606C218.147 2.18244 218.385 2.75101 218.514 3.15451C218.77 3.92483 218.899 5.06196 218.88 6.54757C218.88 8.05152 218.752 9.81225 218.642 11.4996C218.532 13.1319 218.404 14.8193 218.404 16.2132C218.404 17.0752 218.44 17.7355 218.55 18.2674C218.642 18.7259 218.715 18.9827 218.844 19.1111V18.9277C219.027 18.6892 219.211 18.3408 219.394 17.8272C219.834 16.58 220.128 14.8193 220.329 13.4254C220.458 12.5267 220.586 11.573 220.696 10.6376C221.063 7.75807 221.43 5.04362 222.035 3.3746C222.255 2.76935 222.64 1.92567 223.301 1.48549L223.557 1.33876L224.273 1.00863L225.74 1.50383L226.565 2.8794C226.804 3.57635 226.914 4.54842 226.914 5.81394C226.914 7.5013 226.712 9.59216 226.51 11.628C226.327 13.5538 226.125 15.5346 226.125 17.0569C226.125 17.7355 226.162 18.2491 226.235 18.6526C226.253 18.7443 226.272 18.836 226.29 18.9093C226.455 18.7443 226.565 18.5425 226.712 18.2857C227.06 17.5888 227.409 16.5617 227.776 15.0944C228.143 13.5905 228.473 11.8664 228.785 10.1974C229.041 8.82184 229.298 7.5013 229.573 6.32748C230.068 4.12658 230.6 2.65931 231.206 1.96235L231.481 1.68724L233.168 0.0732422L234.58 2.54926C234.874 3.24621 234.929 4.21828 234.929 4.89689C234.929 8.45502 233.406 15.0944 232.104 20.0281C230.894 24.6684 229.665 30.354 229.665 37.3969C229.665 39.7079 229.793 42.0922 230.068 44.5132C231.224 55.1326 233.682 64.6331 236.634 69.952C236.891 70.3922 237.13 70.814 237.35 71.1808C237.643 71.6577 237.882 72.0979 238.083 72.483C238.597 73.4368 238.835 74.2254 238.835 74.9957C238.835 76.0228 238.432 76.9765 237.57 78.0953C237.038 78.7373 236.451 79.0674 235.552 79.2875C234.892 79.4342 234.048 79.5076 232.746 79.5076L232.728 79.3975ZM199.531 75.6743H227.005C228.399 75.6743 229.61 75.6927 230.637 75.711C231.426 75.711 232.123 75.7294 232.709 75.7294C233.682 75.7294 234.342 75.6927 234.69 75.6193C234.709 75.6193 234.727 75.6193 234.745 75.6193C235.02 75.2525 235.13 75.0141 235.13 74.904C235.13 74.904 235.13 74.7023 234.819 74.1154C234.635 73.7669 234.415 73.4001 234.158 72.9782C233.92 72.5747 233.663 72.1346 233.388 71.6577C230.197 65.9353 227.574 55.9029 226.364 44.825C226.088 42.2939 225.942 39.7629 225.942 37.3236C225.942 31.4728 226.749 26.5391 227.702 22.3207C227.207 22.5592 226.639 22.6509 226.107 22.6875C225.263 22.6509 224.364 22.3391 223.741 21.6971C223.062 21.0002 222.787 20.1748 222.64 19.4962C222.347 20.2115 222.017 20.7801 221.632 21.2386C220.861 22.174 219.816 22.6875 218.66 22.6875C217.725 22.7059 216.79 22.3024 216.129 21.5871C215.487 20.8901 215.176 20.0831 215.011 19.3862C214.974 19.4962 214.937 19.6063 214.9 19.7163C214.717 20.1932 214.424 20.8901 213.837 21.5137C213.195 22.2474 212.241 22.6325 211.214 22.6692C210.499 22.6325 209.673 22.3941 209.068 21.8989C208.151 21.1469 207.766 20.1932 207.527 19.3678C207.381 19.9364 207.124 20.5967 206.665 21.2203C206.005 22.1373 204.886 22.6875 203.768 22.6692C202.447 22.7242 201.163 21.8622 200.485 20.5417C200.283 20.1565 200.099 19.7347 199.971 19.2945C199.861 19.7347 199.714 20.1748 199.512 20.5967C199.237 21.1653 198.889 21.5871 198.467 21.9356C197.898 22.4124 197.128 22.5958 196.358 22.6692C195.588 22.6325 194.781 22.3757 194.175 21.8439C193.313 21.0735 192.946 20.1382 192.708 19.2945C192.616 18.946 192.525 18.5792 192.451 18.1757C192.378 18.9827 192.305 19.698 192.213 20.2849C192.158 20.6334 192.048 22.3574 191.993 26.8693C191.938 30.5008 191.919 35.196 191.919 40.1664C191.919 47.3927 191.956 55.2059 191.993 61.2217C192.029 66.7607 192.066 70.759 192.066 71.3459L190.232 71.4376H192.066C192.084 73.4001 192.69 74.1154 193.698 74.7023C194.854 75.3442 196.78 75.656 199.421 75.656H199.512L199.531 75.6743ZM211.416 19.0561C211.416 19.0561 211.416 19.0561 211.434 19.0561H211.397H211.416Z" fill="#323E48"/>
<path d="M83.433 80.0397H65.0554C62.0842 80.0397 59.4064 79.3611 57.499 78.1139C55.2797 76.6467 54.1609 74.6475 54.1426 72.1715C54.1426 71.9697 54.5094 56.6368 54.5094 41.4138C54.5094 32.6286 54.381 25.6407 54.1426 20.6336C54.1426 18.4877 54.2893 14.0676 54.6928 10.216C54.9312 7.94173 55.2247 6.14432 55.5548 4.86046C55.7016 4.31023 55.94 3.53992 56.2701 2.95301L56.5085 2.60453L58.0859 0.513672L59.6448 2.91633C60.0667 3.70499 60.3051 5.20894 60.3601 7.40984C60.3968 8.5103 60.3968 9.73913 60.3968 11.0047C60.3968 12.7287 60.3968 14.4894 60.4885 16.0301C60.5435 16.9104 60.6536 18.2126 60.947 19.093C61.0021 19.2947 61.0754 19.4415 61.1488 19.5515C61.2222 19.4048 61.2955 19.203 61.3872 18.9279C61.8091 17.424 61.8824 14.8196 61.9741 12.2885C62.0108 11.3164 62.0292 10.326 62.0842 9.39066C62.1942 7.18975 62.3776 5.64912 62.6711 4.54867C62.8178 4.01678 63.0746 3.2648 63.4964 2.71458L63.6982 2.45781L65.3122 1.4674L66.8528 2.3661L67.0546 2.60453C67.6598 3.31983 67.8982 4.49364 68.0083 5.35566C68.1183 6.23603 68.1917 7.35482 68.1917 8.80375C68.1917 9.83084 68.155 10.9313 68.1367 12.0317C68.1 13.0955 68.0816 14.1776 68.0816 15.1864C68.0816 16.4519 68.1183 17.8825 68.3568 18.8912C68.4301 19.203 68.5035 19.4415 68.6135 19.5882C68.6135 19.5698 68.6502 19.5332 68.6686 19.4781C69.1087 18.6528 69.2921 17.2039 69.4022 15.7549C69.5122 14.4711 69.5489 13.0405 69.6039 11.6099C69.659 10.0876 69.714 8.58366 69.824 7.26312C69.9524 5.74082 70.1542 4.56701 70.4476 3.76001C70.6494 3.1731 70.9061 2.73292 71.2179 2.40278L71.8599 1.9626L72.3551 1.68749L72.9236 1.74251C73.9874 1.83422 74.4826 2.65955 74.666 2.97135C75.1062 3.79669 75.3813 5.04387 75.5097 6.73123C75.6014 8.07011 75.6197 9.59241 75.6197 11.4632V12.8571C75.6197 14.9479 75.6197 16.8004 75.8215 18.1759C75.8765 18.6161 75.9499 18.9646 76.0232 19.2214C76.0599 19.1113 76.0966 19.0013 76.1333 18.8729C76.5735 17.3506 76.6835 14.7095 76.7936 12.1418C76.8302 11.1881 76.8669 10.2343 76.9403 9.31729C77.087 7.06137 77.2704 5.57575 77.5639 4.4753C77.7106 3.94342 77.9674 3.19144 78.3709 2.65955L78.5543 2.42112L80.4434 1.13726L81.8373 2.65955C82.3142 3.37485 82.5159 4.56701 82.6076 5.44737C82.6993 6.32773 82.736 7.46487 82.736 8.98716C82.736 9.73913 82.736 10.5095 82.7177 11.2981C82.7177 12.0868 82.6993 12.8754 82.6993 13.6457C82.6993 15.2597 82.736 17.0755 82.9928 18.3777C83.1028 18.9279 83.2312 19.2947 83.3779 19.5332C83.3413 19.6065 83.4146 19.5332 83.4513 19.4598C83.8915 18.6345 84.0382 17.1855 84.1299 15.7366C84.2033 14.5444 84.24 13.2422 84.2766 11.9217C84.3133 10.3077 84.35 8.65702 84.4784 7.20809C84.6068 5.6858 84.8452 4.4753 85.157 3.6683C85.3771 3.09974 85.6706 2.64121 86.019 2.31108L86.2575 2.09099L87.7064 1.4674L89.1553 2.29274L89.3754 2.54951C89.9807 3.28314 90.2558 4.51198 90.3658 5.41069C90.4942 6.32773 90.5492 7.48321 90.5492 9.02384C90.5492 10.0509 90.5309 11.133 90.4942 12.2335C90.4759 13.2789 90.4392 14.3244 90.4392 15.3148C90.4392 16.4519 90.4759 17.9008 90.696 18.8912C90.751 19.1113 90.7877 19.2764 90.8427 19.4048C90.8977 19.2764 90.9527 19.093 91.0444 18.8362C91.4663 17.3323 91.5396 14.7095 91.6313 12.1968C91.668 11.2247 91.6864 10.2343 91.7414 9.29895C91.8514 7.09805 92.0348 5.55741 92.3466 4.45696C92.4934 3.94342 92.7501 3.19144 93.172 2.64121L93.3737 2.3661L95.0061 1.39403L96.5467 2.29274L96.7484 2.53117C97.3537 3.24646 97.5921 4.42028 97.7022 5.2823C97.8122 6.181 97.8856 7.31814 97.8856 8.73039C97.8856 9.75747 97.8489 10.8579 97.8306 11.9584C97.7939 13.0222 97.7755 14.1043 97.7755 15.113C97.7755 16.2868 97.8122 17.7724 98.0506 18.8179C98.124 19.1297 98.2157 19.3498 98.3074 19.5148C98.3074 19.4965 98.3441 19.4598 98.3624 19.4231C98.8026 18.5978 98.986 17.1489 99.0961 15.6999C99.2061 14.4161 99.2428 12.9855 99.2978 11.5916C99.3528 10.0509 99.4079 8.54698 99.5179 7.22643C99.6463 5.6858 99.848 4.53032 100.142 3.70498C100.27 3.33817 100.508 2.78794 100.893 2.3661L101.095 2.14601L102.067 1.61412L102.636 1.66915C103.7 1.76085 104.195 2.60453 104.36 2.91633C104.8 3.72333 105.075 4.97051 105.204 6.67621C105.314 8.12514 105.314 9.8125 105.314 11.4082V12.8021C105.314 14.8012 105.314 16.727 105.515 18.1209C105.57 18.5794 105.644 18.9279 105.735 19.203C105.772 19.093 105.809 18.9829 105.864 18.8362C106.286 17.3139 106.414 14.6545 106.542 12.0868C106.597 11.133 106.634 10.1793 106.689 9.26227C106.818 7.06137 107.019 5.53907 107.313 4.43862C107.441 3.90673 107.698 3.1731 108.083 2.64121L108.45 2.25606L109.697 1.30233L110.761 1.92592C111.88 2.58619 112.338 4.65871 112.485 5.52073C112.76 6.95132 112.907 8.84043 112.907 10.8029C112.907 14.5444 112.393 18.231 111.476 20.9271C110.192 24.7236 107.276 27.7866 104.158 31.0146L103.204 32.0233C99.8114 35.5998 96.3266 39.5981 94.2541 45.6139C93.0619 49.0987 92.4383 53.0786 92.4383 57.4621C92.4383 64.6517 94.034 70.4658 94.3641 71.5662L94.4375 71.8414V72.1165C94.3825 75.106 93.2637 77.1235 90.9344 78.4441C89.1737 79.4161 86.6976 79.893 83.3779 79.893L83.433 80.0397ZM65.0737 76.3716H83.3596C86.1107 76.3716 88.0182 76.0414 89.192 75.3995C90.1274 74.8676 90.7143 74.189 90.806 72.4649C90.3291 70.7592 88.8252 64.8168 88.8252 57.6272C88.8252 52.8402 89.5038 48.4567 90.8243 44.5868C93.1353 37.874 97.0786 33.3622 100.582 29.6573L101.554 28.6486C103.333 26.7962 104.965 25.0905 106.212 23.3664C106.047 23.3847 105.882 23.4031 105.735 23.4031C105.002 23.3664 104.25 23.1463 103.663 22.6511C103.241 22.3026 102.911 21.8808 102.636 21.3306C102.416 20.8904 102.269 20.4502 102.159 20.01C102.012 20.4685 101.847 20.9087 101.627 21.2939C100.93 22.5961 99.5729 23.4031 98.2891 23.4031C97.2253 23.4398 96.1065 22.8529 95.4279 21.9175C94.9877 21.3122 94.7493 20.652 94.5842 20.1017C94.3274 20.9638 93.9423 21.8991 93.0436 22.6328C92.4383 23.128 91.5947 23.3848 90.8427 23.4031C89.7422 23.4214 88.6601 22.8529 88.0182 21.8991C87.5963 21.3122 87.3763 20.652 87.2295 20.1017C87.1011 20.5236 86.9361 20.9087 86.7527 21.2755C86.074 22.5961 84.7168 23.3664 83.3963 23.4031C82.1674 23.4031 80.9936 22.7428 80.315 21.624C80.0032 21.1472 79.8015 20.6336 79.6547 20.1568C79.398 20.9821 79.0128 21.8808 78.1691 22.5961C78.0774 22.6695 77.9674 22.7428 77.8757 22.8162V23.3847H74.2075L74.1892 22.8345C74.0975 22.7795 74.0241 22.7245 73.9507 22.6511C73.5289 22.3026 73.1987 21.8808 72.9236 21.3306C72.7035 20.8904 72.5568 20.4502 72.4468 20.01C72.3 20.4685 72.135 20.8904 71.9149 21.2939C71.2363 22.5961 69.9708 23.4031 68.6135 23.4031C68.5768 23.4031 68.5402 23.4031 68.5218 23.4031C67.4581 23.4031 66.3759 22.8345 65.7157 21.9175C65.2572 21.3122 65.0187 20.6336 64.872 20.1017C64.5969 20.9638 64.2117 21.8991 63.3314 22.6328C62.6894 23.1463 61.9191 23.4214 61.1305 23.4214C60.1951 23.4214 59.168 22.9813 58.471 22.1926C58.1959 21.8808 57.9942 21.569 57.8291 21.2572C58.0492 26.1726 58.1776 32.9954 58.1776 41.4505C58.1776 56.7285 57.8108 72.0981 57.7924 72.2449C57.7924 73.4187 58.3243 74.3174 59.4981 75.0877C60.8003 75.9314 62.8178 76.4266 65.0554 76.4266H65.0737V76.3716Z" fill="#323E48"/>
<path d="M154.944 80.0396C151.606 80.0396 149.149 79.5627 147.406 78.609C145.059 77.2701 143.94 75.2526 143.903 72.2447V72.043L143.94 71.8412C144.178 70.7591 145.334 64.9634 145.334 57.7004C145.334 53.3169 144.912 49.2819 144.068 45.6871C142.399 38.6076 140.547 32.7385 139.061 28.0249L138.915 27.5297C137.319 22.4859 136.273 19.0195 136.273 16.8553V16.5068C136.328 15.7365 136.347 14.8194 136.365 13.8107C136.383 12.0866 136.42 10.1242 136.604 8.29008C136.769 6.52936 137.08 5.11711 137.521 4.1267C137.796 3.46643 138.163 2.93455 138.584 2.56773L138.823 2.34764L140.657 1.614L142.032 2.62275C142.564 3.26468 142.784 4.34679 142.876 5.13545C142.968 5.92411 143.023 6.91452 143.023 8.23506C143.023 8.9687 143.023 9.73901 143.005 10.5277C143.005 11.3347 142.986 12.16 142.986 12.9853C142.986 14.7277 143.041 16.7085 143.426 18.1758C143.591 18.7811 143.775 19.2029 144.013 19.478C144.178 19.6614 144.417 19.8082 144.6 19.7531C144.784 19.4597 144.894 18.8177 144.967 18.2492C145.059 17.4972 145.114 16.5618 145.114 15.278C145.114 14.2692 145.077 13.1871 145.059 12.1233C145.022 11.0229 145.004 9.92242 145.004 8.89533C145.004 6.91452 145.114 5.44725 145.371 4.4385C145.554 3.70486 145.811 3.11796 146.141 2.69612L146.343 2.43934L147.425 1.81575L147.975 1.85243C149.167 1.9258 149.717 2.78782 149.937 3.09961C150.506 4.01666 150.873 5.57563 151.038 7.7582C151.148 9.13376 151.203 10.6744 151.258 12.2334C151.295 13.6273 151.35 15.0028 151.441 16.25C151.515 17.112 151.625 18.3592 151.918 19.2212C151.973 19.368 152.01 19.4964 152.065 19.5881C152.12 19.4597 152.193 19.2763 152.248 19.0378C152.634 17.5339 152.652 14.9478 152.67 12.4351C152.67 11.4447 152.67 10.436 152.707 9.48224C152.762 7.28133 152.927 5.72236 153.202 4.62191C153.404 3.83325 153.679 3.228 154.027 2.78782L154.247 2.51271L155.44 1.81575L156.008 1.85243C157.054 1.9258 157.604 2.54939 157.952 3.09961C158.521 4.035 158.888 5.59397 159.034 7.77654C159.126 9.09708 159.163 10.601 159.2 12.105C159.236 13.5356 159.273 14.9845 159.365 16.2684C159.438 17.2038 159.548 18.3959 159.841 19.2212C159.933 19.478 160.025 19.6614 160.135 19.7715C160.41 19.2212 160.538 18.3592 160.63 17.5522C160.759 16.3784 160.777 14.9295 160.777 13.7923C160.777 13.022 160.777 12.215 160.759 11.4447C160.759 10.6561 160.74 9.88574 160.74 9.13376C160.74 7.00622 160.832 5.59397 161.015 4.56688C161.107 4.05334 161.29 3.33805 161.621 2.8245L161.951 2.43934L162.519 1.81575L163.363 1.85243C164.555 1.90746 165.105 2.78782 165.307 3.1363C165.839 4.035 166.206 5.57563 166.408 7.7582C166.536 9.11542 166.609 10.6744 166.664 12.215C166.719 13.6089 166.793 15.0028 166.884 16.25C166.976 17.1854 167.104 18.3959 167.38 19.2212C167.38 19.2763 167.416 19.313 167.435 19.3496C167.435 19.3496 167.435 19.3313 167.435 19.313C167.82 17.9741 167.838 15.443 167.838 13.0037V11.5731C167.838 9.39054 167.838 7.13461 168.095 5.44725C168.242 4.45684 168.462 3.68652 168.755 3.1363C168.975 2.76948 169.452 1.94414 170.534 1.83409H170.681H170.846C171.983 1.90746 172.497 2.78782 172.698 3.11796C173.194 4.01666 173.524 5.55729 173.67 7.7582C173.762 8.9687 173.817 10.3443 173.854 11.7198C173.909 13.2605 173.964 14.8561 174.092 16.2317C174.166 17.0937 174.312 18.3225 174.624 19.1846C174.716 19.4597 174.826 19.6431 174.936 19.7531C175.046 19.4413 175.156 18.8177 175.248 18.2492C175.34 17.5155 175.395 16.5618 175.395 15.278C175.395 14.2692 175.358 13.1871 175.34 12.1233C175.303 11.0229 175.284 9.92242 175.284 8.89533C175.284 6.91452 175.395 5.44725 175.651 4.4385C175.761 3.9433 176 3.228 176.422 2.69612L176.623 2.45768L177.705 1.83409L178.256 1.87078C179.319 1.9258 179.888 2.62275 180.218 3.11796C180.787 4.01666 181.154 5.57563 181.319 7.77654C181.429 9.13376 181.484 10.6927 181.539 12.2517C181.575 13.6456 181.63 15.0212 181.722 16.2867C181.795 17.1487 181.906 18.3959 182.199 19.2579C182.254 19.423 182.309 19.5697 182.364 19.6614C182.786 18.8177 182.933 17.3138 183.006 15.9382C183.079 14.471 183.079 12.7836 183.098 11.1513C183.098 9.8674 183.098 8.60188 183.134 7.48308C183.189 5.94245 183.299 4.80532 183.501 4.01666C183.611 3.55814 183.776 3.1363 183.978 2.8245L185.39 0.586914L186.986 2.67777C187.206 2.97123 187.426 3.37473 187.591 3.79657C188.417 5.86909 188.838 10.1242 189.022 12.4718C189.297 15.9566 189.37 19.2396 189.37 20.6152C189.114 25.6956 189.003 32.6835 189.003 41.4871C189.003 55.848 189.334 70.5207 189.37 72.1347V72.2264C189.37 74.7207 188.233 76.7199 186.032 78.1688C184.106 79.416 181.429 80.113 178.457 80.113H154.981L154.944 80.0396ZM147.553 72.3731C147.626 74.1705 148.213 74.8491 149.185 75.3994C150.341 76.0413 152.395 76.4081 154.999 76.3714H178.402C180.64 76.3714 182.658 75.8762 183.96 75.0325C185.115 74.2806 185.629 73.3819 185.647 72.1347C185.61 70.5023 185.28 55.793 185.28 41.3954C185.28 32.9769 185.39 26.1724 185.629 21.2021C184.987 22.5226 183.721 23.3663 182.346 23.3663C182.309 23.3663 182.291 23.3663 182.254 23.3663C181.319 23.3663 180.347 22.9078 179.686 22.1374C179.136 21.5139 178.861 20.8169 178.696 20.3217C178.659 20.23 178.641 20.1383 178.604 20.0466C178.439 20.6885 178.182 21.3121 177.742 21.8807C177.082 22.7977 176 23.403 174.844 23.3479H174.808C173.891 23.3479 172.937 22.9261 172.258 22.2108C171.8 21.7339 171.451 21.147 171.176 20.3951C171.121 20.2483 171.084 20.12 171.029 19.9732C170.993 20.0833 170.974 20.2117 170.938 20.3217C170.718 21.0553 170.369 21.9357 169.544 22.6143C169.47 22.6693 169.415 22.7244 169.342 22.761V23.3479H165.674L165.656 22.7977C165.362 22.6143 165.105 22.3759 164.867 22.1191C164.335 21.5139 164.06 20.8169 163.895 20.34C163.876 20.2667 163.84 20.1933 163.821 20.12C163.656 20.6518 163.455 21.147 163.143 21.6056C162.464 22.6877 161.29 23.3846 160.025 23.3479C159.089 23.3113 158.099 22.9261 157.42 22.1925C156.962 21.7156 156.632 21.1287 156.338 20.3584C156.173 19.8999 156.045 19.423 155.953 18.8544C155.898 19.2212 155.825 19.5697 155.733 19.8999C155.495 20.7986 155.128 21.789 154.211 22.5593C153.587 23.0728 152.799 23.2929 151.992 23.3479C151.056 23.3846 150.047 22.9078 149.369 22.1191C148.819 21.4955 148.543 20.7986 148.378 20.3034C148.342 20.2117 148.323 20.12 148.287 20.0282C148.122 20.6702 147.865 21.2938 147.425 21.8623C146.764 22.7794 145.664 23.3846 144.527 23.3296C143.243 23.3479 142.032 22.7794 141.189 21.789C141.079 21.6606 140.969 21.5322 140.877 21.3855C141.299 22.8527 141.831 24.5401 142.399 26.3375L142.564 26.8327C144.068 31.6013 145.939 37.5438 147.645 44.7518C148.562 48.6217 149.02 52.9501 149.02 57.6087C149.02 64.8534 147.92 70.7224 147.59 72.2998L147.553 72.3731Z" fill="#323E48"/>
<path d="M113.218 35.2147C107.569 36.1134 107.294 43.9266 110.155 47.8882C113.035 51.8498 114.172 54.8211 112.65 56.6001C111.128 58.3792 103.663 60.5617 105.002 65.1103C106.341 69.6588 111.311 72.2449 113.805 66.6876C116.3 61.1487 115.915 56.1966 117.822 55.0045C119.729 53.8123 121.655 52.235 120.683 48.2734C119.729 44.3117 127.378 41.744 128.533 45.3021C129.67 48.8603 134.457 59.553 140.4 54.601C146.324 49.6489 141.922 44.11 138.29 42.3309C128.918 37.7274 129.102 39.5614 126.424 39.3597C123.746 39.1579 123.178 33.619 113.218 35.1963V35.2147Z" fill="#EDB197"/>
<path d="M126.57 60.5616C124.204 67.2927 117.473 62.9276 118.06 69.2735C118.683 75.9679 126.771 75.6011 132.512 69.2735C138.253 62.9459 133.906 56.8017 131.32 56.2148C128.752 55.6279 127.377 58.2873 126.57 60.5616Z" fill="#EDB197"/>
<path d="M121.82 18.9828C117.73 21.6239 122.224 26.7043 122.224 26.7043C122.224 26.7043 130.147 36.8101 131.137 27.8965C132.128 18.9828 128.57 14.636 121.839 18.9828H121.82Z" fill="#EDB197"/>
<path d="M102.067 37.9841C99.151 39.8732 91.026 59.0761 103.406 56.7835C112.576 55.0961 105.313 51.9415 106.01 45.5955C106.726 39.2496 106.854 34.8661 102.067 37.9841Z" fill="#EDB197"/>
<path d="M138.438 48.8783C138.438 49.9787 137.723 50.8591 136.861 50.8591C135.998 50.8591 135.283 49.9787 135.283 48.8783C135.283 47.7778 135.998 46.8975 136.861 46.8975C137.723 46.8975 138.438 47.7778 138.438 48.8783Z" fill="#EDB197"/>
<path d="M124.792 70.2455C124.792 71.0158 124.131 71.6394 123.306 71.6394C122.481 71.6394 121.82 71.0158 121.82 70.2455C121.82 69.4751 122.481 68.8516 123.306 68.8516C124.131 68.8516 124.792 69.4751 124.792 70.2455Z" fill="#EDB197"/>
<path d="M102.416 45.9072C102.416 46.2374 102.159 46.4941 101.829 46.4941C101.499 46.4941 101.242 46.2374 101.242 45.9072C101.242 45.5771 101.517 45.3203 101.829 45.3203C102.141 45.3203 102.416 45.5771 102.416 45.9072Z" fill="#EDB197"/>
<path d="M103.607 52.0331C103.607 52.8034 103.038 53.427 102.323 53.427C101.608 53.427 101.039 52.8034 101.039 52.0331C101.039 51.2628 101.608 50.6392 102.323 50.6392C103.038 50.6392 103.607 51.2628 103.607 52.0331Z" fill="#EDB197"/>
<path d="M129.34 26.2092C129.34 26.7045 128.936 27.0896 128.441 27.0896C127.946 27.0896 127.561 26.6861 127.561 26.2092C127.561 25.7324 127.964 25.3105 128.441 25.3105C128.918 25.3105 129.34 25.714 129.34 26.2092Z" fill="#EDB197"/>
<path d="M29.5843 62.4142C33.6867 62.4142 37.0124 57.7665 37.0124 52.0333C37.0124 46.3001 33.6867 41.6523 29.5843 41.6523C25.4819 41.6523 22.1562 46.3001 22.1562 52.0333C22.1562 57.7665 25.4819 62.4142 29.5843 62.4142Z" fill="#323E48"/>
<path d="M74.648 58.7643C79.5709 58.7643 83.5617 54.7736 83.5617 49.8507C83.5617 44.9278 79.5709 40.937 74.648 40.937C69.7252 40.937 65.7344 44.9278 65.7344 49.8507C65.7344 54.7736 69.7252 58.7643 74.648 58.7643Z" fill="#323E48"/>
<path d="M167.947 65.165C172.019 65.165 175.32 60.4762 175.32 54.6924C175.32 48.9085 172.019 44.2197 167.947 44.2197C163.875 44.2197 160.574 48.9085 160.574 54.6924C160.574 60.4762 163.875 65.165 167.947 65.165Z" fill="#323E48"/>
<path d="M211.232 60.9282C215.953 60.9282 219.779 57.1016 219.779 52.3813C219.779 47.661 215.953 43.8345 211.232 43.8345C206.512 43.8345 202.686 47.661 202.686 52.3813C202.686 57.1016 206.512 60.9282 211.232 60.9282Z" fill="#323E48"/>
</g>
<defs>
<clipPath id="clip0_509_9029">
<rect width="239" height="81.0667" fill="white"/>
</clipPath>
</defs>
</svg>
