<svg width="32" height="20" viewBox="0 0 32 20" fill="none" xmlns="http://www.w3.org/2000/svg">
<path d="M31.0148 9.64288C31.0148 9.82647 30.9502 10.1154 30.764 10.5094C30.5818 10.895 30.3024 11.3402 29.9253 11.8235C29.1714 12.7899 28.0623 13.8634 26.674 14.8653C23.8938 16.8718 20.0735 18.5358 15.8824 18.5358C11.7037 18.5358 7.88629 16.7692 5.09846 14.7027C3.70747 13.6717 2.59328 12.5808 1.83479 11.6284C1.45513 11.1517 1.17411 10.7216 0.991505 10.3617C0.800803 9.98587 0.75 9.74991 0.75 9.64288C0.75 9.4593 0.814557 9.17035 1.00075 8.7764C1.18302 8.39077 1.46236 7.94558 1.83945 7.46223C2.5934 6.49583 3.70249 5.42241 5.09076 4.42046C7.87095 2.41393 11.6913 0.75 15.8824 0.75C20.0735 0.75 23.8938 2.41393 26.674 4.42046C28.0623 5.42241 29.1714 6.49583 29.9253 7.46223C30.3024 7.94558 30.5818 8.39077 30.764 8.7764C30.9502 9.17035 31.0148 9.4593 31.0148 9.64288Z" stroke="white" stroke-width="1.5"/>
<circle cx="15.8826" cy="10.2101" r="4.03783" stroke="white"/>
</svg>
