<svg width="40" height="40" viewBox="0 0 40 40" fill="none" xmlns="http://www.w3.org/2000/svg">
<path d="M31.3651 0H8.63369C3.8724 0 0 3.8724 0 8.63369V31.3663C0 36.1264 3.8724 40 8.63369 40H31.3663C36.1264 40 40 36.1276 40 31.3663V8.63369C39.9988 3.8724 36.1264 0 31.3651 0ZM37.7796 31.3651C37.7796 34.9021 34.9021 37.7796 31.3651 37.7796H22.6784C22.6685 34.2019 22.6599 30.6241 22.65 27.0464C24.7286 27.0649 26.8072 27.0846 28.8858 27.1031C29.2446 25.0245 29.6033 22.9459 29.9633 20.8673C27.563 20.8291 25.1638 20.7921 22.7634 20.7539L22.8202 17.0689C22.6932 15.2837 23.3786 13.6822 24.6411 12.977C25.1749 12.6787 25.7285 12.5875 26.1969 12.5825C27.4335 12.585 28.6701 12.5875 29.9066 12.5899V7.09139C29.6107 7.05317 29.1694 7.00139 28.6343 6.96194C25.8357 6.75728 21.4924 6.44044 18.769 8.69533C15.8669 11.0969 15.9581 15.4662 16.0074 16.5079C15.9729 17.943 15.9384 19.3768 15.9038 20.8106C13.9572 20.8291 12.0117 20.8488 10.065 20.8673C10.0552 22.978 10.0453 25.0886 10.0354 27.1993H15.9088C15.9088 30.7265 15.9088 34.2537 15.9088 37.7796H8.63245C5.09539 37.7796 2.21791 34.9021 2.21791 31.3651V8.63369C2.21791 5.09662 5.09539 2.21914 8.63245 2.21914H31.3651C34.9021 2.21914 37.7796 5.09662 37.7796 8.63369V31.3663V31.3651Z" fill="white"/>
</svg>
