<svg width="40" height="40" viewBox="0 0 40 40" fill="none" xmlns="http://www.w3.org/2000/svg">
<path d="M31.3651 39.9988H8.63369C3.8724 39.9988 0 36.1264 0 31.3651V8.63369C0 3.8724 3.8724 0 8.63369 0H31.3663C36.1264 0 40 3.8724 40 8.63369V31.3663C40 36.1264 36.1276 40 31.3663 40L31.3651 39.9988ZM8.63369 2.21914C5.09662 2.21914 2.21914 5.09662 2.21914 8.63369V31.3663C2.21914 34.9034 5.09662 37.7809 8.63369 37.7809H31.3663C34.9034 37.7809 37.7809 34.9034 37.7809 31.3663V8.63369C37.7809 5.09662 34.9034 2.21914 31.3663 2.21914H8.63369Z" fill="white"/>
<path d="M19.9994 30.613C14.147 30.613 9.38573 25.8517 9.38573 19.9994C9.38573 14.147 14.147 9.38573 19.9994 9.38573C25.8517 9.38573 30.613 14.147 30.613 19.9994C30.613 25.8517 25.8517 30.613 19.9994 30.613ZM19.9994 11.6049C15.37 11.6049 11.6049 15.3712 11.6049 19.9994C11.6049 24.6275 15.3712 28.3939 19.9994 28.3939C24.6275 28.3939 28.3939 24.6275 28.3939 19.9994C28.3939 15.3712 24.6275 11.6049 19.9994 11.6049Z" fill="white"/>
<path d="M31.4181 10.3893C32.4074 10.3893 33.2094 9.58726 33.2094 8.59793C33.2094 7.6086 32.4074 6.8066 31.4181 6.8066C30.4288 6.8066 29.6268 7.6086 29.6268 8.59793C29.6268 9.58726 30.4288 10.3893 31.4181 10.3893Z" fill="white"/>
</svg>
