<svg width="99" height="79" fill="none" xmlns="http://www.w3.org/2000/svg"><path d="M98.57 43.916 83.203 17.252 67.834 43.916h9.415C75.06 57.403 63.407 67.784 49.31 67.784c-6.615 0-12.875-2.392-17.963-6.565-.56-.458-1.12-.814-1.629-1.323l-7.633 7.99c1.17 1.12 2.443 1.984 3.715 2.951 6.768 5.09 14.91 7.99 23.51 7.99 20.203 0 36.69-15.318 38.93-34.91h10.33ZM30.787 34.91h-9.414c2.188-13.486 13.79-23.867 27.887-23.867 6.513 0 12.722 2.34 17.76 6.412.56.458 1.22.865 1.78 1.374l7.583-7.99c-1.17-1.12-2.494-2.035-3.766-2.951C65.85 2.9 57.81 0 49.26 0 29.108 0 12.62 15.317 10.33 34.91H0l15.42 26.665 15.367-26.666Z" fill="#323E48"/></svg>