<svg width="71" height="89" fill="none" xmlns="http://www.w3.org/2000/svg"><path d="M69.802 58.781a70.06 70.06 0 0 1-1.81-8.924 37.496 37.496 0 0 1-.291-2.913 49.402 49.402 0 0 1-.123-3.222c-.03-3.684-.046-6.782-.353-10.142-.138-1.51-.337-3.145-.644-5.534v-.061c-28.214-.2-33.906 15.074-34.136 15.722l-2.363-.787-3.835-1.279c.215-.647 4.602-11.853 21.724-17.787 7.84-2.713 17.336-3.19 18.548-3.345a12.42 12.42 0 0 0 .184-2.173s0-2.528-1.043-5.087C64.54 10.43 54.66.533 39.38.01 37.907-.037 19.573-.361 8.05 14.035 6.21 16.347.84 23.653.088 34.135-1.247 52.647 12.96 65.378 7.544 72.16c-1.503 1.88-3.866 2.528-5.492 2.775 2.746 7.475 9.113 12.654 16.262 13.256 8.56.709 16.6-5.318 18.794-12.054a11.27 11.27 0 0 0 .552-3.39 20.9 20.9 0 0 1 1.765.8c1.748 1.018 3.237 1.773 4.372 2.19 3.038 1.14 6.444 2.096 10.218 2.897 1.304.278 2.454.463 3.436.54 1.212.092 2.102-.37 2.67-1.419.49-.909.874-1.926 1.12-3.036.076-.324.184-.832.322-1.557.061-.323.276-.57.644-.709a14.48 14.48 0 0 0 1.059-.478.732.732 0 0 0 .307-.277.249.249 0 0 0 .046-.139c-.016-.385-.062-.678-.138-.91a60.74 60.74 0 0 1-.476-1.54v-.047c0-.123.092-.231.215-.231.89-.062 1.38-.108 1.473-.123.598-.093 1.258-.34 1.104-1.033-.307-1.28-.475-1.788-.475-2.82 0-.401.092-.694.26-.91.323-.432.906-.555 1.197-.601 2.486-.416 3.744-.617 4.004-.956.491-.601-.414-1.51-.997-3.607h.015Z" fill="#2B3B46"/></svg>