<svg width="62" height="106" fill="none" xmlns="http://www.w3.org/2000/svg"><path d="m46.941 67.624-8.597-.172c.123-6.73 2.137-10.219 3.905-13.29l.492-.859c.786-1.4 1.72-2.8 2.702-4.25 3.291-4.961 7.05-10.586 7.05-18.864 0-10.44-5.773-21.592-21.96-21.592-16.188 0-21.96 11.152-21.96 21.592 0 8.94 4.053 14.812 7.64 19.995.711 1.031 1.375 1.99 1.989 2.947 2.8 4.348 4.495 7.492 4.495 14.444H14.1c0-4.692-.811-6.166-3.12-9.801-.54-.86-1.18-1.744-1.818-2.702C5.306 49.472 0 41.807 0 30.189-.025 15.156 9.432 0 30.533 0c21.1 0 30.557 15.156 30.557 30.189 0 10.881-4.913 18.25-8.475 23.63-.884 1.326-1.72 2.604-2.382 3.734l-.54.933c-1.548 2.702-2.678 4.643-2.752 9.162v-.024ZM30.583 105.47c-9.85 0-16.482-6.312-16.482-15.696h8.597c0 4.594 2.8 7.1 7.885 7.1 5.084 0 7.787-3.612 7.787-7.1h8.597c0 8.671-7.345 15.696-16.384 15.696Z" fill="#2B3B46"/><path d="M46.967 66.592H14.1v8.597h32.866v-8.597Zm0 14.928H14.1v8.598h32.866v-8.597ZM23.238 56.128l5.625-18.595h-8.032l17.317-23.827-4.544 15.23h8.057L23.238 56.128Z" fill="#2B3B46"/></svg>