<svg xmlns="http://www.w3.org/2000/svg" width="94" height="89" fill="none"><path fill="#2B3B46" d="M88.21 22.267C78.495 5.595 57.33-3.154 35.515 1.043c3.173 1.281 16.021 6.858 21.717 20.633C64.09 38.229 57.35 58.724 42.51 68.3c-11.903 7.686-24.81 5.676-28.377 5.005 16.06 15.371 38.546 19.55 55.769 10.878 15.37-7.744 20.928-22.898 22.248-26.86 1.065-3.921 4.907-19.962-3.921-35.057"/><path fill="#2B3B46" d="M23.001 51.314c0 .65.236 1.261.552 1.813.512 1.42 1.852 2.444 3.448 2.444h.119s.138.04.216.04c.08 0 .138-.04.217-.04H44.52a3.7 3.7 0 0 0 3.705-3.705v-.867a3.7 3.7 0 0 0-3.705-3.705h-7.35L47.535 36.93c1.242-1.242 1.34-3.154.434-4.592-.512-1.419-1.852-2.463-3.449-2.463H27.021a3.684 3.684 0 0 0-3.685 3.704v.867c0 2.05 1.655 3.705 3.685 3.705h7.607L24.105 48.674a3.7 3.7 0 0 0-1.084 2.62m-2.088-13.222a3.6 3.6 0 0 0-3.586-3.587h-5.223l7.942-7.942a3.58 3.58 0 0 0 0-5.064s-.02 0-.04-.02c-.65-.749-1.596-1.261-2.68-1.261H3.67a3.6 3.6 0 0 0-3.586 3.586 3.6 3.6 0 0 0 3.586 3.587h5.44l-8.06 8.06a3.58 3.58 0 0 0 0 5.064s.02 0 .039.02a3.6 3.6 0 0 0 2.601 1.143h13.676a3.6 3.6 0 0 0 3.587-3.587"/></svg>