<svg width="82" height="88" fill="none" xmlns="http://www.w3.org/2000/svg"><g clip-path="url(#a)"><path d="M11.626 38.633C5.22 38.633 0 44.436 0 51.557c0 7.12 5.219 12.923 11.626 12.923h58.686c.263.077.957.888.957 2.297 0 1.409-.694 2.205-.926 2.297h-35.79c-6.406 0-11.625 5.803-11.625 12.908v5.987l10.715.016v-6.003c0-1.393.695-2.205.926-2.281h35.79C76.766 79.7 82 73.897 82 66.777c0-7.12-5.219-12.924-11.641-12.924H11.672c-.277-.091-.957-.903-.957-2.296 0-1.394.68-2.205.911-2.297H70.36c6.406 0 11.64-5.804 11.64-12.924 0-7.12-5.219-12.923-11.641-12.923H11.672c-.277-.092-.957-.904-.957-2.297 0-1.394.68-2.205.911-2.297h33.412c6.407 0 11.641-5.803 11.641-12.924V0H45.964v5.895c0 1.394-.695 2.205-.926 2.297H11.626C5.22 8.192 0 13.995 0 21.116c0 7.12 5.219 12.923 11.626 12.923h58.686c.263.092.957.904.957 2.297 0 1.394-.694 2.205-.926 2.297H11.626Z" fill="#2B3B46"/></g><defs><clipPath id="a"><path fill="#fff" d="M0 0h82v88H0z"/></clipPath></defs></svg>