<svg xmlns="http://www.w3.org/2000/svg" width="18" height="18" fill="none"><path fill="#fff" d="M9.374 12.926q-1.828 0-2.788-.945t-.961-3.229q0-2.047.96-3.15Q7.547 4.5 9.359 4.5q.473 0 .897.079.426.063.756.189.331.126.52.268.205.142.205.283 0 .126-.063.315-.063.172-.158.315-.093.126-.204.126t-.378-.11a5 5 0 0 0-.662-.22 4 4 0 0 0-.992-.111q-1.117 0-1.701.772-.567.771-.567 2.315 0 1.59.567 2.331.582.74 1.827.74.535 0 .96-.142t.71-.283q.284-.142.378-.142.11 0 .189.142.094.126.157.3a.9.9 0 0 1 .063.299q0 .141-.236.315-.22.173-.583.314a5 5 0 0 1-.803.237 4 4 0 0 1-.867.094"/><circle cx="9" cy="9" r="8.25" stroke="#fff" stroke-width="1.5"/></svg>