<svg width="18" height="18" fill="none" xmlns="http://www.w3.org/2000/svg"><path d="M9.373 12.926c-1.217 0-2.147-.315-2.787-.945-.64-.63-.961-1.706-.961-3.229 0-1.365.32-2.415.96-3.15C7.227 4.867 8.15 4.5 9.359 4.5c.315 0 .614.026.897.079.284.042.536.105.756.189.221.084.394.173.52.268.137.094.205.189.205.283 0 .084-.021.189-.063.315-.042.115-.095.22-.158.315-.063.084-.13.126-.204.126-.074 0-.2-.037-.378-.11a4.831 4.831 0 0 0-.662-.22 3.864 3.864 0 0 0-.992-.111c-.745 0-1.313.257-1.701.772-.378.514-.567 1.286-.567 2.315 0 1.06.189 1.838.567 2.331.388.494.997.74 1.827.74.357 0 .677-.047.96-.142a5.56 5.56 0 0 0 .71-.283c.189-.095.315-.142.378-.142.073 0 .136.048.189.142.063.084.115.184.157.3a.899.899 0 0 1 .063.299c0 .094-.079.199-.236.315-.147.115-.341.22-.583.314a5.19 5.19 0 0 1-.803.237 4.128 4.128 0 0 1-.867.094Z" fill="#fff"/><circle cx="9" cy="9" r="8.25" stroke="#fff" stroke-width="1.5"/></svg>