<svg width="287" height="139" fill="none" xmlns="http://www.w3.org/2000/svg"><path d="M80.185 57.578V11.076h14.886v34.6h14.887v11.902H80.185Zm37.13-3.671c3.155 3.155 8.185 4.78 14.933 4.78 6.748 0 11.965-1.609 15.058-4.905 3.093-3.218 4.655-8.185 4.655-14.824 0-6.638-1.547-11.59-4.655-14.886-3.093-3.218-8.123-4.842-15.058-4.842-6.936 0-11.965 1.609-15.058 4.842-3.093 3.28-4.655 8.248-4.655 14.886 0 6.639 1.609 11.778 4.78 14.933v.016Zm12.465-23.243c.812-.375 2.109-.562 3.905-.562h2.296v14.573c0 1.36-.375 2.234-1.171 2.609-.797.375-2.172.562-3.968.562h-2.296V33.273c0-1.36.437-2.234 1.234-2.609Zm32.896 26.914-7.435-37.192h14.574l3.03 22.071h.812l4.718-22.071h11.153l4.155 22.071h.812l3.593-22.071h14.573l-7.435 37.192h-18.291l-2.921-15.995h-.563l-3.217 15.995h-17.558Zm-146.44 68.854H.553L12.58 79.931h22.994L47.6 126.432H31.918l-1.733-7.372H17.907l-1.671 7.372Zm7.435-32.24-3.03 13.012h6.826l-2.984-13.012h-.812Zm26.773 25.242c0 1.859.438 3.281 1.36 4.28.874 1 2.17 1.797 3.904 2.422 2.047.749 6.264 1.109 12.59 1.109l.688-10.919a37.165 37.165 0 0 0-1.547-.187 17.583 17.583 0 0 1-2.109-.375V76.947l-14.886 1.11v41.377Zm22.993 0c0 1.859.438 3.281 1.36 4.28.874 1 2.17 1.797 3.904 2.422 2.047.749 6.264 1.109 12.59 1.109l.688-10.919a37.144 37.144 0 0 0-1.547-.187 17.579 17.579 0 0 1-2.109-.375V76.947l-14.886 1.11v41.377Zm47.97-6.388c2.796-.438 5.077-1.172 6.764-2.172 1.687-.999 2.921-2.296 3.655-3.842.687-1.547 1.047-3.343 1.047-5.514 0-2.609-.313-4.78-.875-6.514-.625-1.671-1.609-3.03-3.03-4.092-1.422-1-3.343-1.734-5.639-2.172-2.297-.437-5.202-.624-8.685-.624-6.889 0-11.903 1.609-14.996 4.842-3.155 3.28-4.717 8.247-4.717 14.886 0 6.639 1.546 11.59 4.655 14.824 3.093 3.28 8.122 4.905 15.058 4.905 5.389 0 10.918-.75 16.495-2.234l-1.734-10.919c-4.717 1.484-9.357 2.234-14.011 2.234-.75 0-1.484 0-2.234-.062l-2.234-.188v-2.609c4.155 0 7.685-.249 10.481-.749Zm-9.231-13.512c.812-.375 2.109-.562 3.905-.562h3.03v3.03c0 1.359-.375 2.234-1.171 2.609-.797.375-2.172.562-3.968.562h-3.03v-3.03c0-1.359.437-2.234 1.234-2.609Zm41.159 26.898v-21.259c.375-.437.938-.875 1.609-1.234a17.12 17.12 0 0 1 2.359-.875c.812-.25 1.671-.437 2.484-.625a9.546 9.546 0 0 1 2.108-.249l-.874-14.074c-4.405.812-8.061 2.546-11.028 5.264l-4.093-4.155h-7.435v37.192h14.886l-.016.015Zm27.07 12.278c2.422 0 4.905-.063 7.311-.25 2.405-.187 4.592-.625 6.513-1.421 1.922-.797 3.468-1.984 4.655-3.656 1.187-1.671 1.797-3.967 1.797-6.951 0-1.796-.25-3.217-.75-4.405a6.677 6.677 0 0 0-2.546-2.858c-1.187-.75-2.671-1.297-4.53-1.672-1.859-.312-4.155-.562-6.826-.749l.312-1.797c2.546-.187 4.655-.624 6.326-1.171 1.672-.562 3.093-1.297 4.155-2.296 1.063-1 1.797-2.234 2.234-3.656.438-1.421.687-3.155.687-5.076 0-2.796-.312-5.014-.999-6.701l4.28-4.968-7.81-7.497-6.514 4.967a21.587 21.587 0 0 0-2.984-.375c-1.062-.062-2.171-.062-3.342-.062-6.577 0-11.341 1.109-14.262 3.28-2.921 2.171-4.405 5.451-4.405 9.731s.938 7.498 2.796 9.544c1.859 2.047 4.593 3.406 8.123 4.093l-2.234 6.389c0 .437.063.812.125.999.063.25.375.563.812.938.375.374 1.234.749 2.672 1.109.687.187 1.733.375 3.155.437 1.421.125 3.218.187 5.451.187v2.609c-.312.063-.812.063-1.359.063-.624.062-1.359.062-2.171.062-5.639 0-10.544-.75-14.824-2.171l-1.921 11.09c5.764 1.484 11.153 2.234 16.058 2.234h.015Zm-1.421-40.113c.812-.375 2.046-.563 3.843-.563h2.358v4.843c0 1.296-.437 2.171-1.234 2.546-.796.375-2.108.562-3.905.562h-2.296v-4.842c0-1.296.437-2.171 1.234-2.546Zm52.188 14.449c2.796-.438 5.076-1.172 6.763-2.172 1.687-.999 2.921-2.296 3.655-3.842.688-1.547 1.047-3.343 1.047-5.514 0-2.609-.312-4.78-.875-6.514-.625-1.671-1.609-3.03-3.03-4.092-1.422-1-3.343-1.734-5.639-2.172-2.296-.437-5.202-.624-8.685-.624-6.889 0-11.903 1.609-14.996 4.842-3.155 3.28-4.717 8.247-4.717 14.886 0 6.639 1.547 11.59 4.655 14.824 3.093 3.28 8.123 4.905 15.058 4.905 5.389 0 10.919-.75 16.495-2.234l-1.734-10.919c-4.717 1.484-9.356 2.234-14.011 2.234-.75 0-1.484 0-2.234-.062l-2.234-.188v-2.609c4.155 0 7.686-.249 10.482-.749Zm-9.232-13.512c.812-.375 2.109-.562 3.905-.562h3.03v3.03c0 1.359-.375 2.234-1.171 2.609-.797.375-2.171.562-3.968.562h-3.03v-3.03c0-1.359.437-2.234 1.234-2.609Zm26.273 26.898H263.1v-23.18c0-1.172.437-1.984 1.296-2.359.875-.312 2.171-.5 3.843-.5h2.296v26.039h14.886V96.676c0-2.672-1-4.78-2.921-6.327-1.984-1.484-4.717-2.233-8.247-2.233-5.327 0-10.294 1.609-14.887 4.842l-3.717-3.718h-7.436v37.192Z" fill="#323E48"/><g clip-path="url(#a)"><path d="m45.645 48.255-20.884-2.461.418-3.57 16.442 1.933-9.784-9.784v.061L10.94 31.973l.418-3.569L27.8 30.336 10.67 13.857l2.534-2.535L29.56 27.026l-1.772-15.051 3.569-.419 2.301 19.568 9.723 9.722-1.772-15.051 3.569-.418 2.3 19.567 9.243 9.243C67.86 18.707 38.68-9.538 3.04 3.04-9.55 38.779 18.792 67.835 54.186 56.722l-8.529-8.529v.062h-.012Z" fill="#323E48"/></g><g clip-path="url(#b)"><path d="m241.226 48.255 20.885-2.461-.419-3.57-16.442 1.933 9.784-9.784v.061l20.897-2.461-.418-3.569-16.442 1.932 17.131-16.479-2.535-2.535-16.356 15.704 1.772-15.051-3.569-.419-2.301 19.568-9.723 9.722 1.773-15.051-3.569-.418-2.302 19.567-9.242 9.243c-11.138-35.48 18.042-63.725 53.682-51.147 12.59 35.739-15.753 64.795-51.147 53.682l8.529-8.529v.062h.012Z" fill="#323E48"/></g><defs><clipPath id="a"><path fill="#fff" d="M0 0h59.134v59.134H0z"/></clipPath><clipPath id="b"><path fill="#fff" transform="matrix(-1 0 0 1 286.871 0)" d="M0 0h59.134v59.134H0z"/></clipPath></defs></svg>