<svg xmlns="http://www.w3.org/2000/svg" width="45" height="45" fill="none"><circle cx="22.5" cy="22.5" r="22.5" fill="#323E48"/><path fill="#fff" d="m10.894 16.992 2.84 18.082h18.068l2.827-18.082h-6.051L27.2 27.09h-.17l-2.074-10.1h-4.404l-2.102 10.1h-.17l-1.35-10.1zm3.45-1.96h2.6v-1.42c0-2.572-.91-4.347-4.361-4.347-1.903 0-2.656 1.534-2.656 2.471 0 2.514 2.088 3.296 4.417 3.296m21.236-3.296c0-.937-.752-2.471-2.656-2.471-3.451 0-4.36 1.775-4.36 4.346v1.42h2.613c2.33 0 4.417-.78 4.417-3.295zM21.9 15.032c3.452 0 4.362-1.776 4.362-4.347v-1.42h-2.614c-2.33 0-4.417.78-4.417 3.295 0 .938.752 2.472 2.656 2.472z"/></svg>