<svg width="93" height="81" fill="none" xmlns="http://www.w3.org/2000/svg"><path d="M.736 34.765S-4.218 80.247 46.5 80.247c50.717 0 45.764-45.482 45.764-45.482H.736Z" fill="#323E48"/><path d="m6.062 41.464.126-3.509c.277-7.523 2.62-12.821 6.973-15.74 3.433-2.305 7.418-2.588 10.598-2.01 2.855-4.1 7.201-6.306 12.714-6.405 4.184-.061 7.292 1.37 9.408 2.883 2.945-2.692 6.816-4.05 11.247-3.903 5.193.184 9.558 2.477 12.124 6.25 5.47-.49 9.222 1.74 11.482 3.854 4.563 4.254 6.48 11.199 5.97 15.575l-.35 2.975-80.304.024.012.006Zm14.812-14.738c-1.317 0-2.796.27-4.088 1.137-2.122 1.426-3.156 4.124-3.637 6.834l66.75-.018c-.5-2.286-1.69-4.997-3.613-6.792-2.128-1.979-4.773-2.587-8.091-1.856l-2.645.584-1.082-2.532c-1.666-3.91-5.85-4.474-7.569-4.536-3.492-.123-6.252 1.192-8 3.817l-2.423 3.626-2.808-3.325c-.805-.953-3.083-3.165-7.075-3.098-4.106.074-6.666 1.635-8.308 5.059l-1.34 2.79-2.831-1.13c-.583-.234-1.816-.554-3.24-.554v-.006Z" fill="#323E48"/><path d="m65.471 42.134-7.724-3.946L75.733.795l7.724 3.946-17.986 37.393Z" fill="#323E48"/></svg>