<svg xmlns="http://www.w3.org/2000/svg" width="64" height="94" fill="none"><path fill="#323E48" d="M63.247 52.014c-.752-2.453-3.334-7.453-11.88-7.528q.097-1.044.193-2.126l.39-4.565H.294l.321 4.5c2.681 37.623 11.85 48.567 12.889 49.69l1.246 1.355h21.944l1.242-1.3c.455-.48 2.463-2.77 4.856-8.28 13.235-6.706 23.389-22.147 20.456-31.746M32.732 84.937H18.79c-2.112-3.555-7.21-14.372-9.427-38.73h33.379c-2.587 24.507-7.859 35.244-10.01 38.73m14.5-14.772c1.178-4.753 2.28-10.456 3.18-17.256 2.058-.114 4.348.109 4.788 1.563.984 3.224-2.359 10.09-7.972 15.693zM11.985 20.352c2.71 3.036 2.482 6.726-.599 9.624l3.73 3.961c5.212-4.906 5.593-11.983.929-17.21l-1.78-1.994c-2.419-2.71-2.508-5.974-.238-8.734l1.326-1.612L11.149.935 9.823 2.547c-4 4.862-3.847 11.068.381 15.811zm12.859 0c2.71 3.036 2.482 6.726-.599 9.624l3.73 3.961c5.212-4.906 5.593-11.983.929-17.21l-1.78-1.994c-2.419-2.71-2.508-5.974-.238-8.734l1.326-1.612L24.008.935l-1.326 1.612c-4 4.862-3.848 11.068.381 15.811zm12.858 0c2.71 3.036 2.483 6.726-.598 9.624l3.729 3.961c5.213-4.906 5.593-11.983.93-17.21l-1.78-1.994c-2.42-2.71-2.508-5.974-.238-8.734l1.325-1.612L36.867.93 35.54 2.542c-4.001 4.862-3.848 11.069.38 15.811l1.781 1.993z"/></svg>