<svg xmlns="http://www.w3.org/2000/svg" width="67" height="82" fill="none"><path fill="#2B3B46" d="M17.73 10.523V4.598h3.22c5.86 0 9.887 2.068 9.887 9.922 0 4.33-3.489 6.044-5.622 6.044-5.706 0-7.485-4.734-7.485-10.041M45.236 0 31.817 26.831l7.399 3.7 13.418-26.83zM17.402 76.855C13.559 70.86 7.689 58.023 5.417 33.501h56.166C58.827 58.248 52.668 71.06 48.711 76.98c-1.813 2.71-4.998 4.36-8.441 4.36H25.923c-3.493 0-6.737-1.694-8.526-4.485z"/><path fill="#2B3B46" d="M66.566 25.523H.434v8.97h66.132z"/></svg>