<svg width="614" height="723" fill="none" xmlns="http://www.w3.org/2000/svg"><path d="M175.371 684.171c2.005-8.129 2.989-17.971 2.989-29.49 0-11.519-1.02-21.288-2.989-29.38-2.004-8.093-5.322-14.691-9.988-19.83-4.665-5.14-10.862-8.858-18.627-11.191-7.727-2.333-17.351-3.5-28.87-3.5H60.474v128.13h57.412c11.519 0 21.143-1.203 28.87-3.573 7.728-2.405 13.962-6.16 18.627-11.263 4.666-5.14 7.984-11.738 9.988-19.903Zm-40.935-8.967c0 4.666-1.24 7.655-3.682 8.967-2.442 1.312-6.525 1.968-12.212 1.968h-17.096v-62.515h17.096c5.687 0 9.77.656 12.212 1.968 2.442 1.312 3.682 4.302 3.682 8.967v40.645Zm122.843-23.075-2.405-38.785c-12.066 2.151-22.2 6.999-30.402 14.508l-11.263-11.446h-20.486V718.91h41.008v-58.615c1.021-1.24 2.515-2.37 4.447-3.317 1.932-.985 4.047-1.787 6.416-2.479 2.333-.693 4.666-1.24 6.926-1.713 2.26-.474 4.228-.693 5.796-.693l-.037.036ZM41.009 481.606h34.848v-30.583H41.009v-17.242h37.91l5.14-32.807H0v128.129h41.009v-47.497Zm75.857-55.006H96.379v102.503h41.009v-58.615c1.021-1.239 2.515-2.369 4.447-3.317 1.932-.984 4.047-1.786 6.38-2.479 2.332-.692 4.665-1.239 6.925-1.713 2.26-.437 4.229-.693 5.796-.693l-2.406-38.785c-12.065 2.151-22.199 6.999-30.401 14.508l-11.263-11.446v.037Zm380.123 0H403.89l3.062 30.765h32.442l.511 1.203-40.134 50.049v20.486h98.421v-30.765h-40.134l-.693-1.203 39.624-50.049V426.6ZM273.865 611.048c2.041 1.093 4.447 1.713 7.254 1.968 2.807.219 5.832.328 9.15.328 4.556 0 8.274-.255 11.19-.765 2.917-.511 5.213-1.422 6.926-2.734 1.714-1.312 2.917-2.989 3.573-5.067.692-2.041 1.02-4.629 1.02-7.691 0-3.062-.328-5.65-1.02-7.765-.693-2.114-1.896-3.827-3.573-5.14-1.713-1.312-4.009-2.26-6.926-2.843-2.916-.583-6.634-.838-11.19-.838-4.557 0-8.311.291-11.264.838-2.953.583-5.286 1.531-6.999 2.843-1.713 1.313-2.916 3.026-3.572 5.14-.693 2.115-1.021 4.703-1.021 7.765 0 3.864.583 6.889 1.713 9.04 1.13 2.15 2.734 3.791 4.776 4.884l-.037.037Zm140.268-365.761-76.294-76.295h37.728l44.362 54.132 21.397-17.534-30-36.634h48.263v-27.704h-48.226l29.963-36.561-21.397-17.57-44.362 54.131h-37.692l76.258-76.258-19.575-19.575-76.258 76.258V84.022l54.168-44.399-17.57-21.397-36.598 30V0h-27.703v48.263l-36.562-30-17.57 21.397 54.168 44.399v37.691l-76.294-76.294-19.575 19.575 76.258 76.258h-37.655l-44.399-54.132-21.397 17.57 29.963 36.562h-48.226v27.703h48.226l-30 36.635 21.398 17.533 44.362-54.131h37.691l-76.294 76.294 19.575 19.575 76.294-76.294v37.691l-54.131 44.362 17.533 21.398 36.635-30v48.262H318.3v-48.262l36.635 30 17.533-21.398-54.131-44.362V188.64l76.258 76.258 19.575-19.575-.037-.036ZM242.079 492.323c7.728-1.312 13.961-3.354 18.627-6.087 4.666-2.734 7.983-6.234 9.988-10.499 2.005-4.265 2.989-9.368 2.989-15.31 0-7.181-.839-13.122-2.479-17.825-1.64-4.739-4.447-8.493-8.384-11.263-3.937-2.807-9.076-4.776-15.456-5.979-6.379-1.202-14.362-1.786-23.912-1.786-19.028 0-32.844 4.484-41.446 13.415-8.603 8.93-12.904 22.564-12.904 40.899s4.265 31.969 12.794 40.936c8.53 8.931 22.382 13.414 41.519 13.414 14.909 0 30.073-2.041 45.456-6.16l-4.775-30.073c-12.977 4.082-25.845 6.16-38.603 6.16-2.041 0-4.083-.073-6.16-.182-2.078-.109-4.083-.292-6.161-.51v-7.181c11.519 0 21.143-.657 28.87-1.969h.037Zm-28.87-30.182c0-3.755 1.093-6.161 3.317-7.181 2.223-1.021 5.832-1.531 10.863-1.531h8.384v8.384c0 3.754-1.13 6.16-3.354 7.181-2.224 1.02-5.832 1.531-10.826 1.531h-8.384v-8.384Zm144.715 30.182c7.728-1.312 13.961-3.354 18.627-6.087 4.666-2.734 7.983-6.234 9.988-10.499 2.005-4.265 2.989-9.368 2.989-15.31 0-7.181-.839-13.122-2.479-17.825-1.64-4.739-4.447-8.493-8.384-11.263-3.937-2.807-9.076-4.776-15.456-5.979-6.379-1.202-14.362-1.786-23.912-1.786-19.028 0-32.844 4.484-41.446 13.415-8.603 8.93-12.904 22.564-12.904 40.899s4.265 31.969 12.794 40.936c8.53 8.931 22.382 13.414 41.519 13.414 14.909 0 30.073-2.041 45.456-6.16l-4.775-30.073c-12.977 4.082-25.845 6.16-38.603 6.16-2.041 0-4.083-.073-6.16-.182a120.587 120.587 0 0 1-6.161-.51v-7.181c11.519 0 21.143-.657 28.87-1.969h.037Zm-28.87-30.182c0-3.755 1.093-6.161 3.317-7.181 2.223-1.021 5.832-1.531 10.863-1.531h8.384v8.384c0 3.754-1.13 6.16-3.354 7.181-2.224 1.02-5.832 1.531-10.826 1.531h-8.384v-8.384Zm253.342 30.182c7.728-1.312 13.925-3.354 18.627-6.087 4.666-2.734 7.983-6.234 9.988-10.499 2.005-4.265 2.989-9.368 2.989-15.31 0-7.181-.838-13.122-2.478-17.825-1.641-4.739-4.448-8.493-8.384-11.263-3.937-2.807-9.077-4.776-15.456-5.979-6.379-1.202-14.362-1.786-23.913-1.786-19.028 0-32.843 4.484-41.446 13.415-8.603 8.93-12.904 22.564-12.904 40.899s4.265 31.969 12.795 40.936c8.53 8.931 22.381 13.414 41.519 13.414 14.909 0 30.073-2.041 45.456-6.16l-4.776-30.073c-12.977 4.082-25.881 6.16-38.602 6.16-2.042 0-4.083-.073-6.161-.182a120.643 120.643 0 0 1-6.16-.51v-7.181c11.519 0 21.106-.657 28.87-1.969h.036Zm-28.87-30.182c0-3.755 1.094-6.161 3.317-7.181 2.224-1.021 5.833-1.531 10.863-1.531h8.384v8.384c0 3.754-1.13 6.16-3.354 7.181-2.223 1.02-5.832 1.531-10.826 1.531h-8.384v-8.384ZM420.694 621.145c-3.936-2.807-9.076-4.775-15.455-5.978-6.379-1.203-14.362-1.786-23.913-1.786-19.028 0-32.843 4.483-41.446 13.414-8.603 8.931-12.904 22.564-12.904 40.899 0 18.336 4.265 31.969 12.831 40.936 8.53 8.931 22.382 13.415 41.519 13.415 14.909 0 30.073-2.042 45.456-6.161l-4.775-30.073c-12.977 4.083-25.845 6.161-38.603 6.161a116.356 116.356 0 0 1-12.321-.693v-7.181c11.519 0 21.142-.656 28.87-1.968 7.728-1.313 13.961-3.354 18.627-6.088 4.666-2.734 7.983-6.233 9.988-10.498s2.989-9.368 2.989-15.31c0-7.181-.838-13.123-2.479-17.825-1.64-4.739-4.447-8.494-8.384-11.264Zm-27.083 30.474c0 3.755-1.131 6.16-3.354 7.181-2.224 1.021-5.832 1.531-10.826 1.531h-8.384v-8.384c0-3.754 1.093-6.16 3.317-7.181 2.223-1.021 5.832-1.531 10.863-1.531h8.384v8.384ZM269.6 718.946h41.009V616.443l-41.009 5.14v97.363Zm217.292 3.062c15.601 0 26.318-3.864 32.114-11.628l8.894 8.53h20.486V582.579l-41.008 3.062v30.765h-23.585c-7.764 0-14.253 1.422-19.465 4.192-5.249 2.807-9.478 6.525-12.649 11.191-3.171 4.666-5.468 10.134-6.817 16.331-1.385 6.197-2.041 12.721-2.041 19.538 0 7.181.765 14.071 2.296 20.668 1.531 6.598 4.047 12.394 7.51 17.352 3.463 4.957 8.019 8.894 13.596 11.847 5.577 2.952 12.467 4.447 20.669 4.447v.036Zm0-70.024c0-3.755 1.093-6.161 3.317-7.182 2.223-1.02 5.832-1.53 10.863-1.53h6.306v41.519c-.328 3.207-1.641 5.212-3.864 6.087-2.224.838-5.65 1.276-10.316 1.276h-6.306v-40.17Z" fill="#323E48"/></svg>