<svg xmlns="http://www.w3.org/2000/svg" width="45" height="45" fill="none"><path fill="#fff" d="m1.667 13.33 4.9 31.193h31.17l4.875-31.193H32.174l-2.377 17.422h-.294L25.925 13.33H18.33l-3.626 17.422h-.294L12.08 13.33zM7.62 9.948h4.485v-2.45C12.105 3.063 10.536 0 4.582 0 1.3 0 0 2.646 0 4.264 0 8.6 3.602 9.948 7.62 9.948m36.634-5.684C44.254 2.646 42.956 0 39.672 0c-5.954 0-7.523 3.063-7.523 7.498v2.45h4.51c4.018 0 7.62-1.347 7.62-5.684zM20.657 9.948c5.954 0 7.522-3.063 7.522-7.498V0H23.67c-4.018 0-7.62 1.348-7.62 5.685 0 1.617 1.299 4.263 4.582 4.263z"/></svg>