<svg width="45" height="45" viewBox="0 0 45 45" fill="none" xmlns="http://www.w3.org/2000/svg">
<path d="M1.66699 13.3299L6.56769 44.5229H37.7361L42.6123 13.3299H32.1738L29.797 30.7519H29.503L25.9255 13.3299H18.3294L14.7028 30.7519H14.4088L12.081 13.3299H1.66699Z" fill="white"/>
<path d="M7.62058 9.94842H12.1047V7.49807C12.1047 3.06294 10.5365 0 4.58215 0C1.29868 0 0 2.64638 0 4.26361C0 8.60073 3.60201 9.94842 7.62058 9.94842Z" fill="white"/>
<path d="M44.2541 4.26361C44.2541 2.64638 42.9555 0 39.672 0C33.7176 0 32.1494 3.06294 32.1494 7.49807V9.94842H36.6581C40.6766 9.94842 44.2786 8.60073 44.2786 4.26361H44.2541Z" fill="white"/>
<path d="M20.6565 9.94842C26.6108 9.94842 28.179 6.88548 28.179 2.45035V0H23.6704C19.6518 0 16.0498 1.34769 16.0498 5.68481C16.0498 7.30204 17.3485 9.94842 20.632 9.94842H20.6565Z" fill="white"/>
</svg>
