<svg xmlns="http://www.w3.org/2000/svg" width="91" height="45" fill="none"><path fill="#fff" d="M30.824 5.425 25.21 6.878v12.09h5.237zm-3.62-.677c2.843 0 3.595-1.453 3.595-3.583V0h-2.142c-1.917 0-3.634.639-3.634 2.706 0 .777.627 2.03 2.193 2.03zm6.051-3.308v14.584c0 .702.163 1.24.501 1.617.338.376.827.676 1.491.914.777.276 3.07.426 5.45.426l.263-2.831s-2.355-.2-2.418-.213L38.868 0zm14.421 11.665h1.14l2.18 5.563h5.75l-4.096-7.342 3.959-6.69h-5.763l-2.03 4.623h-1.04L47.926 0l-5.613 1.44v17.228h5.225zM5.992 8.144h.163l2.017 10.524h5.55l2.03-10.524h.163l1.315 10.524h5.876L20.337 0l-7.316 1.44-1.266 7.055h-.326L10.14 0 2.91 1.44.167 18.669h4.498zM71.83 26.21l-5.612 1.441v2.957h-1.404v2.92h1.404v8.043c0 .714.175 1.265.513 1.628.339.364.84.665 1.491.903.777.275 3.158.426 5.713.426l.264-2.807s-2.481-.2-2.67-.213l.176-7.98H74.2v-2.92h-2.456l.088-4.41zm-9.433-.739-5.613 1.44v14.584c0 .702.163 1.24.501 1.617.339.376.827.676 1.491.914.777.276 3.07.426 5.45.426l.263-2.831s-2.355-.2-2.405-.213l.326-15.937zm26.147 6.139a2.9 2.9 0 0 0-1.24-.827 4.3 4.3 0 0 0-1.516-.263c-2.218 0-4.523 1.29-4.523 1.29l.125-6.251-5.237 1.44v17.228h4.861l.214-9.723s1.328-.576 2.13-.576c1.302 0 1.566.977 1.566 2.882v7.417h4.76v-8.97c0-.84-.1-1.567-.3-2.168s-.476-1.09-.827-1.479zm-41.421-2.105c-2.443 0-4.61.289-6.477.865l.676 3.546c1.529-.514 3.345-.777 5.45-.777.2 0 .426 0 .664.025.238.012.514.037.802.05v1.49h-1.127c-5.087 0-7.63 1.68-7.63 5.05 0 .852.112 1.579.35 2.18a3.6 3.6 0 0 0 1.003 1.428c.438.364.964.614 1.603.79.64.163 1.34.25 2.143.25.426 0 .852-.05 1.315-.138a7.5 7.5 0 0 0 1.34-.4 7 7 0 0 0 1.229-.627 5 5 0 0 0 .99-.84l1.59 1.592h2.807v-9.823c0-3.094-2.243-4.635-6.74-4.635zm1.128 9.397c0 1.716-1.103 2.769-2.531 2.769s-2.143-.877-2.143-1.516c0-1.666 1.379-2.193 2.945-2.193h1.729zm42.461-15.974a3.6 3.6 0 0 0-.815-1.216 3.8 3.8 0 0 0-1.215-.814 4 4 0 0 0-1.516-.288c-.551 0-1.053.1-1.516.288a3.6 3.6 0 0 0-1.215.814 3.8 3.8 0 0 0-.815 1.216 4 4 0 0 0-.288 1.516c0 .551.1 1.052.288 1.516s.464.864.815 1.215c.35.35.751.614 1.215.814.463.188.965.289 1.516.289s1.052-.1 1.516-.289a3.6 3.6 0 0 0 1.215-.814 3.8 3.8 0 0 0 .814-1.215c.188-.464.289-.965.289-1.516 0-.552-.1-1.053-.288-1.516m-.59 2.744c-.15.388-.35.739-.626 1.04a2.9 2.9 0 0 1-1.002.714 3.2 3.2 0 0 1-1.316.263q-.977 0-1.691-.451a3 3 0 0 1-1.09-1.19 3.5 3.5 0 0 1-.388-1.592c0-.426.075-.84.213-1.227.15-.389.35-.74.626-1.04s.614-.54 1.002-.715a3.2 3.2 0 0 1 1.316-.263q.977 0 1.691.451c.476.301.84.702 1.09 1.19.25.49.389 1.028.389 1.592 0 .426-.076.84-.213 1.228"/><path fill="#fff" d="M87.278 22.289h-1.24v4.297h.74v-1.779c.212 0 .375 0 .513.038a.44.44 0 0 1 .288.163c.063.087.088.213.088.388v1.203h.714v-1.29a.95.95 0 0 0-.125-.514c-.088-.138-.238-.226-.451-.251.25-.063.413-.163.5-.326.088-.15.126-.35.126-.601v-.1c0-.439-.088-.752-.263-.927-.175-.188-.476-.276-.89-.276zm.351 1.804q-.132.188-.45.188h-.39v-1.44c.402 0 .665.05.778.137.125.088.175.288.175.576 0 .238-.038.414-.125.539zM17.268 37.198h-.163L15.1 25.546 9.55 27 7.508 37.198h-.163L6.042 25.546.166 27l2.756 17.227h7.33l1.265-7.38h.326l1.29 7.38h7.23l2.73-18.68L18.609 27zm19.62-6.377c-.539-.376-1.24-.652-2.117-.814-.877-.163-1.967-.251-3.27-.251-3.283 0-7.442 2.017-7.442 7.442 0 2.506.588 4.385 1.754 5.6 1.165 1.228 3.07 1.842 5.688 1.842a24 24 0 0 0 6.227-.84l-.652-3.633c-1.779.564-3.546.84-5.287.84-.276 0-.564 0-.84-.025a10 10 0 0 1-.839-.075V39.44c1.579 0 2.894-.088 3.96-.263 1.064-.176 1.916-.451 2.542-.827.64-.376 1.09-.852 1.366-1.441s.414-1.278.414-2.092q0-1.467-.339-2.443a3.05 3.05 0 0 0-1.152-1.541zm-5.036 5.425h-1.73v-.94c0-1.716 1.103-2.769 2.531-2.769s2.143.877 2.143 1.516c0 1.667-1.378 2.193-2.932 2.193z"/></svg>