<svg xmlns="http://www.w3.org/2000/svg" width="239" height="82" fill="none"><g clip-path="url(#a)"><path fill="#323E48" d="M239 79.453H0v1.614h239z"/><path fill="#323E48" d="M10.326 80.076c-1.247 0-2.09-.073-2.733-.202-.917-.22-1.522-.55-2.017-1.155-.9-1.156-1.284-2.11-1.303-3.136 0-.99.404-1.871.752-2.531.202-.386.459-.807.734-1.284.22-.367.459-.789.715-1.23C9.427 65.22 11.884 55.72 13.04 45.1c.257-2.403.404-4.805.404-7.116 0-7.043-1.229-12.729-2.44-17.369C9.722 15.681 8.18 9.042 8.18 5.465c0-.678.055-1.632.349-2.329l.238-.44 1.155-2 1.981 1.872c.587.696 1.137 2.164 1.633 4.383.275 1.174.513 2.494.788 3.87.312 1.669.642 3.393 1.027 4.897.367 1.467.697 2.494 1.064 3.21.147.275.275.476.404.623.018-.073.036-.183.073-.293.073-.385.11-.899.11-1.578 0-1.522-.202-3.503-.385-5.41-.202-2.018-.404-4.127-.404-5.814 0-1.247.11-2.238.349-2.935l.348-.715.312-.587 1.357-.532 1.21.459c.643.44 1.046 1.284 1.266 1.907.606 1.633.954 4.365 1.34 7.227.128.935.238 1.87.366 2.787.202 1.394.495 3.155.935 4.402.184.514.349.862.55 1.082l.147.129s.055-.33.147-.79c.092-.513.147-1.191.147-2.053 0-1.394-.129-3.081-.239-4.714-.128-1.706-.238-3.448-.238-4.952 0-1.467.128-2.623.385-3.43.11-.366.349-.935.77-1.357l.257-.238.954-.385h.385c1.1.036 1.688.733 2.036 1.228.605.9 1.045 2.458 1.302 4.64.184 1.413.294 3.008.404 4.568.091 1.357.183 2.714.33 3.925.165 1.393.348 2.31.587 2.97.073.184.128.33.201.44.074-.146.147-.348.239-.623.422-1.522.513-4.145.587-6.694.037-.972.055-1.926.11-2.861.11-2.201.293-3.742.605-4.842.202-.77.495-1.394.825-1.834l.202-.257 1.614-.972 1.54.898.203.257c.605.716.843 1.89.953 2.751.129.88.184 1.981.184 3.448 0 1.028-.037 2.128-.055 3.228a93 93 0 0 0-.055 3.155c0 1.174.036 2.66.275 3.705.073.312.165.55.256.697 0-.018.037-.055.055-.092.44-.825.624-2.274.752-3.723.11-1.284.147-2.696.202-4.108.055-1.541.11-3.063.22-4.384.129-1.54.33-2.696.624-3.521.128-.385.385-.936.789-1.358l.642-.44.513-.275.569.055c1.063.092 1.559.936 1.724 1.247.44.807.715 2.055.843 3.76.11 1.45.11 3.137.11 4.732v1.394c0 2 0 3.925.202 5.319.055.459.129.807.22 1.064.037-.11.074-.22.11-.367.422-1.54.55-4.182.679-6.75.037-.953.092-1.907.147-2.824.146-2.183.33-3.723.623-4.824.129-.513.367-1.265.77-1.797l.606-.55 1.54-1.174 1.083 1.614c.201.293.385.697.513 1.119.477 1.412.807 4.053 1.064 8.51l.128 2.31c.129 2.348.257 4.55.459 5.815.128.678.22 3.1.275 7.134.055 3.65.073 8.346.073 13.334 0 7.227-.036 15.058-.073 21.074-.037 5.502-.073 9.482-.073 10.124v.092c-.037 3.063-1.138 5.099-3.504 6.438-1.76.971-4.218 1.448-7.556 1.448H16.085c-1.376 0-2.55.019-3.577.037-.843 0-1.558.055-2.2.018zm-2-3.815c.514.11 1.193.129 2.11.147.587 0 1.265 0 2.018-.018 1.027 0 2.237-.037 3.631-.037H43.56c2.677 0 4.658-.33 5.832-.972 1.009-.569 1.596-1.302 1.614-3.265 0-.77.037-4.75.073-10.216.037-6.015.074-13.829.074-21.037 0-4.97-.019-9.665-.074-13.279-.055-4.493-.165-6.235-.22-6.547a36 36 0 0 1-.257-2.128 9 9 0 0 1-.256 1.082c-.257.862-.624 1.816-1.467 2.568-.606.532-1.376.77-2.22.844a3.44 3.44 0 0 1-2.09-.752 4.05 4.05 0 0 1-1.046-1.34 7.4 7.4 0 0 1-.459-1.301 7.3 7.3 0 0 1-.532 1.284c-.678 1.283-1.944 2.109-3.3 2.109h-.093c-1.045 0-2.145-.569-2.806-1.486a5.5 5.5 0 0 1-.843-1.816c-.257.862-.642 1.798-1.541 2.532a3.48 3.48 0 0 1-2.183.77h-.055c-.935 0-1.907-.44-2.586-1.192-.55-.606-.862-1.303-1.027-1.761-.036-.11-.073-.22-.11-.349-.165.716-.477 1.504-1.119 2.201a3.46 3.46 0 0 1-2.586 1.1c-1.119 0-2.164-.531-2.916-1.466-.385-.459-.715-1.028-1.009-1.743-.146.697-.422 1.504-1.1 2.201-.624.642-1.522.972-2.421.99a3.5 3.5 0 0 1-1.54-.366c.953 4.2 1.76 9.152 1.76 15.002a70 70 0 0 1-.422 7.502c-1.21 11.078-3.833 21.11-7.006 26.833q-.413.716-.77 1.32c-.257.422-.477.789-.642 1.119-.312.587-.33.789-.33.807 0 .092.11.312.366.697zm224.402 3.137c-.624-.037-1.321 0-2.146-.019-1.027 0-2.201-.037-3.577-.037h-27.566c-3.32 0-5.777-.476-7.52-1.43-2.366-1.339-3.484-3.393-3.503-6.456 0-.679-.036-4.677-.073-10.216a3581 3581 0 0 1-.073-21.074c0-4.988.018-9.702.073-13.333.055-4.035.147-6.456.275-7.172.202-1.229.33-3.43.459-5.777l.128-2.311c.257-4.457.587-7.098 1.082-8.547.11-.385.312-.789.514-1.082l1.1-1.596 2.128 1.724c.385.532.641 1.284.77 1.816.275 1.1.477 2.623.623 4.824.055.917.111 1.87.147 2.806.129 2.568.257 5.227.679 6.786a3 3 0 0 0 .11.33c.092-.293.165-.623.22-1.064.183-1.393.202-3.3.202-5.318v-1.394c0-1.596 0-3.283.11-4.732.11-1.706.385-2.953.807-3.723.201-.349.697-1.211 1.815-1.284l.532-.037 1.138.697c.403.403.641.972.788 1.376.275.788.495 1.944.624 3.503.11 1.32.165 2.842.22 4.383.055 1.412.092 2.825.202 4.127.128 1.43.293 2.88.733 3.686.074.129.129.184.147.202-.018-.147.073-.403.165-.789.238-1.027.275-2.512.275-3.686 0-1.009-.037-2.091-.055-3.155a97 97 0 0 1-.055-3.228c0-1.467.055-2.586.183-3.466.111-.844.367-2.018.954-2.733l.202-.257 1.541-.898 1.614.972.201.256c.349.44.624 1.046.826 1.834.293 1.1.495 2.642.605 4.842.055.936.073 1.908.11 2.862.073 2.549.165 5.172.587 6.712.073.257.147.459.22.587.073-.11.128-.256.202-.458.238-.642.422-1.578.587-2.971.146-1.21.238-2.568.33-3.925.11-1.541.22-3.155.403-4.567.257-2.183.697-3.723 1.284-4.604.367-.532.972-1.21 2.054-1.247h.385l.936.385.257.239c.44.421.678.99.807 1.394.256.77.385 1.907.366 3.393 0 1.504-.128 3.264-.238 4.952-.11 1.632-.238 3.32-.238 4.713 0 .862.036 1.522.146 2.054.092.459.165.716.294.844v-.183c.183-.239.367-.587.55-1.1.44-1.248.734-3.009.935-4.403.129-.898.257-1.852.367-2.787.367-2.88.734-5.594 1.339-7.263.22-.606.605-1.45 1.266-1.89l.256-.146.716-.33 1.467.495.825 1.375c.239.697.349 1.67.349 2.935 0 1.687-.202 3.778-.404 5.814-.183 1.926-.385 3.907-.385 5.429 0 .678.037 1.192.11 1.596.018.091.037.183.055.256.165-.165.275-.366.422-.623.348-.697.697-1.724 1.064-3.192.367-1.503.697-3.228 1.009-4.897.256-1.375.513-2.696.788-3.87.495-2.2 1.027-3.668 1.633-4.365l.275-.275 1.687-1.614 1.412 2.476c.294.697.349 1.67.349 2.348 0 3.558-1.523 10.197-2.825 15.131-1.21 4.64-2.439 10.326-2.439 17.369 0 2.31.128 4.695.403 7.116 1.156 10.62 3.614 20.12 6.566 25.439.257.44.496.862.716 1.229.293.477.532.917.733 1.302.514.954.752 1.742.752 2.513 0 1.027-.403 1.98-1.265 3.1-.532.641-1.119.971-2.018 1.191-.66.147-1.504.22-2.806.22zm-33.197-3.724h27.474c1.394 0 2.605.019 3.632.037.789 0 1.486.018 2.072.018q1.46 0 1.981-.11h.055c.275-.367.385-.605.385-.715 0 0 0-.202-.311-.789a22 22 0 0 0-.661-1.137q-.357-.605-.77-1.32c-3.191-5.723-5.814-15.755-7.024-26.833a70 70 0 0 1-.422-7.501c0-5.851.807-10.785 1.76-15.003-.495.238-1.063.33-1.595.366-.844-.036-1.743-.348-2.366-.99-.679-.697-.954-1.522-1.101-2.2-.293.715-.623 1.283-1.008 1.742-.771.935-1.816 1.448-2.972 1.448a3.4 3.4 0 0 1-2.531-1.1c-.642-.697-.953-1.504-1.118-2.2l-.111.33c-.183.476-.476 1.173-1.063 1.797-.642.733-1.596 1.119-2.623 1.155-.715-.037-1.541-.275-2.146-.77-.917-.752-1.302-1.706-1.541-2.531a5.4 5.4 0 0 1-.862 1.852 3.55 3.55 0 0 1-2.897 1.45c-1.321.054-2.605-.808-3.283-2.128a7 7 0 0 1-.514-1.248 7 7 0 0 1-.459 1.303 3.9 3.9 0 0 1-1.045 1.339c-.569.476-1.339.66-2.109.733-.77-.037-1.577-.293-2.183-.825-.862-.77-1.229-1.706-1.467-2.55a15 15 0 0 1-.257-1.118 34 34 0 0 1-.238 2.109c-.055.348-.165 2.072-.22 6.584a938 938 0 0 0-.074 13.297c0 7.227.037 15.04.074 21.056.036 5.539.073 9.537.073 10.124l-1.834.092h1.834c.018 1.962.624 2.677 1.632 3.264 1.156.642 3.082.954 5.723.954h.091zm11.885-56.618h.018-.037z"/><path fill="#323E48" d="M83.433 80.04H65.055c-2.97 0-5.649-.679-7.556-1.926-2.22-1.467-3.338-3.467-3.356-5.943 0-.201.366-15.534.366-30.757 0-8.785-.128-15.773-.366-20.78 0-2.146.146-6.566.55-10.418.238-2.274.532-4.072.862-5.356.147-.55.385-1.32.715-1.907l.238-.348L58.087.514l1.559 2.402c.422.789.66 2.293.715 4.494.037 1.1.037 2.33.037 3.595 0 1.724 0 3.484.092 5.025.055.88.165 2.183.458 3.063.055.202.128.349.202.459.073-.147.146-.349.238-.624.422-1.504.495-4.108.587-6.64.037-.972.055-1.962.11-2.897.11-2.201.294-3.742.587-4.842.147-.532.404-1.284.825-1.834l.202-.257 1.614-.99 1.54.898.203.239c.605.715.843 1.889.953 2.75.11.881.184 2 .184 3.449 0 1.027-.037 2.127-.055 3.228a93 93 0 0 0-.055 3.154c0 1.266.036 2.697.275 3.705.073.312.147.55.257.697 0-.018.036-.055.055-.11.44-.825.623-2.274.733-3.723.11-1.284.147-2.715.202-4.145.055-1.522.11-3.026.22-4.347.128-1.522.33-2.696.624-3.503.201-.587.458-1.027.77-1.357l.642-.44.495-.276.569.056c1.063.091 1.559.917 1.742 1.228.44.826.715 2.073.844 3.76.091 1.34.11 2.861.11 4.732v1.394c0 2.09 0 3.943.201 5.319.055.44.129.789.202 1.045.037-.11.074-.22.11-.348.44-1.522.55-4.164.66-6.731.037-.954.074-1.908.147-2.825.147-2.256.33-3.741.624-4.842.147-.532.403-1.284.807-1.815l.183-.239 1.89-1.284 1.393 1.523c.477.715.679 1.907.77 2.787.092.88.129 2.018.129 3.54 0 .752 0 1.522-.018 2.311 0 .789-.019 1.577-.019 2.348 0 1.614.037 3.43.294 4.732.11.55.238.917.385 1.155-.037.073.037 0 .073-.073.44-.826.587-2.274.679-3.723.073-1.193.11-2.495.147-3.815.036-1.614.073-3.265.201-4.714.129-1.522.367-2.733.679-3.54.22-.568.514-1.027.862-1.357l.238-.22 1.45-.624 1.448.826.22.257c.606.733.88 1.962.99 2.86.13.918.184 2.073.184 3.614 0 1.027-.018 2.109-.055 3.21-.018 1.045-.055 2.09-.055 3.08 0 1.138.037 2.587.257 3.577.055.22.092.385.147.514.055-.129.11-.312.201-.569.422-1.504.496-4.126.587-6.64.037-.971.055-1.962.11-2.897.11-2.2.294-3.742.606-4.842.146-.514.403-1.266.825-1.816l.202-.275 1.632-.972 1.54.899.202.238c.606.715.844 1.89.954 2.751.11.899.184 2.036.184 3.448 0 1.027-.037 2.128-.055 3.228a93 93 0 0 0-.056 3.155c0 1.174.037 2.66.276 3.705.073.312.165.532.256.697 0-.018.037-.055.055-.092.44-.825.624-2.274.734-3.723.11-1.284.147-2.714.202-4.108.055-1.541.11-3.045.22-4.366.128-1.54.33-2.696.624-3.521.128-.367.366-.917.751-1.339l.202-.22.972-.532.569.055c1.064.092 1.559.936 1.724 1.247.44.807.715 2.055.844 3.76.11 1.45.11 3.137.11 4.732v1.394c0 2 0 3.925.201 5.319a5.6 5.6 0 0 0 .22 1.082c.037-.11.074-.22.129-.367.422-1.522.55-4.181.678-6.75.055-.953.092-1.907.147-2.824.129-2.2.33-3.723.624-4.823.128-.532.385-1.266.77-1.798l.367-.385 1.247-.954 1.064.624c1.119.66 1.577 2.733 1.724 3.595.275 1.43.422 3.32.422 5.282 0 3.741-.514 7.428-1.431 10.124-1.284 3.797-4.2 6.86-7.318 10.088l-.954 1.008c-3.393 3.577-6.877 7.575-8.95 13.59-1.192 3.486-1.816 7.466-1.816 11.85 0 7.189 1.596 13.003 1.926 14.103l.073.275v.276c-.055 2.989-1.173 5.007-3.503 6.327-1.76.972-4.236 1.449-7.556 1.449zm-18.36-3.668H83.36c2.75 0 4.658-.33 5.832-.972.935-.532 1.522-1.211 1.614-2.935-.477-1.706-1.98-7.648-1.98-14.838 0-4.787.678-9.17 1.998-13.04 2.311-6.713 6.255-11.225 9.758-14.93l.972-1.008c1.779-1.853 3.411-3.559 4.658-5.283-.165.019-.33.037-.477.037-.733-.037-1.485-.257-2.072-.752a3.9 3.9 0 0 1-1.027-1.32c-.22-.44-.367-.88-.477-1.321-.147.458-.312.899-.532 1.284-.697 1.302-2.054 2.11-3.338 2.11-1.064.036-2.183-.551-2.861-1.486-.44-.606-.679-1.266-.844-1.816-.257.862-.642 1.797-1.54 2.53-.606.496-1.45.753-2.201.771-1.1.018-2.183-.55-2.825-1.504-.422-.587-.642-1.247-.788-1.797a7.5 7.5 0 0 1-.477 1.174 3.95 3.95 0 0 1-3.357 2.127c-1.229 0-2.402-.66-3.081-1.779-.312-.477-.513-.99-.66-1.467-.257.825-.642 1.724-1.486 2.44-.092.072-.202.146-.293.22v.568h-3.669l-.018-.55a1.2 1.2 0 0 1-.238-.184 3.9 3.9 0 0 1-1.027-1.32c-.22-.44-.367-.88-.477-1.321-.147.458-.312.88-.532 1.284-.679 1.302-1.944 2.11-3.302 2.11h-.091c-1.064 0-2.146-.57-2.806-1.486-.459-.606-.697-1.284-.844-1.816-.275.862-.66 1.797-1.54 2.53a3.52 3.52 0 0 1-2.202.79c-.935 0-1.962-.44-2.659-1.23a4.7 4.7 0 0 1-.642-.935c.22 4.916.349 11.738.349 20.193 0 15.278-.367 30.648-.386 30.795 0 1.174.532 2.072 1.706 2.843 1.302.843 3.32 1.339 5.557 1.339h.019zm89.871 3.668c-3.338 0-5.795-.477-7.538-1.431-2.347-1.339-3.466-3.356-3.503-6.364v-.202l.037-.202c.238-1.082 1.394-6.878 1.394-14.14 0-4.384-.422-8.42-1.266-12.014-1.669-7.08-3.521-12.948-5.007-17.662l-.146-.495c-1.596-5.044-2.642-8.51-2.642-10.675v-.348c.055-.77.074-1.688.092-2.696.018-1.724.055-3.687.239-5.52.165-1.762.476-3.174.917-4.164.275-.66.642-1.192 1.063-1.56l.239-.22 1.834-.733 1.375 1.009c.532.642.752 1.724.844 2.512.092.79.147 1.78.147 3.1 0 .734 0 1.504-.018 2.293 0 .807-.019 1.632-.019 2.457 0 1.743.055 3.724.44 5.19.165.606.349 1.028.587 1.303.165.183.404.33.587.275.184-.293.294-.935.367-1.504.092-.752.147-1.687.147-2.971 0-1.009-.037-2.09-.055-3.155-.037-1.1-.055-2.2-.055-3.228 0-1.98.11-3.448.367-4.456.183-.734.44-1.321.77-1.743l.202-.257 1.082-.623.55.036c1.192.074 1.742.936 1.962 1.248.569.917.936 2.476 1.101 4.658.11 1.376.165 2.916.22 4.475a89 89 0 0 0 .183 4.017c.074.862.184 2.11.477 2.971.055.147.092.275.147.367.055-.128.128-.312.183-.55.386-1.504.404-4.09.422-6.603 0-.99 0-1.999.037-2.953.055-2.2.22-3.76.495-4.86.202-.789.477-1.394.825-1.834l.22-.275 1.193-.697.568.036c1.046.074 1.596.697 1.944 1.248.569.935.936 2.494 1.082 4.677.092 1.32.129 2.824.166 4.328.036 1.43.073 2.88.165 4.163.073.936.183 2.128.476 2.953.092.257.184.44.294.55.275-.55.403-1.412.495-2.219.129-1.174.147-2.622.147-3.76 0-.77 0-1.577-.018-2.347 0-.789-.019-1.56-.019-2.311 0-2.128.092-3.54.275-4.567.092-.514.275-1.229.606-1.743l.33-.385.568-.623.844.036c1.192.055 1.742.936 1.944 1.284q.798 1.349 1.101 4.622c.128 1.357.201 2.916.256 4.457.055 1.394.129 2.788.22 4.035.092.935.22 2.146.496 2.971 0 .055.036.092.055.129v-.037c.385-1.339.403-3.87.403-6.31v-1.43c0-2.182 0-4.438.257-6.126q.22-1.485.66-2.31c.22-.368.697-1.193 1.779-1.303h.312c1.137.073 1.651.954 1.852 1.284.496.899.826 2.44.972 4.64.092 1.21.147 2.586.184 3.962.055 1.54.11 3.136.238 4.512.074.862.22 2.09.532 2.953.092.275.202.458.312.568.11-.312.22-.935.312-1.504.092-.733.147-1.687.147-2.971 0-1.009-.037-2.09-.055-3.155-.037-1.1-.056-2.2-.056-3.228 0-1.98.111-3.448.367-4.456.11-.496.349-1.211.771-1.743l.201-.238 1.082-.624.551.037c1.063.055 1.632.752 1.962 1.247.569.899.936 2.458 1.101 4.659.11 1.357.165 2.916.22 4.475.036 1.394.091 2.77.183 4.035.073.862.184 2.109.477 2.97.055.166.11.313.165.404.422-.843.569-2.347.642-3.723.073-1.467.073-3.154.092-4.787 0-1.284 0-2.55.036-3.668.055-1.54.165-2.678.367-3.466.11-.459.275-.88.477-1.193L185.39.587l1.596 2.09c.22.294.44.698.605 1.12.826 2.072 1.247 6.327 1.431 8.675.275 3.485.348 6.768.348 8.143-.256 5.08-.367 12.069-.367 20.872 0 14.361.331 29.034.367 30.648v.091c0 2.495-1.137 4.494-3.338 5.943-1.926 1.247-4.603 1.944-7.575 1.944h-23.476zm-7.391-7.667c.073 1.797.66 2.476 1.632 3.026 1.156.642 3.21 1.01 5.814.972h23.403c2.238 0 4.256-.495 5.558-1.338 1.155-.752 1.669-1.651 1.687-2.898-.037-1.633-.367-16.342-.367-30.74 0-8.418.11-15.223.349-20.193-.642 1.32-1.908 2.164-3.283 2.164h-.092c-.935 0-1.907-.458-2.568-1.229-.55-.623-.825-1.32-.99-1.815-.037-.092-.055-.184-.092-.275-.165.642-.422 1.265-.862 1.834-.66.917-1.742 1.522-2.898 1.467h-.036c-.917 0-1.871-.422-2.55-1.137-.458-.477-.807-1.064-1.082-1.816-.055-.147-.092-.275-.147-.422-.036.11-.055.239-.091.349-.22.733-.569 1.614-1.394 2.292-.074.055-.129.11-.202.147v.587h-3.668l-.018-.55a4 4 0 0 1-.789-.679c-.532-.605-.807-1.302-.972-1.779-.019-.073-.055-.147-.074-.22-.165.532-.366 1.027-.678 1.486-.679 1.082-1.853 1.779-3.118 1.742-.936-.037-1.926-.422-2.605-1.155-.458-.477-.788-1.064-1.082-1.835a8 8 0 0 1-.385-1.504 9 9 0 0 1-.22 1.046c-.238.899-.605 1.889-1.522 2.66-.624.513-1.412.733-2.219.788-.936.037-1.945-.44-2.623-1.229-.55-.623-.826-1.32-.991-1.816-.036-.091-.055-.183-.091-.275-.165.642-.422 1.266-.862 1.834-.661.917-1.761 1.523-2.898 1.468-1.284.018-2.495-.55-3.338-1.541a3.4 3.4 0 0 1-.312-.404c.422 1.468.954 3.155 1.522 4.952l.165.496c1.504 4.768 3.375 10.71 5.081 17.919.917 3.87 1.375 8.198 1.375 12.857 0 7.244-1.1 13.113-1.43 14.69z"/><path fill="#EDB197" d="M113.218 35.215c-5.649.898-5.924 8.712-3.063 12.673 2.88 3.962 4.017 6.933 2.495 8.712-1.522 1.78-8.987 3.962-7.648 8.51 1.339 4.549 6.309 7.135 8.803 1.578 2.495-5.54 2.11-10.491 4.017-11.684s3.833-2.769 2.861-6.73c-.954-3.962 6.695-6.53 7.85-2.972 1.137 3.558 5.924 14.251 11.867 9.299 5.924-4.952 1.522-10.491-2.11-12.27-9.372-4.604-9.188-2.77-11.866-2.971s-3.246-5.741-13.206-4.164z"/><path fill="#EDB197" d="M126.57 60.562c-2.366 6.73-9.097 2.366-8.51 8.712.623 6.694 8.711 6.327 14.452 0 5.741-6.328 1.394-12.472-1.192-13.06-2.568-.586-3.943 2.073-4.75 4.348m-4.75-41.579c-4.09 2.64.404 7.721.404 7.721s7.923 10.106 8.913 1.192-2.567-13.26-9.298-8.913zm-19.753 19.001c-2.916 1.89-11.041 21.092 1.339 18.8 9.17-1.688 1.907-4.843 2.604-11.188.716-6.346.844-10.73-3.943-7.612m36.371 10.894c0 1.1-.715 1.981-1.577 1.981-.863 0-1.578-.88-1.578-1.98s.715-1.981 1.578-1.981c.862 0 1.577.88 1.577 1.98"/><path fill="#EDB197" d="M124.792 70.246c0 .77-.661 1.393-1.486 1.393s-1.486-.623-1.486-1.393.661-1.394 1.486-1.394 1.486.623 1.486 1.394m-22.376-24.339a.58.58 0 0 1-.587.587.58.58 0 0 1-.587-.587.59.59 0 0 1 .587-.587.59.59 0 0 1 .587.587m1.191 6.126c0 .77-.569 1.394-1.284 1.394s-1.284-.624-1.284-1.394.569-1.394 1.284-1.394 1.284.624 1.284 1.394M129.34 26.21c0 .494-.404.88-.899.88a.88.88 0 0 1-.88-.88c0-.478.403-.9.88-.9s.899.404.899.9"/><path fill="#323E48" d="M29.584 62.414c4.103 0 7.428-4.648 7.428-10.38 0-5.734-3.325-10.382-7.428-10.382s-7.428 4.648-7.428 10.381 3.326 10.381 7.428 10.381m45.064-3.65a8.914 8.914 0 1 0 0-17.827 8.914 8.914 0 0 0 0 17.827m93.299 6.401c4.072 0 7.373-4.689 7.373-10.473s-3.301-10.472-7.373-10.472-7.373 4.688-7.373 10.472 3.301 10.473 7.373 10.473m43.285-4.237a8.547 8.547 0 0 0 8.547-8.547 8.546 8.546 0 1 0-17.093 0 8.546 8.546 0 0 0 8.546 8.547"/></g><defs><clipPath id="a"><path fill="#fff" d="M0 0h239v81.067H0z"/></clipPath></defs></svg>