<svg width="154" height="151" viewBox="0 0 154 151" fill="none" xmlns="http://www.w3.org/2000/svg">
<g clip-path="url(#clip0_506_4108)">
<path d="M83.6635 0.521973H69.0371V75.5081H83.6635V0.521973Z" fill="#323E48"/>
<path d="M85.661 76.5114L80.0117 67.5522L35.5191 95.8166L41.1684 104.776L85.661 76.5114Z" fill="#323E48"/>
<path d="M113.165 105.891L118.928 97.0044L74.7975 68.1734L69.0349 77.0596L113.165 105.891Z" fill="#323E48"/>
<path d="M98.5708 83.8086L104.775 92.3896L128.043 75.4408L121.838 66.8597L98.5708 83.8086Z" fill="#323E48"/>
<path d="M103.649 87.1549L94.7227 92.8252L110.098 117.208L119.023 111.538L103.649 87.1549Z" fill="#323E48"/>
<path d="M39.885 65.4688L30.959 71.1392L46.3338 95.5219L55.2598 89.8515L39.885 65.4688Z" fill="#323E48"/>
<path d="M58.8025 92.8192L49.9492 87.0352L34.2661 111.219L43.1194 117.003L58.8025 92.8192Z" fill="#323E48"/>
<path d="M151.805 92.5377C147.759 76.5846 140.234 62.1974 129.232 49.3762C126.924 46.6847 124.113 44.0422 120.814 41.4323C114.703 36.6366 100.337 29.7203 95.6074 39.9642C94.5185 42.3294 94.0147 44.7925 94.1122 47.3698C94.3072 52.6386 94.1772 62.0996 94.1772 78.8357C94.1772 78.8357 94.1772 78.852 94.1772 78.8683C94.161 78.9009 94.1122 78.9009 94.0797 78.8846L85.8727 73.8768C85.5151 73.6484 85.2876 73.257 85.2876 72.8328V1.419C85.2876 0.4729 84.8488 0.0161649 83.9875 0.0487889C83.9875 0.0487889 83.9387 0.0487889 83.8737 0.0487889C83.0124 0.0161649 82.5898 0.440276 82.5898 1.30481V24.2395C82.5898 24.2395 82.5248 24.3863 82.4436 24.3863H76.918C76.0405 24.3863 75.6017 24.8267 75.5854 25.6912V25.7728C75.6342 26.621 76.073 27.0451 76.8855 27.0451L82.4273 27.0777C82.5411 27.0777 82.5898 27.1267 82.5898 27.2409V47.0273C82.5898 47.1252 82.5411 47.1741 82.4436 47.1741H77.1456C76.4467 47.1741 75.8617 47.7287 75.8292 48.4138C75.8292 48.4791 75.8292 48.528 75.8292 48.528C75.8454 49.3925 76.268 49.833 77.0806 49.8493L82.4598 49.8819C82.4598 49.8819 82.5898 49.9471 82.5898 50.0124C82.5898 53.2095 82.5898 60.5336 82.5898 71.9846C82.5898 73.8605 82.8336 75.1818 84.3775 76.1279C94.096 82.1307 99.3777 85.3768 100.223 85.8987C100.792 86.2413 101.36 86.225 101.929 85.8987C106.171 83.2888 110.803 80.4668 115.824 77.4165C116.474 77.025 117.027 77.2045 117.514 77.9711C117.514 77.9711 117.514 78.0037 117.531 78.069C117.645 78.6725 117.449 79.1293 116.913 79.4392L102.612 88.1824C102.157 88.4597 101.88 88.9491 101.88 89.4874V94.12C101.88 94.5278 101.994 94.9193 102.206 95.2781L110.543 109.045C110.868 109.584 110.77 110.122 110.218 110.66C110.218 110.66 110.201 110.677 110.185 110.677C109.454 110.954 108.901 110.807 108.544 110.204L99.6378 95.5228C99.459 95.2292 99.2152 94.9682 98.9227 94.7888C92.032 90.3845 85.0926 85.9477 78.1369 81.4945C77.4869 81.0867 76.8368 80.8746 76.203 81.2988C67.9634 86.5512 60.7315 91.1512 54.5234 95.115C54.2633 95.2781 54.0358 95.5228 53.8733 95.7838L45.1299 110.187C44.8212 110.693 44.3661 110.905 43.7486 110.807C43.7323 110.807 43.7161 110.807 43.6998 110.807C42.9035 110.301 42.7085 109.731 43.0985 109.078L51.7443 94.8214C51.9394 94.4951 52.0369 94.12 52.0369 93.7448V89.6505C52.0369 89.1285 51.7606 88.6391 51.3218 88.3618L36.6791 79.4229C36.6791 79.4229 36.5816 79.3576 36.5329 79.325C36.0616 78.9335 35.9478 78.281 36.3053 77.8732C36.3053 77.8732 36.3216 77.8569 36.3378 77.8406C36.7441 77.2045 37.2642 77.074 37.8817 77.4654C46.7714 82.8973 51.5006 85.7519 52.0531 86.0455C52.5894 86.3392 53.0932 86.3392 53.5645 86.0455C56.441 84.2839 61.8041 80.9562 69.6536 76.0626C70.8562 75.3123 71.4413 74.3335 71.4413 73.0938C71.4413 52.1003 71.4413 41.3507 71.4413 40.8287C71.4413 40.6982 71.4738 40.633 71.555 40.633H78.3157C79.0307 40.633 79.4858 40.2252 79.6808 39.3933C79.6808 39.377 79.6808 39.3607 79.6808 39.3443C79.567 38.4146 79.112 37.9578 78.3157 37.9578H71.5713C71.4738 37.9578 71.425 37.8926 71.425 37.7947V17.3721C71.425 17.3721 71.4738 17.2742 71.5225 17.2742H77.3081C78.1044 17.2742 78.5757 16.8828 78.7382 16.0998C78.7545 16.0182 78.7707 15.9693 78.7707 15.953C78.6407 15.0232 78.2019 14.5665 77.4218 14.5665H71.62C71.49 14.5665 71.425 14.5012 71.425 14.3707V1.2885C71.425 0.423965 71.0025 0.0161649 70.1411 0.0487889C70.0761 0.0487889 70.0436 0.0487889 70.0436 0.0487889C69.9461 0.0161649 69.8486 -0.000147086 69.7348 0.0161649C69.1823 0.0651008 68.7272 0.71758 68.7272 1.45162V72.8328C68.7272 73.2406 68.516 73.6158 68.1747 73.8279L59.8864 78.9009C59.8864 78.9009 59.7726 78.9335 59.7726 78.8357C59.7726 69.5704 59.7726 60.2726 59.7726 50.9585C59.7726 50.9585 59.7889 50.0939 59.8376 48.3812C59.9351 45.2819 59.5289 42.1663 58.0825 39.4422C53.0282 29.9323 39.0681 36.8323 33.315 41.3018C29.2196 44.4826 25.3843 48.3159 21.8414 52.818C13.5531 63.3393 7.44253 75.0186 3.49339 87.8072C1.46194 94.4136 0.275577 101.167 -0.0332031 108.067V111.639C0.0318032 113.074 0.178067 114.755 0.389338 116.663C1.39694 125.733 4.631 133.742 10.124 140.723C11.4404 142.403 12.8381 143.823 14.3332 145.013C17.681 147.689 21.9714 150.249 26.2619 150.869C29.6909 151.359 32.665 150.396 35.2165 147.966C35.6715 147.525 36.4679 146.514 37.573 144.915C38.6131 143.415 39.3769 142.403 39.8644 141.833C42.0909 139.288 44.3824 137.314 46.6901 135.928C47.6977 135.324 49.8754 134.035 53.2232 132.062C55.4497 130.74 57.8549 128.832 58.83 126.45C59.4313 124.982 59.7564 123.433 59.7726 121.801C59.7726 121.035 59.7726 112.128 59.7726 95.0661C59.7726 94.9682 59.8214 94.8866 59.9026 94.8377L76.853 84.0229C76.853 84.0229 77.0156 83.9739 77.0806 84.0229L94.0472 94.8377C94.0472 94.8377 94.1772 94.9682 94.1772 95.0661C94.1772 107.528 94.1772 116.353 94.1772 121.573C94.1772 121.932 94.2422 122.633 94.3885 123.694C94.681 125.961 95.6074 127.837 97.1675 129.354C98.5001 130.642 100.158 131.752 101.929 132.779C104.546 134.296 106.22 135.275 106.935 135.716C110.266 137.738 113.062 140.283 115.288 143.317C115.694 143.872 116.426 144.899 117.498 146.384C118.295 147.493 119.156 148.39 120.098 149.075C122.601 150.886 125.494 151.424 128.793 150.674C132.758 149.776 136.578 147.493 139.73 144.948C141.144 143.823 142.542 142.371 143.907 140.642C150.521 132.241 153.658 122.291 153.999 111.623V108.034C153.739 102.439 153.008 97.2682 151.805 92.5377Z" fill="#323E48"/>
<path d="M151.805 92.5377C147.759 76.5846 140.234 62.1974 129.232 49.3762C126.924 46.6847 124.113 44.0422 120.814 41.4323C114.703 36.6366 100.337 29.7203 95.6074 39.9642C94.5185 42.3294 94.0147 44.7925 94.1122 47.3698C94.3072 52.6386 94.1772 62.0996 94.1772 78.8357C94.1772 78.8357 94.1772 78.852 94.1772 78.8683C94.161 78.9009 94.1122 78.9009 94.0797 78.8846L85.8727 73.8768C85.5151 73.6484 85.2876 73.257 85.2876 72.8328V1.419C85.2876 0.4729 84.8488 0.0161649 83.9875 0.0487889C83.9875 0.0487889 83.9387 0.0487889 83.8737 0.0487889C83.8737 0.0487889 83.8575 0.0487889 83.8412 0.0487889H70.2224C70.2224 0.0487889 70.1736 0.0487889 70.1411 0.0487889C70.0761 0.0487889 70.0436 0.0487889 70.0436 0.0487889C69.9461 0.0161649 69.8486 -0.000147086 69.7348 0.0161649C69.1823 0.0651008 68.7272 0.71758 68.7272 1.45162V72.8328C68.7272 73.2406 68.516 73.6158 68.1747 73.8279L59.8864 78.9009C59.8864 78.9009 59.7726 78.9335 59.7726 78.8357C59.7726 69.5704 59.7726 60.2726 59.7726 50.9585C59.7726 50.9585 59.7889 50.0939 59.8376 48.3812C59.9351 45.2819 59.5288 42.1663 58.0825 39.4422C53.0282 29.9323 39.0681 36.8323 33.315 41.3018C29.2196 44.4826 25.3843 48.3159 21.8414 52.818C13.5531 63.3393 7.44252 75.0186 3.49339 87.8072C1.46194 94.4136 0.275577 101.167 -0.0332031 108.067V111.639C0.0318032 113.074 0.178067 114.755 0.389338 116.663C1.39694 125.733 4.631 133.742 10.124 140.723C11.4404 142.403 12.838 143.823 14.3332 145.013C17.681 147.689 21.9714 150.249 26.2619 150.869C29.6747 151.359 32.665 150.396 35.2165 147.966C35.6715 147.525 36.4679 146.514 37.573 144.915C38.6131 143.415 39.3769 142.403 39.8644 141.833C42.0909 139.288 44.3824 137.314 46.6901 135.928C47.6977 135.324 49.8754 134.035 53.2232 132.062C55.4497 130.74 57.8549 128.832 58.83 126.45C59.4313 124.982 59.7564 123.433 59.7726 121.801C59.7726 121.035 59.7726 112.128 59.7726 95.0661C59.7726 94.9682 59.8214 94.8866 59.9026 94.8377L76.853 84.0229C76.853 84.0229 77.0155 83.9739 77.0806 84.0229L94.031 94.8377C94.031 94.8377 94.161 94.9682 94.161 95.0661C94.161 107.528 94.161 116.353 94.161 121.573C94.161 121.932 94.226 122.633 94.3722 123.694C94.6648 125.961 95.5911 127.837 97.1513 129.354C98.4839 130.642 100.142 131.752 101.913 132.779C104.529 134.296 106.203 135.275 106.918 135.716C110.25 137.738 113.045 140.283 115.272 143.317C115.678 143.872 116.409 144.899 117.482 146.384C118.278 147.493 119.14 148.39 120.082 149.075C122.585 150.886 125.478 151.424 128.777 150.674C132.742 149.776 136.561 147.493 139.714 144.948C141.128 143.823 142.526 142.371 143.891 140.642C150.505 132.241 153.642 122.291 153.983 111.623V108.034C153.723 102.439 152.992 97.2682 151.789 92.5377H151.805ZM55.0922 127.282C54.3933 127.984 53.3532 128.783 51.9719 129.647C51.7118 129.811 49.5179 131.132 45.4225 133.595C42.6597 135.259 40.3032 137.216 38.3693 139.467C37.0692 140.968 35.8178 142.632 34.5989 144.442C34.1439 145.111 33.6238 145.731 33.0063 146.318C28.1795 150.902 20.6876 146.416 16.5272 143.268C15.0808 142.175 13.7806 140.903 12.643 139.467C11.4242 137.934 10.3353 136.433 9.40897 134.949C9.36021 134.867 9.37646 134.818 9.47397 134.818H28.2608C28.9921 134.818 29.4634 134.411 29.6747 133.595C29.6747 133.595 29.6747 133.562 29.6747 133.53C29.5447 132.584 29.0896 132.127 28.2608 132.127H7.86507C7.78381 132.127 7.70255 132.078 7.67005 131.996L5.73611 127.641C5.73611 127.641 5.73611 127.608 5.73611 127.592C5.73611 127.527 5.78486 127.478 5.84987 127.478H16.5922C17.3722 127.478 17.876 127.103 18.1036 126.336C18.1361 126.238 18.1361 126.189 18.1361 126.173C18.0061 125.243 17.5185 124.77 16.6897 124.77H4.97228C4.87477 124.77 4.79352 124.705 4.76101 124.607C2.87583 118.001 2.29077 111.117 3.00584 103.956C3.54215 98.5731 4.58225 93.3859 6.12615 88.4271C9.99402 75.9158 16.0396 64.4811 24.2629 54.123C27.432 50.1429 30.8448 46.6847 34.5339 43.7486C37.4104 41.4486 40.677 39.6706 44.3661 38.3656C48.169 37.028 53.2557 36.3103 55.6447 40.4209C56.1485 41.2855 56.5061 42.1826 56.7173 43.1124C56.7336 43.194 56.7173 43.2429 56.6198 43.2429H50.7042C49.8592 43.2755 49.4204 43.716 49.3879 44.5805C49.3879 44.5805 49.3879 44.6131 49.3879 44.6621C49.4204 45.5103 49.8754 45.9507 50.753 45.9507H57.0261C57.0261 45.9507 57.1074 46.0159 57.1074 46.0649V80.4669C57.1074 80.581 57.0586 80.6626 56.9611 80.7115L52.8982 83.1909C52.8169 83.2399 52.7357 83.2399 52.6544 83.1909C48.754 80.8094 44.3661 78.1342 39.4744 75.1328C37.1992 73.73 34.1764 74.725 33.5751 77.4328C33.2825 78.7378 33.5426 79.8633 34.3714 80.8094C34.4852 80.9399 34.4527 81.0051 34.2901 81.0051H19.3874C18.5586 81.0051 18.1361 81.4456 18.1198 82.3427V82.3917C18.1523 83.2562 18.5911 83.6966 19.4687 83.6966H38.5318C38.6456 83.6966 38.7431 83.7292 38.8406 83.7945L49.2578 90.1562C49.2578 90.1562 49.3879 90.2867 49.3879 90.3845V93.337C49.3879 93.4512 49.3554 93.5491 49.3066 93.6306L46.6413 98.0348C46.6413 98.0348 46.5438 98.1327 46.4788 98.1327H36.3053C35.444 98.1327 35.0215 98.5568 35.0052 99.4214V99.5356C35.0052 100.384 35.444 100.808 36.3378 100.808H44.7887C44.7887 100.808 44.8212 100.841 44.8374 100.841C44.8862 100.873 44.9024 100.922 44.8699 100.971L40.5795 108.067C40.5307 108.148 40.4495 108.197 40.352 108.197H24.6855C23.8404 108.197 23.4016 108.638 23.3853 109.518C23.3853 109.518 23.3853 109.551 23.3853 109.6C23.4016 110.465 23.8404 110.905 24.718 110.905H40.352C40.4657 110.905 40.5632 110.97 40.612 111.084C41.2783 112.504 42.3509 113.303 43.8461 113.45C44.5124 113.515 45.1624 113.384 45.78 113.058C46.5438 112.65 47.0801 112.21 47.3727 111.721C49.7291 107.855 52.5407 103.222 55.8072 97.8065C56.1973 97.1703 56.4735 97.0398 57.0261 96.6973C57.0261 96.6973 57.0586 96.6973 57.0749 96.6973C57.1236 96.6973 57.1561 96.7299 57.1561 96.7788C57.1561 110.954 57.1561 119.143 57.1561 121.345C57.1561 123.465 56.6686 125.716 55.1247 127.282H55.0922ZM78.1694 81.4619C77.5193 81.0541 76.8693 80.842 76.2355 81.2661C67.9959 86.5186 60.764 91.1186 54.5559 95.0824C54.2958 95.2455 54.0683 95.4902 53.9058 95.7512L45.1624 110.155C44.8537 110.66 44.3986 110.872 43.7811 110.775C43.7648 110.775 43.7486 110.775 43.7323 110.775C42.936 110.269 42.741 109.698 43.131 109.045L51.7768 94.7888C51.9719 94.4625 52.0694 94.0873 52.0694 93.7122V89.6179C52.0694 89.0959 51.7931 88.6065 51.3543 88.3292L36.7116 79.3903C36.7116 79.3903 36.6141 79.325 36.5654 79.2924C36.0941 78.9009 35.9803 78.2484 36.3378 77.8406C36.3378 77.8406 36.3541 77.8243 36.3703 77.808C36.7766 77.1718 37.2967 77.0413 37.9142 77.4328C46.8039 82.8647 51.5331 85.7193 52.0856 86.0129C52.6219 86.3065 53.1257 86.3065 53.597 86.0129C56.4735 84.2512 61.8366 80.9236 69.6861 76.03C70.8887 75.2796 71.4738 74.3009 71.4738 73.0612C71.4738 52.0677 71.4738 41.3181 71.4738 40.7961C71.4738 40.6656 71.5063 40.6004 71.5875 40.6004H78.3482C79.0632 40.6004 79.5183 40.1926 79.7133 39.3607C79.7133 39.3443 79.7133 39.328 79.7133 39.3117C79.5995 38.3819 79.1445 37.9252 78.3482 37.9252H71.6038C71.5063 37.9252 71.4575 37.86 71.4575 37.7621V17.3395C71.4575 17.3395 71.5063 17.2416 71.555 17.2416H77.3406C78.1369 17.2416 78.6082 16.8501 78.7707 16.0672C78.787 15.9856 78.8032 15.9367 78.8032 15.9203C78.6732 14.9906 78.2344 14.5338 77.4543 14.5338H71.6525C71.5225 14.5338 71.4575 14.4686 71.4575 14.3381V2.43034H82.6223V24.2395C82.6223 24.2395 82.5573 24.3863 82.4761 24.3863H76.9505C76.073 24.3863 75.6342 24.8267 75.6179 25.6912V25.7728C75.6667 26.621 76.1055 27.0451 76.918 27.0451L82.4598 27.0777C82.5736 27.0777 82.6223 27.1267 82.6223 27.2409V47.0273C82.6223 47.1252 82.5736 47.1741 82.4761 47.1741H77.1781C76.4792 47.1741 75.8942 47.7287 75.8617 48.4138C75.8617 48.4791 75.8617 48.528 75.8617 48.528C75.8779 49.3925 76.3005 49.833 77.1131 49.8493L82.4923 49.8819C82.4923 49.8819 82.6223 49.9471 82.6223 50.0124C82.6223 53.2095 82.6223 60.5336 82.6223 71.9846C82.6223 73.8605 82.8661 75.1818 84.41 76.1279C94.1285 82.1307 99.4102 85.3768 100.255 85.8987C100.824 86.2413 101.393 86.225 101.962 85.8987C106.203 83.2888 110.835 80.4668 115.857 77.4165C116.507 77.025 117.059 77.2045 117.547 77.9711C117.547 77.9711 117.547 78.0037 117.563 78.069C117.677 78.6725 117.482 79.1293 116.946 79.4392L102.644 88.1824C102.189 88.4597 101.913 88.9491 101.913 89.4874V94.12C101.913 94.5278 102.027 94.9193 102.238 95.2781L110.575 109.045C110.9 109.584 110.803 110.122 110.25 110.66C110.25 110.66 110.234 110.677 110.218 110.677C109.486 110.954 108.934 110.807 108.576 110.22L99.6703 95.5391C99.4915 95.2455 99.2477 94.9845 98.9552 94.8051C92.0645 90.4008 85.1251 85.964 78.1694 81.5108V81.4619ZM150.489 119.338C149.173 126.956 146.101 133.725 141.258 139.647C140.25 140.886 139.21 141.914 138.138 142.746C135.18 145.046 132.238 146.954 128.566 147.982C128.371 148.031 127.818 148.113 126.924 148.21C123.641 148.586 121.187 147.085 119.416 144.475C116.426 140.038 113.062 136.221 108.755 133.66C106.756 132.469 104.985 131.442 103.424 130.545C102.14 129.811 101.035 128.962 99.8003 128.049C99.654 127.935 99.6702 127.886 99.849 127.886H108.755C109.486 127.869 109.925 127.445 110.088 126.613C110.088 126.613 110.088 126.548 110.071 126.45C109.925 125.602 109.421 125.178 108.56 125.178H97.6876C97.6063 125.178 97.5413 125.129 97.5088 125.047C97.0863 123.873 96.875 122.927 96.875 122.177C96.875 116.321 96.875 108.05 96.875 97.3497C96.875 96.5178 97.0863 96.4526 97.525 97.1703C100.142 101.477 102.726 105.734 105.261 109.943C106.252 111.59 107.016 112.585 107.585 112.928C108.901 113.76 110.38 113.662 112.005 112.667C112.086 112.618 112.184 112.585 112.281 112.585H130.369C130.955 112.585 131.475 112.21 131.67 111.655C131.735 111.46 131.767 111.345 131.767 111.296C131.67 110.35 131.198 109.877 130.369 109.877H113.614C113.517 109.877 113.452 109.812 113.452 109.714C113.37 108.067 112.574 107.072 111.55 105.375C111.55 105.375 111.55 105.359 111.55 105.343C111.55 105.31 111.583 105.294 111.615 105.294H121.447C122.195 105.294 122.65 104.87 122.812 104.021C122.812 104.021 122.812 103.956 122.796 103.875C122.666 103.01 122.162 102.586 121.285 102.586H110.006C109.909 102.586 109.827 102.537 109.779 102.455C106.805 97.5618 105.212 94.9193 104.968 94.5604C104.708 94.1526 104.594 93.7611 104.594 93.3859C104.594 92.0157 104.611 90.9718 104.611 90.254C104.611 90.1562 104.659 90.0746 104.741 90.0257L115.109 83.6966C115.207 83.6477 115.304 83.6151 115.402 83.6151H134.107C134.887 83.6151 135.375 83.2236 135.57 82.4569C135.586 82.3754 135.602 82.3264 135.602 82.3101C135.505 81.3803 135.066 80.9236 134.27 80.9236H119.481C119.481 80.9236 119.448 80.9236 119.432 80.891C119.4 80.8746 119.4 80.8257 119.416 80.7931C120.944 78.5257 120.326 75.6711 117.693 74.7413C116.507 74.3172 115.288 74.4967 114.037 75.2633C108.836 78.4605 104.562 81.0704 101.198 83.1094C101.117 83.1583 101.019 83.1583 100.938 83.1094L97.0537 80.7278C96.9562 80.6626 96.8912 80.5647 96.8912 80.4505C96.8912 75.1655 96.8912 65.4272 96.8912 51.2358C96.8912 51.2358 96.875 50.306 96.8262 48.4627C96.7937 47.272 96.8425 46.0649 96.9725 44.8415C97.2163 42.5578 98.2889 39.6217 100.223 38.3983C102.401 37.028 105.147 37.1585 107.601 37.7947C115.581 39.8174 121.902 45.1351 127.33 51.301C137.618 63.0293 145.565 78.2321 149.286 93.6959C151.285 102.015 151.919 110.938 150.473 119.306L150.489 119.338Z" fill="white"/>
</g>
<defs>
<clipPath id="clip0_506_4108">
<rect width="154" height="151" fill="white"/>
</clipPath>
</defs>
</svg>
