<svg xmlns="http://www.w3.org/2000/svg" width="154" height="151" fill="none"><g clip-path="url(#a)"><path fill="#323E48" d="M83.664.522H69.037v74.986h14.626z"/><path fill="#323E48" d="m85.661 76.511-5.65-8.959L35.52 95.817l5.65 8.959z"/><path fill="#323E48" d="m113.165 105.891 5.763-8.887-44.13-28.83-5.763 8.886z"/><path fill="#323E48" d="m98.57 83.809 6.205 8.58 23.268-16.948-6.205-8.581z"/><path fill="#323E48" d="m103.649 87.155-8.926 5.67 15.375 24.383 8.925-5.67zM39.885 65.469l-8.926 5.67 15.375 24.383 8.926-5.67z"/><path fill="#323E48" d="m58.803 92.82-8.854-5.785-15.683 24.184 8.853 5.784z"/><path fill="#323E48" d="M151.805 92.538q-6.07-23.93-22.573-43.162c-2.308-2.691-5.119-5.334-8.418-7.944-6.111-4.795-20.477-11.712-25.207-1.468-1.088 2.365-1.592 4.828-1.495 7.406.195 5.269.065 14.73.065 31.466v.032c-.016.033-.065.033-.097.017l-8.207-5.008a1.25 1.25 0 0 1-.585-1.044V1.419c0-.946-.44-1.403-1.3-1.37h-.114C83.012.016 82.59.44 82.59 1.305V24.24s-.065.146-.146.146h-5.526c-.878 0-1.316.44-1.333 1.305v.082c.05.848.488 1.272 1.3 1.272l5.542.033c.114 0 .163.049.163.163v19.786q0 .147-.146.147h-5.298a1.32 1.32 0 0 0-1.317 1.24v.114c.016.864.439 1.305 1.252 1.321l5.379.033s.13.065.13.13v21.973c0 1.876.244 3.197 1.787 4.143 9.719 6.003 15 9.249 15.846 9.77.569.343 1.137.327 1.706 0 4.242-2.61 8.874-5.431 13.895-8.481.65-.392 1.203-.213 1.69.554 0 0 0 .033.017.098.114.603-.082 1.06-.618 1.37l-14.301 8.743a1.52 1.52 0 0 0-.732 1.305v4.633c0 .408.114.8.326 1.158l8.337 13.767c.325.539.227 1.077-.325 1.615 0 0-.017.017-.033.017-.731.277-1.284.13-1.641-.473l-8.906-14.681a2.2 2.2 0 0 0-.715-.734 32428 32428 0 0 1-20.786-13.294c-.65-.408-1.3-.62-1.934-.196-8.24 5.252-15.472 9.852-21.68 13.816a2.1 2.1 0 0 0-.65.669l-8.743 14.403c-.309.506-.764.718-1.381.62h-.05c-.795-.506-.99-1.076-.6-1.729l8.645-14.257a2.1 2.1 0 0 0 .293-1.076V89.65c0-.522-.276-1.01-.715-1.288l-14.643-8.94-.146-.097c-.471-.392-.585-1.044-.228-1.452l.033-.032c.406-.636.926-.767 1.544-.376 8.89 5.432 13.619 8.287 14.171 8.58q.804.441 1.512 0 4.315-2.642 16.089-9.982c1.202-.75 1.787-1.73 1.787-2.97V40.83c0-.13.033-.196.114-.196h6.76c.716 0 1.17-.408 1.366-1.24v-.049c-.114-.93-.569-1.386-1.365-1.386H71.57c-.097 0-.146-.065-.146-.163V17.372s.049-.098.097-.098h5.786c.796 0 1.268-.391 1.43-1.174.016-.082.033-.13.033-.147-.13-.93-.57-1.386-1.35-1.386h-5.8q-.195 0-.195-.196V1.288c0-.864-.422-1.272-1.284-1.24h-.097a.65.65 0 0 0-.31-.032c-.552.05-1.007.702-1.007 1.436v71.38c0 .409-.211.784-.552.996L59.886 78.9s-.113.032-.113-.065V50.959s.016-.865.065-2.578c.097-3.1-.31-6.215-1.755-8.939-5.055-9.51-19.015-2.61-24.768 1.86-4.095 3.18-7.93 7.014-11.474 11.516-8.288 10.521-14.398 22.2-18.348 34.99a81 81 0 0 0-3.526 20.259v3.572c.065 1.435.211 3.116.422 5.024 1.008 9.07 4.242 17.079 9.735 24.06 1.316 1.68 2.714 3.1 4.21 4.29 3.347 2.676 7.637 5.236 11.928 5.856 3.429.49 6.403-.473 8.955-2.903.455-.441 1.25-1.452 2.356-3.051 1.04-1.5 1.804-2.512 2.291-3.082 2.227-2.545 4.518-4.519 6.826-5.905q1.511-.906 6.533-3.866c2.227-1.322 4.632-3.23 5.607-5.612a12.5 12.5 0 0 0 .943-4.649V95.066a.26.26 0 0 1 .13-.228l16.95-10.815s.163-.05.228 0l16.966 10.815s.13.13.13.228v26.507c0 .359.065 1.06.211 2.121.293 2.267 1.22 4.143 2.78 5.66 1.332 1.288 2.99 2.398 4.761 3.425 2.617 1.517 4.291 2.496 5.006 2.937 3.331 2.022 6.127 4.567 8.353 7.601.406.555 1.138 1.582 2.21 3.067.797 1.109 1.658 2.006 2.6 2.691 2.503 1.811 5.396 2.349 8.695 1.599 3.965-.898 7.785-3.181 10.937-5.726 1.414-1.125 2.812-2.577 4.177-4.306 6.614-8.401 9.751-18.351 10.092-29.019v-3.589c-.26-5.595-.991-10.766-2.194-15.496"/><path fill="#fff" d="M151.805 92.538q-6.07-23.93-22.573-43.162c-2.308-2.691-5.119-5.334-8.418-7.944-6.111-4.795-20.477-11.712-25.207-1.468-1.088 2.365-1.592 4.828-1.495 7.406.195 5.269.065 14.73.065 31.466v.032c-.016.033-.065.033-.097.017l-8.207-5.008a1.25 1.25 0 0 1-.585-1.044V1.419c0-.946-.44-1.403-1.3-1.37H70.044a.65.65 0 0 0-.31-.033c-.552.05-1.007.702-1.007 1.436v71.38c0 .409-.211.784-.552.996L59.886 78.9s-.113.032-.113-.065V50.959s.016-.865.065-2.578c.097-3.1-.31-6.215-1.755-8.939-5.055-9.51-19.015-2.61-24.768 1.86-4.095 3.18-7.93 7.014-11.474 11.516-8.288 10.521-14.398 22.2-18.348 34.99a81 81 0 0 0-3.526 20.259v3.572c.065 1.435.211 3.116.422 5.024 1.008 9.07 4.242 17.079 9.735 24.06 1.316 1.68 2.714 3.1 4.21 4.29 3.347 2.676 7.637 5.236 11.928 5.856 3.413.49 6.403-.473 8.955-2.903.455-.441 1.25-1.452 2.356-3.051 1.04-1.5 1.804-2.512 2.291-3.082 2.227-2.545 4.518-4.519 6.826-5.905q1.511-.906 6.533-3.866c2.227-1.322 4.632-3.23 5.607-5.612a12.5 12.5 0 0 0 .943-4.649V95.066a.26.26 0 0 1 .13-.228l16.95-10.815s.163-.05.228 0l16.95 10.815s.13.13.13.228v26.507c0 .359.065 1.06.211 2.121.293 2.267 1.22 4.143 2.78 5.66 1.332 1.288 2.99 2.398 4.761 3.425 2.616 1.517 4.29 2.496 5.005 2.937 3.332 2.022 6.127 4.567 8.354 7.601.406.555 1.137 1.582 2.21 3.067.796 1.109 1.658 2.006 2.6 2.691 2.503 1.811 5.396 2.349 8.695 1.599 3.965-.898 7.784-3.181 10.937-5.726 1.414-1.125 2.812-2.577 4.177-4.306 6.614-8.401 9.751-18.351 10.092-29.019v-3.589c-.26-5.595-.991-10.766-2.194-15.496zm-96.713 34.744c-.699.702-1.739 1.501-3.12 2.365-.26.164-2.454 1.485-6.55 3.948-2.762 1.664-5.119 3.621-7.053 5.872-1.3 1.501-2.551 3.165-3.77 4.975a11.4 11.4 0 0 1-1.593 1.876c-4.826 4.584-12.318.098-16.479-3.05a21.4 21.4 0 0 1-3.884-3.801c-1.219-1.533-2.308-3.034-3.234-4.518-.049-.082-.033-.131.065-.131h18.787q1.096 0 1.414-1.223v-.065c-.13-.946-.585-1.403-1.414-1.403H7.865a.21.21 0 0 1-.195-.131l-1.934-4.355v-.049c0-.065.049-.114.114-.114h10.742c.78 0 1.284-.375 1.512-1.142.032-.098.032-.147.032-.163-.13-.93-.617-1.403-1.446-1.403H4.972c-.097 0-.178-.065-.211-.163q-2.828-9.91-1.755-20.651c.536-5.383 1.576-10.57 3.12-15.529q5.802-18.767 18.137-34.304c3.169-3.98 6.582-7.438 10.27-10.374 2.877-2.3 6.144-4.078 9.833-5.383 3.803-1.338 8.89-2.056 11.279 2.055a9.5 9.5 0 0 1 1.072 2.691c.017.082 0 .13-.097.13h-5.916c-.845.034-1.284.474-1.316 1.339v.081c.032.848.487 1.289 1.365 1.289h6.273s.081.065.081.114v34.402a.25.25 0 0 1-.146.245l-4.063 2.479a.22.22 0 0 1-.244 0c-3.9-2.382-8.288-5.057-13.18-8.058-2.275-1.403-5.298-.408-5.899 2.3-.293 1.305-.032 2.43.796 3.376.114.13.082.196-.08.196H19.386c-.828 0-1.25.44-1.267 1.338v.049c.032.864.471 1.305 1.349 1.305h19.063c.114 0 .211.032.309.097l10.417 6.362s.13.13.13.228v2.953a.56.56 0 0 1-.081.294l-2.666 4.404s-.097.098-.162.098H36.305c-.861 0-1.283.424-1.3 1.288v.115c0 .848.439 1.272 1.333 1.272h8.45s.033.033.05.033c.048.032.064.081.032.13l-4.29 7.096a.26.26 0 0 1-.228.13H24.686c-.846 0-1.284.441-1.3 1.321v.082c.016.865.454 1.305 1.332 1.305h15.634c.114 0 .211.065.26.179.666 1.42 1.739 2.219 3.234 2.366a3.4 3.4 0 0 0 1.934-.392c.764-.408 1.3-.848 1.593-1.337a3515 3515 0 0 0 8.434-13.915c.39-.636.666-.766 1.22-1.109h.048c.049 0 .081.033.081.082v24.566c0 2.12-.487 4.371-2.031 5.937zm23.077-45.82c-.65-.408-1.3-.62-1.933-.196-8.24 5.253-15.472 9.853-21.68 13.816-.26.164-.488.408-.65.67l-8.744 14.403c-.308.505-.763.717-1.38.62h-.05c-.796-.506-.991-1.077-.601-1.73l8.646-14.256c.195-.326.292-.702.292-1.077v-4.094c0-.522-.276-1.011-.715-1.289L36.712 79.39l-.147-.098c-.47-.391-.585-1.044-.227-1.451l.032-.033c.407-.636.927-.767 1.544-.375 8.89 5.432 13.62 8.286 14.172 8.58q.804.44 1.511 0 4.315-2.643 16.09-9.983c1.202-.75 1.787-1.73 1.787-2.969V40.796c0-.13.032-.196.114-.196h6.76c.715 0 1.17-.407 1.365-1.24v-.048c-.113-.93-.569-1.387-1.365-1.387h-6.744c-.098 0-.147-.065-.147-.163V17.34s.05-.098.098-.098h5.786c.796 0 1.267-.392 1.43-1.175.016-.081.032-.13.032-.147-.13-.93-.569-1.386-1.349-1.386h-5.801q-.195 0-.196-.196V2.43h11.165v21.81s-.065.146-.146.146h-5.525c-.878 0-1.317.44-1.333 1.305v.082c.049.848.488 1.272 1.3 1.272l5.542.033c.114 0 .162.049.162.163v19.786q0 .147-.146.147h-5.298a1.32 1.32 0 0 0-1.316 1.24v.114c.016.864.439 1.305 1.251 1.321l5.38.033s.13.065.13.13v21.973c0 1.876.243 3.197 1.787 4.143 9.719 6.003 15 9.249 15.845 9.77.569.343 1.138.327 1.707 0 4.241-2.61 8.873-5.431 13.895-8.481.65-.392 1.202-.213 1.69.554 0 0 0 .033.016.098.114.603-.081 1.06-.617 1.37l-14.302 8.743a1.52 1.52 0 0 0-.731 1.305v4.633c0 .408.114.8.325 1.158l8.337 13.767c.325.539.228 1.077-.325 1.615 0 0-.016.017-.032.017-.732.277-1.284.13-1.642-.457L99.67 95.54a2.2 2.2 0 0 0-.715-.735c-6.89-4.404-13.83-8.841-20.786-13.294zm72.32 37.876c-1.316 7.618-4.388 14.387-9.231 20.309-1.008 1.239-2.048 2.267-3.12 3.099-2.958 2.3-5.9 4.208-9.572 5.236-.195.049-.748.131-1.642.228-3.283.376-5.737-1.125-7.508-3.735-2.99-4.437-6.354-8.254-10.661-10.815a385 385 0 0 0-5.331-3.115c-1.284-.734-2.389-1.583-3.624-2.496-.146-.114-.13-.163.049-.163h8.906c.731-.017 1.17-.441 1.333-1.273 0 0 0-.065-.017-.163q-.22-1.272-1.511-1.272H97.688c-.082 0-.147-.049-.18-.131-.422-1.174-.633-2.12-.633-2.87V97.35c0-.832.211-.897.65-.18a3807 3807 0 0 1 7.736 12.773c.991 1.647 1.755 2.642 2.324 2.985 1.316.832 2.795.734 4.42-.261a.55.55 0 0 1 .276-.082h18.088c.586 0 1.106-.375 1.301-.93.065-.195.097-.31.097-.359-.097-.946-.569-1.419-1.398-1.419h-16.755c-.097 0-.162-.065-.162-.163-.082-1.647-.878-2.642-1.902-4.339v-.032c0-.033.033-.049.065-.049h9.832q1.122 0 1.365-1.273s0-.065-.016-.146c-.13-.865-.634-1.289-1.511-1.289h-11.279a.26.26 0 0 1-.227-.131c-2.974-4.893-4.567-7.536-4.811-7.895-.26-.407-.374-.799-.374-1.174 0-1.37.017-2.414.017-3.132 0-.098.048-.18.13-.228l10.368-6.33a.7.7 0 0 1 .293-.08h18.705c.78 0 1.268-.392 1.463-1.16.016-.08.032-.13.032-.146-.097-.93-.536-1.386-1.332-1.386h-14.789s-.033 0-.049-.033c-.032-.016-.032-.065-.016-.098 1.528-2.267.91-5.122-1.723-6.052-1.186-.424-2.405-.244-3.656.522a2457 2457 0 0 1-12.839 7.846.25.25 0 0 1-.26 0l-3.884-2.381a.34.34 0 0 1-.163-.277V51.236s-.016-.93-.065-2.773q-.048-1.787.147-3.621c.243-2.284 1.316-5.22 3.25-6.444 2.178-1.37 4.924-1.24 7.378-.603 7.98 2.022 14.301 7.34 19.729 13.506 10.288 11.728 18.235 26.931 21.956 42.395 1.999 8.319 2.633 17.242 1.187 25.61z"/></g><defs><clipPath id="a"><path fill="#fff" d="M0 0h154v151H0z"/></clipPath></defs></svg>