<svg width="186" height="169" fill="none" xmlns="http://www.w3.org/2000/svg"><g clip-path="url(#a)"><path d="M52.025 136.242a202.497 202.497 0 0 1-43.411-4.308l-.122 17.571a146.893 146.893 0 0 0 40.338 5.891c13.527.02 26.913-1.703 39.914-5.29l.08-17.571a205.213 205.213 0 0 1-36.799 3.707ZM87.166 32.137c-20.098 1.803-36.86 1.502-36.86 1.502s-26.245-.48-37.71-2.203c-.93-.14-2.041-.341-3.255-.662l-.1 12.683a326.165 326.165 0 0 0 41.207 2.625 316.73 316.73 0 0 0 38.801-2.385l.06-11.82c-.869.16-1.617.24-2.142.28v-.02ZM4.306 10.74c-.04.26 0 .6.142.96l-.303.121c9.18 4.228 46.08 3.807 46.08 3.807s35.97-.421 44.625-4.208c0-.22-.02-.42-.061-.6-.303-1.103-1.84-2.645-7.562-3.667C71.96 4.408 48.466 4.288 48.223 4.288c-.242 0-25.396-.06-38.457 3.406-3.822 1.022-5.338 2.244-5.48 3.065l.02-.02ZM119.72 132.936c-.182.04-.647.22-1.516.921-.283.221-.647.561-.688.902-.04.321.202.681.425.922.586.701 1.536 1.402 2.831 2.083h.283c11.161-.5 21.715.842 31.36 3.947 2.871.922 5.459 2.184 7.704 3.707 3.053.04 5.378.04 6.976 0 4.003-.06 7.926-.701 11.626-1.943.526-.181 1.112-.481 1.901-.962.323-.201.343-.381.343-.461.041-.541-.606-1.523-1.496-2.304a28.825 28.825 0 0 0-6.187-4.047c-3.417-1.663-6.936-2.986-10.434-3.907a85.431 85.431 0 0 0-16.155-2.645c-2.79-.2-5.682-.14-8.472-.08-2.588.06-5.136.28-7.562.681-2.528.281-5.075.842-7.643 1.643-1.112.361-2.123.802-2.993 1.363l-.303.12v.06Zm-18.865 14.345c.162.441 1.497 1.263 2.993 1.743a58.741 58.741 0 0 0 8.27 2.104 138.076 138.076 0 0 0 21.291 2.104c2.912.06 5.722.06 8.371 0 1.092-.02 3.073-.14 5.944-.341 3.337-.24 6.006-.741 8.432-1.603.627-.22 1.274-.581 1.921-1.061.061-.04.162-.121.162-.181 0-.22-.344-.701-.829-1.022-2.487-1.683-4.914-2.484-8.048-3.446a69.734 69.734 0 0 0-11.04-2.384c-2.972-.401-5.014-.621-6.025-.661-1.274-.06-2.528-.12-3.801-.2a32.886 32.886 0 0 0-2.164-.061c-1.314 0-2.891.061-4.711.161-4.024.1-7.32.36-9.827.761-3.538.561-6.207 1.302-8.613 2.364a8.357 8.357 0 0 0-1.658.922h-.021c-.343.26-.626.641-.647.781v.02Zm30.492-3.927s0 .04.02.06c0 0 0-.04-.02-.06Zm.06.101s.02.04.041.04l-.041-.04Zm.951-.101v-.06.06Zm.02.06s0 .041.02.061c0 0 0-.04-.02-.061Zm.081.161s-.041-.02-.041-.04c0 0 .02.04.041.04Zm-.061-.381v-.02c0 .02-.02.04-.04.08v-.04l.04-.02Zm-1.051.04v.06-.06Zm-16.035-6.251.182.02v-.02h-.182Zm65.816 14.085c.121-1.462.202-2.885.263-4.287a23.972 23.972 0 0 1-3.418 1.242c-.444.12-.829.2-1.213.28-.303.061-.586.121-.889.201a8.99 8.99 0 0 1-1.8.34c-2.709.241-4.287.361-4.812.381-2.123.04-4.287.06-6.511.06.263.842.384 1.743.364 2.665v4.207c2.79.04 5.621-.12 8.452-.44 2.244-.241 4.408-.742 6.632-1.523.97-.341 1.779-.781 2.406-1.342.182-.161.425-.602.505-1.784h.021Zm-22.424 7.974c0-.501 0-.982.021-1.442.04-.922.06-2.024.081-3.306a28.028 28.028 0 0 1-6.936 2.083c-3.093.501-6.733.802-10.817.882-6.652.14-13.204-.1-19.451-.701-2.932-.281-5.803-.641-8.513-1.102-2.325-.381-4.65-.822-6.895-1.323-2.345-.52-4.327-1.162-6.106-2.043v.14c.101 2.144.141 3.246.141 3.306v.461c.061.601.102 1.603.385 1.863 1.577 1.483 3.983 2.244 5.904 2.745a74.447 74.447 0 0 0 8.007 1.603c3.68.521 6.106.861 7.259.982a168.798 168.798 0 0 0 19.835 1.061c3.255 0 6.106-.26 9.119-.541 2.972-.26 5.864-1.041 7.805-2.063.141-.701.141-1.663.141-2.605h.02Z" fill="#fff"/><path d="m131.447 143.495-.041-.04m-.06-.101s0 .041.02.061m-.02-.181v.06" stroke="#fff" stroke-linecap="round" stroke-linejoin="round"/><path d="M184.544 138.706c-2.083-3.045-5.459-5.189-7.299-6.211a55.394 55.394 0 0 0-10.312-4.347 86.092 86.092 0 0 0-27.297-3.887c-4.61.08-9.078.581-13.284 1.502-5.459 1.202-9.341 2.905-11.849 5.19-1.294 1.182-2.123 2.684-2.487 4.467a127.397 127.397 0 0 0-.647 3.467c-.647.501-2.568 1.082-4.408 1.623-3.7 1.101-8.29 2.484-10.291 5.129-.991 1.322-.93 4.287-.749 11.44 0 .421.041 1.563.688 2.745.162.32.364.601.607.881.485.601 1.213 1.182 2.224 1.824 3.215 2.023 7.097 2.925 10.494 3.546a181.631 181.631 0 0 0 26.791 2.845c1.011.04 2.042.06 3.093.06 2.73 0 5.601-.12 8.553-.341 2.164-.16 4.509-.5 6.956-1.021 2.628-.541 6.005-1.723 7.259-4.288.364-.741.485-1.643.505-2.504a69.49 69.49 0 0 0 10.393-.702c3.478-.501 6.591-1.122 9.483-3.386 1.456-1.162 2.467-2.384 2.689-4.548.101-1.042.182-2.043.223-3.005.121-1.944.161-3.887.161-5.79a8.136 8.136 0 0 0-1.456-4.669l-.04-.02Zm-1.557 6.612s0-.06-.04-.1v.08l.04.02Zm-.081-.12s-.04 0-.04-.02c0 0 .04 0 .04.02Zm-22.545 7.553v-.04.04Zm-.04-.06h-.02.02Zm-58.799-6.171c.445-.32.991-.641 1.658-.921 2.427-1.062 5.076-1.784 8.614-2.365 2.507-.4 5.803-.661 9.827-.761 1.84-.12 3.417-.16 4.711-.16.829 0 1.557.02 2.163.06 1.254.08 2.528.16 3.802.2 1.031.04 3.053.261 6.025.661a69.76 69.76 0 0 1 11.04 2.385c3.134.961 5.54 1.763 8.047 3.446.486.32.809.801.829 1.022 0 .06-.101.14-.161.18-.668.481-1.315.841-1.921 1.062-2.427.841-5.116 1.362-8.432 1.603-2.851.2-4.853.32-5.944.34-2.649.06-5.46.06-8.371 0a137.965 137.965 0 0 1-21.292-2.104 58.76 58.76 0 0 1-8.269-2.103c-1.476-.501-2.831-1.303-2.993-1.743 0-.141.303-.521.647-.762h.02v-.04Zm-1.94 3.927s.02 0 .04-.02c0 0-.02 0-.04.02Zm18.278-11.6v.02-.02Zm-.02.04h-.041s.02 0 .041-.02v.02Zm44.058 9.396v.04-.04Zm.02-.04h.041c-.02 0-.041 0-.061.02l.02-.02Zm-11.161 15.468c-3.013.26-5.884.521-9.119.541-6.571.04-13.244-.321-19.835-1.062-1.153-.12-3.579-.461-7.259-.982-2.77-.401-5.48-.922-8.007-1.603-1.921-.501-4.327-1.262-5.904-2.745-.283-.26-.324-1.262-.344-1.863v-.461s-.081-1.182-.162-3.306v-.14c1.78.882 3.761 1.523 6.107 2.044a128.763 128.763 0 0 0 15.407 2.424c6.248.601 12.799.841 19.451.701 4.084-.08 7.724-.38 10.818-.881a26.433 26.433 0 0 0 6.935-2.084c0 1.282-.041 2.384-.081 3.306-.02.461-.02.942-.02 1.442 0 .942 0 1.904-.142 2.605-1.941 1.042-4.852 1.803-7.804 2.064h-.041Zm-20.118-33.921c2.426-.4 4.953-.641 7.562-.681 2.79-.06 5.661-.12 8.472.08a87.174 87.174 0 0 1 16.155 2.645c3.518.922 7.016 2.244 10.433 3.907a28.807 28.807 0 0 1 6.188 4.047c.889.782 1.536 1.763 1.496 2.304 0 .08 0 .241-.344.461-.768.481-1.355.782-1.9.962a38.95 38.95 0 0 1-11.627 1.943c-1.577.02-3.902.02-6.975 0-2.245-1.522-4.833-2.785-7.704-3.706-9.645-3.126-20.2-4.468-31.361-3.947h-.02s-.243-.02-.263 0c-1.294-.681-2.244-1.383-2.831-2.084-.202-.24-.444-.621-.424-.922.04-.34.384-.681.687-.901.89-.681 1.335-.862 1.517-.922l.303-.12a13.637 13.637 0 0 1 2.993-1.362c2.567-.802 5.115-1.363 7.643-1.643v-.061Zm-14.821 9.297s-.041 0-.041-.02c0 0 .02 0 .041.02Zm-.081-.08v-.06.06Zm-16.075 11.4h.06-.08.02Zm78.553 3.767c-2.224.781-4.387 1.282-6.632 1.522-2.83.321-5.661.481-8.452.441-.02-1.903-.02-3.306 0-4.207 0-.922-.121-1.803-.363-2.665 2.203 0 4.387-.02 6.51-.06.526 0 2.083-.14 4.812-.381.668-.06 1.274-.16 1.8-.34.303-.08.586-.141.89-.201.364-.08.768-.16 1.213-.28a25.069 25.069 0 0 0 3.417-1.242 107.062 107.062 0 0 1-.263 4.287c-.081 1.182-.323 1.603-.505 1.783-.627.541-1.436 1.002-2.406 1.343h-.021Z" fill="#323E48"/><path d="M117.859 138.868v-.021" stroke="#79AA99" stroke-linecap="round" stroke-linejoin="round"/><path d="M117.839 138.887s-.02 0-.04.02h.04v-.02Zm-2.123.06v.06s-.02-.04 0-.06Z" fill="#79AA99"/><path d="M115.818 139.087s-.041 0-.041-.02" stroke="#79AA99" stroke-linecap="round" stroke-linejoin="round"/><path d="M132.398 143.194v.04c0-.02 0-.04.041-.08v.02l-.041.02Z" fill="#79AA99"/><path d="M132.418 143.515s.02.04.04.04m-.061-.08s0-.04-.02-.06m-.02-.121v.061" stroke="#79AA99" stroke-linecap="round" stroke-linejoin="round"/><path d="M182.986 145.318v-.08c0 .02.041.06.041.1l-.041-.02Z" fill="#79AA99"/><path d="M182.906 145.198s-.041 0-.041-.02m-20.967 3.105v.039" stroke="#79AA99" stroke-linecap="round" stroke-linejoin="round"/><path d="M161.918 148.243s.04-.02.061-.02h-.041l-.02.02Z" fill="#79AA99"/><path d="M99.582 150.447s.02 0 .04-.02m60.7 2.264h-.021" stroke="#79AA99" stroke-linecap="round" stroke-linejoin="round"/><path d="M96.932 28.15a9.973 9.973 0 0 0 1.335-1.683l.303-13.484.405.08c.262-1.162.262-2.284 0-3.346-1.355-5.049-8.31-6.311-10.94-6.772C72.366.14 49.256 0 48.285 0c-1.051-.06-25.982-.06-39.59 3.546C3.437 4.97.626 7.052.08 9.977c-.202 1.062-.06 2.164.385 3.286l.202-.08c.08 4.568.141 9.136.222 13.704.405.281 1.092.742 1.962 1.243.748.42 1.496.781 2.224 1.122l-.89 123.399 1.537.461a151.056 151.056 0 0 0 43.108 6.531h.87c14.153 0 28.206-1.983 41.813-5.91l1.537-.441.587-122.838c1.152-.561 2.305-1.303 3.316-2.344l-.02.04ZM48.85 155.416a146.893 146.893 0 0 1-40.338-5.891l.121-17.571a202.498 202.498 0 0 0 43.412 4.308 201.224 201.224 0 0 0 36.8-3.707l-.081 17.571c-13.002 3.587-26.387 5.33-39.914 5.29ZM89.27 43.677a324.737 324.737 0 0 1-38.802 2.385A322.471 322.471 0 0 1 9.26 43.437l.101-12.683c1.213.32 2.325.521 3.256.662 11.464 1.743 37.689 2.204 37.71 2.204 0 0 16.741.3 36.86-1.503.525-.04 1.294-.12 2.143-.28l-.06 11.82v.02ZM48.263 4.267c.242 0 23.717.12 39.003 2.865 5.702 1.022 7.26 2.565 7.563 3.667.04.18.08.38.06.601-8.674 3.787-44.624 4.207-44.624 4.207s-36.901.421-46.08-3.806l.302-.12c-.141-.381-.202-.702-.141-.962.141-.822 1.678-2.044 5.48-3.066C22.887 4.187 48.02 4.227 48.283 4.247l-.02.02Z" fill="#323E48"/></g><defs><clipPath id="a"><path fill="#fff" d="M0 0h186v169H0z"/></clipPath></defs></svg>