<svg width="196" height="169" viewBox="0 0 196 169" fill="none" xmlns="http://www.w3.org/2000/svg">
<path d="M99.388 149.91C98.9362 148.762 97.7879 147.821 95.9807 147.106C93.8722 146.296 92.0838 145.694 90.6343 145.355C90.1825 145.242 89.8813 145.185 89.7118 145.148C89.7118 145.148 89.6554 145.129 89.5236 144.978C88.187 143.453 86.5869 141.59 84.7043 139.368C84.1208 138.691 83.6501 138.069 83.2924 137.505C82.4265 136.168 82.1818 135.66 82.1065 135.49C81.6358 134.398 80.7887 132.497 79.5462 129.749C78.4355 127.283 76.8919 125.155 74.934 123.405C74.3881 122.915 73.8233 122.501 73.2398 122.106C72.4115 121.522 71.6396 120.957 71.1125 120.242C70.6795 119.64 70.3219 118.943 70.0771 118.209C70.416 117.908 70.5854 117.456 70.4913 116.985C69.87 113.521 69.1547 109.85 68.3829 106.067C68.1005 104.749 67.8746 103.469 67.611 102.019C67.4228 100.965 67.2157 99.8354 66.971 98.5553C66.9145 98.2917 66.9521 98.1976 66.9521 98.1976C67.7804 96.0139 68.2699 94.5267 68.4582 93.6419C68.5523 93.1712 68.6652 92.3618 68.7782 91.1758C68.8535 90.3851 68.8347 89.5191 68.7405 88.6344C68.477 86.2812 68.3264 84.6434 68.3076 84.4928C67.8934 81.782 67.1969 77.2074 66.2744 71.334C67.3098 70.9951 68.3264 70.581 69.3241 70.1103C72.6374 68.5478 74.294 67.7572 75.1411 66.1947C76.4777 63.7098 75.1788 60.6789 73.6728 57.1774C72.9386 55.4831 72.1103 53.5818 71.5078 51.5298C71.056 50.0238 70.5289 48.3107 69.6065 45.6375C68.9664 43.7927 68.3264 42.249 67.7428 41.0442C65.9544 37.4297 63.7707 34.3047 61.2481 31.7633L58.4431 28.9019C57.9349 28.3936 57.4642 27.9795 56.9936 27.6783C56.7677 27.5277 56.5983 27.2641 56.5041 26.8876C56.2782 26.0405 56.1653 25.1745 56.1276 24.2897C56.3912 23.8191 56.6359 23.3108 56.843 22.8025C58.1984 21.3153 58.669 19.4705 59.1585 17.5315C59.4409 16.4396 59.5726 15.3289 59.7233 14.1617L59.7609 13.8605C59.7609 13.8605 59.8739 13.2393 60.0809 12.2039C60.4763 10.0955 59.8739 8.47652 59.102 6.76342L59.1585 5.95393L59.1208 5.78451C58.9326 5.05032 58.1796 4.59852 57.4642 4.76794C57.2195 4.82442 57.2007 4.82442 57.1065 4.73029L56.73 4.37261C56.0147 3.69491 55.1111 2.82894 54.1133 2.56539C53.9063 2.50892 53.4544 2.43361 51.7225 2.30184C51.2895 2.26419 51.1578 2.24536 51.1766 2.24536C50.8001 2.07594 50.0283 1.77473 48.8423 1.34175C47.8822 1.0029 47.1103 0.889946 46.5079 1.04055C45.1902 1.34175 43.8536 1.47353 42.4605 1.41705C41.1427 1.36058 39.072 1.3041 37.6036 2.15124C36.5494 2.45244 35.7023 3.14897 35.6646 4.69264C35.6646 4.86207 35.7399 5.01267 35.8905 5.08797C35.8905 5.08797 35.9282 5.08797 35.947 5.1068C36.0035 5.80333 36.3235 6.61282 37.3212 7.32818C36.9259 8.77772 36.7188 10.3214 36.7 11.9027C36.7 11.978 36.6435 12.1474 36.6247 12.2039C35.9282 13.2769 35.1187 14.5194 34.1774 15.9313C33.6127 16.7973 33.7821 17.5126 33.9327 17.8515C34.1774 18.4162 34.7045 18.868 35.401 19.1128C35.3822 19.6587 35.3634 20.1482 35.3634 20.5811C35.3634 20.9765 35.5328 21.3153 35.6458 21.5412C35.6458 21.5601 35.6646 21.5789 35.6834 21.6165C35.0245 24.365 35.7587 26.4923 37.6036 27.17C38.319 27.4335 39.5238 27.6406 41.2934 27.7912C41.5004 27.7912 41.5757 27.8665 41.5946 27.9042C42.6299 29.0525 42.95 30.7091 42.6111 33.0999C42.6111 33.0999 42.5735 33.2317 42.3476 33.6082C41.5381 34.9071 40.6909 36.4696 39.7873 38.2204C37.5848 42.4937 36.3235 47.2 36.0411 52.1887C35.9093 54.3724 35.7776 57.0456 35.627 60.2083L34.2904 60.4718C33.7256 59.9259 33.2361 59.6059 32.7843 59.4552C32.1066 59.2293 31.4854 58.947 30.9395 58.5705C29.4899 57.6104 27.9839 57.6669 26.7414 58.7399C26.5344 58.9093 26.1202 59.2105 25.5366 59.6435C24.313 60.5095 24.2189 61.3754 24.1247 62.392V62.6555C24.1247 62.6555 24.0871 62.7497 23.8612 63.0132L23.6729 63.2391C23.127 63.9357 23.1646 64.9522 23.7671 65.9876C24.0118 66.4206 24.2 66.8347 24.313 67.2301C24.633 68.3031 24.7836 68.6608 24.953 68.8679C25.4613 69.5268 26.1955 69.8844 27.0991 69.8844C27.325 69.8844 27.5509 69.8844 27.7392 69.8844C28.3416 69.8844 28.4734 69.8656 28.8122 70.0915C30.6006 71.2963 32.5208 71.5975 34.5539 70.9951C34.8928 70.901 35.1187 70.8633 35.4387 70.8633C35.4763 75.6826 35.4763 81.9326 35.4387 89.4627C35.4387 90.2157 35.7587 90.8181 36.267 91.1193C36.1917 91.3452 36.1352 91.5523 36.0599 91.7594C35.8717 92.3618 35.7211 92.8889 35.5328 93.3783L35.0434 94.6961C33.9327 97.6328 32.8973 100.4 32.1066 103.262C30.8453 107.78 29.697 112.411 28.6616 117.023C28.511 117.719 28.8687 118.416 29.5276 118.698L30.77 119.225C30.2429 120.336 29.7158 121.71 29.2075 123.329C29.0381 123.838 28.9063 124.572 28.7934 125.551C28.6616 126.793 28.3039 128.036 27.758 129.222C26.2708 132.403 24.7836 135.867 23.3341 139.519C22.694 141.157 21.8657 143.077 20.8868 145.317C20.2279 146.804 19.4749 148.254 18.6654 149.59C18.3266 149.421 18.0254 149.308 17.8371 149.252C16.7829 148.574 15.4086 148.95 14.1097 149.327C13.0555 149.628 12.4719 149.967 12.0201 150.249C11.7754 150.4 11.606 150.513 11.3989 150.588C11.1918 150.663 11.0224 150.682 10.8718 150.701C10.3258 150.776 9.72343 150.701 9.08337 150.456C8.10446 150.08 7.33262 149.478 6.57961 148.894C5.5254 148.066 4.43354 147.2 2.98399 147.426C2.47571 147.501 1.7227 147.746 1.00734 148.517C-0.724577 150.381 0.329636 153.374 0.555538 153.939C0.988519 155.05 1.96743 156.236 3.54875 157.516C4.79122 158.532 5.6007 158.928 6.31606 159.267C6.82434 159.511 7.3138 159.756 7.95386 160.227C9.49752 161.337 10.307 162.542 11.0977 163.691C11.9825 165.008 12.8296 166.251 14.5427 167.023C15.4086 167.399 16.6511 167.719 17.8371 167.851C18.7031 167.945 19.3243 167.907 19.9267 167.719C20.5668 167.512 21.1503 167.173 21.7904 166.571C22.1669 166.081 22.261 165.893 22.3175 165.724C23.3717 162.787 24.1436 160.396 24.633 158.627C24.6895 158.438 24.7836 158.024 24.9907 156.575C24.9907 156.575 25.0283 156.349 25.4425 155.727C27.1744 153.073 29.0193 150.456 30.9206 147.971C31.3913 147.444 35.1563 143.096 36.587 141.383C36.7 141.251 36.9447 140.95 37.2459 140.554C37.8672 139.745 38.4319 138.879 38.9214 137.994C39.505 136.959 39.9568 135.923 40.2768 134.926C40.578 133.984 40.7286 133.269 40.8415 132.61C41.2933 130.257 41.6887 128.224 42.3287 126.963C43.0253 125.607 44.343 124.515 46.1126 123.743C47.8634 123.31 49.407 123.31 50.7624 123.743C51.4778 123.969 52.8144 124.402 54.0569 123.838C54.584 123.593 55.0358 123.216 55.3934 122.727C55.4876 122.595 55.6005 122.426 55.7511 122.181C56.7489 124.063 59.9868 127.96 61.3422 128.883L62.5094 129.88C64.279 131.386 66.7262 133.457 67.6487 134.323C68.2323 134.869 68.7782 135.434 68.7782 135.434C68.9664 135.641 69.1359 135.81 69.3241 136.017C69.8136 136.545 70.4536 137.26 72.1667 138.973C73.8233 140.63 75.4235 142.343 77.0236 144.056C78.3414 145.468 79.6592 146.88 80.9958 148.254L81.1652 148.423C81.2593 148.517 81.3911 148.687 81.5793 148.932C80.5063 149.741 79.9604 150.965 79.998 152.471C80.0357 153.845 80.1674 155.464 80.4122 157.29C80.5816 158.551 79.0003 160.434 78.059 161.563L77.5696 162.147C76.5154 163.483 76.3459 164.99 77.1178 166.514L77.2307 166.759L78.492 167.531C79.2827 168.02 80.2992 168.265 81.3534 168.265C81.8805 168.265 82.4453 168.209 82.9912 168.077C84.0266 167.851 85.175 167.474 86.3798 166.985L86.6245 166.834C87.867 165.799 88.9212 164.575 89.7495 163.239C90.4837 162.072 91.0484 161.187 91.8014 160.547C94.5876 158.118 96.1689 156.725 96.5454 156.386C97.9385 155.163 100.536 152.885 99.388 149.892V149.91ZM35.7776 67.2301C35.7776 67.8701 35.7776 68.4725 35.7776 69.0373C35.2504 69.0373 34.7422 69.0373 34.008 69.2444C32.5208 69.6774 31.1654 69.4703 29.8476 68.5855C29.0005 68.0207 28.3792 68.0396 27.6639 68.0584C27.4944 68.0584 27.3062 68.0584 27.0991 68.0584C26.7038 68.0584 26.5344 67.9078 26.4591 67.8137C26.4591 67.7948 26.3461 67.5878 26.1014 66.7406C25.9508 66.1947 25.7061 65.6299 25.3672 65.084C25.1601 64.7263 25.1225 64.4628 25.1225 64.4439L25.2919 64.2369C25.5743 63.8792 25.8755 63.5215 25.932 62.8814V62.5991C26.0449 61.7331 26.0637 61.5825 26.5908 61.206C27.2685 60.7354 27.7204 60.3965 27.9463 60.2083C28.3792 59.8318 28.944 59.5494 29.9041 60.1706C30.6006 60.6224 31.3724 60.9989 32.2008 61.2625C32.2761 61.2813 32.5961 61.4319 33.2173 62.0908L33.7444 62.5238L35.8529 62.1096C35.7964 63.7662 35.7776 65.3475 35.7776 67.2113V67.2301ZM41.4628 25.984C39.505 25.8146 38.639 25.6075 38.2625 25.4757C36.8506 24.9486 37.4342 22.4637 37.5659 21.9554C37.6224 21.6918 37.6036 21.4283 37.5283 21.1835C37.4907 21.0518 37.4153 20.92 37.3589 20.807C37.3212 20.7317 37.2836 20.6376 37.2647 20.6376C37.2647 20.1105 37.2647 19.4893 37.3212 18.7551C37.3589 18.1527 36.9259 17.6256 36.3423 17.5126C35.947 17.4373 35.7023 17.2491 35.6646 17.2114C35.6646 17.2114 35.6646 17.1361 35.7399 17.042C36.6812 15.6113 37.5095 14.3688 38.1872 13.2958C38.4507 12.8816 38.5449 12.2604 38.5637 12.0345C38.6013 10.4343 38.8272 8.89067 39.2414 7.45995C39.3543 7.08345 39.2602 6.66929 39.0343 6.36809C40.1827 6.63164 41.3686 6.74459 42.5735 6.65047C43.4394 6.59399 44.2113 6.85755 44.9078 7.44113C45.0584 7.5729 45.1149 7.76116 45.096 7.96823C45.0207 8.47652 44.9831 9.07892 44.9643 9.77546C44.9643 10.5285 45.0207 11.0367 45.1713 11.2815C45.9055 12.4863 46.4138 13.7852 46.715 15.1406V15.1783C46.7715 15.3101 46.9033 15.3666 47.035 15.3101C48.5222 14.5947 50.706 13.2769 51.6284 15.6301C52.212 17.0796 51.6849 19.301 51.346 20.7317C51.3084 20.92 51.3272 21.1271 51.4213 21.2965C52.2308 22.8966 53.1909 24.3462 54.3204 25.6451C54.3957 26.2475 54.5087 26.8311 54.6781 27.4335C54.7534 27.6971 54.8852 27.9042 54.9981 28.1301C53.0215 29.4667 50.9507 30.5209 48.767 31.2362C46.8656 31.8575 45.4725 32.3093 44.5501 32.6293C44.7572 30.1067 44.2677 28.1489 43.0064 26.737C42.6299 26.3228 42.1028 26.0781 41.4816 26.0216L41.4628 25.984ZM45.4914 121.974C43.157 122.972 41.5192 124.365 40.6156 126.115C39.8438 127.621 39.4485 129.673 38.9214 132.384C38.8272 132.892 38.6955 133.514 38.4319 134.342C38.1495 135.227 37.7354 136.149 37.2083 137.091C36.7565 137.9 36.2482 138.672 35.6834 139.425C35.401 139.801 35.1751 140.065 35.0622 140.197C33.6127 141.91 29.8664 146.24 29.377 146.804C27.4191 149.365 25.5366 152.038 23.7859 154.73C23.3717 155.37 23.1458 155.859 23.0705 156.273L19.8702 151.172C20.8868 149.572 21.7904 147.877 22.5434 146.127C23.5411 143.868 24.3695 141.91 25.0095 140.253C26.4402 136.639 27.9086 133.213 29.377 130.05C30.017 128.676 30.4312 127.245 30.5818 125.795C30.6947 124.741 30.8265 124.214 30.9018 123.951C31.5042 122.106 32.0878 120.6 32.6714 119.489C32.9726 118.905 32.7467 118.171 32.069 117.813L30.6383 117.211C32.5961 117.343 34.5539 117.663 36.4553 118.228C37.1894 118.435 38.0178 118.679 38.959 118.943C41.331 119.602 44.023 120.505 47.0162 121.673C46.5079 121.748 45.9997 121.842 45.4537 121.974H45.4914ZM49.407 71.2775C49.407 71.2775 49.407 71.2775 49.407 71.3528C49.407 71.3528 49.3694 71.5411 49.2941 71.8987C49.2564 72.0493 48.7858 73.4236 47.3362 74.5531C46.9221 74.8731 45.6232 75.9085 43.8159 75.9273C42.7052 75.9462 42.8747 75.5697 40.7662 75.3249C39.8815 75.2308 39.392 75.2496 38.9967 74.8355C38.8649 74.7037 38.8084 74.5719 38.319 73.3671C38.0742 72.7647 37.9425 72.4447 37.9236 72.3882C37.4153 70.901 37.7354 69.4326 37.8295 69.0561C38.0554 68.0772 38.1872 67.4936 38.7143 67.0042C39.6744 66.0817 40.8415 66.5712 41.651 65.5358C42.1028 64.9522 41.8581 64.6698 42.2534 64.4063C42.8182 64.0486 43.4582 64.5004 45.7926 64.9522C45.7926 64.9522 46.075 65.0463 46.3573 65.0463C47.2609 65.084 48.221 64.5004 52.2685 63.2956C54.7157 62.5614 56.8618 61.8084 58.7255 60.9989C59.4409 60.6789 60.0621 60.3777 60.608 60.0765C60.608 60.0765 60.608 60.0765 60.6269 60.0765C60.8151 59.9635 60.8528 59.7188 60.721 59.5494C60.0056 58.5328 57.8972 55.5396 57.8972 55.5396C57.5395 55.1631 56.9936 54.5795 56.3347 53.8265C60.7022 52.9229 65.0696 52.0005 69.4371 51.0968C69.55 51.4357 69.6441 51.7746 69.7383 52.0946C70.3783 54.2407 71.2255 56.1985 71.9785 57.9492C73.3527 61.1307 74.4446 63.6533 73.5221 65.3287C72.9762 66.3453 71.489 67.0418 68.5523 68.4349C68.1381 68.6231 67.724 68.7926 67.3098 68.962C66.3121 69.2632 64.9943 69.6209 63.413 69.8656C56.4853 70.9951 50.16 69.4326 49.4258 71.2775H49.407ZM83.556 148.555C83.556 148.555 83.556 148.536 83.556 148.517C83.0101 147.651 82.6147 147.181 82.3324 146.936C80.9958 145.562 79.6968 144.169 78.3791 142.776C76.7601 141.044 75.1599 139.331 73.4845 137.655C71.809 135.98 71.169 135.283 70.6984 134.756C70.4913 134.53 70.3219 134.342 70.1148 134.135C70.1148 134.135 69.5312 133.551 68.91 132.968C67.9499 132.064 65.5967 130.069 63.6954 128.469L62.4906 127.452L62.3023 127.32C61.5305 126.906 58.0102 122.765 57.276 121.127C57.2571 121.07 57.2195 121.033 57.1818 120.976L68.1193 118.058C68.1193 118.058 68.1193 118.134 68.1193 118.19C68.4205 119.357 68.91 120.411 69.5877 121.334C70.303 122.313 71.2443 122.99 72.1479 123.63C72.6562 123.988 73.1833 124.365 73.6728 124.798C75.4235 126.379 76.8166 128.299 77.8331 130.521C79.0756 133.25 79.9227 135.152 80.3934 136.243C80.5063 136.507 80.7699 137.015 81.7299 138.521C82.1253 139.161 82.6524 139.858 83.2924 140.592C85.1373 142.757 86.6998 144.583 87.9987 146.07L83.556 148.555Z" fill="#323E48"/>
<path d="M194.926 149.289C194.794 148.273 194.098 147.407 193.138 146.654C191.952 145.731 190.502 144.865 188.808 144.075C188.582 143.962 188.243 143.924 187.942 143.924C187.848 143.924 187.697 143.792 187.471 143.548C185.306 141.119 184.083 139.764 183.819 139.463C182.52 138.032 181.315 136.413 180.6 135.057C178.586 131.236 176.684 127.508 173.315 124.647C172.223 123.706 170.491 122.783 169.399 122.068C167.592 120.882 166.839 118.981 166.331 116.966C165.803 114.877 165.126 112.448 164.297 109.662C164.109 109.003 163.959 108.476 163.864 108.081C163.563 106.744 163.13 105.521 162.791 104.128C162.133 101.323 161.53 98.9129 161.417 96.5974C161.267 93.7172 161.662 89.3685 161.078 85.8106C161.022 85.4152 161.285 84.9823 161.304 84.5493C161.436 81.4055 160.457 77.4898 159.12 74.7225C158.349 73.1412 156.673 70.148 156.033 67.776C155.92 67.3618 155.845 66.9665 155.807 66.5712C155.807 66.4206 155.883 66.27 156.033 66.2323C157.991 65.6676 160.382 65.0275 163.206 64.331C166.236 63.578 167.046 60.3777 165.578 57.8739C163.187 53.8077 160.965 50.1744 158.913 46.9741C158.706 46.6353 158.518 46.2211 158.349 45.7317C158.198 45.2798 158.01 44.828 157.727 44.3951C156.523 42.4184 155.412 40.6865 154.377 39.2181C152.871 37.072 150.687 34.9071 147.863 32.7234C147.75 32.6293 147.694 32.5728 147.675 32.554C147.562 32.1963 147.637 32.1022 147.901 32.2716C148.447 32.6481 149.03 32.8928 149.689 33.0246C150.141 33.1187 150.574 33.3447 150.856 33.627C152.136 34.926 153.831 36.6202 155.939 38.7098C156.786 39.557 157.878 40.4982 158.669 41.1195C159.836 42.0231 161.398 42.1737 162.81 41.9478C163.883 41.7784 164.693 41.1195 165.276 40.0276C165.446 39.8958 165.653 39.8017 165.879 39.7264C167.046 39.7264 168.213 39.6323 169.136 38.9169C170.698 37.6933 170.867 35.6413 169.87 33.9659C169.832 33.8906 169.813 33.7965 169.87 33.7212C170.585 32.0834 170.679 30.3891 170.133 28.6572C169.286 25.9087 166.858 23.9509 164.128 23.1225C164.09 23.0849 164.034 23.0096 163.977 22.9531C163.977 22.8966 163.959 22.859 163.977 22.8025C164.956 20.3552 164.392 18.4162 162.264 17.0043C162.151 16.929 162.095 16.7973 162.114 16.6467C162.264 15.6489 162.057 14.7641 161.492 13.9735C159.817 11.6015 156.73 11.1873 154.057 11.9404C153.341 12.1474 152.569 12.4486 151.703 12.8628C151.703 12.8628 151.666 12.8628 151.647 12.8628C151.534 12.8816 151.421 12.8063 151.402 12.6934C151.195 11.5074 150.649 10.3967 149.764 9.39895C147.901 7.25287 145.623 5.87863 142.912 5.27623C140.201 4.65499 136.926 5.44565 134.572 6.74459C133.65 7.25287 132.483 7.87411 131.071 8.57064C130.092 9.0601 129.81 9.79428 130.28 10.792C130.356 10.9803 130.412 11.2626 130.374 11.4321C130.054 12.8063 129.904 14.1806 129.941 15.5736C129.941 16.3831 129.885 16.929 129.49 17.5315C129.17 18.0209 128.85 18.5104 128.548 19.0186C127.758 20.2423 128.529 20.6941 129.678 20.8447C129.791 20.8447 129.885 20.9576 129.885 21.0706C129.885 21.673 129.81 22.5954 129.998 23.179C130.111 23.5179 130.468 23.6497 130.45 24.0826C130.337 26.1911 130.732 27.9983 133.273 27.9042C133.706 27.9042 134.215 27.9042 134.779 27.9418C135.137 27.9606 135.401 28.1489 135.589 28.4689C136.568 30.2573 137.001 32.1022 136.888 34.0412C136.869 34.4742 136.718 34.9824 136.455 35.5284C135.853 36.8273 134.723 39.2369 133.085 42.7761C131.184 46.9176 128.68 50.5697 130.337 55.2949L130.732 56.4244C130.732 56.462 130.713 56.4997 130.676 56.4997C129.734 56.575 129.113 56.7632 128.812 57.0644C128.737 57.1397 128.435 57.3657 127.946 57.7045C127.664 57.8928 127.343 58.0245 126.967 58.081C125.706 58.2504 124.896 58.3257 124.426 59.6435C124.237 60.1518 124.068 60.6601 123.917 61.1872C123.804 61.5637 123.804 61.8272 123.917 61.9778C124.218 62.5049 124.35 63.0697 124.313 63.7098C124.087 65.2158 124.84 65.7429 126.082 66.0817C126.421 66.1759 126.76 66.3265 127.118 66.5147C128.134 67.0795 128.68 67.343 129.715 67.1171C130.883 66.8536 131.824 66.4582 133.142 66.6465C133.311 66.6653 133.443 66.8159 133.443 67.0042C133.386 72.3694 133.443 77.4145 133.612 82.1773C133.612 82.4973 133.612 82.6668 133.612 82.6668C133.612 82.7985 133.612 82.968 133.612 83.1374C133.612 83.4951 133.631 83.9092 133.669 84.3422C133.706 84.7752 133.744 85.227 133.819 85.6411C133.895 86.0553 133.989 86.4318 134.102 86.7142C134.158 86.8648 134.234 86.9777 134.309 87.0719C134.346 87.1095 134.384 87.1095 134.422 87.1283C134.459 87.1283 134.478 87.1848 134.535 87.1848C134.535 87.1848 134.554 87.1848 134.572 87.1848C134.779 87.6554 134.817 87.9755 134.742 88.5402C134.572 89.7639 134.139 90.8369 133.518 91.9853C131.975 94.8655 130.789 97.0116 129.715 99.0635C128.059 102.245 126.835 104.673 126.045 106.368C125.216 108.156 124.576 109.493 124.143 110.378C122.505 113.71 121.451 115.63 120.548 118.284C120.171 119.376 119.983 120.298 119.964 121.051C119.945 122.67 120.115 124.553 120.02 126.435C119.7 132.083 119.324 136.996 118.722 143.416C118.514 145.731 118.439 147.877 118.289 150.758V150.795C118.251 150.889 118.119 150.908 118.063 150.908C117.761 150.946 116.783 150.889 116.425 150.965C115.521 151.172 115.822 152.998 114.354 154.353C114.053 154.636 113.789 154.786 113.507 154.956C110.269 156.819 104.979 155.163 103.963 156.913C103.586 157.572 103.944 158.42 104.113 158.815C104.546 159.85 105.487 160.415 109.723 161.789C111.587 162.392 113.77 163.051 116.557 163.653C116.557 163.653 118.42 164.048 120.981 164.067C122.374 164.067 123.145 163.954 123.729 163.408C124.294 162.862 124.52 162.034 124.614 161.733C124.727 161.3 124.746 160.942 124.783 160.246C124.84 159.154 124.764 158.156 124.651 156.706C124.595 155.878 124.614 155.163 124.708 154.56C125.292 151.285 126.346 148.066 127.758 143.773C128.398 141.797 129.132 139.255 129.904 136.187C130.676 133.156 130.996 129.975 130.864 126.624C132.765 124.289 134.685 121.955 136.587 119.64C138.206 117.908 139.843 116.195 141.557 114.519C141.99 114.086 142.404 113.672 142.799 113.277C144.267 112.072 145.547 110.98 146.508 110.02C148.07 112.768 149.275 114.914 150.066 116.439C151.741 119.583 153.529 122.388 155.393 124.835C157.012 126.944 159.441 128.487 161.982 129.88C163.074 130.483 164.166 131.217 165.276 132.102C169.531 135.49 173.559 138.973 177.362 142.531C179.151 144.206 180.826 145.976 182.426 147.859C182.426 147.859 182.426 147.877 182.445 147.896C182.501 148.009 182.445 148.141 182.351 148.197C181.541 148.649 181.202 149.365 181.334 150.381C181.485 151.529 181.617 152.339 181.617 152.339C181.617 152.339 181.843 153.073 182.483 156.048C183.33 159.944 180.393 162.354 181.786 164.086C182.219 164.613 182.972 165.008 183.706 165.046C184.384 165.084 184.968 164.839 185.626 164.406C187.565 163.145 188.94 161.093 189.599 160.001C190.954 158.043 193.1 154.73 194.681 151.134C194.832 150.814 195.096 150.174 195.001 149.402L194.926 149.289ZM124.67 62.1661C124.689 62.1661 124.708 62.1661 124.727 62.1473C124.746 62.1473 124.764 62.1473 124.783 62.1473C124.746 62.1473 124.708 62.1473 124.67 62.1473V62.1661ZM136.003 27.2453C135.702 26.9629 135.363 26.7746 134.987 26.7746C134.685 26.7746 134.365 26.7746 134.064 26.7746C133.179 26.7935 132.37 26.7935 131.918 26.5299C131.767 26.4358 131.673 26.2664 131.617 25.984C131.542 25.6263 131.485 25.2686 131.466 24.9298C131.447 24.5909 131.447 24.2521 131.466 23.932C131.466 23.932 131.485 23.8756 131.504 23.8567C131.504 23.8379 131.523 23.8003 131.542 23.7814C131.56 23.7626 131.598 23.7814 131.636 23.7626C131.673 23.7626 131.692 23.725 131.73 23.7438C131.937 23.7626 132.125 23.7438 132.332 23.6873C132.407 23.6685 132.464 23.612 132.483 23.5367C132.539 23.3108 132.52 23.0849 132.426 22.8402C132.389 22.7649 132.313 22.7084 132.238 22.7084H131.297C131.052 22.7084 130.92 22.5766 130.92 22.3319V20.2046C130.92 20.2046 130.901 20.0729 130.845 20.0164C130.807 19.9599 130.732 19.9411 130.657 19.9223L129.715 19.847C129.715 19.847 129.64 19.847 129.603 19.8093C129.603 19.8093 129.603 19.7905 129.584 19.7717C129.565 19.7528 129.546 19.734 129.527 19.6964C129.508 19.6587 129.508 19.6399 129.508 19.6022C129.508 19.6022 129.508 19.5834 129.508 19.5646C129.508 19.5269 129.508 19.4893 129.546 19.4516C129.772 19.1128 129.923 18.7551 130.111 18.3974C130.299 18.0397 130.525 17.7009 130.676 17.3432C130.901 16.8537 130.958 16.2137 130.977 15.5736C130.977 14.9524 130.977 14.3312 131.014 13.9358C131.09 13.2769 131.221 12.7122 131.41 12.2227C131.41 12.2039 131.429 12.1851 131.447 12.1663C131.485 12.1286 131.542 12.1098 131.598 12.1286C131.617 12.1286 131.636 12.1474 131.654 12.1663C132.238 12.8063 132.859 13.4276 133.518 14.0488C134.177 14.6512 134.892 15.2536 135.645 15.8372C136.097 16.1949 136.606 16.5149 137.114 16.7973C137.622 17.0796 138.168 17.362 138.714 17.6256C138.752 17.6444 138.77 17.7009 138.789 17.7385C138.808 17.7762 138.865 17.8138 138.865 17.8515V19.5081C138.865 19.5646 138.883 19.6022 138.921 19.6399C138.94 19.6587 138.977 19.6587 138.996 19.6775C139.015 19.6775 139.034 19.6964 139.072 19.6964C139.128 19.6964 139.185 19.6775 139.222 19.6399C139.542 19.301 139.806 18.9622 140.069 18.6798C140.163 18.5857 140.239 18.4915 140.352 18.4162C140.54 18.2656 140.747 18.1339 141.011 18.0586C141.274 17.9833 141.575 17.9644 141.971 18.0021C142.234 18.0209 142.441 18.115 142.592 18.2468C142.705 18.3598 142.78 18.5292 142.818 18.7551C142.855 18.9622 142.874 19.2257 142.855 19.4705C142.855 19.9787 142.743 20.487 142.648 20.7506C142.46 21.3153 142.008 21.8989 141.669 22.426C141.557 22.6143 141.462 22.7837 141.387 22.9343C141.255 23.2355 141.218 23.4991 141.293 23.725C141.368 23.9509 141.557 24.1391 141.839 24.2897C141.99 24.365 142.159 24.4027 142.366 24.4215C142.554 24.4215 142.78 24.4215 143.006 24.4215C143.232 24.4215 143.458 24.365 143.684 24.3274C143.91 24.2897 144.117 24.2521 144.305 24.2144C144.305 24.2144 144.324 24.2144 144.343 24.2144C144.38 24.2144 144.38 24.2521 144.399 24.2897C144.418 24.3085 144.474 24.2897 144.474 24.3462C144.474 24.3462 144.474 24.365 144.474 24.3838C144.418 25.6451 144.474 26.9252 144.738 28.1489C144.813 28.4501 144.889 28.7513 144.983 29.0525C145.171 29.6361 145.435 30.2197 145.792 30.7468C145.962 31.0103 146.15 31.2739 146.357 31.5374C146.376 31.5751 146.413 31.6127 146.413 31.6504C146.413 31.6692 146.413 31.688 146.413 31.7069C146.413 31.7445 146.413 31.7822 146.413 31.8198C146.413 31.8575 146.395 31.8951 146.357 31.9139C146.357 31.9139 146.357 31.9516 146.338 31.9704C146.301 31.9892 146.263 32.0269 146.225 32.0269C145.868 32.121 145.548 32.2151 145.246 32.3093C144.324 32.5728 143.571 32.7987 142.592 33.1564C142.215 33.2882 141.839 33.4388 141.462 33.5706C140.352 33.9659 139.298 34.3236 138.262 34.4177C138.224 34.4177 138.206 34.3989 138.187 34.38C138.149 34.38 138.13 34.38 138.093 34.3424C138.074 34.3236 138.055 34.2859 138.055 34.2671C138.055 34.2483 138.017 34.2294 138.017 34.1918C137.961 33.0999 137.961 32.3281 137.848 31.5751C137.81 31.3303 137.754 31.0668 137.697 30.8221C137.66 30.6715 137.622 30.502 137.566 30.3138C137.453 29.9373 137.302 29.4855 137.114 29.0337C136.831 28.356 136.474 27.6783 136.022 27.2453H136.003ZM124.934 62.2414C124.934 62.2414 124.972 62.2602 124.972 62.279C124.972 62.2979 124.972 62.3167 124.99 62.3355C124.99 62.2979 124.953 62.2602 124.934 62.2414ZM154.941 65.4605C154.414 65.6487 153.831 65.8182 153.228 65.9688C152.268 66.2323 151.27 66.4582 150.122 66.6277C148.842 66.8347 147.562 66.9665 146.301 67.0418C142.479 67.2677 138.639 66.8912 134.798 65.9123C133.876 65.6864 133.198 65.5358 132.709 65.4793C132.144 65.404 131.598 65.4793 131.071 65.5734C130.807 65.6299 130.544 65.7052 130.28 65.7617C130.017 65.837 129.753 65.8935 129.49 65.95C129.32 65.9876 129.17 66.0064 129.038 66.0064C128.605 66.0253 128.266 65.9123 127.795 65.6111C127.532 65.4417 127.212 65.3099 126.873 65.1781C126.534 65.0652 126.158 64.971 125.725 64.8957C125.499 64.8581 125.386 64.7075 125.348 64.4816C125.348 64.4439 125.329 64.4251 125.329 64.4063C125.292 63.8415 125.329 63.2768 125.386 62.712C125.386 62.5991 125.292 62.2037 125.047 61.5449C125.028 61.4696 125.009 61.3942 125.047 61.3189C125.16 60.773 125.405 60.1706 125.781 59.5494C125.819 59.4741 125.875 59.4176 125.95 59.3988C126.252 59.2482 126.741 59.154 127.419 59.0787C128.454 58.9658 129 58.2128 129.621 57.8551C129.828 57.7422 130.224 57.6857 130.807 57.7045C131.184 58.0622 131.711 58.6458 132.407 59.4741C132.633 59.7565 132.897 60.0577 133.16 60.3777C133.688 61.0177 134.384 61.2436 135.194 61.2625C135.457 61.2625 135.74 61.2625 136.041 61.2248C136.718 61.1683 137.359 61.1119 137.999 61.0554C139.335 60.9424 140.578 60.8107 141.764 60.6789C142.837 60.5659 143.872 60.4342 144.87 60.2647C145.943 60.0953 146.978 59.9071 148.032 59.6812C148.56 59.5682 149.087 59.4552 149.614 59.3046C150.216 59.154 150.837 58.9658 151.459 58.7587C152.08 58.5516 152.701 58.2881 153.341 58.0245C153.454 57.9681 153.605 57.9116 153.774 57.8739C153.944 57.8175 154.151 57.7798 154.377 57.7233C154.433 57.7233 154.489 57.6669 154.527 57.6292C154.546 57.6104 154.584 57.6104 154.602 57.5727C154.621 57.5539 154.602 57.4974 154.621 57.4786C154.64 57.4221 154.678 57.3656 154.659 57.3092C154.621 56.9891 154.395 56.8197 154.132 56.6691C154 56.5938 153.868 56.5373 153.736 56.462C153.605 56.3867 153.511 56.3114 153.435 56.2173C153.115 55.7843 152.776 55.3702 152.456 54.956C152.136 54.5419 151.816 54.0901 151.477 53.6947C151.365 53.5441 151.346 53.337 151.477 53.1864C153.078 50.9651 154.979 48.8943 157.2 46.9929C157.2 46.9929 157.219 46.9929 157.238 46.9741C157.257 46.9741 157.294 46.9741 157.332 46.9741C157.37 46.9741 157.407 46.9553 157.426 46.9741C157.464 46.9741 157.483 46.9929 157.52 47.0118C157.539 47.0118 157.577 47.0118 157.596 47.0494C157.596 47.0494 157.596 47.0682 157.614 47.0871C160.231 51.1721 162.584 55.0878 164.712 58.8528C165.22 59.7376 165.276 60.9424 164.806 61.8837C164.655 62.2037 164.429 62.4861 164.166 62.7308C164.034 62.8438 163.846 62.9567 163.62 63.0509C163.375 63.145 163.093 63.2203 162.754 63.2768C161.568 63.5027 160.325 63.8039 159.008 64.1804C157.709 64.5569 156.334 64.9899 154.922 65.4981L154.941 65.4605ZM152.381 56.5938L152.626 56.895C152.626 56.895 152.626 56.9138 152.645 56.9327C152.55 56.8197 152.456 56.7068 152.362 56.5938H152.381ZM169.531 123.461C170.209 123.913 171.056 124.478 172.091 125.155C172.11 125.155 172.166 125.212 172.185 125.231C171.112 124.515 170.227 123.913 169.531 123.461Z" fill="#323E48"/>
</svg>
