<svg width="196" height="169" fill="none" xmlns="http://www.w3.org/2000/svg"><path d="M99.388 149.91c-.452-1.148-1.6-2.089-3.407-2.804-2.109-.81-3.897-1.412-5.347-1.751-.451-.113-.753-.17-.922-.207 0 0-.057-.019-.188-.17a451.91 451.91 0 0 1-4.82-5.61 16.24 16.24 0 0 1-1.412-1.863c-.865-1.337-1.11-1.845-1.186-2.015a412.798 412.798 0 0 0-2.56-5.741c-1.11-2.466-2.654-4.594-4.612-6.344-.546-.49-1.11-.904-1.694-1.299-.828-.584-1.6-1.149-2.127-1.864a7.665 7.665 0 0 1-1.036-2.033c.339-.301.508-.753.414-1.224a471.968 471.968 0 0 0-2.108-10.918c-.282-1.318-.508-2.598-.772-4.048a284.957 284.957 0 0 0-.64-3.464c-.056-.263-.019-.357-.019-.357.828-2.184 1.318-3.671 1.506-4.556.094-.47.207-1.28.32-2.466.075-.79.057-1.657-.038-2.542-.263-2.353-.414-3.99-.432-4.141-.415-2.711-1.111-7.286-2.034-13.159a26.421 26.421 0 0 0 3.05-1.224c3.313-1.562 4.97-2.353 5.817-3.915 1.337-2.485.038-5.516-1.468-9.018-.734-1.694-1.563-3.595-2.165-5.647-.452-1.506-.98-3.22-1.901-5.892-.64-1.845-1.28-3.389-1.864-4.594-1.789-3.614-3.972-6.74-6.495-9.28l-2.805-2.862c-.508-.508-.979-.922-1.45-1.224-.225-.15-.395-.414-.489-.79a12.02 12.02 0 0 1-.376-2.598c.263-.47.508-.98.715-1.488 1.355-1.487 1.826-3.331 2.315-5.27.283-1.092.415-2.203.565-3.37l.038-.302s.113-.62.32-1.656c.395-2.109-.207-3.727-.979-5.44l.056-.81-.037-.17a1.4 1.4 0 0 0-1.657-1.016c-.245.056-.263.056-.358-.038l-.376-.357c-.715-.678-1.619-1.544-2.617-1.808-.207-.056-.659-.131-2.39-.263a6.844 6.844 0 0 1-.546-.057c-.377-.17-1.149-.47-2.335-.903-.96-.34-1.732-.452-2.334-.301a15.235 15.235 0 0 1-4.047.376c-1.318-.056-3.389-.113-4.857.734-1.055.301-1.902.998-1.94 2.542 0 .17.076.32.227.395 0 0 .037 0 .056.019.056.696.377 1.506 1.374 2.221a18.248 18.248 0 0 0-.621 4.575c0 .075-.056.244-.075.3a353.97 353.97 0 0 1-2.448 3.728c-.564.866-.395 1.582-.244 1.92.244.565.772 1.017 1.468 1.262-.019.546-.038 1.035-.038 1.468 0 .396.17.734.283.96 0 .02.019.038.037.075-.658 2.749.076 4.876 1.92 5.554.716.263 1.92.47 3.69.621.207 0 .283.075.302.113 1.035 1.148 1.355 2.805 1.016 5.196 0 0-.037.132-.263.508-.81 1.3-1.657 2.862-2.56 4.612-2.203 4.274-3.464 8.98-3.747 13.969a672.222 672.222 0 0 0-.414 8.02l-1.337.263c-.564-.546-1.054-.866-1.506-1.017-.677-.226-1.299-.508-1.845-.884-1.45-.96-2.955-.904-4.198.169-.207.17-.62.47-1.204.904-1.224.866-1.318 1.731-1.412 2.748v.264s-.038.094-.264.357l-.188.226c-.546.697-.508 1.713.094 2.749.245.433.433.847.546 1.242.32 1.073.47 1.43.64 1.638.508.659 1.242 1.016 2.146 1.016h.64c.603 0 .734-.018 1.073.207 1.789 1.205 3.709 1.507 5.742.904a2.97 2.97 0 0 1 .885-.132c.037 4.82.037 11.07 0 18.6 0 .753.32 1.355.828 1.656-.075.226-.132.433-.207.64-.188.603-.339 1.13-.527 1.62l-.49 1.317c-1.11 2.937-2.146 5.704-2.936 8.566a277.265 277.265 0 0 0-3.445 13.761 1.473 1.473 0 0 0 .866 1.675l1.242.527c-.527 1.111-1.054 2.485-1.563 4.104-.169.509-.3 1.243-.414 2.222a11.797 11.797 0 0 1-1.035 3.671 189.71 189.71 0 0 0-4.424 10.297c-.64 1.638-1.468 3.558-2.447 5.798a38.067 38.067 0 0 1-2.222 4.273 5.465 5.465 0 0 0-.828-.338c-1.054-.678-2.428-.302-3.727.075-1.054.301-1.638.64-2.09.922-.245.151-.414.264-.621.339-.207.075-.377.094-.527.113-.546.075-1.149 0-1.789-.245-.979-.376-1.75-.978-2.503-1.562-1.055-.828-2.146-1.694-3.596-1.468-.508.075-1.261.32-1.977 1.091-1.732 1.864-.677 4.857-.451 5.422.433 1.111 1.411 2.297 2.993 3.577 1.242 1.016 2.052 1.412 2.767 1.751.508.244.998.489 1.638.96 1.544 1.11 2.353 2.315 3.144 3.464.884 1.317 1.732 2.56 3.445 3.332.866.376 2.108.696 3.294.828.866.094 1.487.056 2.09-.132.64-.207 1.223-.546 1.863-1.148.377-.49.471-.678.527-.847 1.055-2.937 1.827-5.328 2.316-7.097.056-.189.15-.603.358-2.052 0 0 .037-.226.451-.848a127.468 127.468 0 0 1 5.479-7.756c.47-.527 4.235-4.875 5.666-6.588a20.7 20.7 0 0 0 .659-.829 20.57 20.57 0 0 0 1.675-2.56 16.2 16.2 0 0 0 1.92-5.384c.452-2.353.848-4.386 1.488-5.647.696-1.356 2.014-2.448 3.784-3.22 1.75-.433 3.294-.433 4.65 0 .715.226 2.051.659 3.294.095a3.457 3.457 0 0 0 1.336-1.111 9.2 9.2 0 0 0 .358-.546c.998 1.882 4.236 5.779 5.591 6.702l1.167.997c1.77 1.506 4.217 3.577 5.14 4.443.583.546 1.13 1.111 1.13 1.111.187.207.357.376.545.583.49.528 1.13 1.243 2.843 2.956 1.656 1.657 3.257 3.37 4.857 5.083a273.926 273.926 0 0 0 3.972 4.198l.17.169c.093.094.225.264.413.509-1.073.809-1.619 2.033-1.581 3.539.038 1.374.17 2.993.414 4.819.17 1.261-1.412 3.144-2.353 4.273l-.49.584c-1.054 1.336-1.223 2.843-.451 4.367l.113.245 1.261.772c.79.489 1.807.734 2.861.734.528 0 1.092-.056 1.638-.188 1.036-.226 2.184-.603 3.389-1.092l.245-.151a14.923 14.923 0 0 0 3.124-3.595c.735-1.167 1.3-2.052 2.052-2.692a641.488 641.488 0 0 0 4.744-4.161c1.394-1.223 3.991-3.501 2.843-6.494v.018Zm-63.61-82.68v1.807c-.528 0-1.036 0-1.77.207-1.487.433-2.843.226-4.16-.659-.848-.564-1.469-.545-2.184-.527h-.565c-.395 0-.565-.15-.64-.244 0-.02-.113-.226-.358-1.073a6.384 6.384 0 0 0-.734-1.657c-.207-.358-.245-.621-.245-.64l.17-.207c.282-.358.583-.715.64-1.356V62.6c.113-.866.132-1.016.659-1.393.677-.47 1.13-.81 1.355-.998.433-.376.998-.659 1.958-.037a9.554 9.554 0 0 0 2.297 1.092c.075.018.395.169 1.016.828l.527.433 2.109-.414a145.594 145.594 0 0 0-.075 5.101v.02Zm5.685-41.246c-1.958-.17-2.824-.377-3.2-.508-1.412-.527-.829-3.012-.697-3.52a1.526 1.526 0 0 0-.038-.773c-.037-.131-.113-.263-.17-.376-.037-.075-.074-.17-.093-.17 0-.527 0-1.148.056-1.882a1.203 1.203 0 0 0-.979-1.242c-.395-.076-.64-.264-.677-.302 0 0 0-.075.075-.169.941-1.43 1.77-2.673 2.447-3.746.264-.414.358-1.036.377-1.261.037-1.6.263-3.144.677-4.575.113-.377.02-.79-.207-1.092a11.67 11.67 0 0 0 3.54.282c.865-.056 1.637.208 2.334.791.15.132.207.32.188.527-.075.509-.113 1.11-.132 1.807 0 .753.057 1.262.207 1.506a12.66 12.66 0 0 1 1.544 3.86v.037c.056.132.188.189.32.132 1.487-.715 3.671-2.033 4.593.32.584 1.45.057 3.671-.282 5.102a.838.838 0 0 0 .075.565c.81 1.6 1.77 3.05 2.9 4.348.075.602.188 1.186.357 1.788.075.264.207.471.32.697-1.976 1.337-4.047 2.39-6.231 3.106-1.901.622-3.295 1.073-4.217 1.393.207-2.522-.282-4.48-1.544-5.892-.376-.414-.903-.659-1.524-.715l-.02-.038Zm4.028 95.99c-2.334.998-3.972 2.391-4.875 4.141-.772 1.506-1.167 3.558-1.695 6.269a15.15 15.15 0 0 1-.49 1.958c-.281.885-.696 1.807-1.223 2.749-.451.809-.96 1.581-1.525 2.334-.282.376-.508.64-.62.772-1.45 1.713-5.197 6.043-5.686 6.607a128.14 128.14 0 0 0-5.591 7.926c-.414.64-.64 1.129-.716 1.543l-3.2-5.101a35.9 35.9 0 0 0 2.673-5.045c.998-2.259 1.826-4.217 2.466-5.874 1.431-3.614 2.9-7.04 4.368-10.203.64-1.374 1.054-2.805 1.205-4.255.113-1.054.244-1.581.32-1.844.602-1.845 1.186-3.351 1.77-4.462.3-.584.075-1.318-.603-1.676l-1.43-.602c1.957.132 3.915.452 5.816 1.017.734.207 1.563.451 2.504.715 2.372.659 5.064 1.562 8.057 2.73-.508.075-1.016.169-1.562.301h.037Zm3.916-50.697v.076l-.113.546c-.038.15-.508 1.525-1.958 2.654-.414.32-1.713 1.356-3.52 1.374-1.11.02-.941-.357-3.05-.602-.884-.094-1.374-.075-1.77-.49-.131-.131-.188-.263-.677-1.468-.245-.602-.377-.922-.395-.979-.509-1.487-.189-2.955-.094-3.332.225-.979.357-1.562.884-2.052.96-.922 2.128-.433 2.937-1.468.452-.584.207-.866.602-1.13.565-.357 1.205.094 3.54.546 0 0 .282.094.564.094.904.038 1.864-.546 5.912-1.75 2.447-.735 4.593-1.488 6.456-2.297.716-.32 1.337-.621 1.883-.922h.019a.355.355 0 0 0 .094-.528l-2.824-4.01c-.358-.376-.903-.96-1.562-1.712 4.367-.904 8.735-1.826 13.102-2.73.113.339.207.678.301.998.64 2.146 1.487 4.104 2.24 5.854 1.375 3.182 2.467 5.704 1.544 7.38-.546 1.016-2.033 1.713-4.97 3.106-.414.188-.828.358-1.242.527a28.27 28.27 0 0 1-3.897.904c-6.928 1.13-13.253-.433-13.987 1.412h-.019Zm34.149 77.278v-.038c-.546-.866-.941-1.336-1.224-1.581-1.336-1.374-2.635-2.767-3.953-4.16-1.619-1.732-3.22-3.445-4.895-5.121-1.675-1.675-2.315-2.372-2.786-2.899-.207-.226-.376-.414-.583-.621 0 0-.584-.584-1.205-1.167-.96-.904-3.313-2.899-5.215-4.499l-1.204-1.017-.189-.132c-.771-.414-4.292-4.555-5.026-6.193-.019-.057-.057-.094-.094-.151l10.937-2.918v.132a9.114 9.114 0 0 0 1.469 3.144c.715.979 1.656 1.656 2.56 2.296.508.358 1.035.735 1.525 1.168 1.75 1.581 3.144 3.501 4.16 5.723a351.788 351.788 0 0 1 2.56 5.722c.113.264.377.772 1.337 2.278.395.64.922 1.337 1.562 2.071A623.051 623.051 0 0 0 88 146.07l-4.443 2.485Zm111.37.734c-.132-1.016-.828-1.882-1.788-2.635-1.186-.923-2.636-1.789-4.33-2.579-.226-.113-.565-.151-.866-.151-.094 0-.245-.132-.471-.376-2.165-2.429-3.388-3.784-3.652-4.085-1.299-1.431-2.504-3.05-3.219-4.406-2.014-3.821-3.916-7.549-7.285-10.41-1.092-.941-2.824-1.864-3.916-2.579-1.807-1.186-2.56-3.087-3.068-5.102a185.058 185.058 0 0 0-2.034-7.304 44.143 44.143 0 0 1-.433-1.581c-.301-1.337-.734-2.56-1.073-3.953-.658-2.805-1.261-5.215-1.374-7.53-.15-2.88.245-7.23-.339-10.787-.056-.396.207-.829.226-1.262.132-3.144-.847-7.06-2.184-9.827-.771-1.58-2.447-4.574-3.087-6.946a7.142 7.142 0 0 1-.226-1.205c0-.15.076-.301.226-.339a192.789 192.789 0 0 1 7.173-1.901c3.03-.753 3.84-3.953 2.372-6.457a333.877 333.877 0 0 0-6.665-10.9 6.397 6.397 0 0 1-.564-1.242 5.695 5.695 0 0 0-.622-1.337c-1.204-1.977-2.315-3.709-3.35-5.177-1.506-2.146-3.69-4.31-6.514-6.495-.113-.094-.169-.15-.188-.169-.113-.358-.038-.452.226-.282a4.708 4.708 0 0 0 1.788.753c.452.094.885.32 1.167.602a642.556 642.556 0 0 0 5.083 5.083 33.38 33.38 0 0 0 2.73 2.41c1.167.903 2.729 1.054 4.141.828 1.073-.17 1.883-.828 2.466-1.92a2.03 2.03 0 0 1 .603-.302c1.167 0 2.334-.094 3.257-.81 1.562-1.223 1.731-3.275.734-4.95-.038-.075-.057-.17 0-.245.715-1.638.809-3.332.263-5.064-.847-2.748-3.275-4.706-6.005-5.535-.038-.037-.094-.112-.151-.169 0-.056-.018-.094 0-.15.979-2.448.415-4.387-1.713-5.799a.36.36 0 0 1-.15-.357c.15-.998-.057-1.883-.622-2.673-1.675-2.373-4.762-2.787-7.435-2.034-.716.207-1.488.509-2.354.923h-.056a.213.213 0 0 1-.245-.17c-.207-1.186-.753-2.296-1.638-3.294-1.863-2.146-4.141-3.52-6.852-4.123-2.711-.621-5.986.17-8.34 1.469a86.223 86.223 0 0 1-3.501 1.826c-.979.49-1.261 1.223-.791 2.221.076.188.132.47.094.64a16.256 16.256 0 0 0-.433 4.142c0 .81-.056 1.355-.451 1.958-.32.489-.64.978-.942 1.487-.79 1.223-.019 1.675 1.13 1.826.113 0 .207.113.207.226 0 .602-.075 1.524.113 2.108.113.339.47.47.452.904-.113 2.108.282 3.915 2.823 3.821.433 0 .942 0 1.506.038.358.019.622.207.81.527.979 1.788 1.412 3.633 1.299 5.572-.019.433-.17.941-.433 1.487-.602 1.3-1.732 3.709-3.37 7.248-1.901 4.142-4.405 7.794-2.748 12.519l.395 1.13c0 .037-.019.075-.056.075-.942.075-1.563.263-1.864.564-.075.076-.377.302-.866.64-.282.189-.603.32-.979.377-1.261.17-2.071.245-2.541 1.563a20.989 20.989 0 0 0-.509 1.543c-.113.377-.113.64 0 .79.301.528.433 1.093.396 1.733-.226 1.506.527 2.033 1.769 2.372a5.3 5.3 0 0 1 1.036.433c1.016.564 1.562.828 2.597.602 1.168-.263 2.109-.659 3.427-.47a.35.35 0 0 1 .301.357c-.057 5.365 0 10.41.169 15.173v.96c0 .358.019.772.057 1.205.037.433.075.885.15 1.3.076.413.17.79.283 1.072.056.15.132.264.207.358.037.037.075.037.113.056.037 0 .056.057.113.057h.037c.207.47.245.79.17 1.355-.17 1.224-.603 2.297-1.224 3.445-1.543 2.88-2.729 5.027-3.803 7.079-1.656 3.181-2.88 5.609-3.67 7.304a218.712 218.712 0 0 1-1.902 4.01c-1.638 3.332-2.692 5.252-3.595 7.906-.377 1.092-.565 2.014-.584 2.767-.019 1.619.151 3.502.056 5.384-.32 5.648-.696 10.561-1.298 16.981-.208 2.315-.283 4.461-.433 7.342v.037c-.038.094-.17.113-.226.113-.302.038-1.28-.019-1.638.057-.904.207-.603 2.033-2.071 3.388-.301.283-.565.433-.847.603-3.238 1.863-8.528.207-9.544 1.957-.377.659-.019 1.507.15 1.902.433 1.035 1.374 1.6 5.61 2.974 1.864.603 4.047 1.262 6.834 1.864 0 0 1.863.395 4.424.414 1.393 0 2.164-.113 2.748-.659.565-.546.791-1.374.885-1.675.113-.433.132-.791.169-1.487.057-1.092-.019-2.09-.132-3.54-.056-.828-.037-1.543.057-2.146.584-3.275 1.638-6.494 3.05-10.787.64-1.976 1.374-4.518 2.146-7.586.772-3.031 1.092-6.212.96-9.563 1.901-2.335 3.821-4.669 5.723-6.984 1.619-1.732 3.256-3.445 4.97-5.121l1.242-1.242c1.468-1.205 2.748-2.297 3.709-3.257 1.562 2.748 2.767 4.894 3.558 6.419 1.675 3.144 3.463 5.949 5.327 8.396 1.619 2.109 4.048 3.652 6.589 5.045a23.54 23.54 0 0 1 3.294 2.222 200.399 200.399 0 0 1 12.086 10.429 64.31 64.31 0 0 1 5.064 5.328s0 .018.019.037c.056.113 0 .245-.094.301-.81.452-1.149 1.168-1.017 2.184.151 1.148.283 1.958.283 1.958s.226.734.866 3.709c.847 3.896-2.09 6.306-.697 8.038.433.527 1.186.922 1.92.96.678.038 1.262-.207 1.92-.64 1.939-1.261 3.314-3.313 3.973-4.405 1.355-1.958 3.501-5.271 5.082-8.867.151-.32.415-.96.32-1.732l-.075-.113ZM124.67 62.166c.019 0 .038 0 .057-.019h.056-.113v.02Zm11.333-34.92c-.301-.283-.64-.471-1.016-.471h-.923c-.885.019-1.694.019-2.146-.245-.151-.094-.245-.264-.301-.546a7.174 7.174 0 0 1-.151-2.052s.019-.056.038-.075a.14.14 0 0 1 .038-.076c.018-.018.056 0 .094-.018.037 0 .056-.038.094-.02.207.02.395 0 .602-.056a.205.205 0 0 0 .151-.15 1.127 1.127 0 0 0-.057-.697c-.037-.075-.113-.132-.188-.132h-.941c-.245 0-.377-.131-.377-.376v-2.127s-.019-.132-.075-.189c-.038-.056-.113-.075-.188-.094l-.942-.075s-.075 0-.112-.038c0 0 0-.018-.019-.037-.019-.02-.038-.038-.057-.076-.019-.037-.019-.056-.019-.094v-.037c0-.038 0-.076.038-.113.226-.34.377-.697.565-1.055.188-.357.414-.696.565-1.054.225-.49.282-1.13.301-1.77 0-.62 0-1.242.037-1.637.076-.66.207-1.224.396-1.713 0-.02.019-.038.037-.057a.147.147 0 0 1 .151-.037c.019 0 .038.018.056.037.584.64 1.205 1.262 1.864 1.883a34.38 34.38 0 0 0 2.127 1.788c.452.358.961.678 1.469.96.508.283 1.054.565 1.6.829.038.018.056.075.075.112.019.038.076.076.076.114v1.656a.17.17 0 0 0 .056.132c.019.019.056.019.075.037.019 0 .038.02.076.02a.212.212 0 0 0 .15-.057c.32-.339.584-.678.847-.96.094-.094.17-.189.283-.264a1.85 1.85 0 0 1 .659-.357c.263-.076.564-.095.96-.057.263.019.47.113.621.245.113.113.188.282.226.508.037.207.056.47.037.716 0 .508-.112 1.016-.207 1.28-.188.564-.64 1.148-.979 1.675a7.976 7.976 0 0 0-.282.508c-.132.301-.169.565-.094.791.075.226.264.414.546.565.151.075.32.113.527.132h.64c.226 0 .452-.057.678-.095.226-.037.433-.075.621-.113h.038c.037 0 .037.038.056.076.019.018.075 0 .075.056v.038c-.056 1.261 0 2.541.264 3.765.075.301.151.602.245.903.188.584.452 1.168.809 1.695.17.263.358.527.565.79.019.038.056.076.056.113v.17a.102.102 0 0 1-.056.094s0 .038-.019.056c-.037.02-.075.057-.113.057-.357.094-.677.188-.979.282-.922.264-1.675.49-2.654.847-.377.132-.753.283-1.13.415-1.11.395-2.164.753-3.2.847-.038 0-.056-.02-.075-.038-.038 0-.057 0-.094-.038a.142.142 0 0 1-.038-.075c0-.019-.038-.038-.038-.075-.056-1.092-.056-1.864-.169-2.617a10.546 10.546 0 0 0-.151-.753c-.037-.15-.075-.32-.131-.508a13.428 13.428 0 0 0-.452-1.28c-.283-.678-.64-1.356-1.092-1.789h-.019ZM124.934 62.24s.038.02.038.038c0 .019 0 .038.018.056 0-.037-.037-.075-.056-.094Zm30.007 3.22a18.64 18.64 0 0 1-1.713.508c-.96.263-1.958.49-3.106.659-1.28.207-2.56.338-3.821.414-3.822.226-7.662-.15-11.503-1.13-.922-.226-1.6-.376-2.089-.433-.565-.075-1.111 0-1.638.094-.264.057-.527.132-.791.189-.263.075-.527.132-.79.188-.17.038-.32.056-.452.056-.433.02-.772-.094-1.243-.395-.263-.17-.583-.301-.922-.433a7.89 7.89 0 0 0-1.148-.282c-.226-.038-.339-.189-.377-.414 0-.038-.019-.057-.019-.076-.037-.565 0-1.13.057-1.694 0-.113-.094-.508-.339-1.167-.019-.075-.038-.15 0-.226.113-.546.358-1.148.734-1.77a.268.268 0 0 1 .169-.15c.302-.15.791-.245 1.469-.32 1.035-.113 1.581-.866 2.202-1.224.207-.113.603-.17 1.186-.15.377.357.904.94 1.6 1.77.226.282.49.583.753.903.528.64 1.224.866 2.034.885.263 0 .546 0 .847-.038.677-.057 1.318-.113 1.958-.17 1.336-.113 2.579-.244 3.765-.376a49.651 49.651 0 0 0 3.106-.414 58.412 58.412 0 0 0 3.162-.584 23.955 23.955 0 0 0 1.582-.376c.602-.151 1.223-.34 1.845-.546.621-.207 1.242-.47 1.882-.734.113-.057.264-.113.433-.151.17-.056.377-.094.603-.15.056 0 .112-.057.15-.095.019-.019.057-.019.075-.056.019-.02 0-.076.019-.094.019-.057.057-.113.038-.17-.038-.32-.264-.49-.527-.64-.132-.075-.264-.132-.396-.207a1.024 1.024 0 0 1-.301-.245c-.32-.433-.659-.847-.979-1.261-.32-.414-.64-.866-.979-1.261-.112-.15-.131-.358 0-.509a35.366 35.366 0 0 1 5.723-6.193s.019 0 .038-.019h.094c.038 0 .075-.019.094 0 .038 0 .057.019.094.038.019 0 .057 0 .076.037 0 0 0 .02.018.038 2.617 4.085 4.97 8 7.098 11.766.508.885.564 2.09.094 3.03a2.82 2.82 0 0 1-.64.848c-.132.113-.32.226-.546.32-.245.094-.527.17-.866.226a42.765 42.765 0 0 0-3.746.903 67.74 67.74 0 0 0-4.086 1.318l.019-.038Zm-2.56-8.867.245.301s0 .019.019.038a84.658 84.658 0 0 1-.283-.34h.019Zm17.15 66.867c.678.452 1.525 1.017 2.56 1.694.019 0 .075.057.094.076-1.073-.716-1.958-1.318-2.654-1.77Z" fill="#323E48"/></svg>