<svg xmlns="http://www.w3.org/2000/svg" width="122" height="179" fill="none"><g clip-path="url(#a)"><path fill="#323E48" d="M32.431 150.348c-2.473-2.147-4.223-4.427-3.918-7.296.057-1.045.342-2.147 1.008-3.363 0-.019 0-.038-.038-.057l-1.218-1.311c-.114-.114-.304-.133-.418-.019-2.568 2.261-5.668 3.135-9.282 2.622-.552-.076-.818-.361-.78-.855v-.095c0-.076-.02-.152 0-.247v-.057c.095-.532.38-.741.818-.665 3.1.513 5.858-.247 8.274-2.299a.9.9 0 0 0 .21-.285v-.057c-.572-1.976-.838-4.028-.819-6.175 0-.76.02-1.52.095-2.28.133-1.52 1.96-3.078 3.272-3.705l-1.389-1.102s-.17-.057-.228 0c-3.005 2.394-6.581 3.439-10.728 3.116-.59-.038-1.046-.38-1.008-.76v-.551c-.095-.285.076-.57.362-.665a.5.5 0 0 1 .247-.019c3.766.456 7.076-.38 9.872-2.527v-.019c-1.921-2.603-4.128-5.282-4.87-8.721a.215.215 0 0 0-.247-.171c-1.959.57-4.47.931-6.334.209a.86.86 0 0 1-.532-.969c-.02-.133-.038-.247 0-.38.095-.342.361-.475.78-.418 2.054.304 3.994.19 5.782-.361a.6.6 0 0 0 .418-.456c.19-.95.533-1.862.99-2.736.646-1.235 1.007-2.128 1.102-2.66.039-.209.039-.418.039-.627-.153-1.995-1.674-3.857-3.044-5.586-.076-.114-.19-.152-.323-.114-.133.019-.894.19-2.245.494-1.312.285-2.796.266-4.45-.095a.795.795 0 0 1-.628-.78v-.151s.019-.057.038-.095c0-.038-.038-.057-.038-.095v-.152c0-.475.228-.684.704-.627 2.415.304 4.298.19 5.668-.304.038 0 .057-.038.076-.076-.438-1.216-.647-2.394-.647-3.572-.076-1.881.4-3.705 1.408-5.491l-.038-.02c-2.435-.417-5.04-1.272-6.772-3.153-.209-.228-.266-.437-.19-.665q-.114-.342.228-.684v-.02c.305-.36.647-.36 1.027-.056 1.902 1.558 4.128 2.45 6.715 2.698 1.18.114 2.377-.741 3.405-.912 2.016-.323 3.994-.095 5.934.703.114.057.247 0 .304-.114a6.2 6.2 0 0 1-.095-1.596c0-.646.057-1.35.229-2.11a.59.59 0 0 1 .57-.455h.247c.457 0 .666.228.647.684v.342c-.019.532-.057 1.045-.076 1.539 0 1.387.228 2.603 1.56 3.4 2.358 1.445 3.804 3.459 7.019 2.09a66 66 0 0 0 2.586-1.158.34.34 0 0 0 .133-.152c-.418-.836-.722-2.014-.894-3.515 0-.076.02-.114.02-.171s0-.095-.02-.152c-.076-.59.115-.931.552-1.064l.152-.057a.63.63 0 0 1 .761.38c.095.266.247.969.419 2.109.228 1.5 1.635 3.534 3.195 4.142 1.465.57 3.158.893 5.079.988 1.483.076 2.89-.418 4.241-1.463.02 0 .02-.038.038-.057-.627-1.52-.932-2.87-.894-4.047v-.342c0-.114.057-.228.134-.323.019-.02.019-.038.038-.057-.02 0-.038-.038-.058-.038a62 62 0 0 1-16.51-7.923c-.361-.247-.989-.38-1.483-.266a87 87 0 0 1-2.891.608 1.42 1.42 0 0 1-1.16-.304c-.647-.513-1.294-1.311-2.188-1.805-2.13-1.178-4.299-1.501-6.524-.95-2.036.494-3.025.513-4.965-.247a29.3 29.3 0 0 0-5.154-1.501c-2.74-.532-6.201-.095-6.372 3.439-.038 2.109.418 4.142.78 6.213.095.532.133 1.007.133 1.463.019.418 0 .798-.038 1.159-.057.437-.343 1.026-.837 1.805-.875 1.349-1.275 2.793-1.256 4.294.02.494.095 1.007.229 1.52.437 1.862.913 3.876.932 5.909.038 1.159-.038 2.337-.343 3.496-.342 1.311-.532 2.109-.551 2.451-.02 1.482.323 2.736 1.122 4.085.913 1.539 1.522 2.432 1.54 4.009.038.475 0 .988-.095 1.615-.114.684-.342 1.767-.703 3.249a6.8 6.8 0 0 0-.19 1.805c.133 1.957 1.065 3.553 1.597 5.225q.4 1.282.4 2.622a8.8 8.8 0 0 1-.248 2.527c-.266 1.14-.4 1.729-.4 1.729a9.4 9.4 0 0 0-.113 1.444c0 1.52.361 3.002 1.046 4.446.799 1.691 1.445 2.85 1.464 4.864v.893c-.018.532-.133 1.862-.304 4.009-.038.798.095 1.672.457 2.622 1.293 3.534 3.766 5.719 7.437 6.574 2.263.513 3.975 1.007 5.155 1.482 1.635.665 3.005 1.786 4.089 3.401.057.076.114.095.19.019l.038-.038c-.932-1.007-1.37-2.109-1.331-3.306-.038-.741.114-1.501.456-2.318a11.8 11.8 0 0 1 2.511-3.743c.095-.095.095-.209.133-.323-.038-.114-.038-.228-.133-.323l-.038-.038z"/><path fill="#323E48" d="M92.403 118.523c-.894.095-1.522.209-1.845.304-3.025.95-5.44 1.691-7.266 2.204-3.747 1.064-7.437 1.102-11.07.133-1.674-.437-3.348-1.634-4.546-2.66-3.938-3.344-7.152-6.289-12.003-6.745-2.91-.266-5.763-.475-8.54.684-1.065.437-1.465 1.292-2.682 1.615-1.788.456-3.367 1.406-4.774 2.831a.6.6 0 0 1-.837 0l-.038-.038c-1.503-1.767-3.329-3.059-5.478-3.857a.67.67 0 0 1-.418-.817.7.7 0 0 1 0-.399c.019-.057.057-.114.076-.171 1.046-1.463 1.635-3.021 1.75-4.655.038-1.52-.324-3.078-1.16-4.617-.876-1.596-1.656-2.87-2.36-3.82-.722-.968-1.882-1.728-2.72-2.412-.285-.228-.36-.475-.285-.741-.057-.21 0-.418.172-.646l.076-.095a.685.685 0 0 1 .932-.133l1.616 1.083c.153.095.229.057.229-.152-.038-1.444.342-2.584 1.16-3.44a.71.71 0 0 1 .97-.037c.266.228.361.494.285.779.038.19 0 .38-.114.608-.551.969-.799 1.995-.818 3.249.02.627.267 1.33.761 2.07 1.579 2.414 2.758 4.751 2.872 7.297.114 1.463-.114 2.983-.818 4.617-.228.532-.361.836-.418 1.007.019.038.057.057.095.095 1.37.703 2.644 1.615 3.861 2.736a.39.39 0 0 0 .552 0 14 14 0 0 1 1.883-1.33c.685-.418 1.617-.646 2.206-.855q.685-.228 1.541-.855a8.2 8.2 0 0 1 2.948-1.368c.818-.19 1.123-.551 1.313-1.311a15.5 15.5 0 0 0 .4-3.724c-.058-2.28-.629-4.598-2.017-6.194-.152-.171-.152-.4-.095-.608-.057-.228-.038-.456.133-.608a.4.4 0 0 1 .114-.076l.114-.057c.533-.285.97-.133 1.313.399l1.37 2.185s.075 0 .17-.076c.742-.855 1.142-1.501 2.245-2.147.4-.228.742-.152 1.008.247v.019c.133.209.171.418.114.589.076.285-.019.532-.304.74-.704.533-2.682 2.338-2.758 3.44q.2 1.453.17 2.793c0 .988-.075 1.957-.265 2.869-.096.513-.172.836-.19 1.064.038.057.075.076.17.076 2.91-.057 5.536-.038 8.046.931.666.266 1.18.399 1.522.437a.31.31 0 0 0 .304-.228c0-.608-.133-1.159-.399-1.634-.913-1.634-1.56-2.869-1.96-3.724a10.35 10.35 0 0 1-.97-4.788c0-2.66 1.028-5.263 2.569-7.638v-.038q0-.058-.057-.115l-1.35-1.462a.974.974 0 0 0-1.313-.133c-1.37.987-2.949 1.463-4.718 1.424-2.53-.038-5.972-.684-7.76-2.584a.67.67 0 0 0-.818-.133c-1.598.912-3.31 1.767-5.155 1.805-.019 0-.038 0-.057.02 2.987 3.458 4.717 7.543 5.155 12.274v.323c.038.494-.21.912-.59.95h-.076c-.456.057-.856-.247-.894-.665-.837-6.726-3.937-11.913-9.32-15.523-4.45-3.002-11.945-4.409-12.82 3.096-.038.286-.038.57-.038.856a7.6 7.6 0 0 0 .685 2.926c1.35 3.02 4.47 5.206 4.336 8.436.02.798-.152 1.634-.59 2.584-.437.912-1.217 2.109-1.464 3.135a5 5 0 0 0-.133.912c-.019 2.147 1.084 4.351 2.34 6.118 1.084 1.52 1.959 2.679 2.624 3.439 1.77 2.033 3.69 2.147 6.277 2.261 1.617.076 3.595 1.14 5.383 1.349q3.31.399 6.62-.798c1.864-.665 4.108-2.109 6.048-2.546 4.451-.988 9.663-.646 12.858 2.793q1 1.083 1.712 3.591c.038.133.114.152.228.095 2.093-1.007 3.71-1.52 4.87-1.539 3.214-.095 5.706 1.216 7.437 3.933.057.095.21.133.304.057.02 0 .038-.038.057-.057 1.731-2.565 4.698-3.116 7.533-3.686 1.464-.304 3.347-.779 4.355-1.748 0 0 .267-.266.761-.779.4-.418.761-.399 1.103.038l.077.095c.152.19.152.399.076.627.057.228 0 .494-.21.76l-.418.494 1.445 1.159c.19.152.229.38.172.608a.6.6 0 0 1-.02.475c-.075.114-.113.19-.113.19-.343.304-.704.342-1.066.133a19 19 0 0 0-1.616-.836c-.362-.171-.951-.152-1.731.057-3.025.779-4.775 1.216-5.193 1.311-2.244.475-3.747 1.767-4.546 3.895-.095.266-.21.418-.342.437-.267.038-.533-.076-.723-.323-.323-.418-.628-.855-.951-1.311-2.34-3.382-5.573-4.37-9.549-2.622-.608.266-1.426.665-2.453 1.178a.73.73 0 0 1-.97-.323.6.6 0 0 1-.076-.323c.037-5.016-4.261-6.783-8.54-6.878q-2.284-.057-3.881.342-.97.228-3.424 1.425c-4.07 1.957-7.95 2.926-12.364 1.558-1.902-.589-2.948-.893-3.176-.912-1.198-.095-2.416.19-3.614.855-1.122.627-2.72 1.691-2.834 3.04-.02.323-.038.646-.038.988 0 1.121.095 2.394.304 3.838.419 2.983 1.75 4.047 4.242 5.738 2.986 2.033 6.296 3.553 9.948 3.572.723 0 1.788-.247 3.233-.76 1.902-.665 4.204-1.216 6.886-1.634.437-.076.723.171.818.741v.038c0 .057-.038.095-.038.133 0 .057.038.095.057.171v.038c-.057.418-.4.76-.875.855-2.245.437-4.166.912-5.782 1.425-1.96.646-3.31.969-4.052.988-3.9.114-8.046-1.71-11.165-3.99a.42.42 0 0 0-.57.076c0 .019-.039.038-.039.076-.4.874-.59 1.653-.627 2.375.038 2.166 1.56 3.8 3.48 5.586a30 30 0 0 0 2.777 2.28c4.49 3.211 9.777 2.185 14.475-.095a64 64 0 0 0 8.293-4.864c1.35-.931 2.093-2.242 2.207-3.952.019-.266.019-.513.019-.741 0-.798-.133-1.406-.362-1.805-1.597-2.812-3.899-4.826-6.885-6.099-.476-.19-1.198-.19-1.693-.057-4.185 1.159-8.502 1.273-12.934.361a.6.6 0 0 0-.362.057c-1.122.684-1.693 1.634-3.347 1.52-.152 0-.248-.095-.286-.228-.057-.171-.038-.361-.019-.551a1.7 1.7 0 0 1 .076-.684.45.45 0 0 1 .229-.266l1.312-.665-1.236-.988c-.21-.171-.267-.418-.21-.665a.73.73 0 0 1 0-.494c.058-.114.096-.19.096-.209.304-.38.627-.437.989-.171 1.293.912 2.815 1.482 4.565 1.691 3.176.38 5.896.361 8.179 0 .608-.095 1.388-.513 2.34-1.235 1.825-1.406 3.005-2.888 3.556-4.465.152-.456.476-.57.913-.342l.114.057c.305.152.438.551.324.912 0 .114.038.209 0 .323-.57 1.767-1.503 3.116-2.796 4.085.019 0 .038.038.057.038 3.138.741 6.258 3.572 7.931 6.118.894 1.33 1.028 2.451 1.028 4.009 0 .38.266.722.627.836 2.016.589 3.728.152 5.117-1.273.551-.551.704-1.007 1.16-1.9a.63.63 0 0 1 .837-.285c.057.038.114.076.171.133 1.96 2.014 3.861 4.028 6.943 2.546 2.225-1.064 4.07-2.109 6.695-2.565 2.815-.475 3.9-2.489 5.65-4.921.418-.608 1.16-1.235 2.073-1.463 1.37-.304 2.51-1.064 3.442-2.28a48 48 0 0 0 3.196-4.712c.532-.874.875-1.9.875-2.85a3 3 0 0 0-.247-.912c-1.484-3.021-4.014-4.085-7.228-3.705z"/><path fill="#323E48" d="M107.125 93.214c-7.456-4.617-17.442-5.206-25.488-2.489-.913.304-1.845.741-2.815 1.311l3.633 3.933a.4.4 0 0 0 .476.095c3.709-1.653 8.978-1.425 12.858-.722a1.13 1.13 0 0 0 .913-.247c.628-.513 1.484-.893 2.53-1.12a.59.59 0 0 1 .551.19c.19.208.248.531.19.797.058.38-.076.78-.513.912-.323.114-.514.171-.552.171-.133.02-.209.057-.285.076.076.038.133.095.247.133l.647.266c.285.114.419.323.419.627v.874c0 .247-.21.456-.457.456-.057 0-.133 0-.19-.038-4.07-1.767-8.712-1.976-13.068-1.444-.837.114-1.654.304-2.415.627a.37.37 0 0 0-.171.171s0 .02.019.038c1.635 2.318 2.453 4.769 2.51 7.334.076 1.444-.114 2.907-.551 4.427.019.038.057.057.095.076h.114c2.016-.627 4.127-.741 6.315-.323 1.902.361 3.69.855 5.364 1.501.266.095.57.095.818 0l1.255-.513a.6.6 0 0 1 .799.323c.019.057.038.114.038.171 0 .076 0 .171-.019.247 0 .019 0 .057.019.076.038.456-.247.893-.856 1.292-.038.019-.038.057-.057.076.019.019 0 .038.038.057.533.437.837.95.875 1.54 0 .076 0 .152-.038.228 0 .038.019.056.038.095a.68.68 0 0 1-.628.722.67.67 0 0 1-.38-.095 1.3 1.3 0 0 1-.38-.342c-.932-1.198-1.465-1.787-2.892-2.319-2.644-.988-5.173-1.444-7.627-1.387q-2.71.085-4.45 2.28c-.324.399-.705.513-1.142.247-.228-.133-.305-.399-.248-.646a.58.58 0 0 1 0-.437c1.142-2.736 1.96-5.206 1.846-7.733-.115-1.577-.61-3.173-1.636-4.845-1.77-2.926-3.918-5.396-6.41-7.39q-1.484-1.198-2.568-1.483c-2.168-.57-4.641-.722-7.418-.437-3.538.361-5.592 4.446-6.543 7.43a9.4 9.4 0 0 0-.438 3.495c.114 1.235.495 2.413 1.141 3.572.514.912 1.084 1.957 1.731 3.135.343.627.514 1.254.495 1.9.057.57-.057 1.14-.343 1.691 0 0 0 .038.02.038l6.543 5.226s.209.057.285-.038v-.019c1.065-1.729 1.978-3.097 2.739-4.143.647-.874 1.065-1.786 1.236-2.755.114-.627.21-1.596.21-2.622-.038-1.843-.438-3.8-1.712-4.37-1.655-.741-3.31-1.33-4.28-2.964-.304-.532-.57-.893-.476-1.33-.038-.228 0-.456.19-.74.19-.286.571-.343.857-.153a.44.44 0 0 1 .133.133c1.179 1.482 1.674 2.337 3.519 2.888.095.038.209-.019.247-.133.361-1.558 1.16-2.83 2.416-3.819.418-.323.78-.304 1.084.095l.019.02c.17.227.228.436.17.645.077.266 0 .513-.265.76-1.008.912-1.636 1.995-1.903 3.192 0 .057 0 .133.058.19.875 1.026 1.388 2.318 1.502 3.895.057.817.095 1.577.095 2.318 0 2.166-.342 4.066-1.712 5.985a101 101 0 0 0-2.872 4.219v.019c3.843 1.976 9.111 1.71 13.03.456 4.413-1.406 10.575-3.895 14.17-1.311.628.456 1.16.855 1.598 1.235a.55.55 0 0 0 .514.095c2.586-.969 5.306-2.603 5.344-5.701-.095-2.337-1.331-4.427-2.377-6.859a.81.81 0 0 0-.818-.494c-4.413.342-11.09 1.159-13.01-4.123-.038-.114 0-.228 0-.323a.736.736 0 0 1 .323-.893l.133-.076c.438-.247.76-.152.99.304.684 1.425 1.559 2.318 2.605 2.698 2.948 1.026 5.706.589 9.625.532 1.103 0 1.959-.19 2.548-.494 1.998-1.064 3.063-3.572 3.348-5.7.057-.418.095-.836.095-1.254-.019-1.33-.399-2.527-1.655-3.306zm-77.89-25.478a.64.64 0 0 0-.723-.133c-4.108 1.634-8.293-.133-11.736-2.584-.17-.114-.38-.095-.513.057a11.25 11.25 0 0 0-2.435 4.73s0 .039.02.039h.018c2.796.095 5.516 1.045 8.141 2.033 1.864.703 3.69-.19 5.212-.247 3.233-.133 5.896.836 7.989 2.945.304.304.646.38 1.046.228l.837-.304s.038-.038.057-.038c-3.025-2.3-5.65-4.56-7.913-6.745z"/><path fill="#323E48" d="M56.035 177.784c4.375.114 16.834.912 18.146-2.964 0-.057 0-.114.019-.171 0-.057-.02-.133-.02-.152-.284-1.406-.836-2.888-1.388-4.313-.304-.589-.57-1.159-.741-1.691-.115-.323-.476-.627-1.123-.912-3.614-1.691-6.372-.456-9.358 1.767-.38.285-.723.209-1.008-.19 0 0 0-.019-.019-.019-.152-.133-.21-.361-.152-.589-.076-.228 0-.532.228-.779l.095-.095c3.405-2.869 7.627-3.876 11.527-1.558a.25.25 0 0 0 .342-.076v-.038c.514-1.159.932-2.736.913-4.161-.038-.494-.114-.969-.285-1.387-1.141-2.869-4.413-4.066-7.342-3.629-1.084.152-2.32.57-3.728 1.235-.4.19-.723.095-.913-.323l-.076-.152a.56.56 0 0 1 0-.494.615.615 0 0 1 .247-.665c3.424-2.166 8.046-2.356 11.28.285.227.19.589.665.95.893.133.076.248.057.343-.038 1.236-1.159 3.138-2.755 5.002-2.831 1.35-.038 2.853.722 4.052.893 3.823.513 5.915-1.178 8.863-3.42.324-.247 1.008-.361 1.503-.399 3.329-.152 6.372-1.254 9.092-3.287 1.902-1.425 2.378-2.717 3.443-4.902.304-.608.97-1.273 2.035-1.995 1.046-.703 2.986-1.653 3.88-2.603 1.389-1.482 2.112-3.249 2.188-5.301a52 52 0 0 0-.229-5.814v-.323c-.038-.399.172-1.102.609-2.109.761-1.729 1.217-3.382 1.275-5.111 0-.969-.115-1.957-.381-2.983-.361-1.387-.551-2.204-.59-2.432 0-.076 0-.133.019-.209 0-.038-.019-.095-.019-.114a.73.73 0 0 1 .058-.399c.304-.722.951-1.767 1.141-2.774.114-.552.171-1.103.209-1.654a12.9 12.9 0 0 0-.666-4.617c-.057-.19-.076-.456-.076-.722-.057-.513.057-1.159.4-1.596 1.141-1.425 1.673-2.603 1.731-4.047 0-.836-.153-1.767-.438-2.869-.038-.17-.038-.418-.038-.703 0-.266 0-.589.076-1.026a.6.6 0 0 1 .19-.342c.457-.437 1.237-.969 1.617-1.577.761-1.197 1.008-2.47 1.008-3.8-.057-1.387-.361-2.793-.704-4.18-.038-.152-.038-.36-.038-.627-.019-.475.057-1.235.305-2.299.323-1.482.589-2.717.608-4.028 0-.798-.133-1.634-.399-2.565-1.046-3.648-5.725-4.75-9.054-4.313-1.35.19-1.978.475-3.043 1.501-5.383 5.206-11.584 9.101-18.622 11.666a.365.365 0 0 0-.247.342v3.173s.038.076.076.076c2.663-.17 5.25-.095 7.741.247.267.038.476-.057.647-.266 1.389-1.729 2.264-3.857 2.644-6.403.076-.475.362-.703.894-.646h.038c.495.114.723.418.666.912 0 .057-.019.114-.038.171 0 .057.038.095.038.152a14.04 14.04 0 0 1-2.454 6.46s0 .038.038.057c.02 0 .057.038.095.038 1.199.228 2.473.59 3.862 1.083.19.076.399.114.646.114.343 0 .571 0 .666-.038 2.397-.969 4.546-2.64 6.429-5.035.4-.494.799-.494 1.179 0l.134.171c.114.152.114.361.057.532.057.19.057.38-.076.551-1.674 2.128-3.633 3.8-5.916 5.054l-.019.038c.019 0 0 .038.057.038 2.111.836 3.443 2.09 3.994 3.743.058.152.229.247.381.19a.14.14 0 0 0 .076-.038c.628-.418 2.282-1.425 2.701-.228.038.095 0 .19-.019.304 0 0 0 .02.019.038a.53.53 0 0 1-.019.38c-.4.78-1.883 1.178-2.435 1.35a.54.54 0 0 0-.361.455c-.228 3.211-1.122 6.004-3.69 8.132 1.255.171 2.511.114 3.747-.171a.64.64 0 0 1 .78.494v.608q-.057.627-.913.855c-1.484.399-3.253.323-5.288-.209-.133-.038-.19 0-.247 0 1.16 2.299 2.263 5.092 2.168 7.411 0 .228.171.399.38.418l3.272.152c.418 0 .59.228.533.646v.133s-.038 0-.038.019c0 .057.038.095.038.171v.133q-.114.542-.628.684c-.894.228-2.092.209-3.576-.076a.5.5 0 0 0-.533.228c-1.255 2.014-3.062 3.401-5.382 4.142-.115.038-.191.133-.248.247.419.817.609 1.691.628 2.584.057.798-.057 1.615-.342 2.47.019.019.038.057.076.057 2.91 1.026 5.345 1.881 8.407 1.444.532-.076.78.152.761.703v.133c0 .057.019.114 0 .19v.114c-.019.399-.324.665-.894.798-2.625.608-6.524-.532-9.035-1.615-.152-.057-.343 0-.419.133-1.636 2.812-3.557 5.719-6.486 7.049 1.617 2.299 3.671 4.009 6.144 5.111a.74.74 0 0 1 .418.836c0 .019-.019.019-.038.057 0 .095.057.19.038.285q-.142.627-.913.513c-2.624-.342-5.649-3.686-7.151-5.757-.115-.152-.305-.171-.457-.076-.019.019-.057.038-.076.076-.97 1.311-1.522 2.071-1.674 2.28a9.05 9.05 0 0 1-3.233 2.755c.874.684 4.241 3.629 4.013 5.149.057.38-.057.722-.4.95a.67.67 0 0 1-.912-.19s-.02-.038-.038-.057q-1.399-2.708-4.508-4.845c-.229-.152-.4-.266-.495-.304-.152-.076-.342-.076-.552 0-2.415.703-4.736 2.033-6.162 2.66-.133.057-.19.152-.21.285a13 13 0 0 0-.057 1.197 8.2 8.2 0 0 0 1.104 3.838c.095.19.133.38.076.57.057.304-.057.627-.343.779-.057.038-.133.057-.209.076-.285.057-.57-.057-.894-.38-1.236-1.235-1.407-4.085-1.389-5.833 0-.152-.076-.228-.228-.247-1.92-.152-3.005-1.216-4.45-2.432-.096-.076-.248-.076-.324.019-1.94 2.565-4.45 3.382-7.551 2.432-.095-.019-.171 0-.229.095-.875 1.615-1.864 2.774-2.929 3.496-1.046.703-1.578 1.083-1.617 1.102-.114.076-.17.19-.209.323-.114.665-.19 1.805-.361 2.546a704 704 0 0 1-1.864 7.353c-.19.722-.343 1.482-.38 2.242 0 .741.075 1.482.36 2.242.457 1.178.762 2.299.686 3.477a5.4 5.4 0 0 1-.172 1.425c-.17.665-.4 1.444-.684 2.356-.305.95-.362 1.919-.324 2.888.076 1.083.305 2.166.59 3.211a.6.6 0 0 1 0 .323v.171zM86.754 84.38c-3.937 1.272-8.103 2.013-12.516 2.222-.19 0-.342.133-.418.304l-.666 1.9s.057.076.095.095h.02a9.25 9.25 0 0 1 3.423 1.54c.267.19.628.208.913.056 2.682-1.5 5.573-2.45 8.636-2.869.437-.057.684-.323.76-.798l.267-2.128c0-.304-.171-.437-.533-.323z"/><path fill="#323E48" d="M65.241 4.16c-.323.286-.59.628-.837.97-2.472 8.246-1.56 16.074 2.777 23.503 1.731 2.964 3.995 5.472 6.81 7.543.932.684 1.502 1.235 1.693 1.653.19.399.247.836.209 1.311 0 .494-.095 1.045-.362 1.615-1.769 3.876-5.649 7.22-9.187 9.69-6.714 4.693-14.494 7.885-22.615 8.246-.704.038-1.18-.228-1.655-.779-3.405-4.028-7.476-5.909-12.84-4.35-1.502.436-3.366-1.407-4.203-1.939-4.527-2.793-8.92-2.736-13.182.152-5.401 3.648-8.654 10.963-9.681 17.347a39 39 0 0 0-.495 4.845v.038c-.076 1.92.02 3.724.171 5.643.552 5.244 2.15 10.336 4.813 15.257q.37.684.856 1.311c.057.076.076.076.114.095-.57-2.166-1.103-4.199-1.084-6.175-.057-2.033.418-3.99 1.978-5.947q.171-.228.228-.57c0-.19 0-.36-.038-.589-.361-2.014-.99-4.484-1.008-6.726-.095-2.812.704-5.3 4.013-6.156a.34.34 0 0 0 .248-.228c.78-2.622 1.654-4.959 3.69-6.726.513-.456 1.046-.494 1.56-.133 2.548 1.748 5.287 3.173 8.216 3.268 1.085.038 1.96-.456 3.177-.912.4-.152.837-.057 1.141.228 2.15 2.071 4.318 3.99 6.505 5.72C49.663 82.022 66.82 87.627 83.843 83.2c12.783-3.325 22.807-10.659 30.073-22.02 3.537-5.51 6.257-12.085 6.467-18.64.076-3.857-.723-7.695-2.758-11.305-3.481-6.213-9.758-10.336-16.891-10.792-4.641-.304-8.788.912-12.44 3.61-1.54 1.14-2.548 1.881-2.986 2.223-1.921 1.444-3.538.513-5.078-1.026-3.462-3.458-5.06-7.81-5.155-12.312-.114-3.344.609-6.783 2.035-10.032-2.454-.171-8.502-1.767-11.888 1.254zM13.485 58.046c-1.636 1.824-2.89 3.553-3.785 5.187-.894 1.634-1.674 3.63-2.32 5.985-.077.285-.267.456-.59.551a.675.675 0 0 1-.837-.513c0-.057-.02-.114 0-.17 0-.514.114-1.103.342-1.749.571-1.748 1.256-3.363 2.074-4.845a29 29 0 0 1 2.948-4.35c.437-.533.875-.95 1.293-1.236.324-.209.761-.133.97.19a.6.6 0 0 1 .076.152c.095.304.057.57-.133.798zm16.11.817a.44.44 0 0 1-.322.19c-2.13.057-3.671-1.12-5.44-2.47-1.446-1.102-3.1-1.577-4.927-1.425-.57.038-1.712.456-3.443 1.235-.399.19-.703.038-.894-.418 0 0 0-.057-.038-.133-.114-.399 0-.703.362-.912 3.652-2.223 7.076-1.767 10.347.608.799.57 1.408.988 1.807 1.254.609.38 1.37.532 1.902.703.723.228 1.065.703.647 1.368m11.261 2.945-.019.02a.64.64 0 0 1-.913.132c-.019 0-.038-.038-.057-.038-.742-.665-1.312-1.14-1.693-1.463-1.788-1.482-3.842-2.052-6.181-1.69a.65.65 0 0 1-.685-.38c-.114-.267-.114-.533.038-.837a.52.52 0 0 1 .285-.247c3.329-1.12 6.924.874 9.15 3.363.285.323.323.798.075 1.14m52.365 11.514c-3.614 2.261-7.4 3.99-11.375 5.168a46 46 0 0 1-12.344 1.9c-.628 0-1.218-.209-1.065-.95a.79.79 0 0 1 .741-.627c4.413-.152 8.484-.798 12.212-1.9 3.728-1.12 7.475-2.812 11.26-5.092a.78.78 0 0 1 .951.114c.533.532.152 1.045-.38 1.387m8.502-45.163.114-.114.114-.076c.267-.171.571-.209.932-.133 3.767.893 6.772 2.299 8.997 4.218 2.245 1.9 3.481 4.123 3.709 6.631.019.247-.133.418-.475.513l-.133.038c-.305.095-.685.019-.837-.171a.17.17 0 0 1-.057-.133q-.314-1.425-.571-2.223c-.494-1.482-1.465-2.85-2.929-4.085q-2.198-1.881-5.364-2.964c-.742-.266-1.807-.589-3.215-1.007-.304-.095-.437-.323-.304-.513zm11.337 15.257c.076-.532.38-.76.913-.703h.019c.513.076.741.342.665.855a30.8 30.8 0 0 1-1.902 7.106c-2.834 7.05-7.361 13.338-13.6 18.867-.361.323-.722.323-1.065 0l-.076-.076c-.437-.38-.418-.76 0-1.14 7.171-6.042 13.638-15.466 15.046-24.928zm-35.152-11.8v-.019c.171-.437.456-.551.818-.361 1.636.855 2.663 1.406 4.26.95q1.912-.541 3.538-1.995a434 434 0 0 1 1.903-1.691c2.567-1.786 5.592-2.413 9.11-1.862.362.057.61.285.723.665.057.19.076.323.057.361q-.228.656-.799.57c-3.5-.532-6.352.095-8.52 1.881-3.5 2.888-6.525 5.51-10.805 2.584-.418-.285-.532-.646-.342-1.064zm-4.907-9.082a28 28 0 0 0 2.472 3.686c.267.342.419.57.438.703q.057.57-.457.798a.85.85 0 0 1-.989-.209c-.932-1.083-1.883-2.47-2.834-4.2-.95-1.728-1.655-3.267-2.073-4.616a.85.85 0 0 1 .342-.95c.324-.21.628-.21.913.038.095.076.229.323.362.722a26 26 0 0 0 1.826 4.047z"/><path fill="#323E48" d="M58.261 84.893s-.133 0-.171.076c.133 2.432 1.217 4.503 3.271 6.194a.265.265 0 0 0 .362-.02c2.32-2.583 5.934-2.85 9.13-2.431.323.038.552-.095.666-.4l.513-1.462v-.076c-.057-.095-.19-.133-.38-.133-4.565 0-9.035-.57-13.41-1.748z"/><path fill="#fff" d="M117.073 95.95c.286 1.121.419 2.034.438 2.87.038-.912-.114-1.938-.438-3.211-.019-.096-.019-.247-.038-.38 0 .284 0 .531.038.703zm-15.597 27.322c0 .741-.114 1.501-.381 2.299-.019.057 0 .114.038.171.267-.855.4-1.672.343-2.47m8.94-16.662q.828-.228.913-.855v-.285c-.057.399-.342.665-.894.817-1.483.399-3.252.323-5.287-.209-.324-.095-.419.019-.267.323v.019c.057-.019.114-.038.248 0 2.035.532 3.804.608 5.287.209zm.057-9.937c0-.21.152-.38.361-.456.552-.171 2.036-.57 2.435-1.35a.44.44 0 0 0 .019-.38s0-.018-.019-.037v.076c-.399.779-1.883 1.178-2.435 1.349a.54.54 0 0 0-.361.456c-.228 3.268-1.141 6.08-3.804 8.227-.057.038-.076.133-.019.19a.4.4 0 0 0 .095.057h.038c2.568-2.147 3.462-4.921 3.69-8.132m8.768-12.351c.324 1.387.647 2.793.704 4.18 0-1.482-.342-3.02-.704-4.503 0-.076-.019-.19-.038-.285 0 .247 0 .475.038.627zM89 83.677c7.037-2.565 13.238-6.46 18.621-11.667 1.065-1.044 1.693-1.33 3.043-1.5 3.329-.457 8.008.645 9.054 4.313.266.93.38 1.767.399 2.565 0-.894-.095-1.825-.399-2.907-1.046-3.648-5.725-4.75-9.054-4.313-1.35.19-1.978.474-3.043 1.5-5.383 5.207-11.584 9.102-18.622 11.667a.365.365 0 0 0-.247.342V84c0-.152.095-.304.247-.342z"/><path fill="#fff" d="M101.438 81.282a14.05 14.05 0 0 1-2.454 6.327.23.23 0 0 0 .038.285 14.04 14.04 0 0 0 2.454-6.46c0-.057-.038-.095-.038-.152m10.596 4.104c.133-.152.133-.36.076-.55-.019.075-.019.151-.076.208-1.674 2.129-3.633 3.8-5.916 5.055-.247.132-.228.246-.019.36l.019-.038c2.283-1.254 4.242-2.925 5.916-5.054zm-10.937 35.075c2.339-.76 4.127-2.147 5.382-4.142.115-.19.305-.266.533-.228 1.503.285 2.682.323 3.576.076a.79.79 0 0 0 .609-.684v-.304a.75.75 0 0 1-.609.646c-.894.228-2.092.209-3.576-.076a.5.5 0 0 0-.533.228c-1.255 2.014-3.062 3.401-5.382 4.142-.21.076-.343.304-.267.513 0 0 0 .038.019.057a.36.36 0 0 1 .248-.247zm-26.135 57.475c-.19-.038-.304-.152-.323-.342-.228-1.634-.361-2.603-.418-2.983 0 .057 0 .114-.02.171-1.312 3.876-13.77 3.097-18.145 2.964v-.171c-.057.247-.21.437-.457.513h-.077c-.475.076-.798-.114-.97-.608a14.7 14.7 0 0 1-.722-3.743c.02 1.387.285 2.774.723 4.085.152.494.475.684.97.608h.076c.057 0 .114-.057.152-.076 1.56.456 4.49.95 7.875.418 0 0 9.739-1.52 11.146-.608 0 0 .095.076.228.114.305.057.495.076.552.038.4-.209.609-.665.57-1.178 0-.076 0-.133-.019-.209 0 .456-.19.874-.551 1.064-.057.038-.247.019-.552-.038zm-1.275-10.222c0-.114.038-.209.095-.304.989-1.9 1.426-3.838 1.293-5.814.057 1.862-.361 3.686-1.293 5.491a1.1 1.1 0 0 0-.096.646zm26.363-39.995a.313.313 0 0 1 .419-.133c2.51 1.083 6.41 2.223 9.035 1.615.57-.133.875-.399.894-.798v-.304c-.019.38-.324.646-.875.76-2.625.608-6.525-.532-9.035-1.615-.153-.057-.343 0-.419.133-1.655 2.831-3.576 5.757-6.524 7.068-.057.019-.095.095-.057.171v.019c.038.038.057.076.095.114 2.93-1.33 4.85-4.218 6.486-7.049z"/><path fill="#fff" d="M56.453 168.816a5.4 5.4 0 0 0 .171-1.425 6 6 0 0 1-.17 1.102c-.172.665-.4 1.444-.685 2.356-.324 1.045-.4 2.128-.324 3.211-.038-.969.02-1.938.324-2.888a44 44 0 0 0 .684-2.356m33.422-30.761c.152-.19.703-.95 1.673-2.28.02-.019.038-.057.076-.076.153-.114.343-.076.457.076 1.484 2.071 4.527 5.415 7.152 5.757.513.076.799-.114.913-.513a.5.5 0 0 0-.038-.285c-.114.361-.4.532-.875.475-2.625-.342-5.65-3.686-7.152-5.757-.114-.152-.304-.171-.457-.076-.019.019-.057.038-.076.076-.97 1.311-1.521 2.071-1.674 2.28a9.2 9.2 0 0 1-3.271 2.774c-.152.076-.152.152-.02.266l.058.057a9.05 9.05 0 0 0 3.233-2.755zm-32.089 14.003c.19-.741.247-1.881.36-2.546a.47.47 0 0 1 .21-.323c.038-.019.57-.399 1.617-1.102 1.065-.722 2.035-1.881 2.93-3.496.037-.076.132-.114.227-.095 3.1.95 5.63.133 7.552-2.432a.22.22 0 0 1 .323-.019c1.446 1.235 2.549 2.299 4.45 2.432.153 0 .23.095.23.247 0 1.767.17 4.617 1.388 5.833.323.323.608.437.894.38.076 0 .133-.038.209-.076a.74.74 0 0 0 .342-.779.64.64 0 0 1-.342.456.7.7 0 0 1-.21.076c-.285.057-.57-.057-.893-.38-1.237-1.235-1.408-4.085-1.389-5.833 0-.152-.076-.228-.228-.247-1.921-.152-3.005-1.216-4.451-2.432-.095-.076-.247-.076-.323.019-1.94 2.565-4.451 3.382-7.552 2.432-.095-.019-.17 0-.228.095-.875 1.615-1.864 2.774-2.93 3.496-1.045.703-1.578 1.083-1.616 1.102-.114.076-.171.19-.21.323-.113.665-.19 1.805-.36 2.546a704 704 0 0 1-1.865 7.353c-.209.836-.361 1.691-.38 2.584.038-.779.19-1.52.38-2.242a704 704 0 0 0 1.864-7.353zm19.82-7.885c1.426-.627 3.747-1.957 6.162-2.66.21-.057.4-.057.552 0 .114.038.266.152.494.304q3.11 2.137 4.508 4.845s.02.038.038.057c.19.304.59.399.913.19.343-.228.457-.551.4-.95a.82.82 0 0 1-.4.608.67.67 0 0 1-.913-.19s-.019-.038-.038-.057q-1.398-2.707-4.508-4.845c-.228-.152-.4-.266-.494-.304-.152-.076-.342-.076-.552 0-2.415.703-4.736 2.033-6.162 2.66-.134.057-.19.152-.21.285-.057.532-.076 1.026-.057 1.539 0-.399 0-.798.057-1.197 0-.133.095-.228.21-.285M7.189 106.705a9.5 9.5 0 0 1-.38-1.938 9 9 0 0 0 .38 2.261c.552 1.805 2.168 3.23 2.264 5.263.076-2.204-1.674-3.705-2.264-5.586m103.095 35.416c-2.054 1.026-3.348 2.489-3.88 4.37-.114.418-.457.95-1.008 1.596-2.264 2.641-6.163 4.446-9.435 5.035-.57.095-1.502.266-2.796.475q-.542.085-.856.342c-2.986 2.394-5.782 3.99-9.814 3.249-.4-.076-1.37-.323-2.873-.76-1.445-.399-3.747 1.52-4.717 2.451-.133.133-.19.304-.133.475v.057a.5.5 0 0 1 .133-.209c.97-.931 3.272-2.85 4.717-2.451 1.522.437 2.473.684 2.873.76 4.013.741 6.809-.855 9.814-3.249q.315-.256.856-.342a107 107 0 0 0 2.796-.475c3.272-.589 7.171-2.394 9.435-5.035.551-.665.894-1.197 1.008-1.596.513-1.881 1.807-3.325 3.88-4.37 3.386-1.691 5.174-4.541 5.383-8.493v-1.045.703c-.209 3.971-2.016 6.802-5.383 8.493zM73.914 38.114C68.57 34.39 64.917 29.355 62.92 23.01c-.837-2.698-1.331-5.396-1.445-8.056.095 2.774.57 5.567 1.445 8.398 1.978 6.346 5.65 11.381 10.994 15.105.21.133.324.361.362.59a.94.94 0 0 0-.362-.913zM65.318 2.413a41 41 0 0 0-.894 2.717c.247-.342.513-.684.837-.969 3.386-3.021 9.434-1.425 11.888-1.254.038-.076.076-.171.114-.247.171-.399.437-.513.78-.38-.609-.703-2.758-1.71-4.812-2.09-3.71-.684-6.696.703-7.951 1.387.171.171.209.437.057.836zM7.513 99.37C2.834 92.644.247 84.74 0 76.76c.171 8.094 2.758 16.131 7.494 22.933.038.057.038.133.038.19 0-.057.038-.114.038-.17a.5.5 0 0 0-.076-.362zm72.735-74.1c1.541 1.54 3.158 2.49 5.079 1.026.457-.342 1.446-1.083 2.986-2.223 3.652-2.698 7.799-3.914 12.44-3.61 7.133.456 13.41 4.58 16.89 10.792 2.036 3.61 2.835 7.448 2.759 11.305.114-3.952-.666-7.923-2.759-11.628-3.48-6.213-9.757-10.336-16.89-10.792-4.641-.304-8.788.912-12.44 3.61-1.54 1.14-2.549 1.881-2.986 2.223-1.921 1.444-3.519.513-5.079-1.026-3.385-3.382-5.002-7.6-5.154-11.989.076 4.522 1.693 8.854 5.154 12.312M8.711 83.03c.038.228.038.4.038.59.038-.267.038-.57-.038-.913-.342-1.9-.932-4.237-1.008-6.403 0 2.242.628 4.731 1.008 6.726m106.746 22.173c.514 1.52.723 3.059.666 4.617a12.9 12.9 0 0 0-.666-4.94 2 2 0 0 1-.076-.399c0 .285 0 .532.076.722M11.85 51.794c4.28-2.888 8.673-2.945 13.182-.152.836.513 2.7 2.356 4.203 1.938 5.364-1.558 9.435.323 12.84 4.351.456.551.95.817 1.654.78 8.122-.362 15.92-3.554 22.616-8.247 3.557-2.47 7.437-5.814 9.187-9.69.266-.589.38-1.12.361-1.615a4 4 0 0 1-.361 1.292c-1.769 3.876-5.65 7.22-9.187 9.69-6.715 4.693-14.494 7.885-22.616 8.246-.704.038-1.18-.228-1.655-.779-3.404-4.028-7.475-5.909-12.839-4.35-1.503.436-3.367-1.407-4.203-1.939-4.527-2.793-8.921-2.736-13.182.152-5.402 3.667-8.654 10.963-9.682 17.347-.285 1.748-.418 3.458-.494 5.168.057-1.5.21-3.078.494-4.845 1.047-6.384 4.3-13.699 9.682-17.347M7.627 96.33s.095 0 .038-.17c-.551-2.09-1.084-4.086-1.122-6.005 0 1.976.514 4.028 1.084 6.175M77.453 6.745a20.2 20.2 0 0 0-.742 5.187c.057-1.634.304-3.268.742-4.864a45 45 0 0 1 1.122-3.42.75.75 0 0 0 .019-.456c0 .038 0 .095-.019.133a34 34 0 0 0-1.122 3.42m36.596 126.997v-.019a55 55 0 0 0-.229-5.985v.19q.286 3.107.229 5.814M8.845 120.86a7.1 7.1 0 0 1-.4-2.033c0 .779.114 1.577.4 2.356.704 2.014 1.464 3.496 1.54 5.377 0-2.033-.798-3.591-1.54-5.719z"/><path fill="#fff" d="m61.172 157.606.076.152c.209.399.513.513.913.323 1.388-.665 2.625-1.083 3.728-1.235 2.948-.418 6.2.76 7.342 3.629.171.418.247.893.285 1.387 0-.627-.076-1.216-.285-1.71-1.141-2.869-4.413-4.066-7.342-3.629-1.084.152-2.32.57-3.728 1.235-.4.19-.723.095-.913-.304l-.076-.152v-.171a.73.73 0 0 0 0 .494zm54.151-40.204c.267 1.026.381 2.014.381 2.983a11.2 11.2 0 0 0-.381-3.306c-.323-1.235-.513-1.995-.57-2.299 0 .076-.038.133-.019.209.038.228.228 1.026.589 2.432zm-54.78 51.699.019.019c.285.399.628.475 1.008.19 2.986-2.223 5.725-3.458 9.358-1.767.628.285 1.008.608 1.123.912.17.513.456 1.083.742 1.691a53 53 0 0 1-.742-2.014c-.115-.323-.476-.627-1.123-.912-3.614-1.691-6.372-.456-9.358 1.767-.38.285-.723.209-1.008-.19 0 0 0-.019-.019-.019-.076-.057-.114-.152-.152-.247a.6.6 0 0 0 .152.589zm-29.786-7.03c-.628.019-1.389-.741-1.845-1.273-1.294-1.482-2.74-2.413-4.356-2.793-2.606-.627-4.49-1.14-5.65-1.577-3.461-1.292-5.458-4.009-6.695-7.448-.285-.798-.361-1.577-.38-2.375-.02.893.057 1.805.38 2.698 1.237 3.439 3.234 6.156 6.696 7.448 1.16.437 3.043.969 5.649 1.577 1.617.38 3.062 1.311 4.356 2.793.475.551 1.217 1.311 1.845 1.273 1.274-.057 1.56-.76 1.464-1.577-.038.665-.38 1.197-1.464 1.254m23.909 3.249c-.437-1.254-.685-2.432-.723-3.496 0 1.159.229 2.432.723 3.819.133.38.21.76.247 1.121a4.4 4.4 0 0 0-.247-1.463zm-43.044-26.467c-1.236-2.622-2.035-4.598-1.921-7.467v.038c-.19 3.059.646 5.054 1.94 7.771.38.817.532 1.634.59 2.451 0-.931-.134-1.862-.59-2.793zm44.566 11.343c-4.832 2.945-10.595 5.643-16.377 4.408-1.978-.418-3.804-1.615-5.535-2.926-.134-.095-.324-.076-.419.057l-.019.038a7 7 0 0 1-.894 1.178c-.837.912-1.35 1.995-1.693 3.211q-.142.57-.057 1.14c0-.266 0-.551.057-.817.343-1.197.837-2.28 1.693-3.211a7 7 0 0 0 .894-1.178s0-.019.02-.038c.094-.133.284-.152.418-.057 1.73 1.292 3.557 2.508 5.535 2.926 5.782 1.235 11.545-1.463 16.377-4.408.133-.076.228-.095.266-.057v-.076c.076-.304-.02-.361-.285-.209zM1.673 74.005q-.114 2.85.171 5.643c-.152-1.9-.247-3.724-.17-5.643m29.083 51.7c1.198-.665 2.397-.95 3.614-.855.228 0 1.274.323 3.176.912 4.413 1.387 8.294.399 12.364-1.558q2.454-1.169 3.424-1.425 1.597-.399 3.88-.342c4.28.095 8.578 1.862 8.54 6.878 0 .114.02.228.076.323.172.361.61.494.97.323a58 58 0 0 1 2.454-1.178c3.995-1.767 7.21-.76 9.549 2.622.323.456.627.893.95 1.311.191.247.457.38.724.323.133-.019.247-.171.342-.437.799-2.128 2.32-3.439 4.546-3.895q.655-.142 5.193-1.311c.799-.209 1.37-.228 1.73-.057a19 19 0 0 1 1.617.836c.38.209.742.171 1.066-.133 0 0 .038-.076.114-.19.095-.152.076-.323.019-.475 0 .038 0 .095-.02.133-.075.114-.113.19-.113.19-.343.304-.704.342-1.066.133a19 19 0 0 0-1.617-.836c-.36-.171-.95-.152-1.73.057-3.025.779-4.775 1.216-5.193 1.311-2.245.475-3.747 1.767-4.546 3.895-.095.266-.21.418-.342.437-.267.038-.533-.076-.723-.323-.324-.418-.628-.855-.951-1.311-2.34-3.382-5.573-4.37-9.549-2.622-.608.266-1.426.665-2.453 1.178a.73.73 0 0 1-.97-.323.6.6 0 0 1-.077-.323c.038-5.016-4.26-6.783-8.54-6.878q-2.283-.057-3.88.342-.97.228-3.424 1.425c-4.07 1.957-7.95 2.926-12.364 1.558-1.902-.589-2.948-.893-3.176-.912-1.198-.095-2.416.19-3.614.855-1.122.627-2.72 1.691-2.834 3.04-.038.418-.038.855-.038 1.33 0-.342 0-.684.038-.988.114-1.349 1.693-2.432 2.834-3.04m.115 15.257a.415.415 0 0 1 .57-.076c3.12 2.28 7.285 4.104 11.166 3.99.741-.019 2.092-.342 4.051-.988 1.598-.532 3.538-1.007 5.782-1.425.457-.095.818-.437.875-.855v-.038c0-.057-.038-.114-.057-.171a1.07 1.07 0 0 1-.837.703c-2.244.437-4.165.912-5.782 1.425-1.96.646-3.31.969-4.051.988-3.9.114-8.046-1.71-11.166-3.99a.42.42 0 0 0-.57.076c0 .019-.038.038-.038.076-.476 1.007-.647 1.881-.628 2.698.038-.722.228-1.501.628-2.375 0-.019.019-.038.038-.076zm-5.822-33.877c.457-.951.61-1.787.59-2.585a5.9 5.9 0 0 1-.59 2.243c-.437.912-1.216 2.109-1.464 3.135a5.6 5.6 0 0 0-.133 1.254 5 5 0 0 1 .133-.912c.248-1.026 1.027-2.223 1.465-3.135m69.083 17.289a1.2 1.2 0 0 1-.21.418l-.475.551c-.076.095-.076.19.02.266h.019l.418-.494c.228-.266.266-.513.21-.76zm-1.731-6.193c-.894.095-1.522.209-1.845.304-3.025.95-5.44 1.691-7.266 2.204-3.747 1.064-7.437 1.102-11.07.133-1.674-.437-3.348-1.634-4.546-2.66-3.938-3.344-7.152-6.289-12.003-6.745-2.91-.266-5.763-.475-8.54.684-1.065.437-1.465 1.292-2.682 1.615-1.788.456-3.367 1.406-4.774 2.831a.597.597 0 0 1-.837 0l-.038-.038c-1.503-1.767-3.329-3.059-5.478-3.857-.228-.076-.361-.285-.419-.494a.68.68 0 0 0 .419.817c2.15.798 3.975 2.09 5.478 3.857l.038.038a.597.597 0 0 0 .837 0c1.388-1.425 2.986-2.375 4.774-2.831 1.217-.323 1.617-1.159 2.682-1.615 2.777-1.14 5.63-.95 8.54-.684 4.85.456 8.046 3.401 12.003 6.745 1.217 1.026 2.872 2.223 4.546 2.66 3.633.969 7.323.931 11.07-.133 1.807-.513 4.241-1.254 7.266-2.204.323-.095.932-.209 1.845-.304 3.214-.38 5.744.703 7.228 3.705.133.285.209.589.247.912 0-.437-.057-.855-.247-1.235-1.484-3.021-4.014-4.085-7.228-3.705m-56.795 17.176q.057.2.285.228c1.636.114 2.206-.836 3.348-1.52a.4.4 0 0 1 .361-.057c4.451.912 8.75.798 12.934-.362.495-.133 1.237-.151 1.693.058 3.005 1.254 5.307 3.287 6.886 6.099.228.399.342 1.007.361 1.805 0-.969-.095-1.691-.361-2.147-1.598-2.812-3.9-4.826-6.886-6.099-.475-.19-1.198-.19-1.693-.057-4.184 1.159-8.502 1.273-12.934.361a.6.6 0 0 0-.361.057c-1.123.684-1.693 1.634-3.348 1.52-.152 0-.247-.095-.285-.228-.02-.076 0-.152-.02-.209-.018.19-.018.38.02.551m.36-3.154 1.237.988s.114-.152.076-.247c0-.019-.038-.057-.057-.057l-1.256-1.007a.65.65 0 0 1-.209-.342c-.038.247 0 .513.21.665"/><path fill="#fff" d="M56.853 127.586c.038-.114 0-.209 0-.323-.57 1.767-1.502 3.116-2.815 4.085-.095.076-.114.19-.038.285 0 0 .038.019.057.038 1.313-.969 2.245-2.318 2.796-4.085m-2.682-28.158c.286-.21.38-.475.305-.742-.038.152-.133.285-.305.418-.742.57-2.929 2.547-2.777 3.611v.152c.057-1.102 2.035-2.907 2.758-3.44zm-2.587 6.232c0 .874-.095 1.729-.266 2.546q-.2.969-.228 1.254c0 .057 0 .114.038.152.038-.228.095-.551.19-1.064.171-.912.266-1.881.266-2.869zM47.97 98.8c1.389 1.596 1.96 3.914 2.016 6.194 0-2.394-.551-4.864-2.016-6.517-.076-.076-.076-.17-.095-.266-.057.21-.057.418.095.608zm-3.575-8.815a.67.67 0 0 1 .818.133c1.807 1.9 5.23 2.546 7.76 2.584 1.77.019 3.348-.456 4.717-1.425a.974.974 0 0 1 1.313.132l1.35 1.463.057.115a.37.37 0 0 0-.057-.437l-1.35-1.463a.974.974 0 0 0-1.313-.133c-1.37.988-2.948 1.463-4.717 1.425-2.53-.038-5.972-.684-7.76-2.585a.67.67 0 0 0-.818-.132c-1.598.911-3.31 1.766-5.155 1.804-.095 0-.152.077-.152.172 0 .037 0 .075.038.094.019.02.038.058.076.096 0 0 .038-.02.057-.02 1.826-.038 3.557-.912 5.155-1.805zm14.399 15.447c.399.855 1.046 2.09 1.959 3.724.266.494.38 1.045.4 1.634 0 0 .018-.019.018-.038a3.57 3.57 0 0 0-.418-1.919c-.913-1.634-1.56-2.869-1.96-3.724a10 10 0 0 1-.97-4.465 10.35 10.35 0 0 0 .97 4.788M33.477 89.186c5.383 3.63 8.484 8.798 9.32 15.524a.794.794 0 0 0 .895.665h.076c.361-.038.627-.475.59-.95v-.095c-.039.38-.267.703-.571.722h-.076c-.457.057-.856-.247-.894-.665-.837-6.727-3.938-11.913-9.32-15.523-4.451-3.003-11.946-4.409-12.82 3.096-.039.4-.058.799-.039 1.178 0-.285 0-.57.038-.855.875-7.505 8.35-6.099 12.82-3.097zm81.998 39.065c.019-.513.096-1.045.286-1.406a13.55 13.55 0 0 0 1.502-6.023c-.076 1.9-.532 3.781-1.502 5.681-.228.437-.305 1.14-.286 1.729zm-40.247-20.045c-.02 2.033-.4 3.838-1.712 5.643a97 97 0 0 0-2.91 4.294c-.057.095-.02.19.057.266.818-1.254 1.769-2.66 2.872-4.218 1.37-1.919 1.712-3.8 1.712-5.985zm.532-10.356a.9.9 0 0 1-.266.438c-1.065.969-1.712 2.09-1.959 3.363 0 .057.038.114.038.171.267-1.216.894-2.28 1.902-3.192.267-.247.362-.494.267-.76zm-8.16 2.414c.97 1.634 2.625 2.242 4.28 2.964 1.274.57 1.673 2.527 1.711 4.37 0-1.938-.361-4.104-1.712-4.693-1.654-.741-3.31-1.33-4.28-2.964-.228-.38-.418-.684-.475-.988-.095.437.152.798.476 1.33zm34.542 5.585a.81.81 0 0 1 .818.494c1.046 2.432 2.282 4.522 2.377 6.859v-.152c-.038-2.413-1.331-4.541-2.396-7.03a.81.81 0 0 0-.818-.494c-4.413.342-11.09 1.159-13.01-4.123 0 .114-.038.228 0 .323 1.92 5.282 8.616 4.465 13.01 4.123zm-65.717.096c.057 1.349-.171 2.774-.818 4.294q-.428.969-.457 1.14c0 .076 0 .152.038.209a10 10 0 0 1 .419-1.007c.704-1.653.932-3.173.818-4.617zM122 41.686c0 6.574-2.339 13.376-6.029 19.323-1.674 2.698-3.424 5.13-5.269 7.315-.114.133-.076.19.095.19h.019c1.807-2.147 3.519-4.522 5.155-7.163 3.728-6.042 6.105-12.977 6.029-19.646zm-59.117 68.515c0 .475-.114.969-.38 1.444-.039.076-.02.171.037.247.305-.551.4-1.121.343-1.691m23.3-4.978a13.4 13.4 0 0 1-.59 4.256c-.019.057 0 .114.038.171.438-1.52.61-2.983.552-4.427m.058-8.17c4.356-.532 8.997-.343 13.067 1.444a.463.463 0 0 0 .647-.418v-.324c0 .248-.21.457-.456.457-.057 0-.133 0-.19-.038-4.071-1.768-8.712-1.977-13.068-1.445a8.7 8.7 0 0 0-2.416.627c-.19.077-.266.285-.209.476 0 0 0 .019.02.038a.37.37 0 0 1 .17-.172c.761-.303 1.58-.512 2.416-.626zm14.19 14.136s0-.057-.019-.076c-.057.361-.342.722-.837 1.045-.21.133-.21.266-.057.418.019-.019.019-.057.057-.076.628-.399.913-.836.856-1.292zm-17.519 2.469c.418.266.818.152 1.141-.247q1.74-2.194 4.451-2.28c2.454-.076 4.983.399 7.627 1.387 1.427.532 1.96 1.121 2.892 2.318.114.133.228.247.38.342a.9.9 0 0 0 .38.095c.381-.019.647-.342.628-.722a.14.14 0 0 0-.038-.095.67.67 0 0 1-.59.494.67.67 0 0 1-.38-.095 1.3 1.3 0 0 1-.38-.342c-.932-1.197-1.465-1.786-2.892-2.318-2.644-.988-5.173-1.444-7.627-1.387q-2.71.085-4.45 2.28c-.324.399-.705.513-1.142.247a.52.52 0 0 1-.247-.323c-.057.247.019.513.247.646"/><path fill="#fff" d="M66.479 90.688c2.777-.285 5.25-.133 7.418.437q1.085.285 2.568 1.482c2.51 1.995 4.64 4.465 6.41 7.39 1.027 1.692 1.521 3.288 1.635 4.846-.076-1.691-.532-3.382-1.635-5.187-1.77-2.926-3.919-5.396-6.41-7.391q-1.484-1.197-2.568-1.482c-2.169-.57-4.641-.722-7.418-.437-3.538.36-5.592 4.446-6.544 7.429a9.6 9.6 0 0 0-.437 3.819c-.076-1.14.057-2.3.438-3.496.931-2.983 3.005-7.068 6.543-7.43zm33.019 5.225c.419-.153.552-.551.514-.912-.057.246-.21.493-.514.588-.323.115-.513.171-.551.171-.514.096-.59.228-.285.418.076-.019.152-.056.285-.075.038 0 .228-.076.551-.171z"/><path fill="#fff" d="M107.125 92.892c-7.456-4.617-17.442-5.206-25.488-2.49q-1.398.486-2.91 1.369a.1.1 0 0 0-.038.133l.114.133c.97-.57 1.902-1.007 2.815-1.311 8.027-2.717 18.032-2.128 25.488 2.489 1.256.779 1.617 1.976 1.655 3.306.038-1.463-.304-2.793-1.655-3.63zm-93.924 5.415c0 .38.266.703.628.779 1.655.36 3.138.399 4.45.095 1.351-.304 2.093-.475 2.245-.494.133-.02.247 0 .324.114 1.37 1.748 2.89 3.591 3.043 5.586 0-2.128-1.598-4.085-3.043-5.928-.076-.114-.19-.152-.324-.114-.133.019-.894.19-2.244.494-1.313.285-2.796.266-4.451-.095a.79.79 0 0 1-.59-.684c0 .038-.038.057-.038.095zm2.111 14.706c1.845.722 4.374.361 6.334-.209a.215.215 0 0 1 .247.171c.742 3.439 2.948 6.118 4.87 8.721a.23.23 0 0 0 .037-.285c-1.92-2.622-4.165-5.301-4.907-8.759a.19.19 0 0 0-.247-.152c-1.96.57-4.47.931-6.334.209a.88.88 0 0 1-.533-.627.86.86 0 0 0 .533.969zm.97 12.407v.019c-.02.38.437.703 1.008.76 4.147.323 7.722-.703 10.728-3.116.076-.057.17-.057.228 0l1.389 1.102.228-.114v-.019l-1.617-1.292s-.171-.057-.228 0c-3.006 2.394-6.582 3.439-10.728 3.116-.552-.038-.99-.361-1.008-.703v.266zm3.366-28.615s.076-.114.038-.19a11.6 11.6 0 0 1-.704-3.382c0 1.178.229 2.356.647 3.572zM13.58 84.55c1.732 1.881 4.338 2.736 6.772 3.154.02 0 .02 0 .038.02a1 1 0 0 0 .057-.134c.076-.133.038-.209-.095-.228-2.434-.418-5.04-1.273-6.771-3.154a1.2 1.2 0 0 1-.19-.323c-.077.21 0 .437.19.665m19.021-2.222c-.019.55-.057 1.083-.057 1.577 0-.494.057-1.007.076-1.54v-.056zm-1.579 3.21c0-.038.02-.095 0-.133-.095-.456-.114-.95-.114-1.463-.019.57 0 1.102.095 1.596zm-3.956 50.826v.057a.65.65 0 0 0 0-.38c-.533-1.862-.799-3.819-.818-5.833-.019 2.147.247 4.199.818 6.175zm93.944-53.562a3.2 3.2 0 0 0-.076.95c0-.209.038-.418.076-.627.437-2.07.703-3.667.78-4.769.038-.456.038-.912.019-1.33 0 .323 0 .646-.019 1.007-.077 1.102-.343 2.698-.78 4.77m-77.168 5.282s.057-.19.02-.285c-.42-.817-.705-1.958-.876-3.402 0 .057-.038.095-.019.171.171 1.501.476 2.68.894 3.516zm73.211 16.453c.038-.266.171-.494.418-.836 1.294-1.729 1.75-3.382 1.712-5.11-.019 1.614-.494 3.153-1.712 4.768-.342.475-.475.741-.418 1.178m1.674-9.215v.038a.8.8 0 0 1 .19-.323c1.978-1.672 2.663-3.97 2.644-6.365-.057 2.261-.761 4.427-2.644 6.023a.61.61 0 0 0-.19.608zm-2.283 19.21a.44.44 0 0 0 0 .38v.038-.095c.076-.171.209-.494.438-.95.627-1.292.894-2.926.894-4.541-.038 1.501-.305 3.002-.894 4.218-.229.456-.362.779-.438.95m-98.66 25.536c-.038.494.21.779.78.855 3.614.513 6.714-.342 9.282-2.622.133-.114.323-.095.419.019l1.217 1.311s0 .038.038.057v-.038c.076-.133.057-.247-.038-.361l-1.217-1.311c-.115-.114-.305-.133-.419-.019-2.568 2.261-5.668 3.135-9.282 2.622-.457-.057-.704-.285-.76-.608v.095zm68.97-56.013c-3.938 1.273-8.103 2.014-12.516 2.223-.19 0-.343.133-.419.304l-.722 2.033s0 .152.038.21l.665-1.9c.058-.172.229-.286.419-.305 4.413-.209 8.578-.95 12.516-2.223.361-.114.513 0 .532.323v-.209c.076-.437-.095-.589-.532-.437zM71.67 86.299c-4.565 0-9.035-.57-13.41-1.748a.15.15 0 0 0-.19.114v.038c0 .095.038.17.038.247.038-.057.096-.095.172-.076a52.2 52.2 0 0 0 13.41 1.748c.19 0 .323.038.38.133.076-.304-.038-.475-.38-.456zM37.167 74.138c-3.024-2.299-5.649-4.56-7.913-6.745a.64.64 0 0 0-.722-.133c-4.109 1.634-8.293-.133-11.736-2.584-.171-.114-.38-.095-.514.057q-1.854 2.137-2.51 4.96c0 .056.037.075.056.113.457-1.786 1.256-3.363 2.435-4.73.133-.153.362-.19.514-.058 3.443 2.451 7.627 4.237 11.736 2.584a.71.71 0 0 1 .722.133c2.264 2.204 4.908 4.446 7.913 6.745.152-.095.19-.19 0-.323zm-6.334 86.242.076-.076s.057-.114 0-.152c-.913-.95-1.37-1.976-1.426-3.078-.038 1.197.4 2.299 1.331 3.306zm-19.877-46.892c.095-.627.133-1.159.095-1.615 0 .38-.019.798-.095 1.292-.114.684-.342 1.767-.704 3.249a6.6 6.6 0 0 0-.19 2.147c0-.57.038-1.159.19-1.805.362-1.482.609-2.565.704-3.249zm.856 15.428a9 9 0 0 0 .248-2.527c0 .722-.076 1.463-.248 2.204-.266 1.14-.399 1.729-.399 1.729-.095.589-.114 1.178-.114 1.767 0-.475.038-.95.114-1.444 0 0 .133-.57.4-1.729M33.705 92.72s-.057.172-.114.267c-.61 1.045-.837 2.147-.818 3.534v.057c0-1.254.247-2.28.817-3.25a.9.9 0 0 0 .115-.607M13.79 141.418v.551c-.019.532-.133 1.9-.323 4.123v.209c.171-2.147.285-3.477.304-4.009v-.893zm43.596-52.193s.076-.133.038-.228c-.609-1.444-.894-2.717-.913-3.857v.038c-.038 1.178.266 2.527.894 4.047zm-28.854 6.896c.818.684 1.997 1.444 2.72 2.413.704.931 1.502 2.204 2.358 3.819.837 1.539 1.199 3.097 1.16 4.617.115-1.615-.247-3.287-1.16-4.94-.875-1.596-1.654-2.869-2.358-3.819-.723-.969-1.883-1.729-2.72-2.413q-.228-.2-.286-.399c-.076.266 0 .513.286.741zm3.899 53.904c-2.377-2.071-4.051-4.256-3.918-6.954-.304 2.869 1.445 5.13 3.918 7.296l.038.038c.095.095.095.209.133.323.057-.228.038-.475-.133-.646l-.038-.038zm-22.198-65.74c.056-.361.056-.742.037-1.16 0 .285 0 .57-.037.817-.058.438-.343 1.027-.837 1.806-.932 1.444-1.35 3.001-1.256 4.635-.019-1.5.38-2.944 1.256-4.293.494-.78.78-1.368.836-1.806m-.93 13.548c0 1.044-.076 2.109-.342 3.173-.362 1.349-.552 2.166-.552 2.489v.304c.02-.323.21-1.14.552-2.451.304-1.159.4-2.337.342-3.496zM15.73 72.03c1.77.341 3.482.854 5.156 1.5 1.94.76 2.929.741 4.964.247 2.225-.532 4.394-.209 6.524.95.894.494 1.54 1.273 2.188 1.805.323.266.741.38 1.16.304a78 78 0 0 0 2.891-.608c.476-.114 1.122.02 1.484.266 5.116 3.458 10.613 6.118 16.51 7.924.038 0 .038.037.057.037.019-.037.057-.056.076-.094.057-.133 0-.229-.133-.285a62 62 0 0 1-16.51-7.924c-.362-.247-.99-.38-1.484-.266a87 87 0 0 1-2.891.608 1.42 1.42 0 0 1-1.16-.304c-.647-.513-1.294-1.31-2.188-1.805-2.13-1.178-4.299-1.5-6.524-.95-2.035.494-3.024.513-4.965-.247a29.3 29.3 0 0 0-5.154-1.5c-2.74-.552-6.22-.096-6.391 3.457v.304c.19-3.515 3.652-3.97 6.372-3.439z"/><path fill="#fff" d="M110.702 68.325a59.6 59.6 0 0 0 5.268-7.316c3.671-5.928 6.03-12.749 6.03-19.323 0-6.707-2.473-13.167-8.54-18.22-6.867-5.72-16.7-6.632-24.423-2.205-1.674.97-2.91 2.052-4.584 3.42-.628.513-1.256.57-1.902.057-4.07-3.116-5.878-7.885-5.82-12.787.018-1.729.266-3.496.741-5.187a45 45 0 0 1 1.122-3.42c0-.038 0-.095.02-.133a.754.754 0 0 0-.4-.855h-.02c-.056-.038-.113-.038-.151-.057-.343-.133-.609 0-.78.38-.038.076-.076.171-.114.247-1.427 3.268-2.15 6.707-2.035 10.032.152 4.39 1.768 8.607 5.154 11.99 1.54 1.538 3.158 2.488 5.079 1.025a547 547 0 0 1 2.986-2.223c3.652-2.698 7.799-3.914 12.44-3.61 7.132.456 13.409 4.58 16.89 10.792 2.092 3.724 2.891 7.676 2.758 11.628-.209 6.555-2.929 13.13-6.467 18.64-7.266 11.361-17.29 18.695-30.072 22.02-17.024 4.428-34.18-1.197-47.59-11.836a93 93 0 0 1-6.505-5.72 1.09 1.09 0 0 0-1.142-.228c-1.217.456-2.092.931-3.176.912-2.948-.095-5.668-1.52-8.217-3.268-.533-.36-1.046-.323-1.56.133-2.035 1.767-2.91 4.104-3.69 6.726-.038.134-.114.21-.247.229-3.329.854-4.109 3.343-4.014 6.155.077 2.148.647 4.485 1.009 6.404.076.36.076.664.038.911-.038.229-.095.418-.229.57-1.54 1.958-2.016 3.915-1.978 5.948.057 1.919.57 3.914 1.122 6.004.057.19.02.209-.038.17-.038-.018-.057-.018-.114-.094a10 10 0 0 1-.856-1.311c-2.682-4.94-4.26-10.032-4.812-15.257a40 40 0 0 1-.171-5.644v-.037c.057-1.71.21-3.42.494-5.168 1.047-6.385 4.3-13.7 9.682-17.348 4.28-2.888 8.673-2.945 13.182-.152.836.513 2.7 2.356 4.203 1.938 5.364-1.558 9.435.323 12.84 4.351.456.551.95.817 1.654.78 8.122-.362 15.92-3.554 22.616-8.247 3.557-2.47 7.437-5.814 9.187-9.69.21-.456.323-.893.361-1.292.038-.475-.019-.912-.209-1.31-.19-.419-.76-.97-1.693-1.654-2.815-2.07-5.078-4.579-6.81-7.543-4.336-7.429-5.23-15.257-2.776-23.503a41 41 0 0 1 .894-2.717c.152-.399.133-.684-.057-.836a.52.52 0 0 0-.305-.152h-.019c-.437-.304-.78-.19-.989.323q-2.74 6.527-2.453 13.224c.114 2.66.608 5.358 1.445 8.056 1.978 6.346 5.65 11.381 10.994 15.105.304.21.438.57.362.912 0 .057 0 .114-.038.171-1.256 3.268-4.318 6.118-6.981 8.208-6.62 5.206-14.836 8.873-23.377 9.348-.228 0-.418-.076-.551-.247-3.614-4.579-8.807-6.479-14.475-4.864a.83.83 0 0 1-.666-.133c-4.508-3.59-9.568-5.11-14.931-2.755-3.938 1.73-7.514 5.871-9.397 9.766C1.065 64.296-.17 70.548 0 76.76c.23 7.98 2.816 15.885 7.495 22.61a.5.5 0 0 1 .076.362.5.5 0 0 1-.038.17c-.171.951-.608 1.806-.723 2.775a11 11 0 0 0-.019 2.109 9.5 9.5 0 0 0 .38 1.938c.59 1.9 2.34 3.382 2.264 5.586 0 .247-.019.513-.076.779-.38 1.767-1.027 3.705-.913 5.738.038.665.152 1.349.4 2.033.741 2.128 1.54 3.686 1.54 5.719 0 .57-.057 1.178-.19 1.843-.342 1.596-.513 2.489-.532 2.679v.285c-.115 2.888.684 4.864 1.92 7.467.438.931.571 1.862.59 2.793 0 1.634-.361 3.287-.361 4.94 0 .798.095 1.577.38 2.375 1.237 3.439 3.234 6.156 6.696 7.448 1.16.437 3.043.969 5.649 1.577 1.617.38 3.062 1.311 4.356 2.793.475.551 1.217 1.311 1.845 1.273 1.084-.057 1.445-.589 1.464-1.254.038-.817-.418-1.843-.722-2.489a3.2 3.2 0 0 1-.305-1.045 2.9 2.9 0 0 1 .057-1.14c.343-1.197.837-2.28 1.693-3.211a7 7 0 0 0 .894-1.178s0-.019.02-.038c.094-.133.284-.152.418-.057 1.73 1.292 3.557 2.508 5.535 2.926 5.782 1.235 11.545-1.463 16.377-4.408.266-.152.361-.095.285.209v.076c-.228.893-.704 2.812-1.465 5.795-.646 2.527-.97 4.009-1.027 4.427a7.5 7.5 0 0 0-.019 1.14c.038 1.064.285 2.223.723 3.496.171.494.228.969.247 1.463.038 1.026-.19 2.052-.57 3.059-.457 1.235-.609 2.584-.552 3.914.057 1.273.323 2.546.723 3.743.152.494.475.684.97.608h.076c.247-.057.4-.266.456-.513.02-.114.038-.209 0-.323-.285-1.064-.513-2.128-.59-3.211-.075-1.083 0-2.166.324-3.211a43 43 0 0 0 .685-2.356c.095-.38.152-.741.171-1.102.076-1.197-.247-2.318-.685-3.477a5.8 5.8 0 0 1-.361-2.242c0-.893.171-1.748.38-2.584a702 702 0 0 0 1.864-7.353c.19-.741.248-1.881.362-2.546a.47.47 0 0 1 .21-.323c.037-.019.57-.399 1.616-1.102 1.065-.722 2.035-1.881 2.93-3.496.037-.076.132-.114.227-.095 3.1.95 5.63.133 7.552-2.432a.22.22 0 0 1 .323-.019c1.445 1.235 2.549 2.299 4.45 2.432.153 0 .23.095.23.247 0 1.767.17 4.617 1.388 5.833.323.323.608.437.894.38.076 0 .133-.038.209-.076a.76.76 0 0 0 .342-.456.86.86 0 0 0-.076-.57 8.2 8.2 0 0 1-1.103-3.838q-.03-.741.057-1.539c0-.133.095-.228.21-.285 1.426-.627 3.746-1.957 6.162-2.66.21-.057.4-.057.552 0 .114.038.266.152.494.304q3.11 2.138 4.508 4.845s.02.038.038.057c.19.304.59.399.913.19a.82.82 0 0 0 .4-.608c.228-1.52-3.139-4.465-4.014-5.149-.019 0-.038-.038-.057-.057-.133-.095-.114-.19.02-.266a9.2 9.2 0 0 0 3.27-2.774c.153-.19.704-.95 1.674-2.28.02-.019.039-.057.077-.076.152-.114.342-.076.456.076 1.484 2.071 4.527 5.415 7.152 5.757.476.057.761-.114.875-.475 0-.019.019-.019.038-.057a.74.74 0 0 0-.419-.836c-2.472-1.102-4.526-2.812-6.143-5.111a.5.5 0 0 1-.095-.114v-.019a.15.15 0 0 1 .057-.171c2.948-1.311 4.888-4.237 6.524-7.068a.31.31 0 0 1 .418-.133c2.511 1.083 6.41 2.223 9.035 1.615.552-.133.837-.38.875-.76v-.133c.038-.551-.228-.779-.761-.703-3.062.437-5.516-.418-8.407-1.444-.038 0-.057-.038-.076-.057-.038-.057-.057-.114-.038-.171a7.2 7.2 0 0 0 .38-2.299c0-.893-.209-1.767-.627-2.584 0 0 0-.038-.019-.057a.405.405 0 0 1 .266-.513c2.34-.76 4.128-2.147 5.383-4.142.114-.19.304-.266.533-.228 1.502.285 2.681.323 3.575.076.343-.095.533-.304.609-.646v-.152c.076-.418-.095-.627-.494-.646l-3.272-.152a.38.38 0 0 1-.38-.418c.095-2.299-.989-5.111-2.169-7.41v-.019c-.152-.304-.076-.399.267-.323 2.035.532 3.804.608 5.287.209.552-.152.837-.418.894-.817v-.323a.65.65 0 0 0-.78-.494 10.4 10.4 0 0 1-3.747.171h-.038a.1.1 0 0 1-.095-.057.146.146 0 0 1 .019-.19c2.663-2.147 3.557-4.96 3.804-8.227 0-.21.153-.38.362-.456.551-.171 2.035-.57 2.434-1.35v-.075a.4.4 0 0 0 .019-.304c-.418-1.178-2.073-.19-2.701.228-.019 0-.038.019-.076.038-.152.057-.323-.038-.38-.19-.552-1.653-1.883-2.907-3.994-3.743-.038 0-.019-.038-.057-.038-.21-.114-.229-.228.019-.361 2.282-1.254 4.241-2.926 5.915-5.054.057-.057.057-.133.076-.21.057-.19.057-.38-.057-.531l-.133-.171c-.38-.513-.78-.513-1.179 0-1.883 2.375-4.033 4.047-6.429 5.035-.115.038-.324.057-.666.038a1.7 1.7 0 0 1-.647-.114c-1.369-.513-2.663-.874-3.861-1.083-.038 0-.057-.02-.095-.038-.02 0-.02-.038-.038-.057a.23.23 0 0 1-.038-.285 14.05 14.05 0 0 0 2.453-6.328c0-.056.019-.114.038-.17.058-.495-.171-.799-.665-.913h-.038c-.514-.038-.818.171-.894.646-.38 2.547-1.275 4.675-2.644 6.404-.171.209-.38.285-.647.266-2.492-.342-5.079-.418-7.741-.247a.08.08 0 0 1-.077-.076v-3.496c0-.152.096-.304.248-.343 7.038-2.565 13.238-6.46 18.621-11.666 1.065-1.044 1.693-1.33 3.044-1.5 3.328-.457 8.007.645 9.054 4.313.304 1.064.418 1.995.399 2.907 0 1.31-.285 2.545-.609 4.027-.228 1.064-.323 1.825-.304 2.3 0 .095 0 .209.038.284.361 1.502.685 3.022.704 4.504 0 1.33-.248 2.603-1.008 3.8-.381.608-1.161 1.159-1.617 1.577a.6.6 0 0 0-.19.342c-.076.418-.095.74-.076 1.026 0 .133 0 .285.038.38.323 1.254.475 2.28.437 3.21-.057 1.445-.59 2.642-1.731 4.048-.342.418-.437 1.083-.399 1.596 0 .152.038.285.076.399.551 1.634.78 3.268.666 4.94a12 12 0 0 1-.21 1.653c-.19 1.007-.837 2.071-1.141 2.774a.73.73 0 0 0-.057.399c0 .019 0 .076.019.114.057.304.247 1.064.571 2.299.304 1.14.418 2.242.38 3.306-.057 1.729-.513 3.401-1.274 5.111-.438.988-.647 1.691-.609 2.109v.133q.285 3.22.228 5.985v.019c-.057 2.052-.78 3.819-2.187 5.301-.894.95-2.834 1.9-3.88 2.603-1.066.703-1.731 1.368-2.036 1.995-1.046 2.185-1.54 3.477-3.442 4.902-2.72 2.033-5.764 3.135-9.092 3.287-.495.019-1.18.152-1.503.399-2.948 2.242-5.022 3.914-8.864 3.42-1.198-.152-2.7-.931-4.051-.893-1.864.057-3.766 1.653-5.003 2.831-.114.095-.228.114-.342.038-.362-.228-.723-.703-.951-.893-3.253-2.641-7.856-2.432-11.28-.285a.61.61 0 0 0-.247.665v.171l.076.152c.21.399.514.513.913.304 1.389-.665 2.625-1.083 3.728-1.235 2.949-.418 6.201.76 7.342 3.629.21.513.286 1.102.286 1.71 0 1.425-.419 2.983-.913 4.161v.038c-.076.114-.21.152-.343.076-3.899-2.318-8.121-1.311-11.526 1.558-.038.019-.057.057-.095.095-.229.247-.286.532-.229.779.02.095.076.19.153.247l.019.019c.285.399.627.475 1.008.19 2.986-2.223 5.725-3.458 9.358-1.767.628.285 1.008.608 1.122.912.228.665.495 1.33.742 2.014.552 1.444 1.122 2.907 1.388 4.313 0 .019 0 .095.02.152.057.38.209 1.349.418 2.983.019.19.133.304.323.342.305.057.495.076.552.038.361-.19.552-.608.552-1.064 0-.038.019-.076.019-.133-.21-2.337-.514-4.028-.97-5.092q-1.142-2.793-1.427-3.819v-.152c-.038-.228 0-.437.095-.646.932-1.786 1.35-3.629 1.293-5.491a10.6 10.6 0 0 0-.285-2.166v-.057c-.038-.171 0-.361.133-.475.97-.931 3.272-2.85 4.718-2.451 1.521.437 2.472.684 2.872.76 4.013.741 6.81-.855 9.814-3.249q.315-.256.856-.342c1.294-.209 2.207-.361 2.796-.475 3.272-.589 7.171-2.394 9.435-5.035.551-.665.894-1.197 1.008-1.596.513-1.881 1.807-3.325 3.88-4.37 3.386-1.691 5.174-4.541 5.383-8.493v-.703c0-1.026-.057-2.489-.19-4.427v-.247c0-.589.057-1.292.285-1.729.97-1.919 1.427-3.781 1.503-5.681.076-1.919-.228-3.857-.818-5.871v-.038a.65.65 0 0 1 0-.38c.076-.171.209-.494.437-.95.571-1.216.856-2.717.894-4.218.038-1.558-.19-3.116-.589-4.351a2.5 2.5 0 0 1-.114-.475c-.057-.437.057-.703.418-1.178 1.217-1.615 1.693-3.173 1.712-4.77 0-1.044-.152-2.108-.438-3.248v-.038a.57.57 0 0 1 .191-.608c1.883-1.596 2.587-3.762 2.644-6.023.038-1.425-.191-2.888-.552-4.275a2.7 2.7 0 0 1-.076-.665c0-.323 0-.646.076-.95.437-2.072.704-3.668.78-4.77.019-.341.019-.665.019-1.007-.057-6.25-5.041-8.986-10.994-8.53h-.019c-.171 0-.209-.038-.095-.19zM37.167 74.48s-.02.038-.057.038l-.837.303c-.4.153-.742.057-1.046-.228-2.093-2.108-4.756-3.096-7.99-2.944-1.52.056-3.347.95-5.21.246-2.607-.987-5.327-1.937-8.142-2.032h-.019s0-.02-.019-.038c-.038-.02-.076-.057-.057-.114q.657-2.823 2.51-4.96c.134-.152.362-.19.514-.057 3.443 2.452 7.628 4.238 11.736 2.585a.71.71 0 0 1 .723.132c2.264 2.204 4.908 4.447 7.913 6.745.19.133.152.248 0 .324zM72.05 86.774v.076l-.514 1.463c-.114.323-.323.456-.665.399-3.196-.418-6.81-.152-9.13 2.432a.25.25 0 0 1-.362.019c-2.073-1.691-3.157-3.762-3.271-6.194 0-.095-.038-.171-.038-.247v-.038a.17.17 0 0 1 .19-.114 52.2 52.2 0 0 0 13.41 1.748c.342 0 .456.17.38.456m15.236-2.071-.267 2.128c-.056.475-.304.74-.76.798a24.1 24.1 0 0 0-8.636 2.869.805.805 0 0 1-.913-.057 9.9 9.9 0 0 0-3.424-1.54h-.019c-.038 0-.076-.056-.095-.094-.038-.057-.076-.133-.038-.21l.723-2.032c.057-.171.228-.285.418-.304 4.413-.21 8.579-.95 12.516-2.223.438-.133.609 0 .552.437v.209zm-54.685 66.006c-.038.114-.038.228-.133.323a11.8 11.8 0 0 0-2.511 3.743c-.342.798-.495 1.577-.457 2.318.057 1.102.514 2.128 1.427 3.078a.115.115 0 0 1 0 .152l-.076.076-.038.038s-.133.057-.19-.019c-1.085-1.615-2.435-2.755-4.09-3.401-1.18-.475-2.891-.969-5.155-1.482-3.67-.836-6.143-3.04-7.437-6.574q-.513-1.425-.456-2.622v-.209c.19-2.223.285-3.591.323-4.123v-.551c0-2.014-.647-3.154-1.464-4.864a10.6 10.6 0 0 1-1.047-4.446c0-.589.02-1.178.114-1.767 0 0 .134-.57.4-1.729a9.8 9.8 0 0 0 .247-2.204 8.8 8.8 0 0 0-.4-2.622c-.532-1.672-1.464-3.268-1.597-5.225a7.2 7.2 0 0 1 .19-2.147c.362-1.482.609-2.565.704-3.249.076-.494.095-.912.095-1.292 0-1.596-.628-2.489-1.54-4.009-.818-1.349-1.16-2.603-1.123-4.085v-.304c0-.304.21-1.14.552-2.489.285-1.045.361-2.11.342-3.173-.038-2.033-.494-4.047-.932-5.91a8.7 8.7 0 0 1-.228-1.52c-.095-1.633.323-3.172 1.255-4.635.495-.78.78-1.368.837-1.805.038-.247.038-.532.038-.817 0-.457-.038-.931-.133-1.463-.361-2.072-.837-4.104-.78-6.213v-.305c.171-3.553 3.633-3.99 6.391-3.458a30 30 0 0 1 5.155 1.502c1.94.76 2.93.74 4.964.246 2.226-.531 4.394-.209 6.525.95.893.495 1.54 1.273 2.187 1.805.323.267.742.38 1.16.305a78 78 0 0 0 2.891-.609c.476-.114 1.123.02 1.484.266 5.117 3.459 10.614 6.118 16.51 7.924.152.038.19.133.133.285 0 .038-.038.057-.076.095 0 .019-.019.038-.038.057a.54.54 0 0 0-.133.323v.304c.019 1.14.323 2.413.913 3.857.038.095 0 .17-.038.228 0 0 0 .038-.038.057-1.35 1.045-2.758 1.539-4.242 1.463-1.92-.095-3.614-.437-5.078-.988-1.541-.608-2.968-2.641-3.196-4.142-.171-1.14-.304-1.843-.418-2.11a.63.63 0 0 0-.761-.38l-.152.058c-.438.132-.628.474-.552 1.064 0 .057 0 .095.02.152.17 1.444.475 2.584.874 3.4.038.096.02.19-.019.286a.5.5 0 0 1-.133.152c-.647.304-1.522.703-2.587 1.159-3.215 1.387-4.66-.646-7.019-2.09-1.331-.798-1.56-2.033-1.56-3.401 0-.513.039-1.046.058-1.578v-.284c.019-.457-.19-.684-.647-.684h-.247a.57.57 0 0 0-.57.456 11 11 0 0 0-.23 2.109c0 .513.02 1.007.115 1.463v.133c-.057.114-.19.17-.304.114-1.94-.798-3.919-1.045-5.935-.703-1.027.17-2.225 1.026-3.405.912-2.587-.247-4.83-1.14-6.714-2.698-.38-.324-.742-.305-1.027.056v.02q-.342.313-.228.684a1 1 0 0 0 .19.323c1.73 1.88 4.337 2.736 6.771 3.154.152.019.172.095.095.228a1 1 0 0 0-.057.133c-1.008 1.786-1.483 3.61-1.407 5.49a10.3 10.3 0 0 0 .704 3.383.22.22 0 0 1-.038.19c-.02.019-.038.057-.077.076-1.37.513-3.252.608-5.668.304-.475-.057-.704.152-.704.627v.152s.02.057.039.095a.79.79 0 0 0 .59.684c1.654.36 3.138.399 4.45.095 1.35-.304 2.092-.475 2.244-.494.134-.02.248 0 .324.114 1.426 1.843 3.043 3.8 3.043 5.928 0 .209 0 .418-.038.627-.095.532-.456 1.425-1.103 2.66a11 11 0 0 0-.99 2.736c-.037.209-.208.38-.418.456-1.788.532-3.728.665-5.782.361-.418-.057-.685.076-.78.418a.65.65 0 0 0 0 .38.85.85 0 0 0 .533.627c1.845.722 4.375.361 6.334-.209.114-.019.228.057.247.152.742 3.458 2.986 6.137 4.907 8.759a.23.23 0 0 1-.038.285v.019c-2.815 2.147-6.105 2.983-9.871 2.527-.077 0-.172 0-.248.019-.285.095-.456.38-.361.665v.266c.019.342.437.665 1.008.703 4.147.323 7.722-.703 10.728-3.116.076-.057.17-.057.228 0l1.617 1.292v.019l-.229.114c-1.312.627-3.138 2.204-3.271 3.705a23 23 0 0 0-.095 2.28c0 2.033.285 3.971.818 5.833a.65.65 0 0 1 0 .38.5.5 0 0 1-.21.285c-2.396 2.033-5.154 2.812-8.274 2.299-.437-.076-.722.152-.817.665v.304c.057.342.304.551.76.608 3.614.513 6.715-.342 9.282-2.622.134-.114.324-.095.419.019l1.217 1.311c.095.114.114.228.038.361v.038c-.665 1.216-.95 2.318-1.008 3.363-.133 2.717 1.54 4.883 3.918 6.954l.039.038c.19.171.19.418.133.646zm67.277-27.569c0 .95-.343 1.976-.875 2.85a48 48 0 0 1-3.196 4.712c-.932 1.197-2.092 1.957-3.443 2.28-.932.209-1.654.855-2.073 1.463-1.73 2.432-2.834 4.446-5.65 4.921-2.624.456-4.469 1.501-6.694 2.565-3.082 1.482-4.984-.532-6.943-2.546-.057-.057-.114-.095-.171-.133a.63.63 0 0 0-.837.285c-.457.912-.609 1.349-1.16 1.9-1.389 1.425-3.1 1.862-5.117 1.273a.87.87 0 0 1-.628-.836c0-1.558-.152-2.679-1.027-4.009-1.674-2.546-4.812-5.377-7.932-6.118-.019 0-.038-.019-.057-.038 0 0-.038 0-.057-.038-.076-.095-.057-.228.038-.285 1.313-.969 2.245-2.318 2.815-4.085.114-.361-.019-.741-.323-.912l-.114-.057q-.684-.37-.913.342c-.533 1.558-1.731 3.059-3.557 4.465-.951.722-1.712 1.14-2.34 1.235-2.282.38-5.002.38-8.178 0-1.75-.209-3.272-.76-4.565-1.691-.362-.266-.685-.19-.99.171 0 0-.038.076-.095.209a.56.56 0 0 0 0 .494.65.65 0 0 0 .21.342l1.255 1.007.057.057c.038.095 0 .19-.076.247l-1.313.665a.45.45 0 0 0-.228.266 1.8 1.8 0 0 0-.076.684c0 .076 0 .152.02.209q.056.2.284.228c1.636.114 2.207-.836 3.348-1.52a.4.4 0 0 1 .361-.057c4.451.912 8.75.798 12.935-.361.494-.133 1.236-.152 1.693.057 3.005 1.254 5.306 3.287 6.885 6.099.247.456.361 1.178.361 2.147 0 .247 0 .475-.018.741-.115 1.691-.856 3.021-2.207 3.952a64 64 0 0 1-8.293 4.864c-4.698 2.28-9.986 3.325-14.475.095-.989-.722-1.921-1.463-2.777-2.28-1.902-1.786-3.424-3.42-3.48-5.586 0-.817.17-1.691.627-2.698 0-.019.019-.038.038-.076a.415.415 0 0 1 .57-.076c3.12 2.28 7.285 4.104 11.166 3.99.742-.019 2.092-.342 4.051-.988 1.598-.532 3.538-1.007 5.783-1.425a1.07 1.07 0 0 0 .837-.703c0-.038.038-.095.038-.133v-.038c-.095-.551-.38-.798-.818-.741-2.682.418-4.984.95-6.886 1.634-1.445.513-2.53.76-3.233.76-3.653 0-6.962-1.539-9.948-3.572-2.492-1.691-3.824-2.755-4.242-5.738-.21-1.444-.304-2.717-.304-3.838 0-.475 0-.912.038-1.33.114-1.349 1.692-2.432 2.834-3.04 1.198-.665 2.396-.95 3.614-.855.228 0 1.274.323 3.176.912 4.413 1.387 8.293.399 12.364-1.558q2.454-1.168 3.424-1.425 1.597-.399 3.88-.342c4.28.095 8.578 1.862 8.54 6.878 0 .114.02.228.076.323.171.361.609.494.97.323a58 58 0 0 1 2.454-1.178c3.995-1.767 7.209-.76 9.549 2.622.323.456.627.893.95 1.311.19.247.457.38.723.323.133-.019.248-.171.343-.437.799-2.128 2.32-3.439 4.546-3.895q.656-.143 5.192-1.311c.8-.209 1.37-.228 1.731-.057.514.228 1.046.513 1.617.836.38.209.742.171 1.065-.133 0 0 .038-.076.114-.19.02-.038 0-.095.02-.133.056-.228.018-.456-.172-.608l-1.445-1.159h-.02c-.094-.095-.114-.19-.018-.285l.475-.551a.96.96 0 0 0 .21-.418c.057-.209.057-.418-.077-.627l-.076-.095c-.323-.437-.704-.456-1.103-.038-.495.513-.742.779-.76.779-.99.969-2.873 1.463-4.357 1.748-2.834.57-5.801 1.121-7.532 3.686 0 .019-.038.038-.057.057a.24.24 0 0 1-.304-.057c-1.75-2.717-4.223-4.009-7.437-3.933-1.142.038-2.778.551-4.87 1.539-.114.057-.19.019-.228-.095q-.714-2.508-1.712-3.591c-3.195-3.42-8.426-3.762-12.858-2.793-1.94.437-4.185 1.881-6.049 2.546q-3.31 1.197-6.619.798c-1.788-.209-3.747-1.273-5.383-1.349-2.587-.114-4.508-.228-6.277-2.261-.665-.76-1.54-1.919-2.625-3.439-1.255-1.767-2.377-3.971-2.34-6.118 0-.418.039-.836.134-1.254.247-1.026 1.027-2.223 1.465-3.135.38-.817.551-1.558.59-2.242.132-3.23-2.968-5.415-4.338-8.436a7.9 7.9 0 0 1-.684-2.926c0-.4 0-.78.038-1.178.875-7.505 8.35-6.1 12.82-3.097 5.383 3.629 8.483 8.797 9.32 15.523a.794.794 0 0 0 .894.665h.076c.304-.038.533-.342.57-.722 0-.076.02-.152 0-.228-.456-4.712-2.168-8.797-5.154-12.274-.019-.02-.038-.057-.076-.095a.14.14 0 0 1-.038-.095c0-.095.076-.171.152-.171 1.826-.038 3.557-.912 5.155-1.805a.67.67 0 0 1 .818.133c1.807 1.9 5.23 2.546 7.76 2.584 1.77.019 3.348-.456 4.717-1.425a.974.974 0 0 1 1.313.133l1.35 1.463a.375.375 0 0 1 .057.437v.038c-1.54 2.375-2.548 4.978-2.567 7.638 0 1.482.285 2.964.97 4.465.399.855 1.046 2.09 1.959 3.724.323.57.456 1.197.418 1.919 0 0 0 .019-.019.038a.31.31 0 0 1-.304.228c-.343-.019-.837-.171-1.522-.437-2.51-.969-5.154-.988-8.046-.931a.2.2 0 0 1-.17-.076.3.3 0 0 1-.039-.152q.03-.285.228-1.254c.153-.817.248-1.672.267-2.546 0-.893-.038-1.824-.172-2.793v-.152c-.152-1.064 2.017-3.04 2.778-3.61.17-.133.266-.266.304-.418.057-.19 0-.38-.114-.59v-.018c-.267-.4-.59-.494-1.008-.247-1.104.646-1.522 1.273-2.245 2.147-.095.095-.133.133-.171.076l-1.37-2.185q-.514-.826-1.312-.4l-.114.058s-.076.057-.114.076c-.171.152-.19.399-.133.608.019.095.038.19.095.266 1.464 1.672 2.016 4.123 2.016 6.517a17.6 17.6 0 0 1-.4 3.724c-.17.76-.494 1.121-1.312 1.311a8.2 8.2 0 0 0-2.948 1.368q-.855.627-1.54.855c-.572.209-1.523.456-2.207.855-.628.361-1.237.817-1.883 1.33a.43.43 0 0 1-.552 0 16 16 0 0 0-3.861-2.736.23.23 0 0 1-.095-.095.25.25 0 0 1-.038-.209q.028-.171.456-1.14a9.5 9.5 0 0 0 .818-4.294c-.114-2.546-1.293-4.883-2.872-7.296-.495-.741-.742-1.425-.76-2.071v-.057c-.02-1.387.227-2.49.817-3.534.057-.095.095-.19.114-.266.076-.285-.019-.551-.285-.78a.707.707 0 0 0-.97.039c-.818.855-1.199 1.995-1.16 3.439 0 .209-.077.266-.229.152l-1.617-1.083a.726.726 0 0 0-.932.133l-.076.095c-.19.228-.228.437-.17.646a.8.8 0 0 0 .284.399c.818.684 1.998 1.444 2.72 2.413.704.93 1.503 2.204 2.359 3.819.894 1.653 1.274 3.325 1.16 4.94s-.703 3.192-1.75 4.655a.5.5 0 0 0-.076.171c-.057.133-.038.266 0 .399.057.209.19.418.419.494 2.15.798 3.975 2.09 5.478 3.857l.038.038a.597.597 0 0 0 .837 0c1.388-1.425 2.986-2.375 4.774-2.831 1.217-.323 1.617-1.159 2.682-1.615 2.777-1.14 5.63-.95 8.54-.684 4.85.456 8.046 3.401 12.002 6.745 1.218 1.026 2.873 2.223 4.547 2.66 3.632.969 7.322.931 11.07-.133 1.807-.513 4.241-1.254 7.266-2.204.323-.095.932-.209 1.845-.304 3.214-.38 5.744.703 7.228 3.705.19.38.247.798.247 1.235zm8.901-26.62c0 .419-.038.837-.095 1.255-.285 2.128-1.35 4.636-3.347 5.7-.59.323-1.446.475-2.549.494-3.918.057-6.677.494-9.625-.532-1.065-.361-1.92-1.254-2.606-2.698-.228-.456-.551-.551-.989-.304l-.133.076c-.304.171-.437.551-.323.893 1.92 5.263 8.616 4.465 13.01 4.123.342-.019.685.171.818.494 1.065 2.489 2.359 4.617 2.397 7.03v.152c-.038 3.097-2.739 4.731-5.345 5.7a.51.51 0 0 1-.514-.095c-.437-.38-.97-.779-1.597-1.235-3.596-2.565-9.758-.095-14.171 1.311-3.918 1.254-9.187 1.52-13.03-.456v-.019a.235.235 0 0 1-.056-.266 110 110 0 0 1 2.91-4.294c1.293-1.824 1.674-3.61 1.712-5.643a25 25 0 0 0-.096-2.318c-.114-1.577-.627-2.869-1.502-3.895-.057-.057-.038-.133-.057-.19 0-.057-.057-.114-.038-.171.247-1.273.894-2.394 1.959-3.363a.83.83 0 0 0 .266-.437c.057-.21 0-.418-.171-.646l-.019-.02c-.304-.398-.666-.436-1.084-.094-1.256.988-2.073 2.26-2.416 3.819a.23.23 0 0 1-.247.133c-1.826-.551-2.32-1.387-3.519-2.888a.45.45 0 0 0-.133-.133.63.63 0 0 0-.856.152c-.19.285-.228.513-.19.74.057.305.247.609.475.989.97 1.634 2.625 2.242 4.28 2.964 1.35.608 1.712 2.755 1.712 4.693 0 1.026-.095 1.995-.21 2.622-.17.95-.59 1.881-1.236 2.755-.76 1.026-1.674 2.413-2.739 4.142v.019c-.076.095-.209.114-.285.038l-6.543-5.225s0-.038-.02-.038c-.056-.076-.075-.171-.037-.247.266-.475.38-.95.38-1.444a3.9 3.9 0 0 0-.495-1.9c-.646-1.178-1.236-2.223-1.73-3.135-.647-1.159-1.027-2.356-1.142-3.572-.114-1.235.02-2.508.438-3.82.932-2.982 3.005-7.067 6.543-7.428 2.777-.285 5.25-.133 7.418.437q1.085.285 2.568 1.482c2.51 1.995 4.641 4.465 6.41 7.39 1.084 1.806 1.56 3.497 1.636 5.188.095 2.508-.704 4.997-1.845 7.733a.58.58 0 0 0 0 .437.6.6 0 0 0 .247.323c.419.266.818.152 1.141-.247q1.74-2.194 4.451-2.28c2.454-.076 4.984.399 7.628 1.387 1.426.532 1.959 1.121 2.89 2.318.115.133.229.247.381.342a.9.9 0 0 0 .38.095.67.67 0 0 0 .59-.494c.019-.076.038-.152.038-.228-.038-.608-.323-1.121-.875-1.539-.019-.019-.019-.038-.038-.057-.133-.152-.133-.285.057-.418.514-.323.78-.684.837-1.045 0-.076.038-.171.019-.247 0-.057-.019-.114-.038-.171a.615.615 0 0 0-.799-.323l-1.255.513a1.02 1.02 0 0 1-.818 0c-1.674-.646-3.462-1.14-5.364-1.501-2.187-.418-4.28-.304-6.315.323h-.114c-.038 0-.057-.038-.095-.076s-.057-.095-.038-.171a14 14 0 0 0 .59-4.256c-.057-2.565-.875-5.016-2.511-7.334 0 0 0-.02-.02-.038 0 0 0-.02-.018-.038a.35.35 0 0 1 .21-.475c.76-.304 1.578-.513 2.415-.627 4.355-.532 8.997-.342 13.067 1.444.057.019.114.038.19.038a.463.463 0 0 0 .457-.456v-.551c0-.304-.133-.513-.419-.627l-.646-.266a3 3 0 0 1-.248-.133c-.304-.19-.209-.323.286-.418.038 0 .228-.076.551-.171.305-.095.457-.342.514-.59.057-.284 0-.588-.19-.797a.59.59 0 0 0-.552-.19c-1.065.228-1.902.608-2.53 1.12a1.13 1.13 0 0 1-.913.248c-3.899-.703-9.149-.931-12.858.722a.4.4 0 0 1-.475-.095l-3.633-3.933-.115-.133c-.019-.057 0-.114.038-.133q1.514-.884 2.91-1.368c8.028-2.717 18.033-2.128 25.489 2.489 1.35.836 1.693 2.166 1.655 3.629z"/><path fill="#fff" d="M69.882 17.727a.85.85 0 0 0-.342.95c.418 1.368 1.103 2.907 2.073 4.617.951 1.729 1.902 3.116 2.834 4.199a.85.85 0 0 0 .99.209c.342-.152.513-.418.456-.798 0-.133-.152-.361-.438-.703a26.6 26.6 0 0 1-2.472-3.686 26 26 0 0 1-1.826-4.047c-.153-.399-.267-.646-.362-.722-.304-.247-.608-.247-.913-.038zm8.352 14.953c4.28 2.926 7.304.323 10.804-2.584 2.168-1.805 5.021-2.432 8.521-1.88q.57.084.799-.57c0-.039 0-.172-.057-.362-.114-.38-.362-.608-.723-.665-3.519-.55-6.562.076-9.11 1.862 0 0-.648.57-1.903 1.691-1.103.97-2.282 1.653-3.538 1.995-1.598.456-2.625-.095-4.26-.95-.362-.19-.647-.076-.819.361v.02c-.19.417-.075.778.343 1.063zm26.99-3.002q3.167 1.112 5.363 2.964c1.465 1.254 2.435 2.603 2.93 4.085q.257.77.57 2.223c0 .038.038.076.057.133.153.19.533.266.837.171l.133-.038c.343-.114.495-.285.476-.513-.247-2.527-1.484-4.73-3.709-6.63-2.226-1.92-5.231-3.307-8.997-4.219-.361-.095-.666-.038-.932.133l-.114.076s-.095.076-.114.114c-.152.19 0 .418.304.513 1.389.418 2.473.76 3.215 1.007zm-7.228 39.805.076.076c.362.323.723.323 1.065 0 6.239-5.529 10.766-11.818 13.6-18.867a31 31 0 0 0 1.902-7.106c.076-.494-.152-.779-.665-.855h-.019c-.533-.076-.837.171-.913.703-1.408 9.443-7.856 18.867-15.046 24.928q-.656.541 0 1.14zM28.93 57.494c-.532-.152-1.293-.323-1.902-.703a36 36 0 0 1-1.807-1.254c-3.271-2.394-6.695-2.83-10.347-.608-.342.21-.476.513-.361.912a.6.6 0 0 0 .038.133c.19.456.475.608.894.418 1.73-.779 2.872-1.197 3.442-1.235 1.846-.152 3.481.323 4.927 1.425 1.788 1.35 3.31 2.527 5.44 2.47a.39.39 0 0 0 .323-.19c.419-.665.057-1.14-.647-1.368m-15.387-.398a.7.7 0 0 0-.97-.19 6 6 0 0 0-1.293 1.235c-1.16 1.425-2.15 2.869-2.948 4.35-.818 1.483-1.503 3.097-2.074 4.846-.209.664-.323 1.234-.342 1.748v.17c.095.38.476.609.837.514.323-.077.513-.267.59-.552.646-2.355 1.426-4.35 2.32-5.984s2.15-3.363 3.785-5.187c.19-.228.248-.475.133-.798a.4.4 0 0 0-.076-.152zm18.07.208a.52.52 0 0 0-.285.247c-.133.285-.152.57-.038.836s.4.418.684.38c2.34-.342 4.394.21 6.182 1.691.38.323.951.817 1.693 1.463 0 0 .038.038.057.038.305.21.704.152.913-.133l.02-.019c.247-.342.209-.817-.077-1.14-2.225-2.47-5.82-4.484-9.149-3.363M92.65 71.82c-3.785 2.28-7.532 3.99-11.26 5.093-3.728 1.12-7.799 1.748-12.212 1.9a.77.77 0 0 0-.742.627c-.152.722.438.969 1.065.95 4.261-.095 8.389-.722 12.345-1.9s7.76-2.907 11.375-5.168c.532-.342.913-.855.38-1.387a.78.78 0 0 0-.951-.114"/></g><defs><clipPath id="a"><path fill="#fff" d="M0 0h122v179H0z"/></clipPath></defs></svg>