<svg width="72" height="181" fill="none" xmlns="http://www.w3.org/2000/svg"><g clip-path="url(#a)"><path d="M71.98 86.668V85.19h-.095c-.29-2.593-1.117-4.764-2.484-6.492l-.327-.385c-.597-.73-1.405-1.728-2.08-3.265-.596-1.402-.885-2.92-.923-4.514 2.368-.922 4.062-3.227 4.062-5.916v-4.821c0-2.363-1.31-4.418-3.234-5.513v-1.921c0-2.247-1.329-4.207-3.408-5.532v-.038c-.423-2.325-1.29-4.4-2.599-6.147-2.81-3.746-6.526-4.476-9.49-5.052-2.157-.422-3.87-.749-4.987-2.017-1.675-1.882-1.078-4.744.039-9.277 1.251-5.071 2.83-11.39-.636-17.595C45.183 5.57 41.814-.02 36.693-.02h-.077c-3.118.038-6.141 2.19-8.547 6.07-3.85 6.242-2.676 12.716-1.714 17.921.847 4.668 1.29 7.607-.558 9.508-1.194 1.23-2.945 1.595-4.986 1.998-2.946.615-6.623 1.364-9.395 5.148-1.097 1.498-1.886 3.227-2.348 5.148l-.232.998c-2.079 1.326-3.426 3.285-3.426 5.532v1.748c-2.118 1.038-3.581 3.189-3.581 5.705v4.822a6.318 6.318 0 0 0 4.004 5.897 13.545 13.545 0 0 1-.943 3.937c-.674 1.652-1.52 2.747-2.08 3.477l-.269.365C1.174 80.099.385 82.423.096 85.189H.04v1.076a26.998 26.998 0 0 0 0 2.497v85.093c0 3.918 3.542 7.107 7.873 7.107h56.195c4.35 0 7.874-3.189 7.874-7.107V88.262c0-.557.02-1.094 0-1.613v.02ZM12.36 98.347v66.902a1.28 1.28 0 0 1-1.271 1.268 1.28 1.28 0 0 1-1.27-1.268V98.347a1.28 1.28 0 0 1 1.27-1.268c.693 0 1.27.576 1.27 1.268Zm2.714-49.154h42.218c3.273 0 5.544 1.67 5.544 3.169v1.056H9.53v-1.056c0-1.498 2.271-3.17 5.544-3.17Zm-.347-6.109c1.849-2.516 4.197-2.996 6.93-3.553 2.35-.48 5.026-1.037 7.105-3.17 3.407-3.495 2.522-8.374 1.655-13.08-.905-4.994-1.848-10.142 1.175-15.06 1.617-2.612 3.465-4.11 5.101-4.13 2.368 0 4.678 3.016 5.583 4.63 2.676 4.802 1.444 9.796.25 14.617-1.136 4.61-2.33 9.374.867 12.966 2.04 2.286 4.813 2.823 7.257 3.304 2.753.538 5.121.999 7.008 3.496a9.82 9.82 0 0 1 1.155 1.997H15.478l-1.732-.365c.27-.595.596-1.152.981-1.67v.018Zm-8.874 37.63.23-.308c.655-.845 1.733-2.266 2.619-4.418a17.339 17.339 0 0 0 1.213-4.936l52.094.269c.115 1.863.52 3.65 1.232 5.32.885 2.075 2.002 3.439 2.676 4.265l.27.326c.981 1.249 1.52 2.92 1.674 5.014-8.682 2.17-17.615 3.515-26.586 3.86-12.533.5-25.027-.806-37.174-3.841.134-2.305.712-4.15 1.752-5.532v-.02Z" fill="#323E48"/></g><defs><clipPath id="a"><path fill="#fff" d="M0 0h72v181H0z"/></clipPath></defs></svg>