<svg width="186" height="169" viewBox="0 0 186 169" fill="none" xmlns="http://www.w3.org/2000/svg">
<g clip-path="url(#clip0_506_7643)">
<path d="M184.748 11.3321C182.891 7.55474 179.261 5.21738 175.401 3.79826C171.437 2.33741 167.056 1.37742 163.092 0.93916C153.828 -0.104307 144.544 -0.271262 135.26 0.480034C131.608 0.772205 128.02 1.29394 124.515 2.02437C121.719 2.60871 119.132 3.44348 116.712 4.50782C110.912 7.07475 107.323 11.8747 109.597 18.4903C109.66 18.6572 109.681 18.8451 109.702 19.0955C110.578 32.0762 111.746 47.4987 112.915 64.4655C113.478 72.688 114.271 84.187 115.314 98.9834C115.502 101.571 115.752 103.533 116.086 104.869C116.086 104.889 116.086 104.91 116.086 104.931H116.023C115.961 104.973 118.36 112.006 123.701 116.43C126.434 118.684 128.917 119.435 133.34 120.771C133.34 120.771 141.31 123.171 151.283 122.503C154.246 122.315 157.187 121.835 160.087 121.084C167.828 119.081 175.318 114.802 176.966 106.309C177.112 105.599 177.258 104.889 177.446 104.201C177.696 103.241 177.842 102.385 177.905 101.655C178.26 97.7729 178.531 95.1434 178.656 93.7452C180.701 74.0028 181.89 62.2533 182.245 58.5177C183.559 44.3057 184.79 30.8658 185.938 18.1981C186.167 15.7147 185.771 13.4608 184.748 11.3738V11.3321ZM117.192 11.0399C118.339 9.11994 121.01 7.86778 123.096 7.13736C128.854 5.17564 135.155 4.50782 141.206 4.34086C147.84 4.15304 154.329 4.42434 160.651 5.1339C163.363 5.44694 166.284 6.01041 169.434 6.86606C171.792 7.49214 173.962 8.43126 175.944 9.64168C176.424 9.93385 176.966 10.3721 177.571 10.9564C180.117 13.3982 180.033 16.5703 177.425 18.9077C176.34 19.8885 175.088 20.7024 173.691 21.3494C169.852 23.1441 165.449 24.1667 161.298 24.7511C154.141 25.7319 146.881 25.7528 139.474 24.772C135.677 24.2711 132.109 23.5198 128.771 22.5181C126.476 21.8294 124.348 20.9529 122.366 19.8885C119.549 18.3859 114.959 14.7964 117.213 11.0608L117.192 11.0399ZM169.914 109.71C167.306 114.155 161.318 116.054 156.478 116.827C150.302 117.828 143.96 117.745 137.68 116.743C133.966 116.138 130.002 115.115 126.872 113.008C126.872 113.008 126.852 112.987 126.831 112.966C126.831 112.966 126.831 112.966 126.831 112.945C126.831 112.945 126.831 112.945 126.81 112.945C125.683 112.194 124.828 111.234 124.244 110.023C124.16 109.856 124.139 109.731 124.139 109.627V109.606C124.139 109.564 124.202 109.543 124.244 109.564C124.703 109.794 124.995 110.044 125.454 110.253C125.871 110.441 126.351 110.67 126.914 110.983C126.977 111.025 127.311 111.129 127.874 111.275C128.166 111.359 128.458 111.463 128.729 111.568C129.147 111.735 129.439 111.86 129.585 111.901C130.065 112.089 130.544 112.152 131.045 112.361C131.316 112.465 131.504 112.548 131.608 112.569C136.47 113.968 141.122 114.761 145.566 114.928C151.492 115.157 157.292 114.406 162.946 112.653C165.387 111.901 167.661 110.879 169.747 109.606C169.956 109.481 170.019 109.522 169.873 109.731L169.914 109.71ZM179.783 44.2222C179.658 45.7248 179.512 47.2482 179.366 48.7926C177.759 64.2568 175.944 81.5157 173.92 100.59C173.857 101.216 173.607 101.571 173.044 102.218C172.126 103.262 171.02 104.159 169.664 104.952C167.765 106.058 165.783 106.935 163.697 107.644C155.477 110.357 146.943 111.067 138.431 109.397L133.674 108.395C130.273 107.644 127.039 106.455 123.972 104.848C122.679 104.18 121.531 103.345 120.488 102.322C120.029 101.884 119.779 101.342 119.737 100.695C118.694 86.9 118.11 79.241 117.984 77.7175C117.129 66.3646 116.253 55.0116 115.356 43.6796L113.603 22.205C113.603 22.205 113.624 22.1216 113.687 22.1633C114.542 22.8728 115.502 23.6033 116.587 24.3128C116.816 24.4589 117.129 24.6467 117.525 24.8346C117.922 25.0224 118.235 25.2102 118.485 25.3563C118.756 25.5233 119.153 25.6276 119.508 25.8154C120.175 26.1702 120.822 26.5041 121.427 26.7963L126.017 28.5284C126.33 28.6537 126.685 28.7789 127.018 28.8624C127.665 29.0293 127.999 29.1337 128.041 29.1337C129.71 29.6345 130.92 29.9476 131.629 30.0936C132.464 30.2606 133.048 30.3649 133.34 30.4276C141.06 32.1388 149.03 32.2641 156.979 31.5962C162.987 31.0954 169.038 29.8641 174.546 27.5267C177.133 26.4206 179.658 24.8972 181.577 22.852C181.681 22.7476 181.807 22.5181 181.973 22.372C182.015 22.3302 182.036 22.3302 182.036 22.4137L179.762 44.2431L179.783 44.2222Z" fill="#323E48"/>
<path d="M88.6501 121.251C90.2984 119.874 91.3624 118.204 91.3624 118.204C91.5293 117.933 92.03 117.14 92.4682 116.013C93.5948 113.091 93.8452 110.002 94.2416 106.893C96.4114 89.2792 98.2474 74.3993 99.8539 61.189C100 59.916 100.063 58.9769 100.042 58.3508C100 57.4117 99.8122 56.4726 99.5201 55.5334C99.4784 55.4291 99.4992 55.3247 99.5618 55.2204C101.106 52.4865 101.794 49.2726 100.605 46.3092C98.9777 42.2605 94.2207 39.3806 90.4027 37.6693C83.622 34.6432 76.2571 32.9945 68.9756 32.1598C57.1876 30.7824 45.5248 31.1372 34.008 33.2032C33.9663 33.2032 33.9455 33.2032 33.9246 33.1615C30.4821 28.7163 27.6238 24.5007 24.0143 18.9912C22.2409 16.2991 20.2797 13.6486 18.1099 11.1026C16.5451 9.26609 14.9386 7.68001 13.2904 6.34438C12.0594 5.36352 10.8702 4.63309 9.70183 4.17396C6.82263 3.02615 3.71394 3.44354 1.64843 5.80177C-0.354482 8.01392 -0.271027 11.4782 0.563521 14.1704C1.69016 17.7599 4.11035 20.9529 6.71832 23.6451C11.3501 28.4241 15.7732 31.5754 21.8028 36.5632C21.8028 36.5632 21.8028 36.5632 21.8236 36.5841C21.8236 36.6258 21.8236 36.6675 21.7819 36.6884C18.2142 38.2745 14.73 40.7162 12.7062 44.0553C10.5572 47.5822 10.8076 51.3178 12.2055 55.1995C12.2055 55.2621 12.2055 55.3039 12.2055 55.3456C11.4752 56.8482 11.1832 58.4343 11.3709 60.1247C11.4961 61.3142 11.663 62.7334 11.8925 64.382C13.5407 76.2567 14.8343 85.6688 15.7732 92.5974C16.4825 97.8982 17.3379 103.575 18.4646 111.63C18.8819 114.635 19.9042 117.661 22.0114 119.811C23.0963 120.917 24.4525 121.919 26.0381 122.816C30.0022 125.07 34.467 126.343 38.8693 127.178C43.1672 127.992 47.4026 128.514 51.5962 128.785C56.6035 129.098 64.4273 129.056 73.8369 127.303C73.8369 127.303 83.5594 125.487 88.6292 121.251H88.6501ZM38.2642 37.8154C48.6961 36.3962 59.2114 36.271 69.7893 37.4188C76.6743 38.1701 83.3716 39.4223 89.5472 42.1353C92.1135 43.2623 95.5143 45.3074 96.5575 47.9787C97.2042 49.6065 96.2236 51.3596 95.4308 52.8413H95.3891C95.2222 52.4865 95.0344 52.1526 94.8049 51.8396C92.5308 48.73 88.7336 46.5387 85.1241 45.1196C82.245 43.9927 79.2197 43.0953 76.111 42.4483C72.2512 41.6344 68.5584 41.071 65.0533 40.7579C56.8747 40.0275 48.7378 40.0066 40.747 41.0501C40.601 41.0501 40.4967 41.0292 40.3923 40.9249C39.7247 40.1319 39.2657 39.5058 38.1599 38.0867C38.1599 38.0658 38.1391 38.0449 38.1391 38.0032C38.1391 37.9197 38.1808 37.8362 38.2642 37.8362V37.8154ZM47.7364 66.2811C60.4632 67.3037 72.8563 66.2185 84.9155 63.0464C88.3163 62.149 91.4459 60.6256 94.325 58.4551C94.325 58.4551 94.3459 58.4551 94.3668 58.4551L94.4085 58.4969C94.4085 58.4969 94.4294 58.5386 94.4085 58.5595C92.3221 60.2499 90.1106 61.5855 87.753 62.5247C84.2896 63.902 80.2838 64.7994 76.3405 65.4464C71.3124 66.2812 66.5554 66.782 62.1115 66.9698C54.0998 67.2829 46.1716 66.8446 38.3894 65.6551C34.9678 65.1333 31.7339 64.4029 28.6878 63.4847C26.3928 62.796 24.2438 61.9821 22.2826 60.7925C22.0949 60.6673 22.0949 60.6464 22.3035 60.7508C30.3986 64.069 39.0571 65.6133 47.799 66.302L47.7364 66.2811ZM23.0963 56.8065C27.1439 55.2413 31.3166 54.1143 35.6146 53.4048C35.7189 53.4048 35.8441 53.4256 35.8858 53.53C37.993 56.8691 43.3759 58.6012 46.8184 56.4099C48.1745 55.5543 49.0299 54.2813 49.3846 52.6326C49.3846 52.57 49.4263 52.5491 49.4889 52.5491C57.9805 52.2361 66.2008 52.7787 74.1498 54.1561C74.1498 54.1561 74.3793 54.1978 74.8592 54.2813C79.3866 55.0534 83.7471 56.2013 87.9199 57.7665C88.0659 57.8291 88.0659 57.8708 87.9199 57.9334C85.8961 58.7264 83.8306 59.3943 81.7234 59.9369C73.4196 62.0238 65.0115 62.7334 56.4157 62.7125C48.5501 62.7125 40.8513 61.8777 33.3404 60.2499C29.731 59.4569 26.3093 58.3925 23.0755 57.0152C22.9086 56.9525 22.9086 56.8691 23.0755 56.8065H23.0963ZM18.8401 29.4259C15.6688 26.9424 12.8105 24.4381 10.2443 21.9129C8.5126 20.2016 6.98954 18.3234 5.65427 16.2991C4.38158 14.3582 2.27435 9.8713 4.38158 7.84697C5.6334 6.63655 7.80323 7.47132 9.13851 8.28523C11.5796 9.74608 13.5616 11.9582 15.189 14.0869C17.7552 17.4051 19.466 19.6382 20.3006 20.7442C21.6985 22.5807 24.4316 26.2955 28.5 31.8259C31.0871 35.3528 34.3836 39.4849 35.9275 41.4884C36.011 41.6136 36.0527 41.7388 36.1779 41.8431C36.3865 42.031 36.4908 42.1562 36.5326 42.1979C37.075 43.0118 37.7218 43.7214 38.3268 44.5144C40.6218 47.4987 43.0629 50.5665 45.65 53.7178C46.3594 54.5734 45.337 55.45 44.5651 54.7613C44.4816 54.6778 44.2521 54.4274 43.8975 54.01C43.0838 53.05 40.9139 50.4204 37.3671 46.1422C33.5073 41.4675 29.1468 37.3354 24.3064 33.7458C23.8892 33.4328 22.0531 31.9928 18.7984 29.4467L18.8401 29.4259ZM16.3365 46.1422C18.4437 43.7423 21.3646 42.0518 24.3482 40.8623C24.4525 40.8205 24.5777 40.8623 24.6402 40.9458C25.4331 42.1144 26.2885 43.137 27.1856 44.0135C27.1856 44.0135 27.1856 44.0136 27.2065 44.0553C27.2065 44.097 27.2065 44.1596 27.1439 44.1805C24.5359 45.2448 22.2409 46.664 20.3006 48.3961C18.6941 49.8361 17.6718 51.5474 17.2128 53.5926V53.6135C17.1919 53.6135 17.1502 53.6135 17.1293 53.6135C16.2113 52.4865 14.8552 51.0465 14.8134 49.6274C14.7717 48.3544 15.5228 47.0813 16.3574 46.1422H16.3365ZM40.0168 122.9C37.1167 122.399 34.2793 121.668 31.4835 120.729C29.6893 120.124 28.041 119.352 26.5388 118.371C24.9115 117.328 23.764 115.992 23.1381 114.364C22.846 113.613 22.6165 112.653 22.4287 111.484C22.3661 111.088 21.7193 106.83 20.4884 98.6704C20.2589 97.1261 20.0711 95.9365 19.9668 95.1226C18.1934 82.5592 16.5451 71.0394 15.0429 60.5421C15.0221 60.3751 15.0638 60.3543 15.189 60.4795C18.2351 63.4847 22.3035 65.4672 26.3928 66.8864C30.2109 68.222 34.175 69.2029 38.2434 69.8707C46.2133 71.1646 54.5171 71.6028 63.1964 71.1646C67.7238 70.935 72.0217 70.4759 76.0276 69.7455C81.9529 68.6811 87.5652 67.0742 92.4682 64.0064C93.8243 63.1507 94.9718 62.1908 95.9315 61.1473C96.0985 60.9803 96.1402 61.0012 96.0985 61.2308C96.0359 61.6273 95.9733 61.9821 95.9107 62.2951C94.0121 75.6724 92.0092 90.7192 89.8811 107.477C89.5681 109.94 89.3803 111.547 88.7544 113.696C87.6904 117.307 84.3313 119.373 80.9723 120.604C78.1974 121.627 75.3182 122.42 72.293 122.983C61.6733 124.966 50.7407 124.82 40.0585 122.921L40.0168 122.9Z" fill="#323E48"/>
<path d="M36.1981 41.8431C36.4067 42.0309 36.5111 42.1561 36.5528 42.1979C37.0952 43.0118 37.742 43.7213 38.3471 44.5144C40.6421 47.4987 43.0831 50.5665 45.6702 53.7177C46.3796 54.5734 45.3573 55.4499 44.5853 54.7612C44.5019 54.6777 44.2724 54.4273 43.9177 54.0099C43.104 53.0499 40.9342 50.4204 37.3873 46.1422C33.5275 41.4674 29.167 37.3353 24.3266 33.7458C23.9094 33.4327 22.0734 31.9927 18.8186 29.4467C15.6473 26.9632 12.789 24.4589 10.2228 21.9337C8.49109 20.2224 6.96804 18.3442 5.63276 16.3199C4.36008 14.379 2.25284 9.8921 4.36007 7.86777C5.6119 6.65735 7.78172 7.49213 9.117 8.30603C11.5581 9.76688 13.5401 11.979 15.1675 14.1077C17.7337 17.4259 19.4445 19.659 20.2791 20.765C21.677 22.6015 24.4101 26.3163 28.4785 31.8467C31.0656 35.3736 34.3621 39.5057 35.906 41.5092C35.9895 41.6344 36.0312 41.7596 36.1564 41.8639L36.1981 41.8431Z" fill="#ECF7F3"/>
<path d="M170.686 6.99102C173.106 7.63797 175.317 8.57709 177.341 9.82925C177.821 10.1214 178.384 10.5806 178.989 11.1649C181.577 13.6483 181.514 16.904 178.843 19.2831C177.738 20.2639 176.465 21.0987 175.025 21.7874C171.103 23.6239 166.617 24.6674 162.361 25.2517C155.059 26.2534 147.631 26.2743 140.079 25.2726C136.219 24.7717 132.568 23.9995 129.146 22.9769C126.809 22.2674 124.64 21.37 122.616 20.3057C119.757 18.7613 115.063 15.1092 117.358 11.2901C118.526 9.34926 121.26 8.05536 123.388 7.32493C129.25 5.32147 135.676 4.63279 141.873 4.46583C148.654 4.27801 155.267 4.54931 161.714 5.27974C164.489 5.59278 167.473 6.17712 170.665 7.03276L170.686 6.99102Z" fill="white"/>
<path d="M150.199 31.0119C158.586 31.0119 168.1 30.8658 177.718 25.2937C179.617 24.1876 181.077 23.1233 182.058 22.3929C181.286 30.031 180.493 37.6692 179.721 45.3074C179.345 45.1196 178.928 44.8274 178.511 44.9944C175.653 42.8031 171.083 39.8396 164.908 38.2118C160.777 37.1266 159.17 37.4814 148.405 37.5649C131.171 37.6692 126.206 36.8136 120.364 40.6535C117.923 42.2605 116.274 44.0552 115.315 45.2448C114.668 37.1266 114 29.0084 113.354 20.9111C117.109 23.3528 122.742 26.4624 130.107 28.5911C138.39 30.991 144.962 31.0328 150.22 31.0328L150.199 31.0119Z" fill="white"/>
<path d="M40.3913 40.9041C39.7237 40.1111 39.2647 39.485 38.1589 38.0659C38.0963 38.0033 38.1172 37.8989 38.1797 37.8572C38.2006 37.8572 38.2215 37.8363 38.2632 37.8363C48.6951 36.4172 59.2104 36.292 69.7883 37.4398C76.6733 38.1911 83.3705 39.4433 89.5462 42.1563C92.1124 43.2832 95.5132 45.3284 96.5564 47.9997C97.2032 49.6275 96.2226 51.3805 95.4298 52.8623C95.4298 52.8623 95.3881 52.8831 95.3881 52.8623C95.2211 52.5075 95.0334 52.1736 94.8039 51.8605C92.5297 48.751 88.7325 46.5597 85.1231 45.1406C82.2439 44.0137 79.2187 43.1163 76.11 42.4693C72.2502 41.6554 68.5573 41.0919 65.0522 40.7789C56.8736 40.0485 48.7368 40.0276 40.746 41.0711C40.5999 41.0711 40.4956 41.0502 40.3913 40.9459V40.9041Z" fill="#A0B8D8"/>
<path d="M20.3013 48.396C18.6948 49.836 17.6725 51.5473 17.2135 53.5925C17.2135 53.6134 17.1718 53.6342 17.1509 53.6342H17.13C16.212 52.5073 14.8559 51.0673 14.8142 49.6482C14.7724 48.3752 15.5235 47.1021 16.3581 46.163C18.4653 43.763 21.3862 42.0726 24.3697 40.8831C24.4741 40.8413 24.5992 40.8831 24.6618 40.9665C25.4547 42.1352 26.3101 43.1578 27.2072 44.0343C27.2489 44.0761 27.2489 44.1387 27.2072 44.1804C27.2072 44.1804 27.2072 44.1804 27.1655 44.2013C24.5575 45.2656 22.2625 46.6848 20.3222 48.4169L20.3013 48.396Z" fill="#A0B8D8"/>
<path d="M138.306 55.074L138.369 37.022C138.494 37.022 138.64 37.022 138.807 37.022C139.015 37.0012 139.161 36.9803 139.224 36.9803C146.568 36.7507 153.933 37.2516 161.194 38.5038C163.885 38.9629 166.555 39.6307 169.184 40.5072C171.438 41.2585 173.336 42.1768 174.859 43.2411C175.652 43.7837 176.215 44.4307 176.57 45.1402C178.281 48.5419 171.208 51.6097 168.851 52.4654C166.138 53.4462 163.363 54.1766 160.484 54.6775C153.161 55.9505 145.734 56.0966 138.285 55.0949L138.306 55.074Z" fill="#323E48"/>
<path d="M132.714 37.2725L133.069 55.3662C129.021 54.3645 124.41 52.6949 120.884 50.128C118.527 48.4167 115.835 45.495 118.798 42.5733C120.342 41.0498 122.428 40.0272 124.369 39.3177C127.081 38.3159 129.856 37.6481 132.714 37.2725Z" fill="#323E48"/>
<path d="M74.8796 54.2811C79.407 55.0532 83.7676 56.2011 87.9403 57.7663C88.0864 57.8289 88.0864 57.8706 87.9403 57.9332C85.9165 58.7262 83.851 59.3941 81.7438 59.9367C73.44 62.0236 65.0319 62.7332 56.4361 62.7123C48.5705 62.7123 40.8718 61.8775 33.3608 60.2497C29.7514 59.4567 26.3298 58.3923 23.0959 57.015C22.929 56.9523 22.929 56.8689 23.0959 56.8063C27.1434 55.2411 31.3162 54.1141 35.6141 53.4046C35.7184 53.4046 35.8436 53.4254 35.8853 53.5298C37.9926 56.8689 43.3754 58.601 46.8179 56.4097C48.1741 55.5541 49.0295 54.2811 49.3842 52.6324C49.3842 52.5698 49.4259 52.5489 49.4885 52.5489C57.98 52.2359 66.2003 52.7785 74.1494 54.1559C74.1494 54.1559 74.3789 54.1976 74.8588 54.2811H74.8796Z" fill="#E99DAF"/>
<path d="M132.735 54.3019C132.985 72.333 133.256 90.3432 133.507 108.374C130.106 107.623 126.872 106.475 123.784 104.91C122.491 104.263 121.322 103.428 120.279 102.447C119.82 102.009 119.57 101.487 119.528 100.861C118.485 87.3798 117.88 79.8877 117.775 78.406C116.92 67.3035 116.044 56.2219 115.146 45.1194L115.334 44.9941C115.48 45.8707 115.752 46.622 116.064 47.2898C119.424 54.3019 131.358 54.3436 132.755 54.3227L132.735 54.3019Z" fill="#323E48"/>
<path d="M180.158 46.1214C180.033 47.6031 179.887 49.1057 179.72 50.6083C178.093 65.822 176.256 82.7888 174.212 101.53C174.149 102.156 173.878 102.489 173.315 103.116C172.397 104.138 171.249 105.036 169.893 105.787C167.974 106.872 165.971 107.749 163.843 108.416C155.539 111.088 146.88 111.776 138.264 110.128C138.493 103.929 138.66 97.6895 138.806 91.387C139.098 79.0741 139.223 66.949 139.203 55.0535C152.43 51.9648 165.679 48.8761 178.906 45.7666C179.323 45.8709 179.72 45.9544 180.137 46.0588L180.158 46.1214Z" fill="#323E48"/>
<path d="M94.3872 58.5595C92.3008 60.25 90.0893 61.5856 87.7317 62.5247C84.2683 63.9021 80.2625 64.7995 76.3193 65.4464C71.2911 66.2812 66.5342 66.7821 62.0902 66.9699C54.0785 67.2829 46.1503 66.8447 38.3682 65.6551C34.9465 65.1334 31.7126 64.403 28.6665 63.4847C26.3715 62.796 24.2226 61.9821 22.2614 60.7926C22.0736 60.6674 22.0736 60.6465 22.2822 60.7508C30.3774 64.0691 39.0358 65.6134 47.7777 66.3021C60.5046 67.3247 72.8976 66.2395 84.9568 63.0673C88.3576 62.1699 91.4872 60.6465 94.3664 58.4761C94.3664 58.4761 94.3872 58.4761 94.4081 58.4761L94.4498 58.5178C94.4498 58.5178 94.4707 58.5596 94.4498 58.5804L94.3872 58.5595Z" fill="#A0B8D8"/>
<path d="M92.4257 63.9855C93.7819 63.1298 94.9294 62.1698 95.8891 61.1264C96.056 60.9594 96.0977 60.9803 96.056 61.2098C95.9934 61.6064 95.9308 61.9611 95.8682 62.2742C93.9697 75.6514 91.9667 90.6982 89.8386 107.456C89.5257 109.919 89.3379 111.526 88.712 113.675C87.6479 117.286 84.2889 119.352 80.9298 120.583C78.155 121.606 75.2758 122.399 72.2505 122.962C61.6309 124.945 50.6983 124.799 40.0161 122.9C37.116 122.399 34.2786 121.668 31.4828 120.729C29.6886 120.124 28.0403 119.352 26.5381 118.371C24.9108 117.328 23.7633 115.992 23.1374 114.364C22.8453 113.613 22.6158 112.653 22.428 111.484C22.3654 111.088 21.7186 106.83 20.4877 98.6703C20.2582 97.126 20.0704 95.9365 19.9661 95.1225C18.1927 82.5592 16.5444 71.0393 15.0422 60.542C15.0214 60.3751 15.0631 60.3542 15.1883 60.4794C18.2344 63.4846 22.3028 65.4672 26.3921 66.8863C30.2102 68.2219 34.1743 69.2028 38.2427 69.8706C46.2126 71.1645 54.5164 71.6028 63.1957 71.1645C67.7231 70.935 72.021 70.4758 76.0269 69.7454C81.9522 68.6811 87.5645 67.0741 92.4675 64.0063L92.4257 63.9855Z" fill="#A0B8D8"/>
<path d="M132.839 56.0552C134.967 56.5352 137.116 56.9108 139.244 57.1612C139.244 57.4952 139.224 58.1838 139.224 59.2691C139.224 70.1837 139.161 81.0775 139.015 91.9922C138.931 98.4617 138.744 104.952 138.452 111.442L133.59 110.42L132.818 56.0552H132.839Z" fill="white"/>
<path d="M83.0404 120.118C84.5838 120.075 85.8071 119.041 85.7727 117.808C85.7383 116.575 84.4592 115.611 82.9157 115.654C81.3723 115.697 80.149 116.731 80.1834 117.964C80.2179 119.197 81.497 120.161 83.0404 120.118Z" fill="#323E48"/>
<path d="M126.204 112.903C125.056 112.152 124.18 111.15 123.596 109.919C123.513 109.752 123.471 109.627 123.492 109.501C123.492 109.46 123.533 109.418 123.575 109.418C123.575 109.418 123.596 109.418 123.617 109.418C124.097 109.648 124.389 109.919 124.869 110.107C125.286 110.295 125.787 110.545 126.371 110.858C126.433 110.9 126.767 111.004 127.351 111.15C127.664 111.234 127.956 111.338 128.228 111.442C128.666 111.609 128.958 111.734 129.104 111.797C129.584 111.985 130.085 112.048 130.585 112.256C130.857 112.361 131.044 112.444 131.169 112.465C136.135 113.884 140.892 114.698 145.419 114.865C151.47 115.115 157.395 114.343 163.154 112.528C165.636 111.755 167.952 110.712 170.101 109.418C170.331 109.272 170.372 109.335 170.247 109.543C167.598 114.072 161.464 116.013 156.54 116.806C150.239 117.828 143.75 117.745 137.366 116.722C133.569 116.117 129.521 115.074 126.329 112.903C126.329 112.903 126.308 112.882 126.287 112.861C126.287 112.861 126.287 112.861 126.287 112.841C126.287 112.841 126.287 112.841 126.267 112.841L126.204 112.903Z" fill="#ECF7F3"/>
<path d="M138.972 133.877C139.87 135.108 140.495 136.277 140.871 137.383C141.956 140.597 142.06 144.207 141.726 147.567C141.455 150.301 140.621 152.43 138.91 154.517C136.865 157 134.236 159.045 131.461 160.715C129.125 162.113 126.746 163.303 124.326 164.284C116.252 167.518 107.885 169.104 99.2688 169.021C91.6118 168.938 84.1634 167.644 76.882 165.118C73.669 164.012 70.6437 162.677 67.848 161.153C65.8659 160.068 64.1134 158.899 62.6112 157.647C59.5025 155.039 57.7917 151.741 57.2075 147.797C56.832 145.209 56.8111 142.642 57.2075 140.075C57.6456 136.987 58.8975 134.336 60.7543 131.874C60.7752 131.832 60.7961 131.79 60.7543 131.727C59.4399 128.514 58.7723 125.154 58.7723 121.689C58.7723 120.479 58.8557 119.394 59.0018 118.475C60.1702 111.735 65.699 107.06 71.3531 103.909C79.2605 99.5052 88.3362 97.2513 97.3701 96.8548C103.838 96.5626 109.951 97.2304 115.751 98.8582C122.949 100.883 130.105 104.639 135.509 109.898C137.867 112.194 139.807 114.969 140.746 118.1C141.413 120.375 141.518 122.816 141.33 125.279C141.121 128.284 140.329 131.081 138.931 133.71C138.91 133.752 138.91 133.814 138.931 133.856L138.972 133.877ZM114.875 103.763C113.414 103.429 112.225 103.178 111.328 103.011C101.689 101.258 92.2168 101.863 82.8907 104.869C79.0727 106.1 75.5884 107.686 72.3963 109.669C69.6423 111.38 67.0343 113.529 65.2609 116.18C63.8213 118.35 63.1119 120.729 63.1537 123.317C63.1954 126.761 64.2386 129.787 66.8257 132.145C69.6423 134.712 73.2934 136.402 76.9237 137.592C80.6583 138.823 84.4346 139.7 88.2944 140.367C98.2047 142.037 108.052 141.87 117.858 139.846C120.591 139.282 123.262 138.489 125.912 137.487C130.356 135.776 135.53 132.792 136.969 127.929C137.199 127.178 137.282 126.114 137.282 124.736C137.241 121.71 136.928 118.329 135.28 115.742C134.821 115.011 134.257 114.322 133.631 113.655C128.749 108.521 121.697 105.432 114.896 103.825L114.875 103.763ZM136.677 150.698C136.969 150.092 137.136 149.571 137.199 149.07C137.7 145.272 137.262 141.411 135.446 137.988C135.405 137.905 135.342 137.905 135.28 137.967C133.172 139.846 130.919 141.453 128.478 142.767C119.381 147.734 109.054 150.239 98.7054 149.779C92.7175 149.508 86.834 148.423 81.0339 146.503C76.4856 145 72.0207 142.893 68.1401 140.033C66.6588 138.927 65.3444 137.696 64.2177 136.298C64.1551 136.214 64.0925 136.214 64.0508 136.298C62.5278 139.449 61.5472 142.663 61.422 146.19C61.3802 147.233 61.3802 148.026 61.422 148.59C61.6723 152.159 64.5724 154.705 67.5559 156.353C69.6214 157.501 71.8121 158.461 74.1071 159.233C80.6583 161.445 87.439 162.865 94.4075 163.491C100.354 164.012 106.216 163.699 111.996 162.531C118.693 161.174 125.348 158.899 131.253 155.56C132.943 154.6 134.445 153.536 135.739 152.054C136.135 151.595 136.448 151.115 136.677 150.656V150.698Z" fill="#323E48"/>
<path d="M114.771 103.428C121.573 105.035 128.625 108.124 133.507 113.258C134.133 113.926 134.696 114.614 135.155 115.345C136.803 117.932 137.116 121.313 137.158 124.339C137.158 125.717 137.074 126.781 136.845 127.532C135.405 132.395 130.231 135.379 125.787 137.091C123.158 138.092 120.467 138.885 117.734 139.449C107.928 141.473 98.0801 141.661 88.1699 139.97C84.3101 139.324 80.5337 138.447 76.7991 137.195C73.1689 135.984 69.5177 134.315 66.7011 131.748C64.114 129.39 63.0708 126.364 63.0291 122.92C62.9874 120.332 63.6967 117.932 65.1363 115.783C66.9097 113.133 69.5177 110.983 72.2717 109.272C75.4639 107.289 78.969 105.703 82.7662 104.472C92.0922 101.487 101.564 100.861 111.203 102.614C112.101 102.781 113.29 103.032 114.75 103.366L114.771 103.428ZM90.7152 110.816C92.0505 111.025 93.9282 110.858 94.6585 109.48C95.2635 108.333 94.9088 106.934 93.8865 106.141C93.2397 105.64 92.4678 105.307 91.5706 105.181C90.6735 105.056 89.839 105.119 89.067 105.411C87.8569 105.87 87.1058 107.101 87.3353 108.374C87.6274 109.898 89.38 110.607 90.7152 110.816ZM101.523 109.167C100.73 112.736 108.825 112.84 108.554 108.98C108.324 105.745 102.19 106.183 101.523 109.167ZM119.653 112.548C119.528 111.359 118.13 110.545 116.545 110.733C114.959 110.92 113.79 112.026 113.916 113.216C114.041 114.406 115.439 115.219 117.024 115.032C118.61 114.844 119.778 113.738 119.653 112.548ZM106.551 120.52C108.408 120.666 110.786 119.79 110.139 117.411C109.764 115.971 108.366 115.24 106.989 115.136C105.612 115.032 104.131 115.532 103.505 116.889C102.503 119.143 104.694 120.374 106.551 120.52ZM86.2295 118.6C86.3964 117.39 85.2281 116.242 83.6424 116.033C82.0568 115.825 80.6381 116.639 80.4711 117.849C80.3042 119.059 81.4726 120.207 83.0583 120.416C84.6439 120.625 86.0626 119.811 86.2295 118.6ZM121.447 118.705C121.406 117.515 120.196 116.597 118.693 116.639C117.191 116.68 116.044 117.682 116.065 118.851C116.106 120.04 117.316 120.959 118.819 120.917C120.3 120.875 121.468 119.873 121.447 118.705ZM95.5973 122.795C95.7434 121.501 94.3664 120.291 92.5095 120.082C90.6526 119.873 89.0253 120.75 88.9001 122.044C88.754 123.338 90.131 124.548 91.9879 124.757C93.8448 124.965 95.4722 124.089 95.5973 122.795ZM65.5119 125.967C65.8457 126.238 66.409 126.134 66.7428 125.696C67.0766 125.278 67.0766 124.715 66.7428 124.444C66.409 124.172 65.8457 124.277 65.5119 124.715C65.178 125.153 65.178 125.696 65.5119 125.967ZM68.558 128.868C68.8292 128.993 69.2673 128.68 69.5386 128.138C69.7889 127.595 69.7889 127.052 69.4968 126.927C69.2256 126.802 68.7875 127.115 68.5162 127.658C68.2659 128.2 68.2659 128.743 68.558 128.868ZM129.417 128.951C129.605 128.367 129.209 127.699 128.541 127.47C127.853 127.24 127.164 127.553 126.955 128.158C126.768 128.743 127.164 129.411 127.832 129.64C128.52 129.87 129.209 129.557 129.417 128.951ZM72.7098 129.995C73.0437 129.724 73.0437 129.181 72.7098 128.805C72.3969 128.43 71.8544 128.325 71.5415 128.597C71.2077 128.868 71.2077 129.411 71.5415 129.786C71.8544 130.162 72.3969 130.266 72.7098 129.995ZM125.349 130.767C125.558 130.266 125.266 129.682 124.723 129.452C124.16 129.223 123.555 129.452 123.346 129.953C123.137 130.454 123.43 131.038 123.972 131.268C124.535 131.498 125.14 131.268 125.349 130.767ZM117.942 131.727C118.026 131.205 117.567 130.725 116.941 130.621C116.315 130.538 115.752 130.871 115.668 131.372C115.585 131.894 116.044 132.374 116.67 132.478C117.296 132.562 117.859 132.228 117.942 131.727ZM103.859 133.835C103.692 133.104 102.67 132.687 101.543 132.938C100.417 133.167 99.6449 133.96 99.8118 134.711C99.9787 135.442 101.001 135.859 102.128 135.609C103.254 135.379 104.026 134.586 103.859 133.835Z" fill="#EDB197"/>
<path d="M91.466 105.056C92.3632 105.181 93.1351 105.515 93.7819 106.016C94.8042 106.809 95.1589 108.208 94.5539 109.355C93.8236 110.733 91.9459 110.9 90.6106 110.691C89.2754 110.482 87.5228 109.773 87.2307 108.249C86.9803 106.955 87.7523 105.745 88.9624 105.286C89.7344 104.994 90.5689 104.91 91.466 105.056Z" fill="#323E48"/>
<path d="M108.721 109.147C108.992 113.008 100.897 112.903 101.689 109.335C102.357 106.35 108.491 105.891 108.721 109.147Z" fill="#323E48"/>
<path d="M117.047 115.029C118.627 114.849 119.798 113.737 119.662 112.546C119.527 111.355 118.136 110.536 116.556 110.716C114.976 110.896 113.805 112.007 113.941 113.198C114.077 114.389 115.467 115.209 117.047 115.029Z" fill="#323E48"/>
<path d="M106.886 115.032C108.263 115.136 109.661 115.888 110.036 117.307C110.683 119.686 108.304 120.562 106.448 120.416C104.591 120.27 102.379 119.039 103.401 116.785C104.006 115.428 105.488 114.928 106.886 115.032Z" fill="#323E48"/>
<path d="M95.2328 123.27C95.4133 121.898 94.0871 120.593 92.2707 120.354C90.4542 120.114 88.8354 121.032 88.6549 122.403C88.4744 123.775 89.8006 125.08 91.6171 125.319C93.4335 125.559 95.0523 124.641 95.2328 123.27Z" fill="#323E48"/>
<path d="M122.275 119.636C122.419 118.353 121.032 117.144 119.177 116.936C117.322 116.728 115.701 117.599 115.557 118.882C115.413 120.165 116.801 121.374 118.656 121.582C120.511 121.79 122.131 120.919 122.275 119.636Z" fill="#323E48"/>
<path d="M69.442 128.447C69.8408 127.955 69.8447 127.297 69.4507 126.977C69.0567 126.658 68.4139 126.799 68.0151 127.292C67.6163 127.784 67.6124 128.442 68.0064 128.761C68.4004 129.081 69.0431 128.94 69.442 128.447Z" fill="#323E48"/>
<path d="M72.6947 129.983C73.0041 129.725 73.0093 129.221 72.7062 128.859C72.4032 128.496 71.9067 128.412 71.5973 128.671C71.2879 128.929 71.2828 129.433 71.5858 129.796C71.8889 130.158 72.3853 130.242 72.6947 129.983Z" fill="#323E48"/>
<path d="M102.411 135.894C103.707 135.616 104.608 134.696 104.425 133.84C104.241 132.983 103.042 132.514 101.746 132.792C100.451 133.07 99.5492 133.989 99.7328 134.846C99.9163 135.702 101.116 136.171 102.411 135.894Z" fill="#323E48"/>
<path d="M135.738 152.096C134.466 153.578 132.964 154.642 131.253 155.602C125.369 158.941 118.714 161.237 111.996 162.572C106.195 163.741 100.333 164.054 94.4075 163.532C87.4181 162.906 80.6583 161.487 74.1071 159.275C71.812 158.503 69.6214 157.543 67.5559 156.395C64.5723 154.746 61.6723 152.221 61.4219 148.632C61.3802 148.068 61.3802 147.254 61.4219 146.232C61.5471 142.705 62.5068 139.491 64.0507 136.339C64.0925 136.235 64.1551 136.235 64.2177 136.339C65.3443 137.738 66.6587 138.99 68.14 140.075C72.0207 142.934 76.4855 145.042 81.0338 146.545C86.8339 148.465 92.7384 149.55 98.7054 149.821C109.054 150.28 119.381 147.755 128.478 142.809C130.919 141.473 133.172 139.887 135.279 138.009C135.342 137.946 135.405 137.967 135.446 138.03C137.241 141.452 137.7 145.292 137.199 149.112C137.136 149.592 136.969 150.134 136.677 150.739C136.448 151.198 136.135 151.678 135.738 152.138V152.096ZM66.8048 150.489C67.5141 150.28 68.0566 147.985 68.2235 147.171C68.2444 147.045 68.1818 146.92 68.0774 146.858C67.7436 146.67 67.2846 147.108 67.0551 147.4C66.4918 148.068 66.158 148.778 66.0954 149.55C66.0537 149.967 66.2414 150.656 66.8048 150.489ZM71.6034 151.929C72.0415 151.616 72.0833 150.906 71.6869 150.364C71.2905 149.821 70.6228 149.654 70.1847 149.967C69.7465 150.28 69.7048 150.99 70.1012 151.532C70.4976 152.075 71.1653 152.242 71.6034 151.929ZM109.784 155.602C109.68 154.976 108.803 154.6 107.844 154.767C106.884 154.934 106.195 155.581 106.3 156.207C106.404 156.833 107.28 157.209 108.24 157.042C109.2 156.875 109.888 156.228 109.784 155.602ZM99.3939 156.604C99.3104 155.915 98.455 155.435 97.537 155.56C96.5981 155.685 95.9096 156.353 96.014 157.042C96.0974 157.731 96.9528 158.211 97.8708 158.085C98.8097 157.96 99.4982 157.292 99.3939 156.604Z" fill="#EDB197"/>
<path d="M66.8048 150.489C66.2415 150.656 66.0537 149.967 66.0954 149.55C66.158 148.778 66.4918 148.047 67.0552 147.4C67.3055 147.108 67.7437 146.67 68.0775 146.858C68.1818 146.92 68.2444 147.046 68.2235 147.171C68.0566 147.985 67.5142 150.301 66.8048 150.489Z" fill="#323E48"/>
<path d="M71.5948 151.934C72.0329 151.616 72.0697 150.919 71.6768 150.378C71.284 149.838 70.6104 149.657 70.1722 149.976C69.7341 150.294 69.6974 150.991 70.0902 151.532C70.483 152.072 71.1566 152.253 71.5948 151.934Z" fill="#323E48"/>
<path d="M108.262 157.073C109.227 156.905 109.919 156.253 109.808 155.617C109.697 154.981 108.825 154.602 107.86 154.771C106.895 154.939 106.203 155.591 106.314 156.227C106.425 156.863 107.297 157.242 108.262 157.073Z" fill="#323E48"/>
<path d="M97.8469 158.09C98.7835 157.965 99.4673 157.299 99.3744 156.602C99.2814 155.905 98.4468 155.441 97.5102 155.566C96.5737 155.691 95.8898 156.357 95.9828 157.054C96.0757 157.751 96.9103 158.215 97.8469 158.09Z" fill="#323E48"/>
<path d="M139.328 37.4396V40.5491L139.286 55.6794C137.074 55.3872 134.884 55.0116 132.735 54.5524L132.422 41.0917L132.464 37.8987C133.882 37.4813 135.614 37.4396 136.949 37.377C137.68 37.3561 138.472 37.377 139.328 37.4396Z" fill="white"/>
<path d="M180.117 46.1213C180.117 48.4795 178.677 50.3369 176.591 51.7143C174.942 52.8203 173.148 53.7177 171.25 54.3855C168.266 55.4499 165.178 56.222 161.965 56.7438C155.852 57.7246 149.781 58.0168 143.73 57.6203C142.332 57.5159 140.914 57.4116 139.516 57.2655C137.346 57.0359 135.197 56.702 133.048 56.2846C131.692 56.0133 130.148 55.6377 128.458 55.1786C125.746 54.4481 123.242 53.4464 120.905 52.2151C119.466 51.4429 118.193 50.5456 117.129 49.4812C116.065 48.4378 115.397 47.1856 115.147 45.7665C114.521 39.0048 127.394 36.6048 132.735 35.9996C134.529 35.8327 136.345 35.6448 138.139 35.4779C138.139 36.5005 138.097 37.5231 138.097 38.5457C136.303 38.7753 134.488 39.0257 132.693 39.2552C131.588 39.3805 130.085 39.5892 128.333 39.9648C127.248 40.1944 126.163 40.4865 125.12 40.7996C123.346 41.3422 121.469 42.1143 120.05 43.2622C119.299 43.8882 118.944 44.5143 118.882 45.0987C118.84 45.4743 118.798 46.8099 121.949 48.9595C123.659 50.1282 126.789 51.8812 131.796 52.716C133.048 53.1125 134.571 53.4881 136.303 53.7594C137.638 53.9681 138.89 54.0516 139.975 54.0934C139.996 48.8969 140.017 43.7004 140.058 38.504H138.118C138.118 37.4814 138.16 36.4588 138.16 35.4362C138.681 35.3944 139.516 35.3527 140.538 35.2901C151.721 34.7683 159.524 36.2709 167.265 37.8361C170.874 38.5666 173.607 39.5057 176.612 41.3422C178.51 42.5109 179.929 44.0343 180.137 46.0795L180.117 46.1213Z" fill="#323E48"/>
<path d="M129.349 128.96C129.54 128.367 129.153 127.712 128.484 127.496C127.815 127.28 127.118 127.585 126.926 128.177C126.735 128.769 127.122 129.425 127.791 129.641C128.46 129.857 129.157 129.552 129.349 128.96Z" fill="#323E48"/>
<path d="M125.331 130.748C125.536 130.247 125.261 129.66 124.716 129.438C124.172 129.216 123.565 129.442 123.361 129.944C123.156 130.445 123.431 131.032 123.975 131.254C124.519 131.476 125.126 131.25 125.331 130.748Z" fill="#323E48"/>
<path d="M118.305 131.521C118.382 131.008 117.936 130.517 117.309 130.423C116.682 130.329 116.112 130.669 116.035 131.182C115.959 131.695 116.405 132.187 117.031 132.28C117.658 132.374 118.228 132.034 118.305 131.521Z" fill="#323E48"/>
</g>
<defs>
<clipPath id="clip0_506_7643">
<rect width="186" height="169" fill="white"/>
</clipPath>
</defs>
</svg>
