<svg xmlns="http://www.w3.org/2000/svg" width="186" height="169" fill="none"><g clip-path="url(#a)"><path fill="#323E48" d="M184.748 11.332c-1.857-3.777-5.487-6.115-9.347-7.534-3.964-1.46-8.345-2.42-12.309-2.859A144 144 0 0 0 135.26.48c-3.652.292-7.24.814-10.745 1.544a39.2 39.2 0 0 0-7.803 2.484c-5.8 2.567-9.389 7.367-7.115 13.982.063.167.084.355.105.606.876 12.98 2.044 28.403 3.213 45.37.563 8.222 1.356 19.721 2.399 34.517.188 2.588.438 4.55.772 5.886v.062h-.063c-.062.042 2.337 7.075 7.678 11.499 2.733 2.254 5.216 3.005 9.639 4.341 0 0 7.97 2.4 17.943 1.732a47 47 0 0 0 8.804-1.419c7.741-2.003 15.231-6.282 16.879-14.775.146-.71.292-1.42.48-2.108.25-.96.396-1.816.459-2.546.355-3.882.626-6.512.751-7.91 2.045-19.742 3.234-31.492 3.589-35.227q1.971-21.318 3.693-40.32c.229-2.483-.167-4.737-1.19-6.824zm-67.556-.292c1.147-1.92 3.818-3.172 5.904-3.903 5.758-1.961 12.059-2.63 18.11-2.796 6.634-.188 13.123.083 19.445.793 2.712.313 5.633.876 8.783 1.732a24.5 24.5 0 0 1 6.51 2.776q.72.438 1.627 1.314c2.546 2.442 2.462 5.614-.146 7.952a14.8 14.8 0 0 1-3.734 2.441c-3.839 1.795-8.242 2.818-12.393 3.402-7.157.98-14.417 1.002-21.824.021q-5.696-.75-10.703-2.254a34.3 34.3 0 0 1-6.405-2.63c-2.817-1.502-7.407-5.092-5.153-8.827zm52.722 98.67c-2.608 4.445-8.596 6.344-13.436 7.117-6.176 1.001-12.518.918-18.798-.084-3.714-.605-7.678-1.628-10.808-3.735l-.041-.042v-.021h-.021c-1.127-.751-1.982-1.711-2.566-2.922a.85.85 0 0 1-.105-.396v-.021c0-.042.063-.063.105-.042.459.23.751.48 1.21.689.417.188.897.417 1.46.73.063.042.397.146.96.292.292.084.584.188.855.293.418.167.71.292.856.333.48.188.959.251 1.46.46.271.104.459.187.563.208 4.862 1.399 9.514 2.192 13.958 2.359a51.6 51.6 0 0 0 17.38-2.275 30 30 0 0 0 6.801-3.047c.209-.125.272-.084.126.125zm9.869-65.488c-.125 1.503-.271 3.026-.417 4.57a24222 24222 0 0 1-5.446 51.798c-.063.626-.313.981-.876 1.628-.918 1.044-2.024 1.941-3.38 2.734a32.6 32.6 0 0 1-5.967 2.692c-8.22 2.713-16.754 3.423-25.266 1.753l-4.757-1.002a39 39 0 0 1-9.702-3.547 14.3 14.3 0 0 1-3.484-2.526 2.38 2.38 0 0 1-.751-1.627q-1.564-20.692-1.753-22.977a8934 8934 0 0 0-2.628-34.038l-1.753-21.475s.021-.083.084-.042c.855.71 1.815 1.44 2.9 2.15.229.146.542.334.938.522.397.187.71.375.96.521.271.167.668.272 1.023.46.667.354 1.314.688 1.919.98l4.59 1.732c.313.126.668.25 1.001.334.647.167.981.272 1.023.272 1.669.5 2.879.814 3.588.96.835.167 1.419.27 1.711.334 7.72 1.71 15.69 1.836 23.639 1.168 6.008-.5 12.059-1.732 17.567-4.07 2.587-1.105 5.112-2.629 7.031-4.674.104-.104.23-.334.396-.48.042-.042.063-.042.063.042l-2.274 21.83zM88.65 121.251a15 15 0 0 0 2.712-3.047c.167-.271.668-1.064 1.106-2.191 1.127-2.922 1.377-6.011 1.774-9.12 2.17-17.614 4.005-32.494 5.612-45.704.146-1.273.209-2.212.188-2.838-.042-.94-.23-1.878-.522-2.818-.042-.104-.02-.208.042-.313 1.544-2.733 2.232-5.947 1.043-8.91-1.627-4.05-6.384-6.93-10.202-8.64-6.781-3.027-14.146-4.675-21.427-5.51-11.788-1.378-23.451-1.023-34.968 1.043-.042 0-.062 0-.083-.042-3.443-4.445-6.301-8.66-9.91-14.17a80 80 0 0 0-5.905-7.888q-2.347-2.755-4.82-4.759c-1.23-.98-2.42-1.71-3.588-2.17-2.88-1.148-5.988-.73-8.054 1.628C-.354 8.014-.27 11.478.564 14.17c1.126 3.59 3.546 6.783 6.154 9.475 4.632 4.78 9.055 7.93 15.085 12.918l.02.021c0 .042 0 .083-.041.104-3.568 1.587-7.052 4.028-9.076 7.367-2.149 3.527-1.898 7.263-.5 11.145v.146a8.55 8.55 0 0 0-.835 4.779 128 128 0 0 0 .521 4.257 9242 9242 0 0 1 3.881 28.215c.71 5.301 1.565 10.978 2.692 19.033.417 3.005 1.44 6.031 3.546 8.181 1.085 1.106 2.442 2.108 4.027 3.005 3.964 2.254 8.429 3.527 12.831 4.362 4.298.814 8.534 1.336 12.727 1.607 5.008.313 12.831.271 22.24-1.482 0 0 9.723-1.816 14.793-6.052zM38.264 37.815c10.432-1.419 20.947-1.544 31.525-.396 6.885.751 13.583 2.003 19.758 4.716 2.567 1.127 5.967 3.172 7.01 5.844.647 1.627-.333 3.38-1.126 4.862h-.042a6 6 0 0 0-.584-1.001c-2.274-3.11-6.071-5.301-9.68-6.72a56 56 0 0 0-9.014-2.672c-3.86-.814-7.553-1.377-11.058-1.69-8.178-.73-16.315-.751-24.306.292-.146 0-.25-.02-.355-.125-.667-.793-1.126-1.42-2.232-2.838 0-.021-.02-.042-.02-.084 0-.083.04-.167.124-.167zm9.472 28.466c12.727 1.023 25.12-.062 37.18-3.235 3.4-.897 6.53-2.42 9.409-4.59h.042l.041.04s.021.043 0 .063c-2.086 1.69-4.297 3.027-6.655 3.966-3.463 1.377-7.47 2.274-11.412 2.921-5.029.835-9.786 1.336-14.23 1.524a124.6 124.6 0 0 1-23.722-1.315 70 70 0 0 1-9.701-2.17c-2.295-.689-4.444-1.503-6.405-2.693-.188-.125-.188-.146.02-.041 8.096 3.318 16.754 4.862 25.496 5.551zm-24.64-9.475a63 63 0 0 1 12.519-3.401c.104 0 .23.02.27.125 2.108 3.34 7.49 5.071 10.933 2.88 1.357-.856 2.212-2.129 2.567-3.777 0-.063.041-.084.104-.084 8.492-.313 16.712.23 24.66 1.607 0 0 .23.042.71.125 4.528.772 8.888 1.92 13.06 3.486.147.062.147.104 0 .166a54 54 0 0 1-6.196 2.004c-8.303 2.087-16.711 2.796-25.307 2.776-7.866 0-15.565-.835-23.076-2.463-3.609-.793-7.03-1.858-10.265-3.235-.166-.062-.166-.146 0-.209zm-4.256-27.38c-3.171-2.484-6.03-4.988-8.596-7.513a34.8 34.8 0 0 1-4.59-5.614c-1.272-1.94-3.38-6.428-1.272-8.452 1.251-1.21 3.421-.376 4.757.438 2.44 1.461 4.423 3.673 6.05 5.802a840 840 0 0 1 5.112 6.657c1.398 1.837 4.13 5.552 8.199 11.082 2.587 3.527 5.884 7.659 7.428 9.662.083.126.125.25.25.355.209.188.313.313.355.355.542.814 1.189 1.523 1.794 2.316a370 370 0 0 0 7.323 9.204c.71.855-.313 1.732-1.085 1.043a16 16 0 0 1-.667-.751c-.814-.96-2.984-3.59-6.53-7.868a74.2 74.2 0 0 0-13.062-12.396c-.417-.313-2.253-1.753-5.508-4.3zm-2.503 16.716c2.107-2.4 5.028-4.09 8.011-5.28.105-.041.23 0 .292.084a20 20 0 0 0 2.546 3.068l.02.041c0 .042 0 .105-.062.126-2.608 1.064-4.903 2.483-6.843 4.215-1.607 1.44-2.63 3.151-3.088 5.197v.02h-.084c-.918-1.126-2.274-2.566-2.316-3.986-.041-1.273.71-2.546 1.544-3.485zm23.68 76.758a57.5 57.5 0 0 1-8.534-2.171c-1.794-.605-3.442-1.377-4.944-2.358-1.628-1.043-2.775-2.379-3.4-4.007-.293-.751-.523-1.711-.71-2.88-.063-.396-.71-4.654-1.94-12.814-.23-1.544-.418-2.734-.522-3.547a17832 17832 0 0 0-4.924-34.58c-.02-.168.02-.189.146-.063 3.046 3.005 7.115 4.987 11.204 6.406 3.818 1.336 7.782 2.317 11.85 2.985 7.97 1.294 16.274 1.732 24.953 1.294 4.528-.23 8.826-.69 12.832-1.42 5.925-1.064 11.537-2.67 16.44-5.739a17 17 0 0 0 3.463-2.859c.168-.167.21-.146.168.084q-.095.594-.188 1.064c-1.899 13.377-3.902 28.424-6.03 45.182-.313 2.463-.5 4.07-1.127 6.219-1.064 3.611-4.423 5.677-7.782 6.908a53 53 0 0 1-8.679 2.379c-10.62 1.983-21.552 1.837-32.235-.062z"/><path fill="#ECF7F3" d="M36.198 41.843c.209.188.313.313.355.355.542.814 1.189 1.523 1.794 2.316a370 370 0 0 0 7.323 9.204c.71.855-.313 1.732-1.085 1.043a16 16 0 0 1-.667-.751c-.814-.96-2.984-3.59-6.53-7.868a74.2 74.2 0 0 0-13.061-12.396c-.418-.313-2.254-1.753-5.508-4.3-3.172-2.483-6.03-4.987-8.596-7.512a34.8 34.8 0 0 1-4.59-5.614C4.36 14.379 2.253 9.892 4.36 7.868c1.252-1.21 3.422-.376 4.757.438 2.441 1.46 4.423 3.673 6.05 5.802a840 840 0 0 1 5.112 6.657c1.398 1.837 4.131 5.551 8.2 11.082 2.587 3.527 5.883 7.659 7.427 9.662.084.125.125.25.25.355z"/><path fill="#fff" d="M170.686 6.991c2.42.647 4.631 1.586 6.655 2.838.48.292 1.043.752 1.648 1.336 2.588 2.483 2.525 5.739-.146 8.118q-1.658 1.471-3.818 2.504c-3.922 1.837-8.408 2.88-12.664 3.465-7.302 1.001-14.73 1.022-22.282.02-3.86-.5-7.511-1.272-10.933-2.295a37 37 0 0 1-6.53-2.671c-2.859-1.545-7.553-5.197-5.258-9.016 1.168-1.94 3.902-3.235 6.03-3.965 5.862-2.004 12.288-2.692 18.485-2.86q10.171-.281 19.841.815 4.163.47 8.951 1.753z"/><path fill="#fff" d="M150.199 31.012c8.387 0 17.901-.146 27.519-5.718a45 45 0 0 0 4.34-2.901c-.772 7.638-1.565 15.276-2.337 22.914-.376-.187-.793-.48-1.21-.313-2.858-2.19-7.428-5.154-13.603-6.782-4.131-1.085-5.738-.73-16.503-.647-17.234.104-22.199-.751-28.041 3.089a22.2 22.2 0 0 0-5.049 4.59c-.647-8.117-1.315-16.236-1.961-24.333a62.6 62.6 0 0 0 16.753 7.68c8.283 2.4 14.855 2.442 20.113 2.442z"/><path fill="#A0B8D8" d="M40.391 40.904c-.667-.793-1.126-1.419-2.232-2.838-.063-.063-.042-.167.02-.209.022 0 .042-.02.084-.02 10.432-1.42 20.947-1.545 31.525-.397 6.885.751 13.583 2.003 19.758 4.716 2.566 1.127 5.967 3.172 7.01 5.844.647 1.627-.333 3.38-1.126 4.862 0 0-.042.021-.042 0a6 6 0 0 0-.584-1.001c-2.274-3.11-6.071-5.301-9.68-6.72a56 56 0 0 0-9.014-2.672c-3.86-.814-7.553-1.377-11.058-1.69-8.178-.73-16.315-.751-24.306.292-.146 0-.25-.02-.355-.125zm-20.09 7.492c-1.606 1.44-2.628 3.151-3.087 5.197 0 .02-.042.041-.063.041h-.021c-.918-1.127-2.274-2.567-2.316-3.986-.042-1.273.71-2.546 1.544-3.485 2.107-2.4 5.028-4.09 8.012-5.28.104-.042.23 0 .292.084a20 20 0 0 0 2.545 3.067.1.1 0 0 1 0 .146l-.041.021c-2.608 1.065-4.904 2.484-6.844 4.216z"/><path fill="#323E48" d="m138.306 55.074.063-18.052h.438c.208-.02.354-.042.417-.042 7.344-.23 14.709.272 21.97 1.524a54 54 0 0 1 7.99 2.003c2.254.752 4.152 1.67 5.675 2.734.793.543 1.356 1.19 1.711 1.9 1.711 3.4-5.362 6.469-7.719 7.324a49.4 49.4 0 0 1-8.367 2.212 72.6 72.6 0 0 1-22.199.418zm-5.592-17.801.355 18.093c-4.048-1.001-8.659-2.671-12.185-5.238-2.357-1.711-5.049-4.633-2.086-7.555 1.544-1.523 3.63-2.546 5.571-3.255a38.4 38.4 0 0 1 8.345-2.045"/><path fill="#E99DAF" d="M74.88 54.281c4.527.772 8.888 1.92 13.06 3.485.146.063.146.105 0 .167a54 54 0 0 1-6.196 2.004c-8.304 2.087-16.712 2.796-25.308 2.775-7.865 0-15.564-.835-23.075-2.462-3.61-.793-7.031-1.858-10.265-3.235-.167-.063-.167-.146 0-.209a63 63 0 0 1 12.518-3.401c.104 0 .23.02.271.125 2.108 3.339 7.49 5.071 10.933 2.88 1.356-.856 2.212-2.129 2.566-3.778 0-.062.042-.083.105-.083 8.491-.313 16.711.23 24.66 1.607 0 0 .23.042.71.125z"/><path fill="#323E48" d="M132.735 54.302c.25 18.031.521 36.041.772 54.072a41 41 0 0 1-9.723-3.464 14.8 14.8 0 0 1-3.505-2.463 2.33 2.33 0 0 1-.751-1.586c-1.043-13.481-1.648-20.973-1.753-22.455a8670 8670 0 0 0-2.629-33.287l.188-.125c.146.877.418 1.628.73 2.296 3.36 7.012 15.294 7.054 16.691 7.033zm47.423-8.181a170 170 0 0 1-.438 4.487 24748 24748 0 0 1-5.508 50.922c-.063.626-.334.959-.897 1.586-.918 1.022-2.066 1.92-3.422 2.671a31 31 0 0 1-6.05 2.629c-8.304 2.672-16.963 3.36-25.579 1.712.229-6.199.396-12.439.542-18.741.292-12.313.417-24.438.397-36.333 13.227-3.09 26.476-6.178 39.703-9.287.417.104.814.187 1.231.292z"/><path fill="#A0B8D8" d="M94.387 58.56c-2.086 1.69-4.298 3.026-6.655 3.965-3.464 1.377-7.47 2.274-11.413 2.921-5.028.835-9.785 1.336-14.229 1.524-8.012.313-15.94-.125-23.722-1.315a70 70 0 0 1-9.702-2.17c-2.294-.689-4.443-1.503-6.405-2.692-.187-.126-.187-.146.021-.042 8.095 3.318 16.754 4.862 25.496 5.551 12.727 1.023 25.12-.062 37.179-3.235 3.4-.897 6.53-2.42 9.41-4.59h.041l.042.04s.02.043 0 .063z"/><path fill="#A0B8D8" d="M92.426 63.986a17 17 0 0 0 3.463-2.86c.167-.167.209-.146.167.084q-.094.594-.188 1.064c-1.898 13.377-3.901 28.424-6.03 45.182-.312 2.463-.5 4.07-1.126 6.219-1.064 3.611-4.423 5.677-7.782 6.908a53 53 0 0 1-8.68 2.379c-10.62 1.983-21.552 1.837-32.234-.062a57.5 57.5 0 0 1-8.533-2.171c-1.794-.605-3.443-1.377-4.945-2.358-1.627-1.043-2.775-2.379-3.4-4.007-.293-.751-.522-1.711-.71-2.88-.063-.396-.71-4.654-1.94-12.814-.23-1.544-.418-2.734-.522-3.547a17843 17843 0 0 0-4.924-34.581c-.02-.167.021-.188.146-.063 3.046 3.006 7.115 4.988 11.204 6.407 3.818 1.336 7.782 2.317 11.85 2.985 7.97 1.294 16.274 1.732 24.954 1.294 4.527-.23 8.825-.69 12.83-1.42 5.926-1.064 11.539-2.67 16.442-5.739z"/><path fill="#fff" d="M132.839 56.055c2.128.48 4.277.856 6.405 1.106 0 .334-.02 1.023-.02 2.108 0 10.915-.063 21.809-.209 32.723-.084 6.47-.271 12.96-.563 19.45l-4.862-1.022-.772-54.365z"/><path fill="#323E48" d="M83.04 120.118c1.544-.043 2.767-1.077 2.733-2.31-.035-1.233-1.314-2.197-2.857-2.154s-2.767 1.077-2.733 2.31c.035 1.233 1.314 2.197 2.857 2.154"/><path fill="#ECF7F3" d="M126.204 112.903a7.2 7.2 0 0 1-2.608-2.984c-.083-.167-.125-.292-.104-.418 0-.041.041-.083.083-.083h.042c.48.23.772.501 1.252.689q.626.282 1.502.751c.062.042.396.146.98.292.313.084.605.188.877.292.438.167.73.292.876.355.48.188.981.251 1.481.459.272.105.459.188.584.209 4.966 1.419 9.723 2.233 14.25 2.4 6.051.25 11.976-.522 17.735-2.337a31.7 31.7 0 0 0 6.947-3.11c.23-.146.271-.083.146.125-2.649 4.529-8.783 6.47-13.707 7.263-6.301 1.022-12.79.939-19.174-.084-3.797-.605-7.845-1.648-11.037-3.819l-.042-.042v-.02h-.02z"/><path fill="#323E48" d="M138.972 133.877c.898 1.231 1.523 2.4 1.899 3.506 1.085 3.214 1.189 6.824.855 10.184-.271 2.734-1.105 4.863-2.816 6.95-2.045 2.483-4.674 4.528-7.449 6.198a52 52 0 0 1-7.135 3.569c-8.074 3.234-16.441 4.82-25.057 4.737a70.1 70.1 0 0 1-22.387-3.903 59 59 0 0 1-9.034-3.965c-1.982-1.085-3.735-2.254-5.237-3.506-3.108-2.608-4.82-5.906-5.403-9.85-.376-2.588-.397-5.155 0-7.722.438-3.088 1.69-5.739 3.546-8.201.021-.042.042-.084 0-.147a26.3 26.3 0 0 1-1.982-10.038c0-1.21.084-2.295.23-3.214 1.168-6.74 6.697-11.415 12.351-14.566 7.907-4.404 16.983-6.658 26.017-7.054 6.468-.292 12.581.375 18.381 2.003 7.198 2.025 14.354 5.781 19.758 11.04 2.358 2.296 4.298 5.071 5.237 8.202.667 2.275.772 4.716.584 7.179-.209 3.005-1.001 5.802-2.399 8.431a.18.18 0 0 0 0 .146zm-24.097-30.114a93 93 0 0 0-3.547-.752c-9.639-1.753-19.111-1.148-28.437 1.858-3.818 1.231-7.303 2.817-10.495 4.8-2.754 1.711-5.362 3.86-7.135 6.511-1.44 2.17-2.15 4.549-2.107 7.137.041 3.444 1.085 6.47 3.672 8.828 2.816 2.567 6.467 4.257 10.098 5.447 3.734 1.231 7.51 2.108 11.37 2.775 9.91 1.67 19.758 1.503 29.564-.521a53 53 0 0 0 8.054-2.359c4.444-1.711 9.618-4.695 11.057-9.558.23-.751.313-1.815.313-3.193-.041-3.026-.354-6.407-2.002-8.994-.459-.731-1.023-1.42-1.649-2.087-4.882-5.134-11.934-8.223-18.735-9.83zm21.802 46.935c.292-.606.459-1.127.522-1.628.501-3.798.063-7.659-1.753-11.082-.041-.083-.104-.083-.166-.021-2.108 1.879-4.361 3.486-6.802 4.8-9.097 4.967-19.424 7.472-29.773 7.012a65.3 65.3 0 0 1-17.671-3.276c-4.548-1.503-9.013-3.61-12.894-6.47-1.481-1.106-2.796-2.337-3.922-3.735-.063-.084-.126-.084-.167 0-1.523 3.151-2.504 6.365-2.629 9.892-.042 1.043-.042 1.836 0 2.4.25 3.569 3.15 6.115 6.134 7.763a39 39 0 0 0 6.551 2.88 88 88 0 0 0 20.3 4.258c5.947.521 11.809.208 17.589-.96 6.697-1.357 13.352-3.632 19.257-6.971 1.69-.96 3.192-2.024 4.486-3.506.396-.459.709-.939.938-1.398z"/><path fill="#EDB197" d="M114.771 103.428c6.802 1.607 13.854 4.696 18.736 9.83.626.668 1.189 1.356 1.648 2.087 1.648 2.587 1.961 5.968 2.003 8.994 0 1.378-.084 2.442-.313 3.193-1.44 4.863-6.614 7.847-11.058 9.559a52.4 52.4 0 0 1-8.053 2.358c-9.806 2.024-19.654 2.212-29.564.521-3.86-.646-7.636-1.523-11.37-2.775-3.631-1.211-7.282-2.88-10.099-5.447-2.587-2.358-3.63-5.384-3.672-8.828a12.24 12.24 0 0 1 2.107-7.137c1.774-2.65 4.382-4.8 7.136-6.511 3.192-1.983 6.697-3.569 10.494-4.8 9.326-2.985 18.798-3.611 28.437-1.858.898.167 2.087.418 3.547.752zm-24.056 7.388c1.335.209 3.213.042 3.944-1.336.604-1.147.25-2.546-.773-3.339a4.8 4.8 0 0 0-2.315-.96c-.897-.125-1.732-.062-2.504.23-1.21.459-1.961 1.69-1.732 2.963.292 1.524 2.045 2.233 3.38 2.442m10.808-1.649c-.793 3.569 7.302 3.673 7.031-.187-.23-3.235-6.364-2.797-7.031.187m18.13 3.381c-.125-1.189-1.523-2.003-3.108-1.815-1.586.187-2.755 1.293-2.629 2.483s1.523 2.003 3.108 1.816 2.754-1.294 2.629-2.484m-13.102 7.972c1.857.146 4.235-.73 3.588-3.109-.375-1.44-1.773-2.171-3.15-2.275s-2.858.396-3.484 1.753c-1.002 2.254 1.189 3.485 3.046 3.631M86.23 118.6c.166-1.21-1.002-2.358-2.588-2.567-1.585-.208-3.004.606-3.17 1.816-.168 1.21 1 2.358 2.586 2.567s3.005-.605 3.171-1.816m35.217.105c-.041-1.19-1.251-2.108-2.754-2.066-1.502.041-2.649 1.043-2.628 2.212.041 1.189 1.251 2.108 2.754 2.066 1.481-.042 2.649-1.044 2.628-2.212m-25.85 4.09c.146-1.294-1.23-2.504-3.087-2.713s-3.485.668-3.61 1.962c-.146 1.294 1.231 2.504 3.088 2.713 1.857.208 3.484-.668 3.61-1.962m-30.085 3.172c.334.271.897.167 1.23-.271.335-.418.335-.981 0-1.252-.333-.272-.896-.167-1.23.271s-.334.981 0 1.252m3.046 2.901c.271.125.71-.188.98-.73.25-.543.25-1.086-.041-1.211-.271-.125-.71.188-.98.731-.251.542-.251 1.085.041 1.21m60.859.083c.188-.584-.208-1.252-.876-1.481-.688-.23-1.377.083-1.586.688-.187.585.209 1.253.877 1.482.688.23 1.377-.083 1.585-.689m-56.707 1.044c.334-.271.334-.814 0-1.19-.313-.375-.856-.48-1.168-.208-.334.271-.334.814 0 1.189.312.376.855.48 1.168.209m52.639.772c.209-.501-.083-1.085-.626-1.315-.563-.229-1.168 0-1.377.501s.084 1.085.626 1.315c.563.23 1.168 0 1.377-.501m-7.407.96c.084-.522-.375-1.002-1.001-1.106-.626-.083-1.189.25-1.273.751-.083.522.376 1.002 1.002 1.106.626.084 1.189-.25 1.272-.751m-14.083 2.108c-.167-.731-1.189-1.148-2.316-.897-1.126.229-1.898 1.022-1.731 1.773.167.731 1.189 1.148 2.316.898 1.126-.23 1.898-1.023 1.731-1.774"/><path fill="#323E48" d="M91.466 105.056c.897.125 1.67.459 2.316.96 1.022.793 1.377 2.192.772 3.339-.73 1.378-2.608 1.545-3.943 1.336-1.336-.209-3.088-.918-3.38-2.442-.25-1.294.521-2.504 1.731-2.963.772-.292 1.607-.376 2.504-.23m17.255 4.091c.271 3.861-7.824 3.756-7.032.188.668-2.985 6.802-3.444 7.032-.188m8.326 5.882c1.58-.18 2.751-1.292 2.615-2.483s-1.526-2.01-3.106-1.83-2.751 1.291-2.615 2.482 1.526 2.011 3.106 1.831m-10.161.003c1.377.104 2.775.856 3.15 2.275.647 2.379-1.732 3.255-3.588 3.109s-4.069-1.377-3.047-3.631c.605-1.357 2.087-1.857 3.485-1.753m-11.653 8.238c.18-1.372-1.146-2.677-2.962-2.916-1.817-.24-3.436.678-3.616 2.049-.18 1.372 1.146 2.677 2.962 2.916 1.816.24 3.435-.678 3.616-2.049m27.042-3.634c.144-1.283-1.243-2.492-3.098-2.7s-3.476.663-3.62 1.946 1.244 2.492 3.099 2.7 3.475-.663 3.619-1.946m-52.833 8.811c.399-.492.403-1.15.009-1.47-.394-.319-1.037-.178-1.436.315-.399.492-.403 1.15-.009 1.469s1.037.179 1.436-.314m3.253 1.536c.31-.258.314-.762.011-1.124s-.8-.447-1.109-.188c-.31.258-.314.762-.011 1.125.303.362.8.446 1.109.187m29.716 5.911c1.296-.278 2.197-1.198 2.014-2.054-.184-.857-1.383-1.326-2.679-1.048s-2.197 1.197-2.013 2.054c.183.856 1.383 1.325 2.678 1.048"/><path fill="#EDB197" d="M135.738 152.096c-1.272 1.482-2.774 2.546-4.485 3.506-5.884 3.339-12.539 5.635-19.257 6.97a61.3 61.3 0 0 1-17.588.96 87.6 87.6 0 0 1-20.3-4.257 39 39 0 0 1-6.552-2.88c-2.984-1.649-5.884-4.174-6.134-7.763-.042-.564-.042-1.378 0-2.4.125-3.527 1.085-6.741 2.629-9.893.041-.104.104-.104.167 0a20.8 20.8 0 0 0 3.922 3.736c3.88 2.859 8.346 4.967 12.894 6.47a65.5 65.5 0 0 0 17.671 3.276c10.349.459 20.676-2.066 29.773-7.012a36.5 36.5 0 0 0 6.801-4.8c.063-.063.126-.042.167.021 1.795 3.422 2.254 7.262 1.753 11.082-.063.48-.23 1.022-.522 1.627a6.8 6.8 0 0 1-.939 1.399zm-68.933-1.607c.71-.209 1.252-2.504 1.418-3.318a.31.31 0 0 0-.146-.313c-.333-.188-.792.25-1.022.542-.563.668-.897 1.378-.96 2.15-.041.417.146 1.106.71.939m4.798 1.44c.439-.313.48-1.023.084-1.565-.397-.543-1.064-.71-1.502-.397-.439.313-.48 1.023-.084 1.565.397.543 1.064.71 1.502.397m38.181 3.673c-.104-.626-.981-1.002-1.94-.835-.96.167-1.649.814-1.544 1.44s.98 1.002 1.94.835 1.648-.814 1.544-1.44m-10.39 1.002c-.084-.689-.939-1.169-1.857-1.044-.939.125-1.627.793-1.523 1.482.083.689.939 1.169 1.857 1.043.939-.125 1.627-.793 1.523-1.481"/><path fill="#323E48" d="M66.805 150.489c-.564.167-.751-.522-.71-.939.063-.772.397-1.503.96-2.15.25-.292.689-.73 1.022-.542a.31.31 0 0 1 .147.313c-.167.814-.71 3.13-1.42 3.318m4.791 1.445c.438-.318.475-1.015.082-1.556-.393-.54-1.067-.721-1.505-.402s-.475 1.015-.082 1.556c.393.54 1.067.721 1.505.402m36.667 5.139c.965-.168 1.657-.82 1.546-1.456s-.983-1.015-1.948-.846-1.657.82-1.546 1.456.983 1.015 1.948.846m-10.415 1.017c.937-.125 1.62-.791 1.527-1.488s-.927-1.161-1.864-1.036c-.936.125-1.62.791-1.527 1.488s.927 1.161 1.864 1.036"/><path fill="#fff" d="M139.328 37.44v3.11l-.042 15.13a84 84 0 0 1-6.551-1.128l-.313-13.46.042-3.193c1.418-.418 3.15-.46 4.485-.522q1.096-.03 2.379.063"/><path fill="#323E48" d="M180.117 46.121c0 2.358-1.44 4.216-3.526 5.593a23.7 23.7 0 0 1-5.341 2.672c-2.984 1.064-6.072 1.836-9.285 2.358a81.2 81.2 0 0 1-18.235.876c-1.398-.104-2.816-.208-4.214-.354a76 76 0 0 1-6.468-.981 71 71 0 0 1-4.59-1.106 36.5 36.5 0 0 1-7.553-2.964c-1.439-.772-2.712-1.67-3.776-2.734-1.064-1.043-1.732-2.295-1.982-3.715-.626-6.761 12.247-9.161 17.588-9.766 1.794-.167 3.61-.355 5.404-.522 0 1.023-.042 2.045-.042 3.068-1.794.23-3.609.48-5.404.71a45 45 0 0 0-4.36.709c-1.085.23-2.17.521-3.213.835-1.774.542-3.651 1.314-5.07 2.462-.751.626-1.106 1.252-1.168 1.837-.042.375-.084 1.71 3.067 3.86 1.71 1.17 4.84 2.922 9.847 3.757 1.252.396 2.775.772 4.507 1.043a31 31 0 0 0 3.672.334c.021-5.196.042-10.393.083-15.589h-1.94c0-1.023.042-2.045.042-3.068.521-.042 1.356-.083 2.378-.146 11.183-.522 18.986.98 26.727 2.546 3.609.73 6.342 1.67 9.347 3.506 1.898 1.169 3.317 2.692 3.525 4.738zm-50.768 82.839c.191-.593-.196-1.248-.865-1.464s-1.366.089-1.558.681.196 1.248.865 1.464 1.366-.089 1.558-.681m-4.018 1.788c.205-.501-.07-1.088-.615-1.31s-1.151.004-1.355.506c-.205.501.07 1.088.614 1.31s1.151-.004 1.356-.506m-7.026.773c.077-.513-.369-1.004-.996-1.098s-1.197.246-1.274.759.37 1.005.996 1.098c.627.094 1.197-.246 1.274-.759"/></g><defs><clipPath id="a"><path fill="#fff" d="M0 0h186v169H0z"/></clipPath></defs></svg>