<svg xmlns="http://www.w3.org/2000/svg" width="177" height="177" fill="none"><g clip-path="url(#a)"><path fill="#fff" d="M45.563 122.558c.256-.183.53-.348.823-.476a6.4 6.4 0 0 0-.824.476m-1.738 1.757c.202-.311.44-.604.714-.897-.274.275-.494.586-.714.897m5.584-2.764s.128 0 .202.019c-.074 0-.129 0-.202-.019m-17.135-7.816c.183-.11.385-.22.586-.348a3.2 3.2 0 0 0-.586.348m11.588-8.988c.842.201 1.538.53 1.96.787a6.2 6.2 0 0 0-1.96-.787m-.568 20.539a10 10 0 0 1 .384-.732 5.6 5.6 0 0 0-.384.732m3.992-18.453c.513.678.952 1.556 1.318 2.38a6.9 6.9 0 0 0-1.318-2.38M32.768 62.808a1.6 1.6 0 0 0 .42-.22c-.128.073-.256.128-.42.22m-1.154 51.402c-1.336 1.154-1.775 2.582-1.94 3.167.44-1.299 1.025-2.251 1.94-3.167m11.57-9.573c.146 0 .274.036.402.073-.128-.018-.274-.055-.402-.073m-6.791 11.66a7.9 7.9 0 0 1-1.336-3.331 7.56 7.56 0 0 0 1.336 3.331m59.842-14.022s-.129-.036-.202-.073a1 1 0 0 0 .202.073M80.6 98.12h.018c-.054 0-.091-.055-.128-.092.037.019.055.073.092.073zm12.614-20.924s0 .055-.036.073c.018-.019.018-.055.036-.073M80.4 97.955s0-.092-.02-.128c0 .036 0 .091.02.128m12.833-20.869s-.019-.073-.055-.11a.2.2 0 0 1 .055.129zM75.934 93.397l.951-.165zm-.349-2.637s-.036-.09-.036-.146c0 .055 0 .11.036.147m.238.165h.055c-.074 0-.11-.055-.165-.092.037.018.055.073.11.073zm-32.585 34.47a7.5 7.5 0 0 0-.494 1.537c.092-.403.238-.952.494-1.537m54.059-24.622s.073-.018.11-.037c-.037 0-.073 0-.11.037m-.129.147v.073c0-.055.037-.092.073-.128 0 .018-.036.036-.055.055zm-45.545 21.326s.165.092.238.128c-.073-.055-.165-.091-.238-.128M32.604 57.133a3.4 3.4 0 0 0-.696-.293c.183.073.366.146.531.256.055.037.11.037.165.037M94.55 84.408h.146c-.073.019-.146-.018-.22-.055.037 0 .037.055.074.055m2.16 17.721s-.183.11-.274.146h.128a1 1 0 0 0 .164-.128zm-2.36-17.885s-.056-.091-.092-.146c.018.055.036.11.091.146M85.946 35.99s-.055-.055-.073-.092a.27.27 0 0 0 .165.183c.952.55 1.629 1.117 2.16 1.812-.531-.732-1.227-1.354-2.233-1.922zm-.824 14.425c.11 2.416-1.574 4.466-3.79 4.558-1.335.055-2.544-.623-3.312-1.684.768 1.135 2.013 1.867 3.404 1.794 2.197-.092 3.9-2.142 3.79-4.558a4.64 4.64 0 0 0-.86-2.508c.457.677.75 1.5.787 2.398zm60.391 32.621c-.366.018-.751.055-1.172.11a60 60 0 0 1-3.331.31 51 51 0 0 0 3.514-.31c.348-.037.678-.074.989-.092zm5.457-1.941c-1.849-1.208-2.801-3.716-3.698-6.096-.384-1.043-.86-1.739-1.465-2.233-1.171-.952-2.416-1.025-4.375-1.226a73 73 0 0 1-4.832-.641c1.556.33 3.112.604 4.668.75 2.983.275 4.759.605 5.784 3.424.879 2.38 1.831 4.85 3.661 6.059.147.091.33.128.495.073a.44.44 0 0 1-.257-.091zM84.812 45.637a.67.67 0 0 1-.53-.055 9.4 9.4 0 0 0-3.607-.989c-.037 0-.055-.018-.073-.036 0 .055.036.091.073.11.018 0 .055.018.091.036a9.5 9.5 0 0 1 3.607.989.68.68 0 0 0 .53.055c3.057-.989 3.79-4.961 2.032-7.176 1.648 2.233.897 6.096-2.105 7.066zm16.437-7.432c-.329 3.716-4.411 5.418-6.956 2.47v.037c2.544 3.057 6.682 1.355 7.029-2.398.11-1.3-.256-2.453-.951-3.313.64.842.988 1.977.878 3.204m6.811-5.401c.769 3.167-1.336 6.023-4.778 5.547-.128 0-.201-.073-.274-.128a.49.49 0 0 0 .348.238c3.459.476 5.565-2.362 4.777-5.547a4.3 4.3 0 0 0-.695-1.483c.293.421.494.879.622 1.373m-7.433.256c.311.366.586.696.842 1.025-.256-.33-.531-.677-.842-1.043zm43.99 61.088c-.256-1.611-1.099-2.71-2.49-3.314-3.588-1.5-7.432-2.892-9.318-6.425-.183-.33-.292-.44-.366-.366.074.036.165.146.275.366 1.867 3.514 5.675 4.887 9.244 6.37 1.392.586 2.215 1.684 2.472 3.277.384 2.27.183 5.345 1.666 7.945.091.146.201.238.311.256-.037-.037-.092-.055-.128-.11-1.501-2.636-1.3-5.73-1.685-8.018zm-23.413-23.707c-2.893-3.24-6.316-5.528-10.233-6.865-1.135-.384-1.996-1.025-2.6-1.812.604.86 1.501 1.575 2.709 1.995 3.881 1.319 7.268 3.588 10.142 6.81.366.421.549.842.567 1.263 0-.457-.183-.915-.585-1.372zm15.468 12.54c.531.348 1.117.403 1.666.421a7.2 7.2 0 0 1-1.666-.421m-12.32 7.981c.201 1.19.165 2.416-.11 3.716v.073c.275-1.318.311-2.58.092-3.79zm25.244-4.924c-1.007-1.208-2.069-1.52-3.442-1.501 1.263 0 2.27.348 3.204 1.483 1.373 1.647 2.746 4.521 5.345 6.169.11.073.22.091.33.091-.019 0-.037 0-.055-.036-2.618-1.666-4.009-4.558-5.382-6.224zm-14.224 7.817c-2.563-3.625-5.034-6.48-4.448-11.02.018-.184-.11-.348-.275-.367-2.709-.366-4.485-1.812-5.29-4.338-.494-1.556-1.153-3.094-1.959-4.65a.213.213 0 0 0-.293-.092.2.2 0 0 0-.091.11c-.476 1.154-1.154 2.655-2.032 4.467-.934 1.922-.476 3.643.897 5.455 1.373 1.794 2.654 3.478 3.441 5.309-.787-1.83-2.068-3.515-3.423-5.309-1.373-1.812-1.812-3.515-.897-5.418a77 77 0 0 0 2.014-4.43c.036-.11.164-.165.274-.11a.5.5 0 0 1 .11.091c.787 1.538 1.446 3.076 1.941 4.613.805 2.508 2.562 3.936 5.253 4.302.183.019.293.183.275.366-.568 4.504 1.867 7.341 4.412 10.929 2.764 3.88-2.673 7.597-2.307 11.771a.54.54 0 0 0 .128.348c0-.055-.036-.092-.055-.165-.384-4.229 5.108-7.963 2.325-11.88zM134 83.182c.11 0 .275.055.567.256 1.575 1.044 3.222 1.428 4.943 1.52-1.684-.11-3.295-.513-4.833-1.52-.366-.256-.585-.33-.659-.238zM80.803 85.05h-.055c.055 0 .11.017.165.036-.037 0-.073-.055-.128-.037zM47.412 65.297c.092-.11.202-.183.311-.256-.146.11-.256.201-.31.256m4.392-1.189a2.65 2.65 0 0 1-.33-3.753l4.797-5.712a2.73 2.73 0 0 1 1.812-.952 2.65 2.65 0 0 0-1.812.952l-4.796 5.712c-.952 1.135-.806 2.819.33 3.753m2.782 1.317a2.5 2.5 0 0 1-1.026-.11c.33.11.678.129 1.026.11m7.213-8.603c.037.348 0 .677-.11 1.025.11-.33.128-.677.11-1.025m-31.285 0c.128-.037.256-.074.384-.092a1.3 1.3 0 0 0-.384.092m21.748 12.631c.128-.128.201-.257.274-.385-.091.129-.164.238-.274.385m-4.998-15.176-.403-1.007zm2.124 10.288c-.166 0-.44 0-.751.073.183-.036.384-.036.604-.018.055 0 .11 0 .164-.055zm44.373-27.99c-.22 2.453-1.538 3.88-3.936 4.247-.091 0-.201 0-.274-.055.091.11.201.183.348.165 2.398-.385 3.716-1.794 3.935-4.247a3.98 3.98 0 0 0-.622-2.6c.44.733.622 1.575.55 2.49m-2.308-9.5a4.6 4.6 0 0 0-.897-2.49c.457.659.769 1.483.823 2.38.147 2.416-1.5 4.485-3.716 4.631-1.336.092-2.562-.567-3.35-1.647.788 1.135 2.05 1.83 3.442 1.739 2.197-.147 3.863-2.215 3.716-4.632zm-2.032-5.455s-.074-.074-.092-.11a.43.43 0 0 0 .183.219c.787.512 1.446.989 1.995 1.556-.567-.604-1.244-1.117-2.068-1.666zm7.726-.898c.293 2.783-1.006 4.449-3.899 4.98-.201.036-.366-.074-.476-.238a.49.49 0 0 0 .55.33c2.892-.532 4.192-2.198 3.899-4.98-.092-.934-.366-1.684-.787-2.27l-.074-.073c.421.567.678 1.318.77 2.233zM80.344 40.255c-.019 2.435-1.83 4.375-4.028 4.357-1.098 0-2.086-.513-2.8-1.3.714.842 1.739 1.391 2.874 1.41 2.215.018 4.009-1.94 4.027-4.357 0-1.227-.44-2.325-1.153-3.13.677.787 1.08 1.848 1.08 3.02M48.126 64.767s-.074.055-.11.073c.055-.019.11-.055.164-.073zm39.468 22.131a.6.6 0 0 0 .33-.22c-.074.129-.202.184-.33.22m13.547-.073c-.055-.128-.073-.22-.092-.238-.073-.202-.183-.348-.311-.403.128.073.238.201.311.403 0 .018.037.11.092.238m7.011 11.899s.128.018.183 0c0 0-.128.018-.183 0m-25.738-1.868c.147.055.256.184.366.348.055.092.092.238.128.44a1.05 1.05 0 0 0-.128-.44 1.1 1.1 0 0 0-.366-.348m19.312-9.097c-.201-.055-.329-.165-.384-.366a.59.59 0 0 0 .384.366M77.361 89.37a.57.57 0 0 1 .055.42.66.66 0 0 0-.055-.42m-.073.604s-.073.128-.128.164c.055-.036.092-.11.128-.164m32.346 5.583a.57.57 0 0 1-.128-.385c0 .129.055.275.146.367zm-3.131-7.414a.65.65 0 0 1-.091-.55c-.055.202 0 .385.091.55m1.722 8.787v.055a.52.52 0 0 1 .219-.366.64.64 0 0 0-.219.31m2.232-.347s-.018-.128-.091-.183c0 0 .091.128.091.183m-2.122.861a.6.6 0 0 1-.11-.421c0 .146 0 .292.11.42"/><path fill="#fff" d="M171.819 88.509c0-45.948-37.381-83.31-83.31-83.31S5.178 42.56 5.178 88.509s37.381 83.31 83.311 83.31 83.31-37.38 83.31-83.31zm-56.017-36.905c6.517 2.307 11.826 6.06 15.927 11.295 1.464 1.885 2.379 3.753 4.063 4.595 2.179 1.08 5.401 1.171 6.938 1.281 7.085.494 6.609 6.352 9.739 10.233.531.64.732 1.227.641 1.721-.293 1.501-1.941 2.49-3.295 1.538-2.288-1.593-3.35-4.742-4.54-7.616a2.42 2.42 0 0 0-2.032-1.464l-5.675-.421c-.22 0-.293.073-.201.293 1.226 2.929 1.043 5.583-.568 7.963-.128.201-.091.348.128.457 1.923.952 4.687.55 7.012.239 3.441-.44 6.297.146 8.274 3.111 1.794 2.673 3.332 4.486 4.595 5.437.329.238.439.678.347 1.337-.201 1.464-1.08 2.142-2.617 2.032-.568-.037-1.373-.623-2.453-1.758a26.4 26.4 0 0 1-3.314-4.375c-.768-1.281-1.94-1.684-3.496-1.483-1.922.238-3.551.385-4.851.44-.659.018-.677.165-.073.403 2.947 1.19 5.253 2.178 6.571 5.07.238.513.458 1.886.678 4.119.201 2.069.586 3.826 1.171 5.272.22.531 0 1.08-.677 1.648q-1.785 1.51-3.185-.275c-1.52-1.94-1.538-4.778-1.776-7.945-.11-1.41-.75-2.178-2.068-2.8-.934-.44-2.472-1.08-4.614-1.94-.183-.074-.219-.037-.109.145q.192.303 1.043 1.483c2.654 3.662 1.574 6.938-.494 10.545-.677 1.189-.824 2.324-1.099 3.862-.183.989-1.556 1.757-2.636 1.428-2.983-.879-1.061-5.638-.055-7.341.696-1.171 1.19-2.306 1.502-3.386.384-1.392-1.318-3.332-2.801-5.456-1.629-2.324-2.435-4.613-2.417-6.9 0-.44-.201-.715-.64-.843-2.563-.714-4.284-2.71-5.144-6.023q-.357-1.345-.879-.055l-.732 1.813a2.33 2.33 0 0 0 .293 2.288c3.203 4.357 6.224 7.835 4.796 13.638q-.357 1.428-1.812 1.593c-.33.036-.531.054-.586.036-1.355-.366-1.941-1.171-1.739-2.416.677-4.32-1.282-6.26-3.515-9.355-3.149-4.356-1.849-7.12.458-11.624.256-.476.402-.915.457-1.336.019-.183 0-.348-.128-.494-2.178-2.728-5.4-4.906-9.684-6.536-8.823-3.368-4.082-16.786 5.254-13.491zM80.545 36.337c.22.22.458.238.732.092.824-.458 1.776-.696 2.856-.696.183 0 .293-.091.348-.256l.805-2.362c.055-.146 0-.33-.146-.403-2.325-1.446-3.332-3.46-3.075-6.077.31-2.929 2.508-5.053 5.491-5.199.165 0 .293-.146.312-.311.292-4.503 5.327-7.689 9.024-4.192 3.68 3.478 1.886 9.867-3.533 10.343-.183.018-.293.128-.33.31-.127 1.026-.493 2.051-1.08 3.095-.127.238-.073.402.166.512.823.366 1.5.915 2.068 1.648.11.128.22.146.366.055 1.208-.806 2.636-1.044 4.265-.714.184.036.312-.019.385-.202 1.757-3.954 6.389-5.144 9.208-1.739 3.405 4.12.238 10.8-5.474 9.61-.183-.036-.329.038-.421.202-.732 1.465-1.409 2.38-2.05 2.746-2.782 1.574-5.236 1.208-7.322-1.135-.129-.146-.293-.183-.458-.073-1.007.53-1.995.787-2.984.787-.201 0-.348.11-.384.311-.531 2.105-1.648 3.533-3.369 4.302-.183.092-.237.22-.128.403 2.069 3.661.604 8.238-3.716 9.153-2.6.549-5.162-1.3-6.004-3.881-.696-2.142-.256-4.192 1.355-6.17q.165-.219-.11-.219c-3.588-.091-5.675-1.647-6.224-4.704-1.062-5.693 4.997-9.446 9.464-5.218zM49.37 62.295c-.11-.403-.11-1.044.403-1.977 1.885-2.307 3.79-4.595 5.675-6.901.384-.312 1.153-.88 2.288-1.062.201-.037 2.49-.366 4.155 1.3 1.135 1.134 1.63 2.855 1.172 4.76-.183.75-.824 1.72-1.922 2.873-1.19 1.263-2.636 2.947-4.339 5.034-.292.348-1.006.604-2.196.787a.43.43 0 0 0-.348.348 1.4 1.4 0 0 0 0 .55c.11.915-.238 1.702-.842 2.416a192 192 0 0 0-4.796 6.022c-.842 1.099-2.105 2.49-3.497 2.746-4.686.842-7.633-3.917-4.814-7.707.695-.933 2.636-3.313 5.84-7.157.658-.787 1.427-1.227 2.306-1.3a3.9 3.9 0 0 1 1.208.018c-.091-.238-.22-.476-.293-.75m-27.55 5.602c-4.503-1.52-4.815-7.122-.513-9.08q1.566-.715 8.567-3.46c.97-.366 1.85-.385 2.655-.018.274.091.659.274 1.043.604.037-.256.037-.513.11-.787.11-.403.403-.97 1.3-1.538 2.764-1.099 5.528-2.215 8.292-3.314a5 5 0 0 1 2.526.165c.202.073 2.362.86 3.021 3.149.44 1.538.055 3.295-1.263 4.741q-.797.852-3.075 1.593c-1.648.53-3.735 1.318-6.224 2.325-.422.164-1.19.054-2.289-.367a.47.47 0 0 0-.476.129 2 2 0 0 0-.274.476c-.348.86-1.025 1.373-1.886 1.702a265 265 0 0 0-7.103 2.966c-1.263.549-3.038 1.171-4.393.713zm11.093 59.237c-4.009-1.464-5.052-5.967-4.887-8.603.036-.623.183-2.472 1.519-4.247.33-.44 1.72-2.16 4.155-2.746.495-.11.897-.165 1.263-.183.037-1.831.513-3.442 1.465-4.815 3.203-4.649 9.977-4.594 12.832.476 1.922 3.405 1.556 6.81-1.08 10.252-.842 1.098-2.288 1.885-4.356 2.398a.34.34 0 0 0-.22.128.43.43 0 0 0-.128.238c-.165.714-.531 1.373-.696 2.087 0 0-.165.732-1.098 2.27-1.044 1.702-4.888 4.155-8.769 2.745m15.926 9.556c-4.247-.055-7.67-3.807-7.597-8.384.055-4.576 3.552-8.256 7.817-8.201 4.247.055 7.652 3.808 7.597 8.384s-3.551 8.256-7.817 8.201m24.53-31.321c-.183-.11-.42-.037-.53.165v.036q-1.455 3.268-1.209 7.085c.019.421-.183.622-.604.585h-.238c-.275-.036-.42-.183-.457-.457-.33-2.746.054-5.327 1.134-7.725.074-.184.037-.293-.164-.367-4.632-1.537-4.906 1.941-4.87 5.273 0 .219-.183.421-.402.421h-.202a.67.67 0 0 1-.732-.586c-.476-3.533.476-7.103 4.76-6.92.366 0 1.19.165 2.507.421a.72.72 0 0 0 .55-.11c2.983-1.977 5.345.037 8.11 1.813.786.512 1.592.695 2.379.567.75-.128.769-.329.073-.604l-2.123-.86c-.403-.165-.55-.458-.44-.861l.092-.348c.055-.219.293-.366.512-.292h.055l3.424 1.391c.183.073.384 0 .457-.183l1.337-3.277c.128-.293.018-.458-.312-.494h-.33c-.237-.037-.384.055-.457.293a8 8 0 0 1-.22.64q-.164.385-.384.495c-.22.091-.403.109-.55.036-.127-.073-.219-.201-.274-.403-.11-.402-.146-.695-.146-.842 0-.219-.092-.347-.311-.366l-.77-.055c-.2 0-.292.074-.31.275l-.055.824a.36.36 0 0 1-.33.348c-.384.073-.659 0-.824-.202-.091-.11-.146-.311-.201-.622-.091-.678-.512-1.025-1.3-1.007a.43.43 0 0 0-.42.293c-.092.238-.165.403-.257.494-.403.421-.787.513-1.135.238a.46.46 0 0 1-.165-.55c.311-.97-.055-1.647-1.08-2.013a.57.57 0 0 0-.512.073c-4.43 3.167-9.684 5.053-14.499 1.337-.31-.238-.402-.55-.256-.934l.073-.165q.247-.603.77-.22c4.41 3.351 9.097 1.667 13.051-1.226.165-.11.183-.33.073-.494l-.64-.86c-.128-.183-.311-.257-.55-.202-.677.147-1.482.275-2.013.22-5.107-.476-14.334-1.391-14.7 6.114a.545.545 0 0 1-.585.531h-.165c-.385-.037-.696-.384-.66-.769.239-3.936 2.399-6.315 6.518-7.14 2.288-.457 4.411-.603 6.352-.439 2.068.183 3.661.239 4.814.183.275 0 .385-.164.33-.439l-.202-.805a.416.416 0 0 0-.439-.312c-.22.019-.476 0-.75-.054a.62.62 0 0 1-.476-.714.67.67 0 0 1 .2-.348c.239-.201.623-.33 1.136-.403.22-.018.33-.146.348-.366l.073-.897a.45.45 0 0 0-.256-.421c-.641-.293-.86-.75-.66-1.41.037-.128-.036-.274-.164-.31h-.073c-5.327-.056-14.59-1.996-13.199-9.593.073-.366.293-.55.677-.513h.257c.238.037.33.165.31.385-.805 8.128 9.099 8.073 14.463 8.512.22 0 .402-.055.567-.201l1.172-1.044c.164-.146.164-.274 0-.42-1.94-1.758-3.936-2.911-6.005-3.46-2.508-.678-3.936.22-5.913.951a.6.6 0 0 1-.53-.036c-.22-.11-.33-.311-.348-.55a.63.63 0 0 1 .274-.549c.403-.31.916-.585 1.556-.805 4.943-1.794 8.458.549 12.412 3.716a.49.49 0 0 0 .494.11l1.556-.385c.22-.055.33-.201.366-.42.037-.367.073-.623.092-.751.11-.403.384-.55.805-.458.22.037.348.165.403.385l.201.86a.45.45 0 0 0 .385.33l.659.054c.201 0 .384-.146.403-.347.018-.348.128-.66.347-.952a.56.56 0 0 1 .787-.129c.11.074.183.184.202.293.091.33.128.623.091.916-.018.22.074.33.275.384.366.073.64.055.842-.055a.59.59 0 0 0 .293-.42c.073-.641.384-.971.897-1.008.22 0 .348.092.403.293l.256 1.08a.41.41 0 0 0 .366.312h.384c.238.036.348-.055.348-.293 0-1.154-.274-2.453-.769-3.918a.313.313 0 0 0-.366-.201l-3.588.879a.51.51 0 0 1-.622-.385v-.22a.785.785 0 0 1 .604-.86l2.215-.53c.842-.202.842-.422 0-.642-1.849-.512-3.936.86-5.345 1.501-2.069.934-3.9.714-5.51-.677a.72.72 0 0 0-.495-.183c-2.727.037-5.272.22-6.315-2.874q-.522-1.51.055-4.393c.073-.348.274-.568.622-.641a.9.9 0 0 1 .311 0c.33.11.476.256.44.494q-.248 1.702-.275 2.087c-.348 2.947 1.3 4.503 4.43 3.918.202-.037.256-.147.202-.348-.678-2.307-.715-4.888-.129-7.689.055-.31.257-.44.568-.42h.238c.311.036.549.31.53.64v.091c-.549 2.435-.53 4.76.056 6.938a.534.534 0 0 0 .659.385c3.917-1.153 8.2-3.918 12.612-3.13 1.996.347 3.405 1.153 4.229 2.38.659.988 1.574 1.519 2.728 1.592 4.668.293 5.455 3.02 5.839 7.048a.46.46 0 0 0 .458.42h.622c.275 0 .421-.127.458-.402q.056-.385.384-.879a.53.53 0 0 1 .733-.146.55.55 0 0 1 .219.311l.22.915a.54.54 0 0 0 .293.367c.805.402 1.336.274 1.592-.422a.68.68 0 0 1 .476-.439c.275-.073.495-.055.641.073.11.092.165.257.165.476-.018.55-.055.879-.092 1.007-.073.201 0 .366.202.476l.787.44c.183.11.348.09.476-.074.293-.348.695-.512 1.171-.494.22 0 .348.11.403.33.092.347-.055.713-.421 1.08a.52.52 0 0 0-.128.512c.11.403.293.714.531.97.128.128.348.183.531.128q.493-.137.714-.164c.256-.019.439.036.567.164.092.092.128.293.147.605 0 .22-.129.402-.33.494-.824.33-1.007.915-.549 1.794a.46.46 0 0 0 .403.256c.366 0 .659.073.878.165a.584.584 0 0 1 .293.769.54.54 0 0 1-.238.256 2.2 2.2 0 0 1-.988.275c-.275 0-.421.164-.44.439l-.073.879c0 .22.073.366.256.475l.641.367a.47.47 0 0 1 .256.439c0 .366-.219.604-.64.659-.11.018-.22 0-.33 0-.787-.238-1.318.11-1.611 1.043a.46.46 0 0 0 .128.476q.357.302.495.66c.073.2.055.384-.074.549-.128.164-.347.238-.64.238-.22 0-.403-.092-.568-.238a2 2 0 0 0-.256-.22c-.165-.11-.348-.128-.513-.037-.933.403-1.208.989-.805 1.739a.51.51 0 0 1-.11.623c-.293.256-.604.238-.915-.037-.037-.018-.202-.238-.531-.622a.61.61 0 0 0-.458-.22c-.952 0-1.409.403-1.391 1.263 0 .22-.073.385-.256.494-.183.129-.385.147-.641.055-.165-.055-.275-.201-.348-.421a6 6 0 0 1-.165-.732.41.41 0 0 0-.329-.384c-.311-.074-.549-.11-.696-.074-.164.019-.274.11-.348.257l-.366.897a.546.546 0 0 1-.714.311.53.53 0 0 1-.311-.311c-.128-.33-.201-.604-.183-.824a.41.41 0 0 0-.293-.403q-.522-.165-.933-.055c-.202.055-.33.183-.366.385-.88 3.716-2.234 6.224-6.59 6.059-.55-.018-1.08-.037-1.593-.037a.63.63 0 0 0-.494.22c-3.332 3.698-7.744 3.258-11.68.952-.366-.22-2.361-1.282-5.967-3.185zm18.27 49.755c-.33 2.179-.733 3.643-1.172 4.375-1.757 2.966-6.041 3.845-8.659 1.3-1.52-1.959-2.16-3.972-1.922-6.059 1.776-15.45 8.476-28.576 20.1-39.358 1.519-1.519 3.313-2.325 5.364-2.38 4.411-.128 6.773 4.723 5.217 8.494-.366.897-1.373 2.087-3.002 3.588-8.787 8.037-14.096 18.05-15.945 30.04zm41.719-23.01c-.202 0-.348.073-.44.238-1.189 2.105-4.356 3.606-6.645 4.741a195 195 0 0 1-8.182 3.716c-2.966 1.281-6.481 1.776-8.879-.824-2.123-2.306-1.739-6.151.586-8.201.531-.476 1.666-1.025 3.405-1.684a77 77 0 0 0 11.917-5.675c.787-.457 1.886-.677 3.332-.677.165 0 .256.073.274.238v.238c.238-.055.476-.055.733 0 .695-1.666 1.775-2.746 3.203-3.24 4.851-1.666 9.098-3.625 12.741-5.84 2.215-1.355 4.412-1.446 6.59-.293 3.973 2.105 3.68 7.542.183 9.904-2.123 1.446-6.077 3.405-11.88 5.894-2.581 1.099-4.888 1.593-6.938 1.465"/><path fill="#fff" d="M108.719 96.472h.256a.6.6 0 0 0-.256 0m.861-1.482s.037-.129.092-.184c-.055.055-.055.128-.092.183m-19.221-8.146s-.128 0-.183-.036c.055.036.11.036.183.036m.457-.146c-.074.091-.165.128-.275.165h.055a.45.45 0 0 0 .201-.165zm2.141.53-.055-.054c.018 0 .037.036.055.054m-5.858-.439s-.037-.037-.037-.055c0 0 .019.037.037.055m-2.179-.128c-.2.074-.42.037-.658-.091.238.128.476.165.659.091m11.203.641s-.146 0-.22-.018c.074.036.147.018.22.018m2.618.256c-.164-.091-.293-.275-.348-.55.055.294.165.477.348.55m-20.191 1.446a47 47 0 0 0-2.032-.915h-.037.037c.64.275 1.318.567 2.032.915m18.104-1.958a.5.5 0 0 1-.311.238h.055a.54.54 0 0 0 .256-.238m-3.277.219h-.22c.055 0 .092.037.147.037.018 0 .036-.019.073-.037m-9.482-1.812c-.092-.22-.22-.384-.421-.476.22.073.347.238.42.476m9.814 1.538a.65.65 0 0 1-.238.256c.11-.055.201-.128.238-.256m-2.381 13.692s-.037.11-.037.165c0-.091.055-.165.091-.256 0 .036-.054.036-.054.073zm5.731-14.772s.091-.037.146-.037c-.055 0-.091 0-.146.037m11.203 1.482s.073 0 .11.019c-.037 0-.074-.037-.11-.019m-.183.092s-.018.018-.018.037a.3.3 0 0 1 .128-.074c-.037 0-.074 0-.092.037zM89.24 107.035s-.054-.055-.11-.074c.056 0 .092.055.11.092zm19.405-10.545s-.11.037-.165.074c.055-.037.11-.055.165-.073M81.076 85.14s.055.092.073.129a.3.3 0 0 0-.073-.128m4.614-.018s.091-.019.128-.019c-.037 0-.092 0-.129.019m11.223.988v.055c0-.055.055-.092.092-.147-.019.037-.055.055-.074.092zm-11.387-.806v.037c0-.055.055-.091.074-.128-.019.037-.055.055-.074.091m3.258-.036.55.146zM106.12 99.73s-.091 0-.128-.036c.037 0 .073.037.128.037m.384-1.447c0-.146.037-.293.128-.384a.5.5 0 0 0-.11.384zm-7.544-.238s.166-.128.257-.146a.5.5 0 0 0-.256.146m-4.904-.384.128.128a.4.4 0 0 0-.128-.128m-.459-.128a.58.58 0 0 1 .42.091.6.6 0 0 0-.365-.11h-.055zm13.216.256s.11-.091.184-.091c-.074 0-.129.055-.184.091m-15.962-.457s.146 0 .2.036c-.054-.037-.127-.037-.2-.037m12.943 2.49c.165-.018.275-.128.329-.293a.39.39 0 0 1-.329.293m2.067-.146s-.055-.073-.073-.11c.018.037.037.091.073.11m-14.37.787s.092-.055.147-.073c-.055 0-.092.036-.147.073m-3.954-13.546s-.146-.019-.22-.055c.055 0 .11.073.165.055zm2.802 10.617a.52.52 0 0 1 .312-.202h-.055a.6.6 0 0 0-.275.202z"/><path fill="#FFD8A2" d="M52.136 66.872c-.512-1.264-1.574-1.923-2.251-2.234-.165-.036-.33-.073-.495-.073 0 0-.11.055-.164.055-.202 0-.403 0-.605.018-.146.037-.292.055-.439.128-.055.019-.11.055-.165.073-.11.055-.22.129-.293.184-.11.073-.2.164-.31.256q-1.264 1.345-5.602 6.7c-1.501 1.867-1.648 4.046.439 5.345 2.178 1.355 3.625-.055 4.998-1.867.842-1.117 2.141-2.618 3.862-4.485.476-.513.75-1.135 1.153-1.538.11-.146.183-.256.275-.384.403-.879-.311-1.995-.403-2.197z"/><path fill="#A288BC" d="M93.251 25.702c2.892-.531 4.192-2.197 3.9-4.98-.092-.915-.349-1.665-.77-2.233-1.226-1.593-3.57-2.032-5.235-.787-1.025.769-1.648 1.94-1.85 3.533 0 .091 0 .183.037.275.037.036.055.091.092.11.824.549 1.501 1.043 2.069 1.665.549.568.97 1.245 1.281 2.197a.5.5 0 0 0 .476.238zm-5.584 5.894c2.197-.147 3.863-2.215 3.716-4.631a4.6 4.6 0 0 0-.824-2.38c-.787-1.062-2.013-1.721-3.35-1.648-2.196.147-3.862 2.215-3.716 4.632a4.6 4.6 0 0 0 .824 2.38c.787 1.061 2.014 1.72 3.35 1.647"/><path fill="#EED794" d="M145.807 72.766c.604.494 1.08 1.19 1.464 2.234.879 2.398 1.849 4.887 3.698 6.095a.6.6 0 0 0 .257.092c.219-.073.366-.238.475-.53.074-.239 0-.477-.237-.715-1.209-1.3-2.234-3.167-3.131-5.601-1.025-2.893-3.313-3.881-6.297-4.156-2.545-.22-4.943-.293-7.249-1.446-.934-.64-1.575-1.227-1.904-1.757-2.691-4.32-6.242-7.835-10.654-10.581a37 37 0 0 0-5.107-2.691c-1.501-.66-2.838-1.025-4.028-1.062-5.016-.22-7.157 5.711-4.723 9.153.604.787 1.465 1.428 2.6 1.812 3.917 1.337 7.322 3.625 10.233 6.865.403.458.604.915.586 1.373 0 .183 0 .366-.074.567-.439 1.3-1.153 2.984-2.16 5.071-2.032 4.247 1.337 6.883 3.387 10.05a9.4 9.4 0 0 1 1.391 3.46c.22 1.208.183 2.471-.091 3.79a.57.57 0 0 0 .421.64l.183.055c.494.128.787-.055.915-.531.604-2.38.329-4.338-.458-6.17-.787-1.83-2.068-3.514-3.441-5.308-1.373-1.83-1.831-3.551-.897-5.455a84 84 0 0 0 2.032-4.467c.018-.036.055-.073.091-.11.11-.054.238 0 .293.092a31.5 31.5 0 0 1 1.959 4.65c.824 2.526 2.581 3.972 5.29 4.338a.306.306 0 0 1 .275.366c-.586 4.54 1.885 7.414 4.448 11.02 2.783 3.918-2.709 7.652-2.325 11.881 0 .055.037.11.055.165.037.055.092.11.147.165q.357.22.604.109a.66.66 0 0 0 .384-.384c.366-.934.476-2.27.934-3.167 1.483-2.837 3.624-6.352 1.666-9.244-2.343-3.442-4.412-5.639-4.522-8.842 0-.403.037-.531.147-.476.073-.073.183.037.366.366 1.885 3.533 5.73 4.924 9.317 6.425 1.392.586 2.234 1.685 2.49 3.314.385 2.288.183 5.382 1.684 8.018.037.055.073.073.128.11q.165.027.385-.055l.274-.128c.275-.147.385-.367.275-.678-.476-1.52-.952-2.617-1.007-4.21-.091-2.178-.293-3.625-.604-4.357-.696-1.72-1.593-2.82-2.673-3.258-2.471-1.007-7.157-2.49-8.951-5.73-.256-.458-.275-.66-.11-.66.073-.072.293 0 .659.239 1.538 1.025 3.167 1.428 4.833 1.52 1.647.09 3.35-.11 5.089-.312.586-.073 1.098-.11 1.592-.11 1.373-.018 2.435.293 3.442 1.501 1.373 1.666 2.764 4.558 5.382 6.224.018 0 .036.019.055.037.256 0 .494-.092.64-.311.037-.055.055-.11.074-.165.091-.311 0-.604-.293-.879-.824-.769-1.593-1.3-2.307-2.325-1.775-2.599-2.837-4.686-5.528-5.473-.494-.146-1.208-.183-2.124-.128-.311.018-.64.055-.988.091-1.355.165-2.526.275-3.515.311q-1.51.083-2.526 0c-.055 0-.092-.018-.147-.018-.549-.036-1.135-.073-1.665-.42a6.2 6.2 0 0 1-2.325-1.612c3.954-3.386 2.123-6.883.421-10.855.604.165 1.208.274 1.83.403 2.014.31 3.662.512 4.833.64 1.959.202 3.204.275 4.375 1.227z"/><path fill="#A288BC" d="M108.059 32.804a4.1 4.1 0 0 0-.622-1.373c-.879-1.208-2.362-1.94-3.844-1.629-1.373.293-2.38 1.208-3.039 2.783a.42.42 0 0 0 .073.457c.311.366.586.714.842 1.044.86 1.116 1.391 2.142 1.446 3.862a.4.4 0 0 0 .092.257c.073.054.146.11.274.128 3.46.476 5.565-2.362 4.778-5.547zm-14.296 3.771c.091-.933-.092-1.757-.55-2.49-.457-.695-1.134-1.317-2.086-1.83a.5.5 0 0 0-.55 0c-1.116.568-2.233.897-3.35.97-.237 0-.402.129-.494.367l-.86 2.105s-.037.164-.018.22a.3.3 0 0 0 .073.09c1.007.568 1.702 1.19 2.233 1.923.568.75.952 1.63 1.282 2.746 0 .055.055.073.091.128.073.055.183.073.275.055 2.398-.384 3.716-1.794 3.936-4.247zm7.487 1.63c.11-1.245-.238-2.362-.878-3.204-1.117-1.391-3.04-1.977-5.108-.988-.183.091-.256.238-.201.439.604 1.922.33 3.844-.806 5.73-.091.146-.073.347.019.494 2.544 2.947 6.626 1.245 6.956-2.471zm-20.904 2.05c0-1.172-.403-2.233-1.08-3.02-.714-.788-1.703-1.282-2.801-1.3-2.215-.019-4.01 1.94-4.028 4.356 0 1.172.403 2.234 1.08 3.021.715.787 1.703 1.281 2.801 1.3 2.215.018 4.01-1.94 4.028-4.357M84.28 45.6a.68.68 0 0 0 .53.055c3.003-.97 3.772-4.833 2.106-7.066-.568-.714-1.392-1.245-2.472-1.446-.86-.165-1.775.018-2.746.53-.183.11-.256.257-.2.477.64 2.306.347 4.411-.898 6.297-.018.036-.036.091-.018.128.018 0 .055.037.073.037a9.5 9.5 0 0 1 3.606.988zm-2.946 9.373c2.197-.092 3.9-2.142 3.79-4.559a4.6 4.6 0 0 0-.788-2.398c-.769-1.08-1.977-1.757-3.313-1.684-2.197.092-3.9 2.142-3.79 4.558.037.897.33 1.721.788 2.398.769 1.08 1.977 1.758 3.313 1.685"/><path fill="#323E48" d="M152.013 114.851c-2.179-1.153-4.357-1.043-6.591.293-3.642 2.215-7.889 4.156-12.74 5.84-1.447.494-2.508 1.574-3.204 3.24-.879 2.856-.183 5.181 2.069 6.993.146.128.183.274.073.439-.476.824-1.08 1.428-1.812 1.831-5.749 3.24-10.563 5.437-14.426 6.608-4.814 1.465-8.237-3.807-4.521-7.249.366-.348 1.135-.732 2.27-1.153a79 79 0 0 0 13.07-6.206c.33-.201.879-.293 1.629-.311.293 0 .513-.073.641-.22q.247-.275.275-.714v-.238c-.037-.164-.128-.238-.293-.238-1.428 0-2.545.22-3.332.678a78 78 0 0 1-11.917 5.675c-1.739.64-2.874 1.208-3.405 1.684-2.325 2.05-2.709 5.894-.586 8.201 2.398 2.617 5.913 2.105 8.879.823a194 194 0 0 0 8.182-3.716c2.289-1.116 5.456-2.636 6.646-4.741a.43.43 0 0 1 .439-.238c2.05.128 4.357-.366 6.938-1.464 5.803-2.49 9.757-4.449 11.88-5.895 3.497-2.361 3.771-7.798-.183-9.903zm-18.636 15.56c-1.647-.622-2.563-1.794-2.782-3.496-.293-2.361 1.391-4.284 3.807-4.998 1.904-.549 3.405-1.281 5.931-2.453s4.064-1.867 5.712-2.965c2.087-1.391 4.65-1.446 6.26.311 1.172 1.263 1.483 2.728.897 4.375-.951 2.709-6.388 4.815-9.207 6.133-2.801 1.318-7.927 4.119-10.618 3.093"/><path fill="#A288BC" d="M153.201 121.185c.586-1.666.293-3.112-.897-4.375-1.629-1.757-4.173-1.702-6.26-.311-1.648 1.098-3.185 1.775-5.712 2.965-2.526 1.172-4.045 1.904-5.931 2.453-2.416.696-4.1 2.618-3.807 4.998.201 1.721 1.135 2.892 2.782 3.496 2.691 1.007 7.798-1.794 10.618-3.093 2.819-1.318 8.256-3.424 9.207-6.133m-25.37 3.973c-.75 0-1.3.109-1.629.311a80.7 80.7 0 0 1-13.071 6.206c-1.135.421-1.903.805-2.27 1.153-3.716 3.441-.292 8.713 4.522 7.249 3.863-1.172 8.677-3.368 14.425-6.608.732-.403 1.336-1.026 1.812-1.831.092-.165.074-.311-.073-.439-2.251-1.813-2.947-4.138-2.068-6.993a1.6 1.6 0 0 0-.714 0q-.028.44-.275.714c-.128.146-.348.219-.641.219z"/><path fill="#323E48" d="M91.017 107.602a.63.63 0 0 1 .494-.22c.512 0 1.043.019 1.592.037 4.357.183 5.712-2.343 6.59-6.059a.52.52 0 0 1 .367-.385q.411-.11.933.055c.183.055.293.22.293.403 0 .22.055.494.183.824a.53.53 0 0 0 .311.311.54.54 0 0 0 .714-.311l.366-.897a.4.4 0 0 1 .348-.256c.165-.019.403 0 .696.073a.43.43 0 0 1 .329.384c0 .165.074.403.165.732.073.238.183.367.348.421.238.092.458.074.641-.054a.56.56 0 0 0 .256-.495c-.018-.842.439-1.263 1.391-1.263.183 0 .348.073.458.22.311.384.494.604.531.622.311.275.622.293.915.037.183-.147.22-.403.11-.623-.403-.75-.128-1.336.805-1.739.183-.073.348-.073.513.037.055.037.146.11.256.22.165.146.348.238.568.238.293 0 .494-.073.64-.238a.54.54 0 0 0 .074-.55 1.65 1.65 0 0 0-.495-.659c-.146-.128-.183-.292-.128-.475.275-.934.824-1.264 1.611-1.044a.5.5 0 0 0 .33 0c.421-.073.64-.293.64-.659a.47.47 0 0 0-.256-.44l-.641-.365c-.183-.11-.274-.257-.256-.476l.073-.879q.028-.412.44-.44.549-.028.988-.274a.54.54 0 0 0 .238-.256.584.584 0 0 0-.293-.77q-.329-.135-.879-.164a.47.47 0 0 1-.402-.256c-.458-.879-.275-1.465.549-1.794a.52.52 0 0 0 .329-.494c0-.311-.054-.495-.146-.604-.128-.129-.311-.183-.567-.165-.147 0-.385.073-.714.165a.57.57 0 0 1-.531-.129c-.238-.237-.421-.567-.531-.97a.53.53 0 0 1 .128-.512c.366-.366.494-.733.421-1.08-.055-.22-.183-.33-.403-.33-.476 0-.86.165-1.171.494-.128.147-.293.165-.476.074l-.787-.44c-.202-.11-.275-.274-.202-.476.037-.11.073-.457.092-1.007 0-.22-.037-.384-.165-.475-.146-.129-.366-.147-.641-.074a.68.68 0 0 0-.476.44c-.256.695-.787.823-1.592.42a.54.54 0 0 1-.293-.365l-.22-.916a.54.54 0 0 0-.22-.311.515.515 0 0 0-.732.147q-.33.494-.384.878c-.037.275-.183.403-.458.403h-.622c-.238 0-.421-.183-.458-.421-.384-4.01-1.171-6.737-5.84-7.048-1.171-.073-2.068-.604-2.727-1.593-.824-1.244-2.215-2.032-4.229-2.38-4.411-.787-8.713 1.978-12.613 3.131a.534.534 0 0 1-.658-.384c-.586-2.179-.605-4.485-.055-6.938v-.092a.6.6 0 0 0-.531-.622h-.238c-.311-.037-.494.091-.568.402-.585 2.82-.549 5.382.128 7.689.055.201 0 .311-.201.348-3.13.585-4.778-.97-4.43-3.918.018-.256.128-.952.275-2.087q.054-.33-.44-.494a.45.45 0 0 0-.311 0c-.348.073-.55.293-.622.64q-.577 2.884-.055 4.394c1.043 3.094 3.588 2.91 6.315 2.874a.7.7 0 0 1 .495.183c1.61 1.392 3.441 1.611 5.51.678 1.41-.641 3.478-1.996 5.345-1.501.842.22.842.439 0 .64l-2.215.531a.816.816 0 0 0-.622.86v.147s.018.055.018.073c.073.275.348.458.622.385l3.588-.879a.32.32 0 0 1 .366.201c.513 1.447.77 2.746.77 3.918 0 .238-.11.33-.349.311h-.384a.45.45 0 0 1-.366-.33l-.256-1.08c-.055-.22-.183-.31-.403-.293-.513.037-.824.367-.897 1.007a.5.5 0 0 1-.293.421c-.183.11-.476.129-.842.055q-.303-.054-.275-.384c.019-.293 0-.586-.091-.915a.56.56 0 0 0-.202-.293.56.56 0 0 0-.787.128 1.7 1.7 0 0 0-.348.952c0 .201-.183.366-.402.348l-.66-.055a.41.41 0 0 1-.384-.33l-.201-.86c-.055-.22-.183-.348-.403-.385-.42-.091-.696.074-.805.458-.037.128-.074.384-.092.75-.018.22-.146.367-.366.422l-1.556.384c-.183.055-.348 0-.494-.11-3.936-3.167-7.45-5.492-12.412-3.716-.64.238-1.171.513-1.556.806a.68.68 0 0 0-.274.549c0 .256.128.439.347.549.184.091.348.11.531.036 1.977-.732 3.387-1.647 5.913-.951 2.069.549 4.064 1.72 6.005 3.46.164.146.164.292 0 .42l-1.172 1.044a.8.8 0 0 1-.567.201c-5.364-.44-15.268-.403-14.462-8.512.018-.238-.073-.348-.311-.366h-.257c-.384-.055-.604.128-.677.494-1.41 7.597 7.872 9.52 13.199 9.592h.073c.128.037.201.184.165.312-.184.659.036 1.116.659 1.41a.42.42 0 0 1 .256.42l-.073.897c0 .22-.129.33-.348.366-.513.074-.897.202-1.135.403a.52.52 0 0 0-.201.348c-.074.33.146.64.475.714.275.055.531.073.751.055.201-.019.403.11.44.31l.2.806q.11.412-.329.44c-1.153.055-2.764 0-4.814-.183-1.94-.165-4.046-.019-6.352.439-4.12.824-6.28 3.203-6.517 7.139a.74.74 0 0 0 .659.769h.164c.312 0 .568-.22.586-.531.366-7.505 9.593-6.59 14.7-6.114.53.055 1.336-.073 2.013-.22.239-.054.422 0 .55.202l.64.86a.367.367 0 0 1-.073.494c-3.954 2.893-8.64 4.577-13.052 1.227-.348-.256-.604-.201-.769.22l-.073.164c-.146.367-.073.678.256.934 4.815 3.716 10.087 1.831 14.499-1.336a.51.51 0 0 1 .512-.074c1.025.367 1.391 1.025 1.08 2.014-.073.22 0 .403.165.549.348.275.732.202 1.135-.238.073-.073.165-.238.256-.494a.41.41 0 0 1 .421-.293c.77 0 1.208.33 1.3 1.007.037.311.11.512.201.622.183.202.458.275.824.202a.41.41 0 0 0 .33-.348l.054-.824c0-.201.11-.293.312-.275l.769.056c.22 0 .33.128.31.366 0 .164.037.439.147.842.055.201.147.329.275.402.146.074.33.055.549-.036q.248-.11.384-.494c0-.019.074-.238.22-.641.073-.22.22-.33.458-.311h.33c.329.055.42.201.31.512l-1.336 3.277c-.073.183-.275.256-.458.183l-3.423-1.391h-.055a.42.42 0 0 0-.512.293l-.092.347c-.11.421.037.714.44.861l2.123.86c.696.293.677.494-.073.604-.787.128-1.593-.055-2.38-.567-2.764-1.776-5.126-3.808-8.11-1.812q-.246.164-.549.109c-1.318-.274-2.141-.402-2.508-.421-4.301-.183-5.235 3.387-4.76 6.92.037.366.367.622.733.604h.201a.45.45 0 0 0 .403-.439c-.036-3.332.238-6.792 4.87-5.272.183.055.238.183.164.366-1.08 2.398-1.464 4.979-1.135 7.725.037.274.183.421.458.439h.238c.421.055.622-.146.604-.567-.165-2.545.238-4.925 1.208-7.085v-.036a.416.416 0 0 1 .531-.165 797 797 0 0 1 5.968 3.185c3.954 2.325 8.347 2.746 11.68-.952zm1.556-1.592c-.184 0-.238-.11-.184-.275l1.666-4.924c.073-.257.257-.348.494-.275l.623.165q.302.083.33.384c.036.33.128.641.274.916.055.091.147.146.238.201a.6.6 0 0 0 .201.073c.074 0 .129 0 .202-.018.091-.037.201-.055.274-.147.257-.293.403-.659.44-1.135v-.073c0-.036.036-.036.055-.055a.14.14 0 0 1 .073-.073c.036-.018.073-.018.11-.037.036 0 .055-.018.073-.018h.073l.385.128c.146.055.22.165.2.311-.31 3.442-2.16 5.053-5.564 4.833zm4.613-27.112 1.739.641a2.71 2.71 0 0 1 1.775 2.105l.458 2.545c.055.33-.073.494-.403.494h-.311c-.293 0-.458-.146-.513-.44l-.128-.768c-.055-.256-.201-.384-.439-.421-.275-.037-.476 0-.604.073-.11.073-.202.22-.238.421q-.083.275-.11.769c-.018.256-.165.348-.421.293l-.787-.22c-.201-.055-.311-.146-.311-.293-.147-1.775-.385-3.185-.733-4.247q-.521-1.565 1.044-.988zm-3.094-.091c.165 0 .33.091.366.256l1.062 4.65c.11.476-.073.714-.568.677h-.384c-.037 0-.055-.036-.073-.055a.3.3 0 0 1-.129-.091c-.036-.055-.054-.092-.091-.147 0-.036-.037-.055-.055-.091v-.183c.073-.494-.055-.842-.348-1.025-.293-.165-.549-.165-.787.036-.22.165-.348.458-.366.842 0 .22-.183.403-.384.421l-.531.055c-.293.019-.458-.11-.531-.384l-.97-4.284c-.037-.183.036-.293.22-.31l3.606-.349zm-4.906-1.172c-3.46-4.21-7.652 1.96-11.002.605q-.495-.193 0-.385c2.252-.842 4.43-1.684 6.572-2.49 2.837-1.08 6.224-.878 8.42 1.63q.055.054.055.11v.018c0 .036 0 .055-.018.073 0 .037 0 .055-.036.073v.019q-.056.055-.11.055l-3.13.567a.71.71 0 0 1-.733-.275zm-2.563 21.016a.87.87 0 0 1-.64-.092.47.47 0 0 1-.257-.44l-.037-.64s-.018-.11-.054-.165a.64.64 0 0 0-.312-.311c-.128-.055-.274-.055-.457-.018a.58.58 0 0 0-.44.384l-.256.75a.41.41 0 0 1-.384.312c-.238.037-.403.037-.513 0-.22-.055-.33-.201-.348-.421 0-.092 0-.22-.036-.403a1.05 1.05 0 0 0-.129-.44 1.1 1.1 0 0 0-.366-.347c-.128-.073-.293-.073-.457-.037-.183.037-.293.147-.348.33l-.311.915c-.055.128-.183.201-.312.165L80.6 98.1h-.018c-.036 0-.055-.055-.091-.073-.037-.036-.074-.055-.11-.091-.037-.037 0-.074-.019-.129 0-.036-.036-.073-.018-.11v-.018l.202-.622c.073-.238.018-.421-.184-.568-.183-.128-.402-.164-.659-.146-.183.018-.33.128-.457.293-.11.165-.22.348-.311.55-.11.237-.257.274-.458.072l-.22-.22s-.11-.146-.128-.219c0-.073 0-.165.073-.238a7 7 0 0 0 .367-.622.6.6 0 0 0 .073-.458c-.073-.201-.165-.33-.33-.403s-.366-.055-.622.055c-.257.11-.458.22-.586.348-.201.146-.366.128-.513-.073l-.201-.275q-.192-.275.11-.384c.183-.073.384-.202.567-.366.202-.183.312-.367.293-.55a1.3 1.3 0 0 0-.073-.384c-.073-.201-.238-.293-.458-.256l-.951.183s-.147 0-.184-.019a.27.27 0 0 1-.11-.164c-.054-.183-.09-.33-.073-.476 0-.22.11-.311.33-.311.696.036 1.117-.293 1.263-.97a2.54 2.54 0 0 0-1.263-.531h-.055c-.037 0-.073-.055-.11-.074-.055-.036-.091-.055-.128-.091-.037-.037-.037-.092-.037-.147 0-.036-.036-.073-.036-.128v-.055l.073-.274q.055-.22.275-.165l.842.22c.146.036.292 0 .42-.055.074-.037.092-.11.129-.165.036-.055.11-.092.128-.165a.56.56 0 0 0-.055-.42 2.55 2.55 0 0 0-.97-.953c-.092-.055-.092-.11-.018-.183l.11-.128h.036c.64.275 1.318.567 2.032.915.183.073.33.092.458.055.2-.073.347-.165.402-.293a.73.73 0 0 0-.164-.86c-.33-.293-.824-.568-1.465-.806-.201-.073-.238-.22-.11-.384.22-.33.458-.53.678-.604a.49.49 0 0 1 .494.128l1.117 1.117c.22.22.457.22.677 0l.183-.183a.6.6 0 0 0 .201-.385.64.64 0 0 0-.146-.403l-.623-.823c-.091-.128-.128-.22-.091-.293s.11-.128.274-.147l.312-.055h.055c.055 0 .073.037.128.037s.11 0 .146.055a.3.3 0 0 1 .073.128c.019.037.055.073.074.11v.055l.036.494c0 .22.11.366.311.44.275.11.531.128.788.018.22-.092.31-.238.31-.476v-.64c0-.239.11-.367.367-.367.165 0 .33 0 .44.055.219.073.347.238.42.476a1.4 1.4 0 0 1 .092.64.53.53 0 0 0 .256.477c.238.128.476.164.66.091.145-.055.274-.183.365-.403.073-.164.147-.457.238-.915v-.037c0-.036.055-.054.073-.091a.4.4 0 0 1 .074-.11c.036-.018.091-.018.128-.018.036 0 .073-.037.11-.019h.036l.568.147c.183.055.293.165.31.366l.056.787c0 .147.073.257.165.366 0 0 .036.037.036.055.055.055.147.055.22.073.073.019.146.055.22.055.018 0 .036 0 .054-.018a.6.6 0 0 0 .33-.22 2.7 2.7 0 0 0 .293-.549c.073-.183.11-.366.128-.549.018-.275.165-.384.44-.311l.53.146c.11.037.202.11.238.22l.385.952c.036.11.128.165.22.22.054.036.11.036.182.036h.183c.11-.036.202-.073.275-.165.201-.274.348-.585.44-.952.054-.256.219-.347.457-.274l.494.128a.44.44 0 0 1 .22.128.5.5 0 0 1 .11.238l.165.934a.45.45 0 0 0 .183.293c.018 0 .036.036.055.055.054.036.128.036.2.036.074 0 .147.019.22 0a.14.14 0 0 0 .074-.036c.11-.055.201-.129.238-.257l.128-.31.311-.77a.52.52 0 0 1 .201-.238.33.33 0 0 1 .293 0l.513.147c.183.055.293.164.293.366 0 .33.073.604.183.842.055.128.165.201.293.256.073.037.146.019.22.019h.22a.7.7 0 0 0 .31-.238c.055-.11.11-.238.147-.385a3.4 3.4 0 0 0 .091-.494v-.055c0-.037.055-.055.074-.092.036-.036.036-.091.091-.11.037-.036.091-.036.146-.036.037 0 .074-.037.129-.037h.054l.605.165c.164.037.256.147.293.311.054.275.11.495.146.678.055.293.165.476.348.549.055.036.183.036.384.036s.33-.11.385-.292l.31-.934a.435.435 0 0 1 .44-.311c.165 0 .311.036.458.11.128.073.238.2.311.402 0 .019.037.11.092.238.054.128.109.33.201.568a.59.59 0 0 0 .384.366c.183.037.348 0 .495-.073.128-.074.219-.22.292-.421 0-.019.074-.238.184-.641a.45.45 0 0 1 .366-.348c.256-.055.512 0 .768.128a.43.43 0 0 1 .257.458c-.019.238 0 .512.073.787a.45.45 0 0 0 .384.348c.367.055.641-.11.824-.458.092-.165.128-.403.11-.75 0-.293.128-.385.384-.293l.476.165c.183.073.257.2.202.384l-.147.567c-.055.202 0 .385.092.55.018.036.018.073.055.11.256.292.604.237 1.025-.202.146-.146.293-.33.458-.55 0 0 0-.017.018-.036s.055-.018.091-.036l.11-.055c.037 0 .073 0 .11.018.037 0 .073 0 .092.018 0 0 .018 0 .036.019a.68.68 0 0 1 .22.42.66.66 0 0 1-.11.367 2.6 2.6 0 0 0-.329.457c-.074.11-.092.257-.055.422.055.292.219.475.512.549a.8.8 0 0 0 .586-.129c.183-.11.366-.22.531-.347.22-.147.384-.092.476.146l.073.183c.073.183.037.33-.128.44l-.751.567a.376.376 0 0 0-.128.458c.092.238.256.402.494.457s.531.037.916-.073a.374.374 0 0 1 .457.202c.055.11.092.22.074.329 0 0 0 .11-.092.238-.128.183-.659.567-1.391 1.007.238.42.604.677 1.116.75.165.019.257.128.257.293v.238c.018.165-.055.238-.22.238h-1.007a.5.5 0 0 0-.366.147c-.055.054-.055.128-.091.183-.037.055-.074.11-.074.183 0 .128.037.274.129.384l.75.842s.092.128.092.183-.037.128-.092.183l-.128.129a.255.255 0 0 1-.348.018c-.293-.22-.586-.385-.915-.458a.6.6 0 0 0-.256 0c-.019 0-.055 0-.074.019-.055 0-.11.036-.164.073 0 0-.037.018-.037.036a.7.7 0 0 0-.22.366v.055c0 .147 0 .293.11.421l.458.623c.183.238.128.42-.147.53l-.293.129s-.128.018-.183 0a.33.33 0 0 1-.146-.128 2.1 2.1 0 0 0-.604-.77.52.52 0 0 0-.403-.109c-.073 0-.128.055-.183.091-.055.037-.128.055-.183.11a.5.5 0 0 0-.128.385l.073 1.116c0 .129-.091.257-.22.275l-.219.037s-.073 0-.128-.019c-.037 0-.092 0-.129-.036-.036-.019-.054-.073-.073-.11s-.055-.055-.073-.11l-.165-.86q-.055-.33-.384-.33h-.385c-.219 0-.366.11-.421.33l-.238.933c-.055.165-.146.257-.329.293-.147.018-.293 0-.458 0-.238-.055-.348-.183-.366-.42l-.055-.77c0-.238-.146-.384-.384-.44a1.6 1.6 0 0 0-.586 0 .56.56 0 0 0-.403.422c-.073.274-.11.494-.11.677s-.091.293-.274.293h-.732c-.22 0-.33-.11-.348-.33 0-.2-.019-.439-.055-.677q-.055-.33-.22-.494a.53.53 0 0 0-.293-.165c-.11-.018-.201-.036-.293 0a.5.5 0 0 0-.256.147 1 1 0 0 0-.201.311q-.192.412-.22.714c-.018.311-.183.42-.476.348l-.622-.165a.29.29 0 0 1-.22-.275l-.055-.787c0-.274-.165-.42-.44-.457-.548-.055-.915.292-1.061 1.08-.055.274-.22.402-.494.402h-.348c-.293 0-.458-.146-.476-.439l-.037-.659s-.036-.183-.073-.256c0-.019-.036-.037-.055-.055a.4.4 0 0 0-.128-.128s-.037-.019-.055-.037a.68.68 0 0 0-.42-.092c-.02 0-.037 0-.056.019a.62.62 0 0 0-.366.238c-.201.274-.33.567-.403.86a.52.52 0 0 1-.384.385c-.128.036-.33.018-.622-.037-.183-.037-.33-.22-.312-.403a2.4 2.4 0 0 0-.146-.933.54.54 0 0 0-.256-.275c-.055-.037-.129-.037-.202-.037s-.128-.036-.201 0a.52.52 0 0 0-.311.202c-.238.348-.348.677-.366.988a.26.26 0 0 1-.257.257h-.86c-.22 0-.311-.11-.293-.33 0-.201.018-.403 0-.622 0-.275-.073-.44-.165-.531-.183-.165-.44-.201-.75-.128a.49.49 0 0 0-.348.33l-.256.75a.62.62 0 0 1-.421.403zm.183 5.784 1.63-3.972c.11-.256.292-.366.567-.293l.512.128c.202.055.33.256.312.458-.055.366.018.659.22.86.2.22.457.275.768.147q.494-.193.494-.934c0-.055 0-.11.037-.165 0-.036.037-.055.055-.073.037-.055.055-.092.11-.128.036-.037.091-.055.146-.073.037 0 .055-.037.073-.037.055 0 .092 0 .147.018 0 0 .091 0 .238.037.476.055.622.311.44.75l-1.758 4.321c-.073.146-.238.238-.385.201l-3.405-.915c-.183-.055-.238-.165-.164-.348zm-6.04 3.277c-1.978-1.098-3.992-2.233-6.06-3.387-.293-.164-.275-.292.055-.366 3.46-.842 6.663 5.785 10.636 2.179a.74.74 0 0 1 .768-.165l2.966 1.007s.073.036.11.073v.018c0 .019 0 .055.018.074v.091c0 .037-.037.073-.073.11-2.49 2.123-5.84 1.812-8.457.366z"/><path fill="#B0C18F" d="M93.05 77.342s.073-.018.11-.055v-.018c.018-.018.018-.055.036-.073 0-.037.019-.055.019-.073 0-.055 0-.092-.055-.129-2.197-2.49-5.584-2.69-8.421-1.629-2.142.806-4.32 1.648-6.572 2.49q-.495.192 0 .384c3.35 1.355 7.542-4.796 11.002-.604a.71.71 0 0 0 .732.275l3.13-.568zm-2.783 2.124.97 4.284c.055.292.238.42.531.384l.531-.055a.42.42 0 0 0 .384-.421c0-.384.129-.659.367-.842s.512-.201.787-.037c.311.183.42.531.348 1.025v.183c0 .037.036.055.055.092a.4.4 0 0 0 .091.147.2.2 0 0 0 .128.091c.073.037.147.073.22.055h.238c.494.018.677-.201.567-.677l-1.061-4.65a.34.34 0 0 0-.367-.256l-3.606.347c-.201.019-.274.129-.22.312zm6.608 4.668c0 .146.11.256.311.293l.787.22c.257.073.385-.037.421-.293q.056-.468.11-.77c.055-.2.128-.347.238-.42.129-.092.33-.11.604-.073.257.018.403.164.44.42l.128.77c.055.292.22.439.512.439h.312c.329 0 .476-.165.402-.495l-.457-2.544a2.78 2.78 0 0 0-1.776-2.105l-1.739-.641q-1.565-.577-1.043.989c.347 1.043.604 2.47.732 4.246zm-9.83 14.132.256-.75a.52.52 0 0 1 .348-.33c.311-.073.549-.018.75.128.11.074.165.257.165.531v.623c-.018.22.073.33.293.33h.86a.25.25 0 0 0 .257-.257c0-.311.128-.64.366-.989a.6.6 0 0 1 .274-.201h.055c.074-.018.128 0 .202 0 .073 0 .146 0 .201.037.11.054.201.146.256.274.11.311.165.622.147.934 0 .201.128.366.311.402.275.055.476.074.622.037a.52.52 0 0 0 .385-.384 2.5 2.5 0 0 1 .402-.86.62.62 0 0 1 .367-.239c.018 0 .036 0 .055-.018h.054a.66.66 0 0 1 .367.11c.018 0 .036.018.055.036.054.037.091.092.128.129 0 .018.036.036.055.055a.6.6 0 0 1 .073.256l.036.659c.019.293.183.44.476.44h.348c.275 0 .44-.129.494-.404.147-.769.495-1.135 1.062-1.08.275.019.421.183.44.458l.054.787c0 .128.092.238.22.275l.623.165c.292.073.457-.037.475-.348 0-.202.092-.44.22-.714a1 1 0 0 1 .202-.312.5.5 0 0 1 .256-.146.8.8 0 0 1 .293 0c.091.018.183.092.293.165q.165.165.219.494c.037.238.055.458.055.677s.11.33.348.33h.732c.202 0 .293-.092.275-.293 0-.183.036-.403.11-.677a.56.56 0 0 1 .402-.421c.202-.055.385-.055.586 0q.357.082.385.439l.054.769c0 .238.129.384.367.42a.96.96 0 0 0 .457 0c.165-.017.275-.127.33-.292l.238-.934c.055-.22.201-.33.421-.33h.384q.33 0 .385.33l.164.86c0 .037.055.074.074.11s.036.092.073.11c.036.019.091.019.128.037.037 0 .073.037.128.018l.22-.036c.128-.019.238-.147.219-.275l-.073-1.117q0-.219.11-.384c.055-.055.128-.073.183-.11.073-.036.11-.091.183-.091a.64.64 0 0 1 .403.11c.256.2.476.457.604.768.037.055.073.11.146.129a.3.3 0 0 0 .184 0l.292-.129c.275-.11.33-.293.147-.53l-.458-.623a.6.6 0 0 1-.11-.42v-.111a.55.55 0 0 1 .22-.31l.037-.037a.6.6 0 0 1 .164-.074c.019 0 .037-.018.074-.018h.256c.311.073.622.238.915.458.11.073.256.073.348-.019l.128-.128s.092-.128.092-.183a.22.22 0 0 0-.092-.183l-.75-.842a.58.58 0 0 1-.147-.366c0-.073.055-.128.073-.183.037-.073.037-.147.092-.183a.5.5 0 0 1 .366-.147h1.007c.165 0 .238-.073.238-.238v-.238c-.018-.165-.11-.274-.275-.293-.512-.073-.878-.33-1.116-.75.732-.44 1.263-.824 1.391-1.007a.7.7 0 0 0 .091-.238c0-.11 0-.22-.073-.33a.394.394 0 0 0-.457-.2c-.367.109-.678.146-.916.072-.238-.055-.403-.22-.494-.457-.073-.165 0-.348.128-.458l.751-.567c.164-.11.201-.257.128-.44l-.073-.183c-.11-.238-.257-.293-.476-.146-.183.11-.367.238-.531.348a.8.8 0 0 1-.586.128c-.293-.073-.476-.257-.513-.55a.77.77 0 0 1 .055-.42c.092-.147.202-.312.33-.458a.47.47 0 0 0 .11-.366c0-.165-.092-.293-.22-.421 0 0-.018-.019-.037-.019-.036-.018-.073 0-.091-.018-.037 0-.073-.037-.11-.018-.037 0-.073.036-.11.055-.036.018-.091.036-.128.073-.165.22-.311.403-.458.55-.421.42-.768.493-1.025.2-.036-.036-.036-.073-.055-.11a.64.64 0 0 1-.091-.549l.146-.567c.055-.183 0-.311-.201-.384l-.476-.165c-.275-.092-.403 0-.385.293 0 .33-.036.585-.109.75-.183.348-.458.513-.824.458a.45.45 0 0 1-.385-.348c-.073-.275-.109-.53-.073-.787 0-.201-.073-.366-.256-.458-.256-.128-.513-.183-.769-.128-.201.037-.311.147-.366.348a10 10 0 0 1-.183.64c-.073.202-.165.33-.293.422a.58.58 0 0 1-.494.073c-.202-.055-.33-.165-.385-.366-.091-.257-.146-.44-.201-.568s-.073-.22-.092-.238c-.073-.201-.183-.348-.311-.402-.146-.074-.293-.129-.457-.11-.22 0-.367.11-.44.311l-.31.934c-.056.183-.202.274-.385.293-.202 0-.33 0-.385-.037-.165-.092-.293-.275-.348-.55-.036-.182-.091-.402-.146-.677-.037-.164-.128-.274-.293-.31l-.604-.166h-.055c-.037 0-.073.019-.128.037-.055 0-.092 0-.147.037-.036.036-.055.073-.091.11-.037.054-.073.091-.092.146a3.4 3.4 0 0 1-.091.494 2 2 0 0 1-.147.385.54.54 0 0 1-.256.238h-.055c-.073.018-.146 0-.22 0-.073 0-.146 0-.22-.019-.127-.055-.237-.128-.292-.256a2 2 0 0 1-.183-.842c0-.183-.11-.311-.293-.366l-.513-.147a.53.53 0 0 0-.292 0 .45.45 0 0 0-.202.238l-.311.77-.128.31c-.055.11-.147.183-.238.257-.018 0-.037.018-.073.036-.019 0-.037.019-.074.037-.055 0-.091-.018-.146-.037-.073 0-.147 0-.201-.036-.019 0-.037-.037-.055-.055a.45.45 0 0 1-.183-.293L92.5 86a.36.36 0 0 0-.11-.238.44.44 0 0 0-.22-.128l-.494-.128c-.238-.073-.403.018-.457.275a2.8 2.8 0 0 1-.44.952.6.6 0 0 1-.201.164h-.238c-.073 0-.128 0-.183-.036a.5.5 0 0 1-.22-.22l-.384-.952a.36.36 0 0 0-.238-.22l-.531-.146c-.275-.073-.421.018-.44.311a1.5 1.5 0 0 1-.128.55 2.7 2.7 0 0 1-.293.549.6.6 0 0 1-.33.22c-.017 0-.036 0-.054.017h-.055c-.073 0-.11-.036-.165-.055-.073-.018-.164-.036-.22-.073-.018 0-.036-.036-.036-.055a.53.53 0 0 1-.165-.366l-.055-.787c0-.201-.11-.311-.31-.366l-.568-.146h-.037c-.037 0-.073 0-.11.018-.036 0-.091 0-.128.018s-.055.073-.073.11c-.037.037-.073.073-.073.128-.092.44-.165.75-.238.915-.092.22-.22.348-.367.403-.2.073-.42.037-.658-.091a.5.5 0 0 1-.257-.476c0-.257-.018-.476-.091-.641-.092-.22-.22-.384-.421-.476q-.193-.082-.44-.055c-.238 0-.366.128-.366.366v.64c0 .22-.11.385-.311.477-.256.11-.513.091-.787-.018a.48.48 0 0 1-.311-.44l-.037-.494v-.055c0-.055-.055-.073-.073-.11-.019-.036-.037-.091-.073-.128-.037-.037-.092-.037-.147-.055-.055 0-.11-.055-.165-.036l-.31.054c-.147.019-.239.074-.275.147s0 .183.091.293l.622.824c.11.146.147.274.147.402s-.073.257-.201.385l-.183.183c-.22.22-.458.22-.678 0L78.9 86.294a.46.46 0 0 0-.495-.128c-.238.073-.457.275-.677.604q-.192.274.11.385c.64.256 1.117.512 1.464.805.257.22.311.568.165.86-.055.129-.201.22-.403.293-.128.055-.274.037-.457-.055a47 47 0 0 0-2.032-.915h-.037l-.11.128s-.073.128.019.183c.42.238.75.568.97.952a.56.56 0 0 1 .055.421c-.019.073-.092.11-.128.165s-.074.128-.129.165a.56.56 0 0 1-.42.055l-.843-.22c-.146-.037-.238 0-.274.165l-.074.274v.055c0 .055.019.073.037.128 0 .055 0 .11.037.147a.3.3 0 0 0 .128.091c.055.037.091.092.165.092.439.036.878.22 1.263.53-.147.696-.568 1.026-1.263.97-.22 0-.33.092-.33.312 0 .147.018.293.073.476a.27.27 0 0 0 .11.165c.055.036.11.036.183.018l.952-.183c.22-.037.366.037.458.256a1 1 0 0 1 .073.385c0 .183-.092.366-.293.549s-.384.311-.567.366c-.202.073-.238.22-.11.385l.201.274c.147.201.311.22.513.073.146-.11.33-.22.585-.347.239-.11.458-.129.623-.055.146.073.256.201.33.402.054.147.018.293-.074.458-.11.22-.238.421-.366.622a.44.44 0 0 0-.073.238c0 .074.055.147.128.22l.22.22c.183.183.348.164.457-.074.092-.2.202-.384.311-.549.129-.183.275-.274.458-.293.275-.018.494.019.66.147.2.146.274.33.182.567l-.201.623v.018c0 .037 0 .073.018.11a.3.3 0 0 0 .019.128c.018.037.073.055.11.091a.3.3 0 0 0 .127.092l.367.092c.128.036.274-.037.31-.165l.312-.915a.52.52 0 0 1 .348-.33c.165-.037.33-.037.457.037.129.073.257.183.367.347.055.092.091.238.128.44.018.183.036.311.036.402 0 .22.129.367.348.422.11.018.275.018.513 0 .183-.019.31-.129.384-.312l.256-.75a.58.58 0 0 1 .44-.385c.183-.036.33-.036.457.019a.64.64 0 0 1 .312.31l.055.166.036.64c0 .183.092.33.256.44.202.128.403.146.641.091a.58.58 0 0 0 .421-.403zm3.349 7.414c.165.037.33-.037.385-.201l1.757-4.321c.183-.439.037-.695-.44-.75a3 3 0 0 1-.237-.037c-.037-.018-.092-.018-.147-.018-.036 0-.055.037-.073.037-.055 0-.091.036-.146.073a1 1 0 0 0-.11.128c-.037.073-.092.146-.092.256 0 .495-.183.787-.494.934-.293.128-.549.073-.769-.147-.183-.201-.256-.494-.22-.86.037-.201-.11-.403-.31-.458l-.513-.128c-.275-.073-.458.019-.568.293l-1.629 3.973c-.073.183 0 .292.165.347l3.405.916zm7.542-4.814-.384-.129h-.074c-.036 0-.054 0-.073.019-.036 0-.073 0-.11.036-.036.019-.055.055-.073.074a.3.3 0 0 0-.073.128c-.055.476-.201.842-.44 1.135a.4.4 0 0 1-.164.128c-.037.018-.073 0-.128 0-.073.018-.128.036-.202.018-.073 0-.128-.036-.201-.073-.091-.055-.183-.092-.238-.201a2.5 2.5 0 0 1-.275-.916q-.027-.301-.329-.384l-.622-.165q-.385-.11-.495.275l-1.666 4.924c-.054.165 0 .256.184.275 3.404.238 5.253-1.373 5.565-4.833 0-.165-.055-.256-.202-.311m-8.658 6.37v-.091c0-.037 0-.055-.019-.073a.2.2 0 0 0-.11-.092l-2.965-1.007c-.293-.091-.531-.036-.769.165-3.99 3.606-7.194-3.021-10.636-2.178-.33.073-.348.201-.055.366 2.069 1.153 4.083 2.288 6.06 3.386 2.617 1.465 5.949 1.758 8.457-.366.037-.018.055-.055.073-.11z"/><path fill="#79AA99" d="M87.997 159.994c1.135-.861 1.813-2.014 1.977-3.478.202-1.685 2.325-11.57 5.254-17.592 3.314-6.81 10.142-13.767 11.972-15.194.165-.129.842-.641 1.391-1.538.293-.476 1.172-1.941.861-3.844-.037-.22-.385-2.106-1.941-3.204-.421-.293-.768-.439-.86-.458-.805-.292-1.702-.292-2.728.037-1.318.403-3.057 1.812-4.027 2.764-10.453 10.05-16.622 22.352-18.544 36.905-.183 1.373.037 3.442.769 4.448 1.648 2.252 3.606 2.636 5.858 1.172z"/><path fill="#323E48" d="M48.456 63.027c-.879.073-1.648.513-2.307 1.3-3.203 3.844-5.162 6.224-5.84 7.157-2.818 3.79.147 8.55 4.815 7.707 1.391-.256 2.654-1.647 3.497-2.746a216 216 0 0 1 4.796-6.022c.604-.714.952-1.501.842-2.417a3 3 0 0 1 0-.549.45.45 0 0 1 .348-.348c1.171-.164 1.903-.42 2.196-.787 1.703-2.087 3.149-3.753 4.339-5.034 1.098-1.171 1.739-2.123 1.922-2.874.458-1.904-.037-3.625-1.172-4.76-1.684-1.684-3.954-1.336-4.155-1.3a4.73 4.73 0 0 0-2.288 1.063c-1.886 2.306-3.79 4.594-5.675 6.9-.513.916-.513 1.557-.403 1.978.073.274.201.512.293.75a3.4 3.4 0 0 0-1.208-.018m2.654 7.963c-1.72 1.867-3.02 3.35-3.862 4.485-1.373 1.812-2.82 3.222-4.998 1.867-2.087-1.3-1.959-3.478-.44-5.345q4.34-5.355 5.602-6.7a1.7 1.7 0 0 1 .312-.256c.073-.055.183-.128.293-.183.036-.019.073-.055.11-.074h.036c.165-.073.311-.091.44-.128.31-.055.603-.073.75-.073.164 0 .33.037.494.073.66.312 1.72.952 2.252 2.234.091.201.805 1.318.402 2.196a1.1 1.1 0 0 1-.274.385c-.403.403-.677 1.025-1.153 1.537zm.366-10.635 4.796-5.712a2.73 2.73 0 0 1 1.813-.952 2.64 2.64 0 0 1 1.94.622l.824.696a2.73 2.73 0 0 1 .952 1.812c.036.348 0 .678-.11 1.026a2.8 2.8 0 0 1-.513.933l-4.796 5.712a2.73 2.73 0 0 1-1.812.951 2.5 2.5 0 0 1-1.025-.11 2.8 2.8 0 0 1-.934-.512l-.823-.695a2.65 2.65 0 0 1-.33-3.753z"/><path fill="#FFD8A2" d="M51.476 60.355c-.952 1.135-.806 2.819.33 3.752l.823.696c.275.238.604.403.934.512.329.11.677.129 1.025.11a2.65 2.65 0 0 0 1.812-.952l4.796-5.711a2.8 2.8 0 0 0 .513-.934c.11-.33.128-.677.11-1.025a2.65 2.65 0 0 0-.952-1.812l-.824-.696a2.67 2.67 0 0 0-1.94-.622 2.65 2.65 0 0 0-1.813.952l-4.796 5.711zm-17.573.128c.147-1.355-.457-2.453-.897-3.04-.128-.109-.256-.219-.402-.31 0 0-.11 0-.165-.037a2.4 2.4 0 0 0-.531-.256c-.146-.037-.275-.092-.458-.11h-.531a1.5 1.5 0 0 0-.384.092c-1.172.384-3.88 1.427-8.128 3.185-2.215.915-3.386 2.746-2.178 4.906 1.263 2.251 3.203 1.702 5.272.769 1.281-.568 3.13-1.264 5.547-2.069.659-.22 1.208-.64 1.757-.787.165-.073.275-.147.421-.22.769-.586.677-1.904.714-2.123z"/><path fill="#323E48" d="M35.202 62.496c.074-.183.165-.33.275-.476a.46.46 0 0 1 .476-.128c1.116.421 1.867.55 2.288.366 2.49-1.006 4.577-1.775 6.224-2.325q2.28-.741 3.075-1.592c1.319-1.446 1.721-3.204 1.264-4.741-.66-2.289-2.82-3.076-3.02-3.149-1.08-.384-2.051-.256-2.527-.165-2.764 1.099-5.528 2.215-8.293 3.314-.897.567-1.19 1.116-1.3 1.537-.073.275-.073.55-.11.788a4 4 0 0 0-1.043-.605c-.805-.366-1.684-.347-2.654.019q-7.002 2.746-8.567 3.46c-4.284 1.958-3.99 7.56.512 9.08 1.355.439 3.13-.165 4.394-.715a223 223 0 0 1 7.102-2.965c.86-.33 1.556-.842 1.886-1.703zm1.264-8.036 6.956-2.69a2.677 2.677 0 0 1 3.46 1.518l.384 1.007c.201.513.238 1.062.11 1.556-.183.842-.787 1.556-1.63 1.904l-6.956 2.691a3 3 0 0 1-1.043.183 2.7 2.7 0 0 1-2.416-1.702l-.385-1.007a2.677 2.677 0 0 1 1.52-3.46m-5.437 9.135c-2.417.805-4.266 1.5-5.547 2.068-2.069.934-4.027 1.483-5.272-.769-1.208-2.16-.037-3.99 2.178-4.906q6.398-2.608 8.128-3.185c.073-.018.22-.055.385-.091h.512c.183 0 .311.073.458.11.31.091.567.22.695.292.147.092.275.202.403.312.44.585 1.062 1.666.897 3.038-.018.22.073 1.538-.714 2.124-.11.091-.256.165-.421.22-.55.164-1.08.567-1.757.787z"/><path fill="#FFD8A2" d="M35.33 58.908a2.7 2.7 0 0 0 2.417 1.703c.348 0 .696-.055 1.044-.183l6.956-2.691a2.63 2.63 0 0 0 1.63-1.904 2.7 2.7 0 0 0-.11-1.556l-.385-1.007a2.677 2.677 0 0 0-3.46-1.52l-6.956 2.692a2.677 2.677 0 0 0-1.52 3.46z"/><path fill="#F7A8A7" d="M37.857 107.108c-.091.128-.183.256-.274.402-1.245 1.941-1.465 4.431-.605 6.609.66 1.684 1.923 3.002 3.479 3.679 1.922.824 4.1.55 5.803-.714 1.629-1.208 2.636-3.185 2.727-5.345.037-.86-.128-1.702-.384-2.508-.348-.842-.806-1.702-1.318-2.38-.202-.238-.385-.475-.604-.695a6.5 6.5 0 0 0-.842-.604 7 7 0 0 0-1.96-.787l-.274-.055c-.128-.019-.274-.055-.402-.074-1.978-.164-3.973.678-5.328 2.472z"/><path fill="#F7A8A7" d="M29.674 117.377c-.402 1.373-.33 2.875.184 4.522 2.416 6.718 11.55 5.162 12.1-1.794 0-.037 0-.146-.055-.256-.128-.183-.476-.165-.531-.147-.55.037-3.313-1.006-4.98-3.386a7.6 7.6 0 0 1-1.336-3.332 1 1 0 0 0-.036-.238c-.165.018-.33.055-.531.092a8.3 8.3 0 0 0-1.648.585c-.201.11-.402.22-.585.348-.22.147-.44.275-.641.458-.915.915-1.52 1.867-1.94 3.167zm13.437 13.584c.678 1.757 1.977 3.148 3.625 3.807 1.995.806 4.229.476 5.93-.897 2.253-1.812 3.095-5.052 2.088-7.908a6.83 6.83 0 0 0-2.892-3.588c-.074-.055-.165-.091-.239-.128-.42-.22-.86-.421-1.318-.531-.22-.055-.457-.091-.695-.128-.073 0-.128 0-.202-.018-.22-.018-.439-.037-.659-.037h-.219c-.293 0-.586.055-.879.11-.091 0-.165.037-.256.055-.33.091-.64.183-.952.329-.037 0-.055.037-.073.037-.275.128-.55.293-.824.476-.073.055-.146.11-.22.146-.274.202-.549.44-.805.696a6 6 0 0 0-.714.897c-.055.073-.092.165-.147.256-.146.257-.292.495-.384.733 0 .036-.037.073-.037.109-.256.586-.384 1.117-.494 1.538a7.4 7.4 0 0 0 .348 4.027z"/><path fill="#323E48" d="M110.55 65.078c4.283 1.629 7.505 3.807 9.684 6.535a.61.61 0 0 1 .128.494c-.055.403-.22.86-.458 1.336-2.307 4.504-3.606 7.268-.458 11.625 2.234 3.093 4.192 5.034 3.515 9.354-.201 1.245.385 2.05 1.739 2.416.073.019.256 0 .586-.036q1.455-.165 1.812-1.593c1.446-5.821-1.592-9.281-4.796-13.638a2.34 2.34 0 0 1-.293-2.288l.732-1.812q.522-1.29.879.055c.861 3.295 2.581 5.308 5.144 6.022.421.128.641.403.641.842 0 2.288.787 4.595 2.416 6.902 1.483 2.123 3.185 4.064 2.801 5.455-.293 1.08-.805 2.215-1.501 3.386-1.007 1.703-2.911 6.444.055 7.341 1.08.311 2.453-.439 2.636-1.428.293-1.537.421-2.672 1.098-3.862 2.069-3.625 3.149-6.883.494-10.545-.567-.787-.933-1.281-1.043-1.482-.11-.165-.073-.22.11-.147 2.142.86 3.679 1.501 4.613 1.94 1.318.623 1.959 1.374 2.069 2.801.238 3.15.256 5.986 1.775 7.945q1.401 1.785 3.185.275c.678-.568.897-1.117.678-1.648-.586-1.446-.97-3.203-1.172-5.272-.219-2.233-.439-3.606-.677-4.119-1.318-2.892-3.625-3.862-6.572-5.07-.604-.257-.586-.385.073-.403 1.3-.055 2.929-.202 4.851-.44 1.556-.183 2.71.202 3.497 1.483a25.4 25.4 0 0 0 3.313 4.375c1.062 1.135 1.886 1.721 2.453 1.758 1.538.11 2.398-.568 2.618-2.032.091-.64-.037-1.08-.348-1.337-1.263-.951-2.801-2.764-4.595-5.436-1.977-2.966-4.832-3.57-8.274-3.112-2.307.292-5.089.714-7.011-.238-.22-.11-.256-.257-.128-.458 1.611-2.398 1.794-5.052.567-7.963-.091-.201 0-.293.202-.293l5.674.421a2.36 2.36 0 0 1 2.032 1.465c1.209 2.874 2.27 6.022 4.54 7.615 1.355.952 3.002-.037 3.295-1.538.092-.494-.11-1.062-.64-1.72-3.131-3.882-2.673-9.74-9.739-10.234-1.52-.11-4.76-.201-6.938-1.281-1.703-.842-2.6-2.71-4.064-4.595-4.101-5.217-9.409-8.988-15.926-11.295-9.336-3.295-14.077 10.124-5.254 13.492zm40.181 16.054c-1.83-1.208-2.782-3.68-3.661-6.06-1.043-2.818-2.819-3.148-5.785-3.423a38 38 0 0 1-4.668-.75c-.604-.128-1.208-.238-1.83-.403 1.702 3.973 3.514 7.469-.421 10.856a6.2 6.2 0 0 0 2.325 1.61c.53.22 1.08.367 1.665.421.055 0 .092.019.147.019q1.016.083 2.526 0c.97-.055 2.069-.147 3.332-.311a15 15 0 0 1 1.171-.11c.916-.055 1.63 0 2.124.128 2.691.769 3.753 2.856 5.528 5.473.696 1.026 1.465 1.556 2.307 2.325.293.275.402.568.293.879-.019.055-.037.11-.074.165a.69.69 0 0 1-.64.31.7.7 0 0 1-.33-.09c-2.599-1.648-3.972-4.522-5.345-6.17-.952-1.135-1.941-1.464-3.204-1.483-.494 0-1.006.037-1.592.11-1.739.202-3.442.403-5.089.311-1.703-.091-3.369-.475-4.943-1.519-.293-.183-.458-.256-.567-.256-.165 0-.147.201.109.659 1.813 3.24 6.481 4.723 8.952 5.73 1.08.439 1.977 1.519 2.673 3.258.293.732.494 2.197.604 4.357.073 1.592.531 2.69 1.007 4.21.091.311 0 .531-.275.678l-.275.128c-.146.073-.256.091-.384.055a.47.47 0 0 1-.311-.257c-1.501-2.6-1.3-5.675-1.666-7.945-.256-1.592-1.08-2.69-2.471-3.276-3.57-1.501-7.359-2.874-9.245-6.37-.128-.22-.201-.33-.274-.367-.11-.055-.165.092-.147.476.11 3.204 2.179 5.419 4.522 8.842 1.958 2.892-.165 6.407-1.666 9.244-.458.897-.568 2.234-.934 3.167a.72.72 0 0 1-.384.385q-.247.11-.604-.11c-.073-.037-.11-.092-.147-.165a.66.66 0 0 1-.128-.348c-.384-4.192 5.071-7.89 2.307-11.77-2.545-3.588-4.998-6.426-4.412-10.929.018-.183-.11-.348-.275-.366-2.691-.366-4.43-1.794-5.253-4.302-.495-1.538-1.154-3.075-1.941-4.613a.2.2 0 0 0-.11-.092c-.11-.036-.219 0-.274.11a83 83 0 0 1-2.014 4.43c-.915 1.904-.476 3.606.897 5.419 1.373 1.794 2.654 3.478 3.423 5.308.787 1.813 1.08 3.79.458 6.17-.128.494-.421.677-.915.53l-.183-.054a.57.57 0 0 1-.421-.641v-.073c.274-1.3.311-2.527.109-3.716-.201-1.209-.677-2.362-1.391-3.46-2.068-3.167-5.418-5.785-3.386-10.05.988-2.087 1.702-3.79 2.16-5.071.073-.183.073-.366.073-.567 0-.422-.202-.843-.568-1.264-2.874-3.221-6.26-5.491-10.141-6.81-1.208-.42-2.105-1.116-2.709-1.995-2.435-3.441-.293-9.372 4.723-9.153 1.189.055 2.526.403 4.027 1.062a37 37 0 0 1 5.107 2.691c4.412 2.746 7.963 6.279 10.654 10.58.33.532.97 1.118 1.904 1.758 2.307 1.153 4.705 1.208 7.249 1.446 2.984.275 5.254 1.263 6.297 4.156q1.319 3.68 3.131 5.601c.219.257.311.495.238.714-.092.293-.257.458-.476.531a.59.59 0 0 1-.494-.073zM77.305 46.259q.275 0 .11.22c-1.593 1.977-2.05 4.027-1.355 6.169.842 2.58 3.405 4.43 6.005 3.88 4.32-.915 5.784-5.473 3.716-9.152-.11-.184-.055-.312.128-.403 1.72-.75 2.856-2.197 3.368-4.302.055-.202.183-.311.385-.311.988 0 1.995-.257 2.983-.788.184-.091.33-.073.458.074 2.105 2.343 4.54 2.709 7.322 1.135.641-.366 1.319-1.263 2.051-2.746.091-.183.238-.238.421-.201 5.711 1.208 8.878-5.492 5.473-9.611-2.819-3.405-7.45-2.215-9.208 1.739-.073.165-.201.238-.384.201-1.648-.33-3.075-.091-4.265.714-.147.092-.275.073-.366-.055-.568-.75-1.245-1.3-2.069-1.647-.238-.11-.293-.275-.165-.513.586-1.043.934-2.068 1.08-3.093.019-.184.128-.293.33-.312 5.437-.494 7.212-6.883 3.533-10.343-3.698-3.496-8.732-.31-9.025 4.192a.32.32 0 0 1-.311.312c-2.984.165-5.18 2.27-5.492 5.199-.275 2.599.75 4.631 3.075 6.077.147.092.202.256.147.403l-.806 2.361c-.055.165-.164.257-.347.257-1.08 0-2.032.238-2.856.695-.275.147-.513.11-.732-.091-4.467-4.21-10.526-.458-9.465 5.217.568 3.057 2.636 4.613 6.225 4.704zm4.119 8.823c-1.373.055-2.636-.659-3.405-1.794a4.6 4.6 0 0 1-.787-2.398c-.11-2.416 1.574-4.466 3.79-4.558 1.335-.055 2.544.623 3.313 1.684a4.64 4.64 0 0 1 .86 2.508c.11 2.416-1.574 4.467-3.79 4.558zm3.478-9.336a.67.67 0 0 1-.53-.055 9.4 9.4 0 0 0-3.607-.988c-.037 0-.055 0-.092-.037-.036-.036-.073-.073-.073-.11 0-.036 0-.091.019-.128 1.244-1.885 1.537-3.99.897-6.297-.055-.22 0-.366.2-.476.971-.513 1.886-.696 2.747-.53 1.08.2 1.904.731 2.471 1.445 1.757 2.215 1.025 6.188-2.032 7.176m23.23-12.832c.769 3.167-1.336 6.023-4.778 5.547-.183-.019-.274-.11-.347-.239-.037-.073-.092-.146-.092-.256-.037-1.72-.586-2.746-1.446-3.862-.256-.33-.531-.66-.842-1.025a.46.46 0 0 1-.073-.458c.64-1.556 1.647-2.49 3.038-2.783 1.483-.31 2.966.421 3.845 1.63.329.439.567.933.695 1.482zm-6.81 5.382c-.329 3.752-4.484 5.455-7.029 2.398v-.037a.41.41 0 0 1-.018-.494c1.135-1.904 1.41-3.808.805-5.73-.055-.201 0-.348.201-.44 2.07-.988 3.991-.402 5.108.99.696.86 1.062 2.013.952 3.313zm-7.468-1.611c-.22 2.453-1.538 3.88-3.936 4.247a.36.36 0 0 1-.348-.165.3.3 0 0 1-.091-.128c-.33-1.117-.714-1.995-1.282-2.746-.512-.696-1.19-1.263-2.16-1.812-.092-.055-.146-.11-.165-.183a.45.45 0 0 1 .019-.22l.86-2.105a.55.55 0 0 1 .494-.366c1.117-.074 2.234-.403 3.35-.97a.58.58 0 0 1 .55 0c.951.512 1.629 1.134 2.086 1.83.495.769.714 1.63.623 2.6zm3.368-15.871c.293 2.782-1.007 4.448-3.9 4.979a.49.49 0 0 1-.548-.33c-.312-.952-.733-1.629-1.282-2.196s-1.208-1.026-1.995-1.556a.43.43 0 0 1-.183-.22.5.5 0 0 1-.037-.275c.202-1.592.824-2.764 1.85-3.533 1.665-1.244 4.026-.805 5.235.788l.073.073c.42.585.695 1.336.787 2.27m-12.906 9.134a4.7 4.7 0 0 1-.823-2.38c-.147-2.416 1.5-4.485 3.716-4.63 1.336-.092 2.563.567 3.35 1.647.512.677.842 1.537.897 2.49.146 2.416-1.502 4.484-3.716 4.63-1.392.092-2.655-.622-3.442-1.738zm-3.88 10.416c-.019 2.435-1.831 4.376-4.028 4.357-1.135 0-2.16-.549-2.874-1.41-.677-.787-1.08-1.848-1.08-3.02.018-2.435 1.83-4.375 4.027-4.357 1.099 0 2.087.513 2.801 1.3.732.805 1.172 1.904 1.153 3.13m30.151 81.15c1.556-3.771-.805-8.622-5.217-8.493-2.068.054-3.844.842-5.363 2.379-11.625 10.783-18.325 23.908-20.1 39.358-.238 2.087.402 4.101 1.922 6.059 2.618 2.545 6.901 1.666 8.659-1.299.439-.733.823-2.197 1.171-4.376 1.85-11.99 7.158-22.003 15.945-30.04 1.629-1.501 2.636-2.691 3.002-3.588zm-28.465 37.29c-.733-1.007-.952-3.076-.77-4.449 1.923-14.553 8.11-26.854 18.545-36.904.97-.934 2.727-2.362 4.027-2.765 1.025-.311 1.941-.329 2.728-.036.091.036.439.165.86.457 1.538 1.099 1.904 2.984 1.941 3.204.329 1.922-.55 3.368-.861 3.844a6 6 0 0 1-1.391 1.538c-1.849 1.428-8.677 8.384-11.972 15.194-2.93 6.022-5.034 15.908-5.254 17.592-.183 1.446-.842 2.599-1.977 3.478-2.252 1.464-4.21 1.08-5.858-1.172zM42.78 122.119c.166-.714.532-1.373.697-2.087 0-.037.036-.147.128-.238a.6.6 0 0 1 .22-.128c2.068-.513 3.532-1.3 4.356-2.398 2.636-3.442 3.002-6.847 1.08-10.252-2.855-5.071-9.629-5.125-12.832-.476-.952 1.373-1.428 2.984-1.465 4.815a5.8 5.8 0 0 0-1.263.183c-2.434.586-3.808 2.306-4.155 2.746-1.337 1.775-1.483 3.624-1.52 4.247-.164 2.636.86 7.139 4.888 8.603 3.88 1.41 7.725-1.043 8.768-2.745.934-1.52 1.099-2.27 1.099-2.27m1.08-17.373a6.2 6.2 0 0 1 1.96.787c.293.184.586.367.842.605.238.201.42.457.604.695a7.2 7.2 0 0 1 1.318 2.38c.256.805.42 1.647.384 2.508-.073 2.16-1.098 4.137-2.727 5.345-1.703 1.263-3.881 1.538-5.803.714-1.556-.659-2.82-1.995-3.478-3.679-.86-2.179-.623-4.668.604-6.609.091-.146.183-.274.274-.403 1.337-1.794 3.35-2.636 5.327-2.471.129 0 .275.037.403.073.092 0 .183.037.275.055zm-12.246 9.464c.22-.183.44-.329.641-.457s.403-.238.586-.348a6.4 6.4 0 0 1 1.647-.586c.183-.036.366-.073.531-.091 0 .091 0 .146.037.238a7.9 7.9 0 0 0 1.336 3.331c1.666 2.38 4.43 3.424 4.98 3.387.054 0 .402-.037.53.146.073.092.055.202.055.257-.55 6.956-9.684 8.512-12.1 1.794-.513-1.63-.586-3.149-.183-4.522.165-.586.604-2.014 1.94-3.167z"/><path fill="#323E48" d="M49.06 120.105c-4.266-.055-7.744 3.625-7.817 8.201-.055 4.577 3.35 8.329 7.597 8.384s7.743-3.624 7.816-8.201c.055-4.576-3.35-8.329-7.596-8.384m-5.767 5.181c.11-.257.256-.495.385-.733.054-.091.091-.164.146-.256.22-.311.44-.622.714-.897.256-.256.53-.494.805-.695.074-.055.147-.11.22-.147.256-.183.53-.348.824-.476.036 0 .055-.036.073-.036.311-.147.622-.238.952-.33.092-.018.165-.037.256-.055.293-.055.586-.11.879-.11h.22c.22 0 .439 0 .659.037a.8.8 0 0 1 .201.018c.238.037.458.073.696.128a7 7 0 0 1 1.318.531c.073.037.164.092.238.128 1.318.769 2.361 2.032 2.892 3.588 1.007 2.874.146 6.096-2.087 7.908-1.702 1.373-3.936 1.721-5.931.897-1.648-.677-2.966-2.05-3.625-3.807a7.4 7.4 0 0 1-.347-4.027c.091-.531.274-1.044.494-1.538 0-.037.036-.073.036-.11z"/><path fill="#323E48" d="M88.51 0C39.704 0 0 39.706 0 88.51c0 48.803 39.706 88.508 88.51 88.508 48.803 0 88.508-39.705 88.508-88.509C177.018 39.706 137.313 0 88.509 0M5.18 88.51c0-45.949 37.381-83.33 83.33-83.33 45.947 0 83.309 37.381 83.309 83.31s-37.38 83.311-83.31 83.311S5.181 134.439 5.181 88.509"/></g><defs><clipPath id="a"><path fill="#fff" d="M0 0h177v177H0z"/></clipPath></defs></svg>