<svg width="53" height="86" fill="none" xmlns="http://www.w3.org/2000/svg"><path d="M47.085 28.622H0l6.382 56.814h40.314L53 28.622h-5.915ZM25.372 41.775c6.615 4.436 13.308 0 13.152-1.401l-2.49 32.454H16.888l-2.49-32.765s2.802-3.814 11.051 1.712h-.078ZM10.195 9.788V2.083h4.203c7.627 0 12.92 2.724 12.92 12.92 0 5.68-4.593 7.86-7.317 7.86-7.47 0-9.806-6.149-9.806-13.075Z" fill="#323E48"/><path fill-rule="evenodd" clip-rule="evenodd" d="M52.507 4.177 36.94 35.307l-8.353-4.176L44.153 0l8.354 4.177Z" fill="#323E48"/></svg>